<?xml version="1.0" encoding="UTF-8" standalone="no"?>
<!-- Created with Inkscape (http://www.inkscape.org/) -->

<svg
   xmlns:dc="http://purl.org/dc/elements/1.1/"
   xmlns:cc="http://creativecommons.org/ns#"
   xmlns:rdf="http://www.w3.org/1999/02/22-rdf-syntax-ns#"
   xmlns:svg="http://www.w3.org/2000/svg"
   xmlns="http://www.w3.org/2000/svg"
   xmlns:sodipodi="http://sodipodi.sourceforge.net/DTD/sodipodi-0.dtd"
   xmlns:inkscape="http://www.inkscape.org/namespaces/inkscape"
   width="1169.2913"
   height="1062.9921"
   id="svg2"
   version="1.1"
   inkscape:version="0.48.4 r9939"
   sodipodi:docname="Zeichnung.pdf">
  <defs
     id="defs4">
    <inkscape:perspective
       sodipodi:type="inkscape:persp3d"
       inkscape:vp_x="0 : 526.18109 : 1"
       inkscape:vp_y="0 : 1000 : 0"
       inkscape:vp_z="744.09448 : 526.18109 : 1"
       inkscape:persp3d-origin="372.04724 : 350.78739 : 1"
       id="perspective2985" />
  </defs>
  <sodipodi:namedview
     id="base"
     pagecolor="#ffffff"
     bordercolor="#666666"
     borderopacity="1.0"
     inkscape:pageopacity="0.0"
     inkscape:pageshadow="2"
     inkscape:zoom="0.74224449"
     inkscape:cx="708.66138"
     inkscape:cy="554.96518"
     inkscape:document-units="px"
     inkscape:current-layer="layer1"
     showgrid="false"
     units="mm"
     inkscape:window-width="1366"
     inkscape:window-height="706"
     inkscape:window-x="-8"
     inkscape:window-y="-8"
     inkscape:window-maximized="1"
     inkscape:snap-global="true"
     showguides="true">
    <inkscape:grid
       type="xygrid"
       id="grid4063"
       empspacing="5"
       visible="true"
       enabled="true"
       snapvisiblegridlinesonly="true" />
  </sodipodi:namedview>
  <metadata
     id="metadata7">
    <rdf:RDF>
      <cc:Work
         rdf:about="">
        <dc:format>image/svg+xml</dc:format>
        <dc:type
           rdf:resource="http://purl.org/dc/dcmitype/StillImage" />
        <dc:title></dc:title>
      </cc:Work>
    </rdf:RDF>
  </metadata>
  <g
     inkscape:label="Ebene 1"
     inkscape:groupmode="layer"
     id="layer1"
     transform="translate(0,10.630171)">
    <path
       style="fill:none;stroke:#000000;stroke-width:0.03723761;stroke-miterlimit:4;stroke-opacity:1;stroke-dasharray:none"
       d="m 361.41694,754.56888 7.7e-4,289.64292 -286.472362,9e-4 c 0.528596,-2.785 28.866302,-29.426 61.904112,-41.6122 38.45408,-15.09792 123.23291,9.6878 161.2773,-13.20407 32.41375,-33.7883 28.26651,-85.21864 30.44407,-128.73871 -3.35408,-74.04208 -4.43758,-148.28947 -10.31223,-222.17279 -1.82659,-47.58463 -32.81441,-89.2882 -81.54546,-79.41076 -43.43448,6.2316 -108.26248,6.41836 -149.873859,-20.91588 -10.248127,-40.37726 84.742839,15.53272 106.128969,-4.37208 14.23475,-33.79965 -47.63546,-30.6181 -66.69365,-47.9889 -14.17312,-37.7702 48.23746,-21.17103 66.03682,3.54373 30.47845,15.42666 86.05589,71.84534 110.67588,25.49562 0.79736,-45.78182 -26.67499,-92.15593 -67.29225,-113.53308 -36.94245,-7.38842 -75.26122,0.74826 -112.54784,3.02141 C 85.022835,401.5703 40.029919,403.31017 7.4656574,383.87951 21.674954,341.89887 83.66037,407.49966 110.33902,376.24942 109.21137,336.10314 29.393204,339.82241 28.924929,291.64579 c 18.333264,-24.07777 51.0658,22.90604 72.038641,35.49385 13.57637,8.90704 89.08067,50.73884 72.48837,8.37495 -33.49927,-49.74349 -0.95662,-68.70651 25.71005,-21.34735 -4.05514,54.05849 86.92337,77.62147 69.079,8.7765 C 258.61737,266.55818 208.63838,226.5886 161.6703,199.68957 117.09888,176.68596 68.11152,161.9794 21.042968,146.88043 13.290773,110.34568 63.985975,129.75858 78.87686,144.71289 151.18499,189.96845 47.577801,55.989569 109.87078,78.318986 131.5669,123.47353 173.42229,181.30816 226.20386,202.6453 c 54.74754,11.19167 27.45289,-63.40188 -3.05426,-77.703 -14.96925,-36.425549 18.43966,-18.02568 26.63446,1.64208 12.90209,35.06835 33.30608,17.35743 31.98763,-11.85579 1.62147,-43.126299 -49.52771,-77.445564 -39.21276,-118.2951028 15.4025,-0.3938932 27.21812,18.3681738 37.53998,26.5497048 26.43259,32.548846 19.52096,79.475308 21.64041,119.726368 -10.13889,50.73635 -17.22716,102.72495 -7.58639,154.28939 0.37546,47.59067 20.59285,78.79986 35.46883,121.87483 5.64133,22.61658 15.52825,36.10269 31.7042,44.43216 4.41417,2.27299 10.14007,1.42886 14.89505,0 10.70677,-3.21733 20.27454,-8.72736 27.98381,-18.48737 11.00265,-9.38258 44.82465,-33.59475 41.97477,-66.10708 -12.76668,-51.03551 -66.40107,-66.05327 -54.78084,-109.84365 25.75688,-38.12908 41.4778,49.71245 88.2006,69.14834 33.41786,18.16746 18.94425,-72.28877 7.72732,-110.1486 -37.38476,-32.607 -84.98431,-72.84392 -103.30345,-127.6274 15.83577,-58.402511 43.35927,30.94688 59.26299,51.13953 45.3411,42.69398 33.09141,-21.31194 29.89423,-52.188303 -4.34294,-21.158116 3.4451,-71.524645 16.77355,-72.872149 26.82411,-1.466078 -1.48335,134.028422 23.64589,154.847702 43.99239,24.31536 38.59746,-63.09992 49.82056,-94.485014 23.33948,-18.183851 20.13467,41.216094 12.51262,56.158974 17.43908,51.95385 49.78811,-30.77391 75.9624,-6.14136 -6.33044,40.63527 -70.58644,38.12957 -95.01048,68.8358 -38.48484,34.7767 -34.41635,95.63844 -35.07472,145.09377 34.77052,28.1835 80.46172,-28.3512 78.35983,-63.87673 3.5166,-39.3873 35.62084,-11.52646 20.03332,14.05617 -7.48202,48.88448 32.58762,-19.27567 53.3346,3.4812 -2.82462,30.79032 -57.62361,41.57362 -79.05265,56.42701 -32.74551,24.84843 -84.21032,50.44732 -117.20819,83.80622 -34.92763,30.64963 -88.43501,64.36231 -78.06426,118.22942 19.33086,6.31164 26.12671,-59.28939 61.31509,-56.32318 58.73166,-2.76533 -9.48628,35.59237 -21.51626,53.3346 -30.26663,65.36858 91.66583,-44.013 147.95606,-22.10233 26.16237,33.31006 -51.75994,38.14251 -71.49596,50.87149 -37.95021,24.91712 -96.25739,54.7639 -110.11757,104.30463 -0.17508,67.71453 5.24058,120.02747 11.92147,187.9191 4.8906,42.06347 -2.72806,107.67071 49.87843,118.64854 36.49378,5.76093 161.10526,0.341 175.00293,44.80743 -64.89482,0 -205.21505,-10e-4 -270.10986,-10e-4 l 0,-289.64292 z"
       id="path2986"
       inkscape:connector-curvature="0"
       sodipodi:nodetypes="cccccccccccccccccccccccccccccccccccaacccccccccccccccccccccccccccccccc" />
    <path
       style="fill:none;stroke:#000000;stroke-width:0.03723761;stroke-miterlimit:4;stroke-opacity:1;stroke-dasharray:none"
       d="m 779.52756,291.18732 0,289.77435 c 14.53971,4.47909 30.74706,21.81619 36.38839,44.43276 14.87599,43.07498 35.09338,74.28417 35.46883,121.87483 9.64077,51.56445 2.55251,103.55305 -7.58639,154.2894 2.11945,40.25105 -4.79218,87.17752 21.64041,119.72634 10.32186,8.1816 22.13749,26.9436 37.53999,26.5497 10.31494,-40.8495 -40.83424,-75.16878 -39.21276,-118.29508 -1.31845,-29.21322 19.08554,-46.92413 31.98763,-11.85578 8.1948,19.66775 41.6037,38.06762 26.63446,1.64207 -30.50716,-14.30111 -57.80181,-88.89466 -3.05426,-77.703 52.78156,21.33714 94.63694,79.17177 116.33304,124.32632 62.293,22.32942 -41.31417,-111.64947 30.994,-66.3939 14.8908,14.95431 65.586,34.36721 57.8338,-2.16754 -47.0685,-15.09897 -96.0559,-29.80553 -140.62728,-52.80914 -46.96809,-26.89904 -96.94708,-66.86861 -106.57069,-123.25418 -17.84437,-68.84497 73.13413,-45.28198 69.07899,8.7765 26.66667,47.35917 59.20928,28.39615 25.71006,-21.34734 -16.59231,-42.3639 58.91202,-0.5321 72.48832,8.37495 20.9729,12.58781 53.7054,59.57161 72.0387,35.49385 -0.4683,-48.17662 -80.2865,-44.45735 -81.4141,-84.60363 26.6786,-31.25024 88.6641,34.35054 102.8734,-7.6301 -32.5643,-19.43065 -77.5572,-17.69079 -115.6816,-20.44548 -37.28661,2.27316 -75.60539,10.40983 -112.54784,3.02142 -40.61726,-21.37715 -68.08961,-67.75126 -67.29224,-113.53309 24.61998,-46.34971 80.19742,10.06897 110.67587,25.49563 17.79936,24.71476 80.20991,41.31393 66.03681,3.54373 -19.0582,-17.37081 -80.92839,-14.18926 -66.69364,-47.98891 21.38614,-19.9048 116.37714,36.00518 106.12894,-4.37208 -41.6113,-27.33423 -106.43934,-27.14747 -149.87383,-20.91588 -48.73104,9.87745 -79.71887,-31.82613 -81.54546,-79.41076 -5.87464,-73.88331 -6.95815,-148.1307 -10.31223,-222.17279 2.17757,-43.52006 -1.96968,-94.950405 30.44408,-128.738703 38.04439,-22.891885 122.82322,1.893847 161.27724,-13.204051 33.0379,-12.186174 61.3756,-38.8271937 61.9042,-41.61225848 -189.07061,0 -378.1412,0 -567.21178,0 C 517.27828,44.521942 641.88977,39.102042 678.38354,44.862947 c 52.6065,10.977828 44.98783,76.585073 49.87843,118.648543 6.68089,67.89162 12.09655,120.20457 11.92147,187.9191 -13.86018,49.54072 -72.16735,79.3875 -110.11757,104.30462 -19.73601,12.72898 -97.65832,17.56143 -71.49596,50.8715 56.29024,21.91066 178.22269,-87.47091 147.95606,-22.10234 -12.02997,17.74223 -80.24792,56.09994 -21.51626,53.33461 35.18839,2.9662 41.98423,-62.63483 61.31509,-56.32318 10.37075,53.86711 -43.13663,87.57979 -78.06426,118.22942 -32.99786,33.3589 -84.46268,58.95778 -117.20818,83.80621 -21.42905,14.85339 -76.22804,25.63669 -79.05266,56.42702 20.74698,22.75686 60.81663,-45.40328 53.33461,3.4812 -15.58753,25.58263 16.51671,53.44347 20.03332,14.05616 -2.10189,-35.52552 43.5893,-92.06022 78.35983,-63.87673 -0.65838,49.45534 3.41011,110.31707 -35.07473,145.09378 -24.42403,30.70623 -88.68003,28.20052 -95.01048,68.8358 26.17429,24.63254 58.52333,-58.09521 75.96241,-6.14137 -7.62206,14.94289 -10.82687,74.34283 12.51261,56.15898 11.2231,-31.3851 5.82818,-118.80037 49.82057,-94.48501 25.12923,20.81927 -3.17822,156.31374 23.64588,154.84774 13.32845,-1.3475 21.11649,-51.71407 16.77355,-72.87219 -3.19718,-30.87637 -15.44687,-94.88229 29.89423,-52.18831 15.90373,20.19265 43.42722,109.542 59.263,51.13953 -18.31914,-54.78347 -65.9187,-95.02039 -103.30346,-127.6274 -11.21692,-37.85982 -25.69054,-128.31606 7.72733,-110.14859 46.72279,19.43589 62.44371,107.27742 88.2006,69.14833 11.62023,-43.79038 -42.01417,-58.80813 -54.78084,-109.84364 -2.84989,-32.51234 30.97211,-56.7245 41.97476,-66.10709 7.70928,-9.76001 19.39466,-17.9094 27.41851,-18.4879 l 0.29247,-289.77435 z"
       id="path2986-0"
       inkscape:connector-curvature="0"
       sodipodi:nodetypes="ccccccccccccccccccccccccccccccccccccccccccccccccccccccccccccccccccc" />
  </g>
</svg>
