<?xml version="1.0" encoding="UTF-8" standalone="no"?>
<svg
   xmlns:dc="http://purl.org/dc/elements/1.1/"
   xmlns:cc="http://creativecommons.org/ns#"
   xmlns:rdf="http://www.w3.org/1999/02/22-rdf-syntax-ns#"
   xmlns:svg="http://www.w3.org/2000/svg"
   xmlns="http://www.w3.org/2000/svg"
   xmlns:sodipodi="http://sodipodi.sourceforge.net/DTD/sodipodi-0.dtd"
   xmlns:inkscape="http://www.inkscape.org/namespaces/inkscape"
   height="100%"
   width="100%"
   version="1.1"
   viewBox="0 0 1600 1300"
   id="svg4"
   sodipodi:docname="ad.svg"
   inkscape:version="0.92.2 5c3e80d, 2017-08-06">
  <metadata
     id="metadata10">
    <rdf:RDF>
      <cc:Work
         rdf:about="">
        <dc:format>image/svg+xml</dc:format>
        <dc:type
           rdf:resource="http://purl.org/dc/dcmitype/StillImage" />
        <dc:title></dc:title>
      </cc:Work>
    </rdf:RDF>
  </metadata>
  <defs
     id="defs8">
    <inkscape:path-effect
       effect="bspline"
       id="path-effect3707"
       is_visible="true"
       weight="33.333333"
       steps="2"
       helper_size="0"
       apply_no_weight="true"
       apply_with_weight="true"
       only_selected="false" />
    <inkscape:path-effect
       effect="bspline"
       id="path-effect3703"
       is_visible="true"
       weight="33.333333"
       steps="2"
       helper_size="0"
       apply_no_weight="true"
       apply_with_weight="true"
       only_selected="false" />
    <inkscape:path-effect
       effect="bspline"
       id="path-effect3707-5"
       is_visible="true"
       weight="33.333333"
       steps="2"
       helper_size="0"
       apply_no_weight="true"
       apply_with_weight="true"
       only_selected="false" />
  </defs>
  <sodipodi:namedview
     pagecolor="#ffffff"
     bordercolor="#666666"
     borderopacity="1"
     objecttolerance="10"
     gridtolerance="10"
     guidetolerance="10"
     inkscape:pageopacity="0"
     inkscape:pageshadow="2"
     inkscape:window-width="1920"
     inkscape:window-height="1021"
     id="namedview6"
     showgrid="false"
     inkscape:zoom="0.36307692"
     inkscape:cx="35.757676"
     inkscape:cy="650"
     inkscape:window-x="0"
     inkscape:window-y="0"
     inkscape:window-maximized="1"
     inkscape:current-layer="svg4" />
  <path
     d="M 976.57869,788.70904 C 986.4752,650.15785 893.80784,552.09239 804.73922,552.09239 c -62.97781,-0.89968 -107.96197,-5.3981 -179.03693,1.79937 0,216.82362 -5.3981,385.06435 -15.29461,470.53424 85.46989,0 136.75183,8.9968 181.73598,0 98.06545,-35.98732 176.33788,-114.25975 184.43503,-235.71696 z M 794.84271,1105.3974 c -140.35056,-8.9968 -206.02742,8.9969 -303.1932,26.9905 82.77085,-288.7982 58.4794,-543.4085 -0.89968,-655.86889 126.85531,28.78986 281.6008,20.69271 412.05485,47.68321 175.43822,36.887 202.42872,327.48463 130.45402,455.23963 -44.98413,71.97465 -150.24705,125.95555 -238.41599,125.95555 z M 488.95047,349.6637 981.0771,338.86751 959.48471,267.79254 c -183.53535,-8.99683 -307.69161,-9.89651 -448.94185,4.49842 z m 697.25443,692.756 C 1141.2207,819.29826 1060.2492,530.5 997.2714,395.54754 L 476.3549,408.1431 c -73.77401,255.50999 -129.55436,502.02315 -180.83629,697.2543 -8.09715,35.9874 44.98415,62.9779 80.07179,98.9652 -52.18162,-17.9937 -139.45088,-44.9842 -258.20904,-8.9968 57.39978,-44.9842 106.1626,-62.9779 116.05912,-89.9684 C 337.80371,703.23915 381.88818,530.5 464.65902,275.88969 204.65062,313.67638 183.9579,409.04278 124.57882,474.71965 207.34967,330.77036 234.34016,213.81156 167.31377,89.655298 322.05926,219.20966 563.17432,197.61726 725.11727,194.01853 c 262.70745,-5.3981 559.60293,-31.4889 640.57443,-106.162598 -98.9652,154.745488 -71.9747,172.739148 -62.9779,251.911258 -62.9778,-67.47623 -251.9113,-72.87433 -251.9113,-72.87433 152.9462,394.06118 215.924,638.77498 260.9082,802.51724 17.9936,71.9747 89.9683,98.9652 188.9334,161.943 -107.962,-26.9905 -215.9239,-98.9652 -323.8859,-8.9969 44.9842,-26.9904 17.9937,-134.9524 8.9968,-179.9365 z"
     id="path2"
     inkscape:connector-curvature="0"
     style="stroke-width:0.89968306" />
  <path
     style="fill:none;fill-rule:evenodd;stroke:#000000;stroke-width:1px;stroke-linecap:butt;stroke-linejoin:miter;stroke-opacity:1"
     d="m 1213.9724,1255.3195 c 97.77,22.3973 206.2895,18.0565 256.3284,8.875 50.0389,-9.1816 58.3016,-23.8708 46.8252,-47.2812 -11.4763,-23.4105 -42.691,-55.5433 -67.9382,-80.7904 -25.2471,-25.2472 -44.5267,-43.6087 -85.3813,-153.3195 -40.8547,-109.71081 -103.2829,-310.76615 -137.2524,-432.87278 -33.9695,-122.10662 -39.4926,-165.3714 -30.3043,-177.70744 9.1882,-12.33605 33.0572,6.02472 58.7645,8.77903 25.7072,2.75432 53.2492,-10.09862 81.7095,-57.83914 28.4603,-47.74053 57.8375,-130.36395 73.4453,-183.61432 15.6078,-53.250381 17.444,-77.120543 -94.5612,-89.973061 C 1203.6027,36.723171 977.75523,34.887013 864.83101,33.96893 751.90678,33.050847 702.17611,34.293895 613.12214,32.916772 524.06816,31.539649 345.96049,28.785406 249.104,41.637776 152.24751,54.490145 136.64059,82.949826 128.37726,138.49578 c -8.26334,55.54595 -9.18138,138.16937 -14.68955,213.45061 -5.50818,75.28124 -15.606923,143.21818 22.03692,137.25039 37.64385,-5.96778 123.0157,-85.83176 169.38061,-105.57144 46.3649,-19.73967 53.70898,20.65273 24.78908,145.97316 -28.9199,125.32043 -94.09821,335.54337 -134.9549,451.68722 -40.85668,116.14388 -57.38064,138.17588 -75.28358,156.53808 -17.90294,18.3623 -37.183097,33.0519 -40.39675,47.2818 -3.213652,14.2298 9.639373,28.001 51.41493,38.1005 41.77557,10.0995 112.45902,16.5253 227.9814,-3.723 115.52239,-20.2484 173.31296,-37.1598 425.47553,-27.7154 252.16255,9.4444 332.07145,41.1546 429.84145,63.5518 z"
     id="path3705"
     inkscape:connector-curvature="0"
     inkscape:path-effect="#path-effect3707"
     inkscape:original-d="m 1236.6526,1280.7204 c 75.0898,-3.0046 183.6093,-7.3454 275.4237,-11.017 8.2637,-14.6903 16.5264,-29.3795 24.7881,-44.0678 -31.2137,-32.1338 -62.4284,-64.2666 -93.6441,-96.3983 -19.2786,-18.3626 -38.5582,-36.7241 -57.8389,-55.0848 -62.4284,-201.06028 -124.8566,-402.11561 -187.2882,-603.17792 -5.5075,-43.15072 -11.934,-86.30018 -16.5254,-129.44916 23.8711,18.36059 47.7401,36.72136 71.6102,55.08475 27.5433,-12.85411 55.0853,-25.70703 82.6271,-38.55932 29.3795,-82.62812 58.7567,-165.25154 88.1356,-247.88136 1.8371,-23.871056 3.6733,-47.741216 5.5085,-71.610169 -225.8465,-1.837158 -451.69396,-3.673316 -677.54242,-5.508474 l -49.73067,1.243048 C 524.06818,31.538633 345.96051,28.784391 167.85403,26.031183 152.24785,54.490332 136.64094,82.950016 121.03202,111.41253 120.11491,194.04174 119.19687,276.66516 118.27779,359.2939 108.18036,427.22775 98.08162,495.16469 87.981161,563.10746 173.36845,483.22897 258.7403,403.36498 344.12525,323.48881 c 7.34603,40.39665 14.69011,80.78905 22.03392,121.18645 -65.18412,210.24386 -130.36244,420.4668 -195.5509,630.72024 -16.52537,22.0342 -33.0493,44.0662 -49.57619,66.1017 -19.27925,14.6888 -38.559434,29.3784 -57.839018,44.0678 12.85337,13.7695 25.706421,27.5406 38.559288,41.3136 70.69733,6.426 141.38079,12.8517 212.07628,19.2797 160.34899,-46.9242 218.13955,-63.8357 481.01408,-140.7609 241.45129,95.8135 321.36019,127.5237 441.80989,175.323 z"
     sodipodi:nodetypes="cccccccccccccccccccccccccc" />
</svg>
