<?xml version="1.0" encoding="UTF-8" standalone="no"?>
<svg
   xmlns:dc="http://purl.org/dc/elements/1.1/"
   xmlns:cc="http://creativecommons.org/ns#"
   xmlns:rdf="http://www.w3.org/1999/02/22-rdf-syntax-ns#"
   xmlns:svg="http://www.w3.org/2000/svg"
   xmlns="http://www.w3.org/2000/svg"
   xmlns:sodipodi="http://sodipodi.sourceforge.net/DTD/sodipodi-0.dtd"
   xmlns:inkscape="http://www.inkscape.org/namespaces/inkscape"
   height="100%"
   width="100%"
   version="1.1"
   viewBox="0 0 1600 1300"
   id="svg4"
   sodipodi:docname="ad.svg"
   inkscape:version="0.92.2 5c3e80d, 2017-08-06">
  <metadata
     id="metadata10">
    <rdf:RDF>
      <cc:Work
         rdf:about="">
        <dc:format>image/svg+xml</dc:format>
        <dc:type
           rdf:resource="http://purl.org/dc/dcmitype/StillImage" />
        <dc:title />
      </cc:Work>
    </rdf:RDF>
  </metadata>
  <defs
     id="defs8">
    <inkscape:path-effect
       effect="bspline"
       id="path-effect3707"
       is_visible="true"
       weight="33.333333"
       steps="2"
       helper_size="0"
       apply_no_weight="true"
       apply_with_weight="true"
       only_selected="false" />
    <inkscape:path-effect
       effect="bspline"
       id="path-effect3703"
       is_visible="true"
       weight="33.333333"
       steps="2"
       helper_size="0"
       apply_no_weight="true"
       apply_with_weight="true"
       only_selected="false" />
    <inkscape:path-effect
       effect="bspline"
       id="path-effect3707-5"
       is_visible="true"
       weight="33.333333"
       steps="2"
       helper_size="0"
       apply_no_weight="true"
       apply_with_weight="true"
       only_selected="false" />
    <inkscape:path-effect
       effect="bspline"
       id="path-effect3707-3"
       is_visible="true"
       weight="33.333333"
       steps="2"
       helper_size="0"
       apply_no_weight="true"
       apply_with_weight="true"
       only_selected="false" />
  </defs>
  <sodipodi:namedview
     pagecolor="#ffffff"
     bordercolor="#666666"
     borderopacity="1"
     objecttolerance="10"
     gridtolerance="10"
     guidetolerance="10"
     inkscape:pageopacity="0"
     inkscape:pageshadow="2"
     inkscape:window-width="1920"
     inkscape:window-height="1021"
     id="namedview6"
     showgrid="false"
     inkscape:zoom="0.72615383"
     inkscape:cx="438.14387"
     inkscape:cy="650"
     inkscape:window-x="0"
     inkscape:window-y="0"
     inkscape:window-maximized="1"
     inkscape:current-layer="svg4" />
  <path
     style="fill:none;fill-rule:evenodd;stroke:#000000;stroke-width:17.00787402;stroke-linecap:butt;stroke-linejoin:miter;stroke-miterlimit:4;stroke-dasharray:none;stroke-opacity:1"
     d="m 1186.1597,1185.0319 c 84.4438,30.9436 179.8302,37.7631 224.0199,33.8244 44.1897,-3.9388 51.8656,-17.5848 45.7946,-42.5461 -6.071,-24.9613 -25.888,-61.2385 -49.3417,-84.6923 -23.4538,-23.4538 -50.5448,-34.0847 -93.0886,-132.79061 -42.5438,-98.70587 -100.5383,-285.48211 -132.0953,-398.91664 -31.5569,-113.43454 -36.6878,-153.62663 -25.8569,-163.25041 10.8309,-9.62378 37.5949,11.10514 61.477,13.66342 23.8821,2.55828 44.8767,-13.05335 69.0205,-59.23936 24.1438,-46.18601 51.4346,-122.94144 63.6387,-175.62311 12.2041,-52.68167 9.3194,-81.283108 -93.8129,-89.550655 -103.1323,-8.267548 -306.51346,3.797891 -416.82182,10.482099 -110.30836,6.684206 -127.54396,7.987196 -217.51465,2.309973 -89.97069,-5.677228 -252.67417,-18.334706 -342.6521,-10.526476 -89.97793,7.80823 -107.2306,36.082809 -116.28426,88.601939 -9.05366,52.51914 -9.9065,129.27459 -15.02349,199.20931 -5.11698,69.93472 -14.4985,133.04672 20.4719,135.30696 34.9704,2.26024 114.27903,-56.32611 157.35103,-74.66387 43.07199,-18.33776 49.89448,3.57979 23.02853,108.06451 -26.86595,104.48471 -87.41481,291.51404 -125.82915,396.19652 -38.41434,104.6825 -54.68252,126.9854 -71.31419,148.1751 -16.63167,21.1897 -33.62444,41.2628 -36.15072,57.6952 -2.52628,16.4325 9.41393,29.2256 52.81329,33.558 43.39936,4.3325 118.24251,0.2042 233.36462,-31.0009 115.1221,-31.2052 171.12446,-52.2099 401.61526,-42.6836 230.49085,9.5264 298.74655,47.4529 383.19045,78.3966 z"
     id="stechrahmen-6"
     inkscape:connector-curvature="0"
     inkscape:original-d="m 1204.6011,1211.2568 c 66.0025,4.7177 161.3889,11.5371 242.0917,17.3079 7.6768,-13.647 15.3527,-27.293 23.0277,-40.9381 -19.8161,-36.2783 -39.6331,-72.5555 -59.4511,-108.8317 -27.0902,-10.632 -54.1812,-21.2629 -81.2735,-31.893 -57.9947,-186.78082 -115.9892,-373.55706 -173.9869,-560.33979 -5.1163,-40.08613 -11.0864,-80.17109 -15.3517,-120.2556 26.7662,20.72883 53.5302,41.45775 80.2956,62.18955 20.9978,-15.6143 41.9924,-31.2259 62.9876,-46.83776 27.293,-76.75982 54.5838,-153.51527 81.8762,-230.27665 -2.8836,-28.60224 -5.7683,-57.203674 -8.6539,-85.804044 -203.3802,12.06445 -406.76132,24.12988 -610.14332,36.196314 -17.23473,1.302 -34.47033,2.60499 -51.70723,3.90901 C 531.60792,93.024296 368.90444,80.366826 206.20079,67.710416 c -17.252,28.27412 -34.50467,56.548694 -51.75939,84.825984 -0.85198,76.76082 -1.70482,153.51627 -2.55862,230.27666 -9.38031,63.10915 -18.76183,126.22116 -28.14495,189.33859 79.32303,-58.59724 158.63166,-117.18359 237.95257,-175.77875 6.82439,21.91944 13.64689,43.83699 20.46905,65.75768 -60.55466,187.04931 -121.10352,374.07863 -181.66274,561.13792 -16.2699,22.3056 -32.53807,44.6085 -48.8095,66.9155 -16.99196,20.0724 -33.98475,40.1455 -50.97701,60.2178 11.94052,12.7916 23.88074,25.5847 35.82078,38.3795 74.8577,-4.13 149.70085,-8.2582 224.55685,-12.3862 155.38806,-58.2819 211.3904,-79.2867 466.1318,-174.8317 206.24107,114.5971 274.49687,152.5236 377.38147,209.6934 z"
     sodipodi:nodetypes="cccccccccccccccccccccccccc"
     inkscape:label="#stehrahmen"
     inkscape:path-effect="#path-effect3707-3" />
  <path
     d="m 939.51851,751.34542 c 8.76463,-122.70431 -73.30386,-209.55346 -152.1852,-209.55346 -55.77468,-0.79679 -95.61375,-4.7807 -158.55946,1.59356 0,192.02428 -4.7807,341.02237 -13.54529,416.71652 75.69422,0 121.11075,7.96785 160.94982,0 86.84915,-31.87123 156.16908,-101.19115 163.34013,-208.75662 z M 778.56872,1031.8123 c -124.29788,-7.9678 -182.4629,7.9679 -268.51528,23.9035 73.30387,-255.76673 51.79078,-481.25582 -0.79679,-580.85347 112.34616,25.49699 249.39253,18.32597 364.92582,42.2294 155.37243,32.66803 179.27583,290.02838 115.53327,403.17134 -39.83901,63.7424 -133.06246,111.54923 -211.14702,111.54923 z M 507.6631,362.51617 943.50247,352.9548 924.37969,290.00908 c -162.54338,-7.96782 -272.49919,-8.76459 -397.59384,3.98391 z m 617.5055,613.52156 C 1085.3296,778.43598 1013.6192,522.6692 957.84447,403.15202 l -461.33631,11.15493 c -65.33606,226.28588 -114.7365,444.60394 -160.15303,617.50535 -7.17103,31.8713 39.83906,55.7747 70.91353,87.646 -46.21331,-15.9357 -123.5011,-39.8391 -228.67622,-7.9677 50.83464,-39.8392 94.02018,-55.7748 102.78478,-79.6783 C 373.80385,675.6512 412.84613,522.6692 486.15,297.18011 255.88022,330.64492 237.55425,415.10373 184.96668,473.26877 258.27057,345.78376 282.17401,242.20221 222.8138,132.2464 c 137.04638,114.73649 350.58375,95.61374 494.00437,92.42661 232.66016,-4.78068 495.59803,-27.88734 567.30843,-94.02018 -87.6461,137.04638 -63.7426,152.982 -55.7748,223.09875 -55.7747,-59.75859 -223.0989,-64.53928 -223.0989,-64.53928 135.453,348.99018 191.2276,565.71469 231.0667,710.72876 15.9356,63.74254 79.6781,87.64594 167.3241,143.42064 -95.6138,-23.9034 -191.2275,-87.6459 -286.8412,-7.9678 39.839,-23.9033 15.9355,-119.5172 7.9677,-159.35617 z"
     id="buchstaben"
     inkscape:connector-curvature="0"
     style="stroke-width:0.79678124" />
  <path
     style="fill:none;fill-rule:evenodd;stroke:#000000;stroke-width:3.77952766;stroke-linecap:butt;stroke-linejoin:miter;stroke-miterlimit:4;stroke-dasharray:none;stroke-opacity:1"
     d="m 1186.1597,1185.0319 c 84.4438,30.9436 179.8302,37.7631 224.0199,33.8244 44.1897,-3.9388 51.8656,-17.5848 45.7946,-42.5461 -6.071,-24.9613 -25.888,-61.2385 -49.3417,-84.6923 -23.4538,-23.4538 -50.5448,-34.0847 -93.0886,-132.79059 -42.5438,-98.70586 -100.5383,-285.4821 -132.0953,-398.91663 -31.5569,-113.43454 -36.6878,-153.62663 -25.8569,-163.25041 10.8309,-9.62378 37.5949,11.10514 61.477,13.66342 23.8821,2.55828 44.8767,-13.05335 69.0205,-59.23936 24.1438,-46.18601 51.4346,-122.94145 63.6387,-175.62312 12.2041,-52.68167 9.3194,-81.2831 -93.8129,-89.550646 C 1152.7827,77.643017 949.4016,89.708449 839.09324,96.392655 728.78488,103.07686 711.54928,104.37985 621.57859,98.702628 531.6079,93.025402 368.90442,80.367927 278.92649,88.176159 188.94856,95.984391 171.6959,124.25896 162.64223,176.7781 c -9.05366,52.51914 -9.9065,129.27459 -15.02349,199.20931 -5.11698,69.93472 -14.4985,133.04672 20.4719,135.30696 34.9704,2.26024 114.27903,-56.32611 157.35103,-74.66387 43.07199,-18.33776 49.89448,3.57979 23.02853,108.06451 -26.86596,104.48471 -87.41482,291.51403 -125.82915,396.1965 -38.41434,104.68249 -54.68252,126.98539 -71.31419,148.17509 -16.63167,21.1897 -33.62444,41.2628 -36.15072,57.6952 -2.52628,16.4325 9.41393,29.2256 52.81329,33.558 43.39936,4.3325 118.24251,0.2042 233.36462,-31.0009 115.1221,-31.2052 171.12446,-52.2099 401.61524,-42.6836 230.49081,9.5263 298.74651,47.4529 383.19041,78.3966 z"
     id="stechrahmen"
     inkscape:connector-curvature="0"
     inkscape:path-effect="#path-effect3707"
     inkscape:original-d="m 1204.6011,1211.2568 c 66.0025,4.7177 161.3889,11.5371 242.0917,17.3079 7.6768,-13.647 15.3527,-27.293 23.0277,-40.9381 -19.8161,-36.2783 -39.6331,-72.5555 -59.4511,-108.8317 -27.0902,-10.632 -54.1812,-21.2629 -81.2735,-31.893 -57.9947,-186.78079 -115.9892,-373.55703 -173.9869,-560.33976 -5.1163,-40.08613 -11.0864,-80.17109 -15.3517,-120.2556 26.7662,20.72883 53.5302,41.45775 80.2956,62.18955 20.9978,-15.6143 41.9924,-31.2259 62.9876,-46.83776 27.293,-76.75982 54.5838,-153.51527 81.8762,-230.27666 -2.8836,-28.60224 -5.7683,-57.203666 -8.6539,-85.804031 -203.3802,12.064443 -406.76126,24.129873 -610.14326,36.196301 -17.23473,1.302 -34.47033,2.60499 -51.70723,3.90901 C 531.60798,93.024328 368.9045,80.366854 206.20085,67.710445 c -17.252,28.274122 -34.50467,56.548685 -51.75939,84.825975 -0.85198,76.76083 -1.70482,153.51628 -2.55862,230.27667 -9.38031,63.10915 -18.76183,126.22116 -28.14495,189.33859 79.32303,-58.59724 158.63166,-117.18359 237.95257,-175.77875 6.82439,21.91944 13.64689,43.83699 20.46905,65.75768 -60.55466,187.04931 -121.10352,374.07863 -181.66274,561.13789 -16.2699,22.3056 -32.53807,44.6085 -48.8095,66.9155 -16.99196,20.0724 -33.98475,40.1455 -50.97701,60.2178 11.94052,12.7916 23.88074,25.5847 35.82078,38.3795 74.8577,-4.13 149.70085,-8.2582 224.55685,-12.3862 155.38806,-58.2819 211.3904,-79.2867 466.1318,-174.8317 206.24101,114.5971 274.49681,152.5236 377.38141,209.6934 z"
     sodipodi:nodetypes="cccccccccccccccccccccccccc"
     inkscape:label="#stehrahmen" />
  <path
     style="fill:#000000;fill-opacity:1;fill-rule:evenodd;stroke:#000000;stroke-width:1px;stroke-linecap:butt;stroke-linejoin:miter;stroke-opacity:1"
     d="M 168.00848,150.10593 1341.3135,216.20762 1298.6229,315.36016 150.10593,242.37288 Z"
     id="path819"
     inkscape:connector-curvature="0"
     sodipodi:nodetypes="ccccc" />
  <path
     style="fill:#000000;fill-opacity:1;fill-rule:evenodd;stroke:#000000;stroke-width:1px;stroke-linecap:butt;stroke-linejoin:miter;stroke-opacity:1"
     d="M 145.89878,333.26489 1151.1954,393.8581 1158.081,470.97676 141.76742,421.40049 Z"
     id="path819-4"
     inkscape:connector-curvature="0"
     sodipodi:nodetypes="ccccc" />
  <path
     style="fill:#000000;fill-opacity:1;fill-rule:evenodd;stroke:#000000;stroke-width:1px;stroke-linecap:butt;stroke-linejoin:miter;stroke-opacity:1"
     d="m 348.98144,531.56779 838.09486,55.08475 35.8051,99.15254 -898.21554,-63.6816 z"
     id="path836"
     inkscape:connector-curvature="0"
     sodipodi:nodetypes="ccccc" />
  <path
     style="fill:#000000;fill-rule:evenodd;stroke:#000000;stroke-width:1px;stroke-linecap:butt;stroke-linejoin:miter;stroke-opacity:1;fill-opacity:1"
     d="m 301.86868,707.94788 942.60932,72.05897 31.1606,79.84914 -999.08794,-83.74422 z"
     id="path840"
     inkscape:connector-curvature="0" />
  <path
     style="fill:#000000;fill-opacity:1;fill-rule:evenodd;stroke:#000000;stroke-width:1px;stroke-linecap:butt;stroke-linejoin:miter;stroke-opacity:1"
     d="m 243.44249,875.43631 1069.19941,83.74421 44.7934,83.74418 -1143.54006,-89.15479 z"
     id="path842"
     inkscape:connector-curvature="0"
     sodipodi:nodetypes="ccccc" />
</svg>
