<?xml version="1.0" encoding="UTF-8" standalone="no"?>
<!-- Generator: Adobe Illustrator 17.1.0, SVG Export Plug-In . SVG Version: 6.00 Build 0)  -->

<svg
   xmlns:dc="http://purl.org/dc/elements/1.1/"
   xmlns:cc="http://creativecommons.org/ns#"
   xmlns:rdf="http://www.w3.org/1999/02/22-rdf-syntax-ns#"
   xmlns:svg="http://www.w3.org/2000/svg"
   xmlns="http://www.w3.org/2000/svg"
   xmlns:sodipodi="http://sodipodi.sourceforge.net/DTD/sodipodi-0.dtd"
   xmlns:inkscape="http://www.inkscape.org/namespaces/inkscape"
   height="100%"
   width="100%"
   xml:space="preserve"
   enable-background="new 0 0 400 300"
   viewBox="0 0 400 300"
   y="0px"
   x="0px"
   sodipodi:version="0.32"
   inkscape:output_extension="org.inkscape.output.svg.inkscape"
   sodipodi:docname="OpenSUSE_Logo.svg"
   inkscape:version="0.48.4 r9939"
   id="svg4578"
   version="1.1"><sodipodi:namedview
     width="400px"
     height="300px"
     id="base"
     bordercolor="#d6d6d6"
     objecttolerance="10"
     pagecolor="#ffffff"
     borderlayer="true"
     guidetolerance="10"
     inkscape:cy="225.52116"
     borderopacity="1"
     inkscape:cx="210.90624"
     gridtolerance="10000"
     inkscape:zoom="4.1407643"
     inkscape:window-width="1287"
     inkscape:pageshadow="2"
     inkscape:pageopacity="0.0"
     inkscape:window-y="-3"
     inkscape:window-height="748"
     inkscape:current-layer="layer1"
     inkscape:document-units="px"
     inkscape:showpageshadow="false"
     inkscape:window-x="-3"
     showgrid="false"
     inkscape:window-maximized="1"
     inkscape:object-paths="true" /><metadata
     id="metadata14"><rdf:RDF><cc:Work
         rdf:about=""><dc:format>image/svg+xml</dc:format><dc:type
           rdf:resource="http://purl.org/dc/dcmitype/StillImage" /></cc:Work></rdf:RDF></metadata><defs
     id="defs12"><marker
       style="overflow:visible"
       id="Arrow1Lstart"
       refX="0.0"
       refY="0.0"
       orient="auto"
       inkscape:stockid="Arrow1Lstart"><path
         transform="scale(0.8) translate(12.5,0)"
         style="fill-rule:evenodd;stroke:#000000;stroke-width:1.0pt"
         d="M 0.0,0.0 L 5.0,-5.0 L -12.5,0.0 L 5.0,5.0 L 0.0,0.0 z "
         id="path3776" /></marker></defs><g
     id="layer1"
     inkscape:label="Layer 1"
     inkscape:groupmode="layer"><path
       inkscape:connector-curvature="0"
       id="rand"
       d="m 204.6875,9.90625 c -39.93765,0.291016 -79.8557,18.891876 -104.66019,50.368069 -13.188956,18.029266 -16.773117,45.696571 -0.871446,63.262211 14.850806,17.11897 43.729546,21.52359 61.277276,5.97719 6.13274,-12.26868 5.33641,-9.43834 9.76273,-17.33428 13.75308,-5.76069 21.4574,10.48613 26.12984,-0.3305 -0.78918,-8.78747 -2.05533,-22.238089 10.21781,-22.940538 12.5678,-1.48004 23.26528,7.9977 29.64317,17.830868 8.36982,5.59871 21.40995,17.57929 31.19193,11.29247 2.44548,-10.58167 -12.07373,-17.9216 -7.45147,-28.56357 5.24034,-7.63067 15.45435,-0.425501 23.05409,-1.846386 14.50756,0.58913 29.75155,-1.90042 42.20045,-9.64397 10.54926,-7.556672 8.83696,-22.463649 5.24895,-33.274675 -3.52897,-9.911512 -9.87209,-19.773164 -20.62903,-22.769037 -12.94445,-3.916851 -26.09004,-7.942615 -39.58634,-9.243573 -7.7809,-0.458071 -11.06472,7.718085 -18.79745,2.593581 -15.27786,-3.682915 -31.0026,-5.6745363 -46.73032,-5.37786 z m 2.375,10.78125 c 20.85256,-0.329251 41.33363,4.589234 61.21875,10.40625 2.49711,-4.229707 1.71145,-9.512416 8.25424,-5.805061 7.39735,5.902998 26.62651,8.854209 29.30199,17.36809 4.28564,21.981297 -8.17257,33.153932 -19.4004,33.815934 -11.39087,0.922408 -6.69645,0.651928 -18.07276,-0.782765 -13.12307,-3.863458 -23.6687,9.638389 -19.63445,21.858806 3.3027,13.055836 -9.86175,-4.987941 -12.89793,-8.153222 -11.43355,-11.638606 -31.70692,-16.006911 -45.0386,-5.022305 -5.39416,3.37931 -38.45218,33.949643 -43.43018,33.792223 -6.48001,-8.72204 -4.51049,2.26759 -7.83295,-16.03104 -6.21613,-3.558145 4.30382,-36.951862 -0.0366,-37.219942 -11.76293,-0.726516 -8.95049,9.121499 -8.5019,20.017229 -0.37995,11.110799 2.03495,28.582943 3.26594,39.917603 0.76986,5.92308 -10.39168,3.06922 -21.38501,-4.4191 -8.20525,-5.58917 -13.684512,-15.36461 -13.381905,-17.3463 -5.032972,-19.751065 7.035875,-37.255639 21.588745,-50.001848 18.96962,-16.418958 42.74408,-27.559284 67.57116,-31.311186 6.09393,-0.861894 12.25847,-1.239435 18.41187,-1.083366 z"
       style="font-size:medium;font-style:normal;font-variant:normal;font-weight:normal;font-stretch:normal;text-indent:0;text-align:start;text-decoration:none;line-height:normal;letter-spacing:normal;word-spacing:normal;text-transform:none;direction:ltr;block-progression:tb;writing-mode:lr-tb;text-anchor:start;baseline-shift:baseline;color:#000000;fill:#000000;fill-opacity:1;stroke:#000000;stroke-width:0;stroke-linejoin:round;stroke-miterlimit:4;stroke-opacity:1;stroke-dasharray:none;marker:none;visibility:visible;display:inline;overflow:visible;enable-background:accumulate;font-family:Sans;-inkscape-font-specification:Sans"
       sodipodi:nodetypes="ccccccccccccccccccccccccccccsccsccccc" /><path
       style="font-size:medium;font-style:normal;font-variant:normal;font-weight:normal;font-stretch:normal;text-indent:0;text-align:start;text-decoration:none;line-height:normal;letter-spacing:normal;word-spacing:normal;text-transform:none;direction:ltr;block-progression:tb;writing-mode:lr-tb;text-anchor:start;baseline-shift:baseline;color:#000000;fill:#73ba25;fill-opacity:1;stroke:none;stroke-width:2.83459997;marker:none;visibility:visible;display:inline;overflow:visible;enable-background:accumulate;font-family:Sans;-inkscape-font-specification:Sans"
       d="m 200.71875,13.59375 c -17.40035,0.546396 -39.48912,4.390735 -67.53125,21.625 l -1.09375,0.6875 c -17.65313,11.014753 -29.9418,24.660762 -36.375,40.59375 -2.087441,5.183743 -4.836402,16.403488 -2.09375,27.28125 1.188899,4.74832 3.389573,9.48226 6.34375,13.71875 6.69982,9.62806 17.86974,15.95828 29.9375,17.03125 16.92771,1.51212 30.18768,-6.29044 34.8125,-20.71875 3.25126,-10.1882 0.005,-24.825703 -12.28125,-32.34375 -9.96543,-6.109167 -20.73352,-4.805623 -27.15625,-0.5625 -5.50075,3.649702 -8.68671,9.41533 -8.625,15.71875 l 0,0.03125 c 0.0615,5.56103 2.51555,9.92133 5.8125,12.8125 3.29695,2.89117 7.37119,4.36993 10.96875,4.375 2.01323,0 4.04372,-0.34698 6.25,-1.0625 0.008,-0.003 0.023,0.003 0.0312,0 0.80177,-0.2482 1.64249,-0.57296 2.53125,-1.125 l 0.0312,-0.0312 0.125,-0.0937 0.0625,-0.0312 0.0625,-0.0312 0.0937,-0.0312 0,-0.0312 c 1.84183,-1.23461 2.96875,-3.28738 2.96875,-5.5 0,-0.62151 -0.0935,-1.23217 -0.25,-1.8125 l 0,-0.0312 c -0.94807,-3.28856 -4.25647,-5.303848 -7.625,-4.6875 l -0.0312,0 -0.34375,0.0625 -0.0937,0.03125 -0.0937,0.03125 -0.46875,0.15625 -0.625,0.1875 -0.0937,0.03125 c -1.19268,0.28344 -2.00623,0.33352 -2.3125,0.34375 0.0407,2.7e-4 -0.23783,-0.0628 -0.5625,-0.1875 -0.34099,-0.131009 -0.74903,-0.333792 -1.125,-0.625 -0.75194,-0.582417 -1.375,-1.383077 -1.375,-2.96875 l 0,-0.03125 c 0.007,-1.101682 0.42692,-1.817768 0.75,-2.375 0.75149,-1.153808 3.39626,-2.832781 7.15625,-2.5 5.13065,0.437025 8.57083,2.892187 11.0625,7.9375 2.21471,4.48779 1.60421,10.04585 -1.53125,14.125 -3.07482,3.97661 -8.60792,5.79682 -16.5,4.9375 C 123.73188,117.67443 117.19543,113.2452 113.5,106.25 c -3.61435,-6.828585 -3.76888,-14.92089 -0.53125,-21.03125 4.00274,-7.552166 9.63897,-11.187451 15.40625,-12.84375 5.76728,-1.656299 11.65424,-1.255585 15.84375,-0.53125 12.22228,2.112457 23.52845,11.996715 28.53125,25.1875 0.79389,2.090097 1.1982,3.72478 1.5625,5.28125 l 0.53125,2.375 0.15625,0.65625 0.625,0.28125 14.40625,7.03125 0.0312,0.0312 0.0312,0.0312 L 190.5,113 l 0.53125,-0.0312 0.34375,-0.0312 1.125,-0.125 0.15625,-1.09375 0.0625,-0.40625 0.0312,-0.3125 -0.0937,-0.28125 c -0.0918,-0.33359 -0.0945,-0.23261 -0.1875,-0.78125 -0.093,-0.54864 -0.21326,-1.62125 -0.375,-3.625 -0.13698,-1.76646 -0.32831,-5.0259 0.0937,-8.375 0.42206,-3.349098 1.47819,-6.696898 3.59375,-8.78125 1.70594,-1.690837 4.56341,-3.323068 6.5,-3.78125 9.05956,-2.208506 20.68384,-0.783499 30.875,11 5.43346,6.29111 8.08864,9.17185 9.5,10.53125 l 0.0312,0 0.46875,0.4375 0.0625,0.0625 0.0625,0.0312 0.5625,0.40625 0.0625,0.0312 0.0625,0.0625 c 0.19411,0.10983 0.21697,0.0809 0.375,0.15625 0.15803,0.0754 0.36172,0.18908 0.625,0.3125 0.52656,0.24684 1.2361,0.57065 2.09375,0.96875 1.71531,0.79621 3.98762,1.84486 6.21875,2.875 4.46227,2.06029 8.84375,4.09375 8.84375,4.09375 l 0.46875,0.21875 0.46875,-0.125 0.375,-0.0937 1.03125,-0.25 L 264.5,115 l 0,-0.375 0.0312,-0.5625 -0.375,-0.40625 c 0.11201,0.12872 0.0512,0.0258 0.0312,0 -0.02,-0.0258 -0.0533,-0.0715 -0.0937,-0.125 -0.0809,-0.10694 -0.19449,-0.26322 -0.34375,-0.46875 -0.29851,-0.41106 -0.7513,-0.99789 -1.25,-1.75 -0.9974,-1.50421 -2.29759,-3.63088 -3.53125,-6.09375 -2.46732,-4.92574 -4.5808,-11.228477 -3.6875,-16.59375 0.35755,-2.15957 1.0429,-3.585497 1.90625,-4.5625 0.86335,-0.977003 1.93703,-1.548899 3.40625,-1.90625 2.93844,-0.714702 7.31219,-0.27545 12.46875,0.3125 3.37092,0.383877 7.2593,0.814341 11.3125,0.90625 11.25933,0.06605 23.29687,-1.957811 30.96875,-5.3125 4.72447,-2.066461 7.8511,-3.417924 10.03125,-5.375 0.01,-0.0087 0.0216,-0.0225 0.0312,-0.03125 0.0123,-0.01035 0.0191,-0.02083 0.0312,-0.03125 1.03295,-0.887734 1.41897,-2.035221 1.78125,-3 l 0.25,-0.65625 c 0.39145,-1.000096 0.78609,-2.618771 1,-3.625 0.0623,-0.282413 0.0609,-0.335246 0.0937,-0.59375 0.0328,-0.258504 0.0786,-0.605945 0.125,-1 0.0929,-0.78811 0.20048,-1.78634 0.3125,-2.78125 0.22404,-1.98982 0.4375,-3.9375 0.4375,-3.9375 l 0.0312,-0.1875 -0.0312,-0.1875 c -0.31808,-2.01608 -1.7142,-6.789194 -3.53125,-11.84375 -1.81705,-5.054556 -3.82688,-10.089015 -6.1875,-12.53125 l -0.0312,0 c -0.99666,-1.020321 -1.97891,-2.23221 -3.875,-3.34375 -7.17735,-4.18426 -18.797,-7.376308 -28.90625,-9.625 -10.10925,-2.248692 -18.63877,-3.509402 -19.4375,-3.625 l -0.3125,-0.03125 -0.28125,0.0625 -0.28125,0.09375 -0.625,0.1875 -0.28125,0.59375 -0.0937,0.25 -0.125,0.25 0,0.28125 c 0,0 -0.0521,3.413246 -0.0937,5.625 -5.91971,-1.908937 -27.53237,-8.477826 -48.78125,-9.21875 -4.8074,-0.169505 -10.07488,-0.369632 -15.875,-0.1875 z m 0.0625,2.8125 c 5.69351,-0.168743 10.91165,0.018 15.71875,0.1875 22.39516,0.780894 46.54145,8.565572 49.8125,9.65625 l 1.8125,0.59375 0.0625,-1.90625 c 0.0148,-0.655142 0.0647,-4.653942 0.0937,-6.25 1.99327,0.300163 8.99475,1.403131 18,3.40625 9.9985,2.224058 21.5451,5.46351 28.09375,9.28125 1.49383,0.875722 2.18239,1.748262 3.28125,2.875 1.42838,1.477765 3.82005,6.566056 5.59375,11.5 1.75893,4.892874 3.11215,9.875767 3.34375,11.28125 -0.0274,0.249469 -0.19888,1.783203 -0.40625,3.625 -0.11173,0.99234 -0.2207,2.002423 -0.3125,2.78125 -0.0459,0.389414 -0.0941,0.725605 -0.125,0.96875 -0.0309,0.243145 -0.0711,0.524163 -0.0312,0.34375 -0.17809,0.837771 -0.6777,2.603596 -0.90625,3.1875 l -0.25,0.6875 c -0.36521,0.972564 -0.71946,1.644422 -1,1.875 l -0.0312,0.03125 c -1.62334,1.476613 -4.59034,2.858384 -9.34375,4.9375 -7.03546,3.076399 -18.85784,5.122393 -29.75,5.0625 -0.0109,-2.47e-4 -0.0204,2.53e-4 -0.0312,0 -3.87338,-0.08978 -7.66763,-0.523205 -11.03125,-0.90625 -5.15744,-0.58805 -9.67844,-1.133048 -13.4375,-0.21875 -1.87953,0.457149 -3.58042,1.316253 -4.875,2.78125 -1.28906,1.45875 -2.14219,3.45671 -2.5625,5.96875 -0.002,0.01076 0.002,0.02047 0,0.03125 -1.05277,6.391478 1.34225,13.13135 3.9375,18.3125 1.14681,2.28949 2.2974,4.10418 3.28125,5.625 -1.69931,-0.78298 -2.60068,-1.21427 -5.25,-2.4375 -2.23024,-1.02973 -4.47559,-2.08037 -6.1875,-2.875 -0.85596,-0.39732 -1.6046,-0.7248 -2.125,-0.96875 -0.2602,-0.12198 -0.44598,-0.21079 -0.59375,-0.28125 -0.0493,-0.0235 -0.0194,-0.009 -0.0625,-0.0312 l -0.125,-0.0625 -0.3125,-0.21875 -0.0312,-0.0312 -0.0937,-0.0625 -0.3125,-0.3125 c -1.25064,-1.2046 -3.89996,-4.04561 -9.3125,-10.3125 C 224.49624,82.024983 211.52176,80.222069 201.625,82.625 c -0.01,0.0024 -0.0216,-0.0024 -0.0312,0 -2.68077,0.64103 -5.68537,2.391701 -7.8125,4.5 -2.83244,2.790648 -3.94231,6.787348 -4.40625,10.46875 -0.46394,3.6814 -0.26602,7.11896 -0.125,8.9375 l 0,0.0312 c 0.11823,1.46467 0.22031,2.05302 0.3125,2.75 l -12.09375,-5.9375 -0.40625,-1.71875 c -0.3697,-1.57953 -0.80014,-3.371097 -1.65625,-5.625 -5.3352,-14.067215 -17.30178,-24.686457 -30.6875,-27 -4.45749,-0.770665 -10.75828,-1.203451 -17.125,0.625 -6.36672,1.828451 -12.77474,6.010916 -17.125,14.21875 -3.73637,7.05164 -3.4964,16.078085 0.53125,23.6875 4.11257,7.7848 11.52412,12.82607 20.21875,13.78125 8.47392,0.92268 15.22932,-1.04261 19.0625,-6 3.80774,-4.93288 4.52583,-11.62682 1.8125,-17.125 -2.81134,-5.692592 -7.38396,-8.982169 -13.34375,-9.5 -0.0106,-9.18e-4 -0.0207,9.01e-4 -0.0312,0 -4.67061,-0.403353 -8.27519,1.409794 -9.8125,3.84375 l 0,0.03125 -0.0312,0 c -0.33092,0.570768 -1.11371,1.926932 -1.125,3.78125 l 0,0.03125 0,0.03125 c 0,2.448327 1.22269,4.22942 2.5,5.21875 0.63865,0.49467 1.28296,0.81579 1.84375,1.03125 0.56079,0.21546 0.94919,0.31393 1.40625,0.34375 l 0.0937,0.0312 0.0625,0 c 0.17016,-0.006 1.4756,-0.0648 3.09375,-0.46875 l 0.0625,0 0.0625,-0.0312 0.6875,-0.21875 0.34375,-0.125 0.15625,-0.0312 0.15625,-0.0312 c 0.0106,-0.002 0.0207,0.002 0.0312,0 1.96583,-0.34415 3.8143,0.76181 4.375,2.65625 0.003,0.0107 -0.003,0.0206 0,0.0312 0.0978,0.37152 0.15625,0.74515 0.15625,1.0625 0,1.25138 -0.63658,2.39961 -1.71875,3.125 l -0.0312,0.0312 -0.0312,0.0312 -0.0312,0 L 140.75,109.25 c -0.65405,0.40626 -1.19616,0.60356 -1.875,0.8125 l -0.0312,0.0312 c -1.98467,0.64617 -3.68502,0.93432 -5.375,0.9375 -0.009,-1e-5 -0.0221,4e-5 -0.0312,0 -2.78328,-0.0121 -6.32857,-1.29391 -9.09375,-3.71875 -2.76791,-2.42723 -4.81349,-5.95207 -4.875,-10.6875 -1e-4,-0.01053 8e-5,-0.02072 0,-0.03125 -0.0416,-5.327975 2.59719,-10.142465 7.375,-13.3125 5.41727,-3.578877 15.09643,-4.941083 24.125,0.59375 11.06733,6.771953 13.90324,20.1607 11.0625,29.0625 -4.24318,13.23769 -15.91271,20.20713 -31.875,18.78125 -11.23624,-0.99903 -21.68882,-6.95381 -27.875,-15.84375 -2.763823,-3.96351 -4.809149,-8.39957 -5.90625,-12.78125 -2.515348,-9.976238 0.104191,-20.900993 1.96875,-25.53125 6.1748,-15.293012 17.98713,-28.478753 35.25,-39.25 l 1.0625,-0.6875 c 0.008,-0.0051 0.023,0.0051 0.0312,0 27.62741,-16.973755 49.01832,-20.712672 66.09375,-21.21875 z"
       id="body"
       inkscape:connector-curvature="0" /></g><g
     id="layer1_1_"
     inkscape:label="Layer 1"
     inkscape:groupmode="layer" /><path
     id="mouth"
     stroke-miterlimit="10"
     d="m 325.914,67.42878 -1.02,0.188 c -3.225,1.935 -11.302,5.626 -18.862,5.773 -9.366,0.195 -28.245,-9.424 -30.213,-10.444 l -0.188,-0.22 c -0.474,-1.127 -3.308,-7.831 -3.904,-9.243 13.588,8.949 24.856,13.898 33.487,14.665 9.605,0.854 17.093,-4.388 20.294,-6.626 0.628,-0.424 1.102,-0.768 1.298,-0.841 l -0.892,6.748 z"
     inkscape:label="#path8"
     inkscape:connector-curvature="0"
     style="fill:none;stroke:#73ba25;stroke-width:2.83459997;stroke-miterlimit:10" /><path
     id="eye"
     sodipodi:nodetypes="ccccccc"
     stroke-miterlimit="10"
     d="m 288.18799,44.59979 c 0.131,-3.72399 1.69103,-7.177991 4.41808,-9.708989 2.71904,-2.547998 6.2711,-3.861794 9.99516,-3.739794 7.69113,0.277 13.71823,6.752995 13.45623,14.435983 -0.138,3.716 -1.69903,7.1608 -4.41808,9.7008 -2.71904,2.54799 -6.2621,3.86299 -10.00316,3.73999 -7.67413,-0.286 -13.70123,-6.75299 -13.44823,-14.42799 z"
     inkscape:connector-curvature="0"
     style="fill:none;stroke:#73ba25;stroke-width:2.83462262;stroke-miterlimit:10" /></svg>