<?xml version="1.0" encoding="utf-8"?>
<!-- Generator: Adobe Illustrator 18.0.0, SVG Export Plug-In . SVG Version: 6.00 Build 0)  -->
<!DOCTYPE svg PUBLIC "-//W3C//DTD SVG 1.1//EN" "http://www.w3.org/Graphics/SVG/1.1/DTD/svg11.dtd">
<svg version="1.1"
	 id="svg4578" xmlns:dc="http://purl.org/dc/elements/1.1/" xmlns:svg="http://www.w3.org/2000/svg" xmlns:rdf="http://www.w3.org/1999/02/22-rdf-syntax-ns#" xmlns:sodipodi="http://sodipodi.sourceforge.net/DTD/sodipodi-0.dtd" xmlns:cc="http://web.resource.org/cc/" xmlns:inkscape="http://www.inkscape.org/namespaces/inkscape" inkscape:output_extension="org.inkscape.output.svg.inkscape" sodipodi:docname="official-logo-color" sodipodi:version="0.32" inkscape:version="0.45+devel"
	 xmlns="http://www.w3.org/2000/svg" xmlns:xlink="http://www.w3.org/1999/xlink" x="0px" y="0px" viewBox="0 0 595.3 841.9"
	 enable-background="new 0 0 595.3 841.9" xml:space="preserve">
<sodipodi:namedview  width="400px" height="300px" id="base" gridtolerance="10000" borderlayer="true" guidetolerance="10" inkscape:cy="91.428571" bordercolor="#d6d6d6" inkscape:zoom="1" borderopacity="1" objecttolerance="10" inkscape:cx="169.28571" pagecolor="#ffffff" inkscape:pageopacity="0.0" inkscape:window-width="774" inkscape:window-y="276" inkscape:pageshadow="2" inkscape:window-x="458" inkscape:current-layer="layer1" inkscape:window-height="738" inkscape:showpageshadow="false" inkscape:document-units="px">
	</sodipodi:namedview>
<g id="layer1" inkscape:label="Layer 1" inkscape:groupmode="layer">
	<path fill="none" stroke="#73BA25" stroke-width="2.8346" stroke-miterlimit="10" d="M215,302.5c19.1,3.3,36.3,18.5,44,38.8
		c1.2,3.2,1.9,5.8,2.4,8.1l0.8,3.5l21.5,10.5l0.3,0.2l0,0h0.5l0.1-0.6c-0.1-0.5-0.4-0.9-0.9-7c-0.4-5.3-1.3-20,6.1-27.2
		c2.9-2.8,7.2-5.3,10.7-6.2c14.1-3.4,32.4-1.1,48.1,17c8.1,9.3,12,13.6,14,15.5l0.7,0.6l0.8,0.6c0.6,0.4,26.9,12.4,26.9,12.4
		l0.5-0.1V368c-0.2-0.2-16.6-21.4-13.7-39c2.3-14,13.4-12.7,28.8-10.9c5,0.6,10.7,1.2,16.6,1.4c16.5,0.1,34.3-2.9,45.2-7.7
		c7.1-3.1,11.6-5.1,14.4-7.7c1-0.8,1.6-2.2,2.1-3.7l0.4-1c0.5-1.2,1.1-3.7,1.4-5.1c0.1-0.6,1.4-12.1,1.4-12.1
		c-0.8-5-8.3-29.3-13.9-35.2c-1.6-1.6-2.8-3.2-5.3-4.6c-20.4-11.9-68.9-19.1-71.2-19.4l-0.4,0.1l-0.1,0.3c0,0-0.2,10.1-0.2,11.2
		c-5-1.7-41-13.3-74.7-14.5c-28.6-1-67.7-2.4-123,31.6l-1.6,1c-26,16.2-43.9,36.2-53.3,59.4c-2.9,7.3-6.9,23.8-3,39.3
		c1.7,6.8,4.8,13.6,9.1,19.7c9.6,13.8,25.7,22.9,43,24.5"/>
</g>
<g id="layer1_1_" inkscape:label="Layer 1" inkscape:groupmode="layer">
</g>
<path fill="none" stroke="#73BA25" stroke-width="2.8346" stroke-miterlimit="10" d="M367.5,464l-1.5,0.3
	c-4.8,2.9-16.8,8.4-28.1,8.6c-13.9,0.3-42-14-45-15.5l-0.3-0.3c-0.7-1.7-4.9-11.7-5.8-13.8c20.2,13.3,37,20.7,49.8,21.8
	c14.3,1.3,25.4-6.5,30.2-9.9c0.9-0.6,1.6-1.1,1.9-1.3L367.5,464z"/>
<path fill="none" stroke="#73BA25" stroke-width="2.8346" stroke-miterlimit="10" d="M310.6,558.8c0.2-5.5,2.5-10.7,6.6-14.4
	c4-3.8,9.3-5.7,14.9-5.6c11.4,0.4,20.4,10,20,21.5c-0.2,5.5-2.5,10.7-6.6,14.4c-4,3.8-9.3,5.7-14.9,5.6
	C319.2,579.8,310.2,570.2,310.6,558.8z"/>
<path fill="none" stroke="#73BA25" stroke-width="2.8346" stroke-miterlimit="10" d="M214.8,302.9c18.5,6.7,31.7,24.4,31.7,45.1
	c0,26.5-21.5,48-48,48c-2.7,0-5.4-0.2-8-0.7"/>
<path fill="none" stroke="#73BA25" stroke-width="2.8346" stroke-miterlimit="10" d="M245,357.2c0.6-12.9-5.1-27.9-19-36.4
	c-14.1-8.7-29.3-6.7-38.2-0.9c-7.7,5.1-12,13-11.9,21.6c0.2,15.3,13.4,23.5,22.9,23.5c2.8,0,5.5-0.5,8.7-1.5
	c1.1-0.3,3.8-1.8,3.8-1.8c2.2-1.5,3.5-3.9,3.5-6.4c0-0.7-0.1-1.4-0.3-2.1c-1.1-3.9-5-6.2-8.9-5.5l-0.5,0.1l-0.7,0.2l-1.1,0.4
	c-2.2,0.5-3.8,0.6-4.2,0.6c-1.1-0.1-6.6-1.7-6.6-7.7l0,0c0-2.2,0.9-3.7,1.4-4.6c1.7-2.7,6.4-5.3,12.7-4.7
	c8.3,0.7,14.2,4.9,18.2,12.9c3.7,7.4,2.7,16.6-2.5,23.3c-5.1,6.6-14.3,9.5-26.5,8.1c-12.3-1.3-22.7-8.4-28.5-19.4
	c-5.7-10.7-6-23.5-0.8-33.3c12.4-23.5,35.9-23.2,48.8-21"/>
</svg>
