<?xml version="1.0" encoding="UTF-8" standalone="no"?>
<!-- Created with Inkscape (http://www.inkscape.org/) -->

<svg
   xmlns:dc="http://purl.org/dc/elements/1.1/"
   xmlns:cc="http://creativecommons.org/ns#"
   xmlns:rdf="http://www.w3.org/1999/02/22-rdf-syntax-ns#"
   xmlns:svg="http://www.w3.org/2000/svg"
   xmlns="http://www.w3.org/2000/svg"
   xmlns:sodipodi="http://sodipodi.sourceforge.net/DTD/sodipodi-0.dtd"
   xmlns:inkscape="http://www.inkscape.org/namespaces/inkscape"
   version="1.0"
   width="744.09448"
   height="478.70078"
   id="svg2309"
   inkscape:version="0.48.4 r9939"
   sodipodi:docname="OpenSUSE_Logo.svg">
  <metadata
     id="metadata19">
    <rdf:RDF>
      <cc:Work
         rdf:about="">
        <dc:format>image/svg+xml</dc:format>
        <dc:type
           rdf:resource="http://purl.org/dc/dcmitype/StillImage" />
      </cc:Work>
    </rdf:RDF>
  </metadata>
  <sodipodi:namedview
     pagecolor="#ffffff"
     bordercolor="#666666"
     borderopacity="1"
     objecttolerance="10"
     gridtolerance="10"
     guidetolerance="10"
     inkscape:pageopacity="0"
     inkscape:pageshadow="2"
     inkscape:window-width="1920"
     inkscape:window-height="1025"
     id="namedview17"
     showgrid="false"
     inkscape:zoom="0.49300108"
     inkscape:cx="372.04724"
     inkscape:cy="239.35039"
     inkscape:window-x="-3"
     inkscape:window-y="32"
     inkscape:window-maximized="1"
     inkscape:current-layer="svg2309" />
  <defs
     id="defs2311" />
  <path
     d="m 655.83627,141.4148 0,0 c -15.06862,-0.54544 -26.88643,-13.25049 -26.40644,-28.35547 0.23999,-7.30159 3.36716,-14.050473 8.67609,-19.039408 5.30892,-4.967117 12.28325,-7.563399 19.58484,-7.287044 15.08316,0.52362 26.91552,13.192314 26.42099,28.311842 -0.24,7.29431 -3.30899,14.02138 -8.63973,19.03213 -5.34529,4.98166 -12.30507,7.5634 -19.63575,7.33795 l 0,0 z m 6.33435,-24.78468 c 6.71979,0 12.15962,-3.62897 12.15962,-8.10156 0,-4.46532 -5.43983,-8.08702 -12.15962,-8.08702 -6.6907,0 -12.13053,3.6217 -12.13053,8.08702 0,4.46531 5.43983,8.10156 12.13053,8.10156"
     style="fill:#6eb927"
     id="path19"
     inkscape:connector-curvature="0" />
  <path
     d="m 344.10059,302.06431 0.97452,-0.0945 0.17454,-1.17087 c -0.26181,-0.90906 -0.84361,-1.73085 -1.77449,-13.13413 -0.77816,-10.08696 -2.35629,-37.72973 11.56327,-51.45293 5.38892,-5.34529 13.65048,-10.11605 20.13755,-11.64327 26.66826,-6.51616 57.94,-2.00721 87.48817,32.17353 15.28679,17.67218 22.75565,25.72283 26.50826,29.33726 l 1.2945,1.17815 1.54904,1.14178 c 1.23633,0.68362 50.82023,23.50472 50.82023,23.50472 l 1.01087,-0.24727 0.0145,-1.06178 c -0.31272,-0.3709 -31.4172,-40.55873 -25.90464,-73.65587 4.37804,-26.36281 25.36647,-23.99198 54.37647,-20.70481 9.47607,1.0836 20.283,2.33447 31.43175,2.57447 31.1772,0.18908 64.76887,-5.53438 85.48095,-14.58864 13.3814,-5.83981 21.91931,-9.70151 27.27187,-14.57409 1.93449,-1.59267 2.92355,-4.19623 3.96352,-6.96705 l 0.72725,-1.86176 c 0.86542,-2.23993 2.13084,-7.01069 2.68355,-9.5997 0.25453,-1.15633 0.37089,-2.38538 -0.42908,-3.01081 l -2.87991,0.53089 c -9.06153,5.46165 -31.78809,15.82496 -53.05288,16.23949 -26.36281,0.54544 -79.45933,-26.51553 -85.00824,-29.37362 l -0.52362,-0.63271 c -1.3236,-3.17081 -9.27244,-22.01386 -10.98148,-25.99919 38.2388,25.1774 69.92508,39.09696 94.20068,41.26416 27.03188,2.39993 48.0785,-12.33415 57.10367,-18.63941 1.75994,-1.17815 3.09808,-2.14539 3.63625,-2.35629 l 0.5818,-0.94543 C 725.04864,138.81125 710.93272,92.87814 700.26397,81.823941 697.31133,78.813127 694.9405,75.860492 690.16247,73.067852 651.53822,50.552195 559.86837,36.967166 555.56305,36.341731 l -0.72725,0.20363 -0.26908,0.654525 c 0,0 -0.3709,19.010313 -0.39999,21.119338 C 544.77066,55.199322 476.70734,33.214557 412.90571,31.003717 358.80558,29.09105 280.0226,22.10945 175.60406,86.289256 l -3.09081,1.934485 C 123.39479,118.87732 89.490395,156.64341 71.760042,200.55476 c -5.55619,13.80321 -13.046864,44.98768 -5.658005,74.3104 3.214445,12.82142 9.177894,25.68647 17.199461,37.2352 18.130342,26.05009 48.551202,43.33682 81.350172,46.26036 46.26037,4.12351 81.32836,-16.65402 93.77888,-55.56916 8.57428,-26.85007 0,-66.25974 -32.84261,-86.36093 -26.71916,-16.35585 -55.46007,-12.61779 -72.12137,-1.6145 -14.47955,9.59243 -22.67565,24.47924 -22.5302,40.84963 0.33453,29.01727 25.35193,44.44224 43.32228,44.47861 5.23619,0 10.47239,-0.89452 16.38494,-2.829 2.09448,-0.64726 4.10169,-1.43269 6.26889,-2.7781 l 0.68362,-0.4218 0.45089,-0.27636 -0.17454,0.0873 c 4.10169,-2.77082 6.58888,-7.31613 6.58888,-12.19598 0,-1.3236 -0.19635,-2.68355 -0.57452,-4.04351 -2.10903,-7.33068 -9.36698,-11.77418 -16.89402,-10.42149 l -1.01815,0.23272 -1.38177,0.44362 -1.99994,0.66907 c -4.13805,1.03997 -7.24341,1.10542 -7.89793,1.13451 -2.12357,-0.15272 -12.46507,-3.23626 -12.46507,-14.57409 l 0,-0.1309 c 0.0218,-4.1526 1.68722,-7.08342 2.61083,-8.67609 3.19263,-5.03985 12.01417,-10.00696 23.94834,-8.94518 15.61405,1.33814 26.87188,9.34516 34.32619,24.46469 6.93797,14.06501 5.12712,31.3372 -4.66894,44.02044 -9.70879,12.56688 -26.99552,17.88307 -50.02025,15.3886 -23.20654,-2.55264 -42.8132,-15.91222 -53.80195,-36.7043 -10.74875,-20.30482 -11.3451,-44.39861 -1.51995,-62.89984 23.49744,-44.32589 67.84514,-43.86045 92.17165,-39.68603 36.01342,6.24707 76.95032,39.47512 91.49532,77.81574 2.33447,6.1089 3.52716,10.95966 4.53804,15.35952 l 1.57813,6.63979 40.66781,19.86119 0.54544,0.38545 0,0 z m 285.79468,-216.393217 0,0 c -7.67249,7.134322 -12.04326,16.857657 -12.41416,27.330057 -0.71271,21.59932 16.23222,39.78057 37.80972,40.59509 10.53785,0.34908 20.49391,-3.35263 28.15185,-10.52331 7.65794,-7.13432 12.02871,-16.84311 12.4287,-27.29369 0.72725,-21.606595 -16.21768,-39.831478 -37.85336,-40.616908 -10.46513,-0.34908 -20.46481,3.359895 -28.12275,10.508761"
     style="fill:#6eb927;fill-rule:evenodd"
     id="path21"
     inkscape:connector-curvature="0" />
</svg>
