<?xml version="1.0" encoding="UTF-8" standalone="no"?>
<!-- Generator: Adobe Illustrator 18.0.0, SVG Export Plug-In . SVG Version: 6.00 Build 0)  -->

<svg
   xmlns:osb="http://www.openswatchbook.org/uri/2009/osb"
   xmlns:dc="http://purl.org/dc/elements/1.1/"
   xmlns:cc="http://creativecommons.org/ns#"
   xmlns:rdf="http://www.w3.org/1999/02/22-rdf-syntax-ns#"
   xmlns:svg="http://www.w3.org/2000/svg"
   xmlns="http://www.w3.org/2000/svg"
   xmlns:sodipodi="http://sodipodi.sourceforge.net/DTD/sodipodi-0.dtd"
   xmlns:inkscape="http://www.inkscape.org/namespaces/inkscape"
   version="1.1"
   id="svg4578"
   sodipodi:version="0.32"
   inkscape:output_extension="org.inkscape.output.svg.inkscape"
   sodipodi:docname="opensuse_cookiecutter2.svg"
   inkscape:version="0.48.4 r9939"
   x="0px"
   y="0px"
   viewBox="0 0 841.9 595.3"
   enable-background="new 0 0 841.9 595.3"
   xml:space="preserve"
   width="100%"
   height="100%"><sodipodi:namedview
     height="300px"
     width="400px"
     pagecolor="#ffffff"
     inkscape:cx="436.10064"
     objecttolerance="10"
     borderopacity="1"
     inkscape:zoom="4"
     bordercolor="#d6d6d6"
     inkscape:cy="290.83384"
     guidetolerance="10"
     gridtolerance="10000"
     borderlayer="true"
     id="base"
     inkscape:document-units="px"
     inkscape:showpageshadow="false"
     inkscape:window-height="738"
     inkscape:current-layer="svg4578"
     inkscape:window-x="458"
     inkscape:pageshadow="2"
     inkscape:window-width="1279"
     inkscape:window-y="276"
     inkscape:pageopacity="0.0"
     showgrid="false"
     inkscape:window-maximized="0" /><metadata
     id="metadata18"><rdf:RDF><cc:Work
         rdf:about=""><dc:format>image/svg+xml</dc:format><dc:type
           rdf:resource="http://purl.org/dc/dcmitype/StillImage" /></cc:Work></rdf:RDF></metadata><defs
     id="defs16"><linearGradient
       id="linearGradient3761"
       osb:paint="solid"><stop
         style="stop-color:#73ba25;stop-opacity:1;"
         offset="0"
         id="stop3763" /></linearGradient></defs><path
     style="font-size:medium;font-style:normal;font-variant:normal;font-weight:normal;font-stretch:normal;text-indent:0;text-align:start;text-decoration:none;line-height:normal;letter-spacing:normal;word-spacing:normal;text-transform:none;direction:ltr;block-progression:tb;writing-mode:lr-tb;text-anchor:start;baseline-shift:baseline;color:#000000;fill:#070c02;fill-opacity:1;stroke:none;stroke-width:2.83500004;marker:none;visibility:visible;display:inline;overflow:visible;enable-background:accumulate;font-family:Sans;-inkscape-font-specification:Sans"
     d="M 429.46875,237.3125 C 410.63737,237.29179 391.95802,240.65907 374,246 c -0.83244,-7.00747 -9.4795,-7.04803 -14.59375,-5.15625 -16.18863,4.26723 -34.08163,5.50959 -47.6875,16.15625 -9.1487,11.42152 -14.26881,27.08149 -11.4375,41.625 4.33987,12.42734 18.9871,15.8171 30.375,18.40625 14.12744,2.85923 28.79051,0.84732 42.9375,0.0625 6.93191,3.03827 3.16131,12.55134 0.60682,17.71796 -1.16283,5.33001 -9.03877,9.50486 -6.04432,15.43829 3.6667,4.77273 11.03391,2.77431 14.84375,-0.65625 10.93204,-3.24083 19.27576,-11.48732 25.8125,-20.28125 8.05691,-8.33318 22.74162,-13.6299 32.59375,-5.4375 5.73466,7.55935 -1.60986,18.91067 5.28125,26.09375 8.64023,-1.73537 17.91005,-4.86844 23.625,-11.71875 1.3471,7.35926 1.07923,16.47372 7.84375,21.34375 17.16934,19.03369 50.91031,16.54032 66.625,-3.0625 16.18146,-18.14112 13.82329,-47.15688 -0.4375,-65.625 -19.61055,-27.44933 -51.70396,-43.73898 -84.10607,-51.13113 -10.12092,-1.97205 -20.43582,-2.69974 -30.76893,-2.46262 z m 1.375,10.75 c 38.96198,-0.6947 77.9095,16.66088 102.94927,46.42083 11.78911,14.96428 16.56214,38.1215 3.80073,53.82917 -11.81794,15.82334 -39.45821,18.83695 -51.875,3 -4.58008,-5.80974 -4.81045,-13.34934 -3.59375,-20.25 -1.33908,-11.00373 -20.68465,-11.25059 -21.9375,-0.0312 -0.19907,2.31064 -4.10027,4.54223 -5.96875,3.65625 3.07286,-12.79009 -9.0009,-25.98568 -22,-25.53125 -16.1787,-1.35208 -30.60036,9.29687 -39.1875,22.15625 -2.2,2.17484 -5.98986,5.19825 -8.21875,5.65625 5.50454,-8.92894 6.24479,-24.05156 -4.21875,-29.625 -8.79736,-3.28292 -18.58205,0.37675 -27.78117,-0.36234 -8.549,-0.48896 -18.89023,0.67934 -25.59383,-5.54391 -1.17871,-9.25334 1.28827,-18.74812 0.46875,-28.125 -0.21855,-8.94906 10.37131,-10.34116 16.17791,-14.45926 5.92429,-3.26249 12.64548,-6.20264 19.10334,-7.29074 -0.98456,5.01611 4.22872,8.62523 8.75,6.8125 15.17279,-5.67224 31.29934,-8.52289 47.46875,-9.84375 3.87997,-0.27262 7.76561,-0.47164 11.65625,-0.46875 z"
     id="rand"
     inkscape:connector-curvature="0" /><path
     id="eye"
     d="m 331.1,285.8 c -3.1,0.1 -6.1,-1 -8.4,-3.1 -2.3,-2.1 -3.6,-5 -3.7,-8.1 -0.2,-6.4 4.8,-11.8 11.3,-12.1 3.1,-0.1 6.1,1 8.4,3.1 2.3,2.1 3.6,5 3.7,8.1 0.2,6.5 -4.9,11.9 -11.3,12.1 z"
     inkscape:connector-curvature="0"
     style="fill:#73ba25"
     sodipodi:nodetypes="csccsccc"
     inkscape:label="#path1977" /><path
     display="none"
     opacity="0.41"
     fill="#73BA25"
     d="M553.5,242.6c0.7-0.4,1.2-0.8,1.4-0.9l0.2-0.4c-0.6-3.5-5.8-20.7-9.8-24.8  c-1.1-1.1-2-2.2-3.8-3.3c-14.4-8.4-48.7-13.5-50.3-13.7l-0.3,0.1l-0.1,0.2c0,0-0.1,7.1-0.1,7.9c-3.5-1.2-28.9-9.4-52.8-10.2  c-20.2-0.7-47.8-1.7-86.9,22.3l-1.2,0.7c-18.4,11.5-31,25.6-37.6,42c-2.1,5.2-4.9,16.8-2.1,27.8c1.2,4.8,3.4,9.6,6.4,13.9  c6.8,9.7,18.1,16.2,30.4,17.3c17.3,1.5,30.4-6.2,35-20.8c3.2-10,0-24.8-12.3-32.3c-10-6.1-20.7-4.7-27-0.6  c-5.4,3.6-8.5,9.2-8.4,15.3c0.1,10.8,9.5,16.6,16.2,16.6c2,0,3.9-0.3,6.1-1.1c0.8-0.2,1.5-0.5,2.3-1l0.2-0.2l0.2-0.1l-0.1,0  c1.5-1,2.5-2.7,2.5-4.5c0-0.5-0.1-1-0.2-1.5c-0.8-2.7-3.5-4.4-6.3-3.9l-0.4,0.1l-0.5,0.2l-0.7,0.2c-1.5,0.4-2.7,0.4-3,0.4  c-0.8-0.1-4.7-1.2-4.7-5.5v-0.1c0-1.6,0.6-2.6,1-3.2c1.2-1.9,4.5-3.7,8.9-3.3c5.8,0.5,10,3.5,12.8,9.1c2.6,5.3,1.9,11.7-1.7,16.4  c-3.6,4.7-10.1,6.7-18.7,5.8c-8.7-1-16-5.9-20.1-13.7c-4-7.6-4.2-16.6-0.6-23.5c8.8-16.6,25.4-16.4,34.4-14.8  c13.5,2.3,25.7,13.1,31.1,27.4c0.9,2.3,1.3,4.1,1.7,5.7l0.6,2.5l15.2,7.4l0.2,0.1l0,0l0.4,0l0.1-0.4c-0.1-0.3-0.3-0.7-0.7-4.9  c-0.3-3.8-0.9-14.1,4.3-19.2c2-2,5.1-3.8,7.5-4.4c10-2.4,22.9-0.7,34,12c5.7,6.6,8.5,9.6,9.9,11l0.5,0.4l0.6,0.4  c0.5,0.3,19,8.8,19,8.8l0.4-0.1l0-0.4c-0.1-0.1-11.7-15.2-9.7-27.5c1.6-9.9,9.5-9,20.3-7.7c3.5,0.4,7.6,0.9,11.8,1  c11.6,0.1,24.2-2.1,31.9-5.5c5-2.2,8.2-3.6,10.2-5.5c0.7-0.6,1.1-1.6,1.5-2.6l0.3-0.7c0.3-0.8,0.8-2.6,1-3.6  c0.1-0.4,0.1-0.9-0.2-1.1l-1.1,0.2c-3.4,2-11.9,5.9-19.8,6.1c-9.8,0.2-29.7-9.9-31.8-11l-0.2-0.2c-0.5-1.2-3.5-8.2-4.1-9.7  c14.3,9.4,26.1,14.6,35.2,15.4C542.2,250.5,550.1,245,553.5,242.6z M514.3,228.2c0.1-3.9,1.8-7.5,4.6-10.2c2.9-2.7,6.6-4.1,10.5-3.9  c8.1,0.3,14.4,7.1,14.1,15.2c-0.1,3.9-1.8,7.5-4.6,10.2c-2.9,2.7-6.6,4.1-10.5,3.9C520.4,243,514,236.2,514.3,228.2z"
     id="path3" /><g
     id="layer1"
     inkscape:label="Layer 1"
     inkscape:groupmode="layer" /><g
     id="layer1_1_"
     inkscape:label="Layer 1"
     inkscape:groupmode="layer" /><path
     d="m 304.35,286.25 c 0.2,0.1 0.7,0.5 1.3,0.9 3.4,2.4 11.2,7.9 21.4,7 9.1,-0.8 20.9,-6 35.2,-15.4 -0.6,1.5 -3.6,8.6 -4.1,9.8 l -0.2,0.2 c -2.1,1.1 -22,11.2 -31.8,11 -8,-0.1 -16.5,-4 -19.9,-6.1 l -1.1,-0.2 -0.8,-7.2 z"
     id="mouth"
     inkscape:connector-curvature="0"
     style="fill:#73ba25"
     inkscape:label="#path8" /><path
     style="font-size:medium;font-style:normal;font-variant:normal;font-weight:normal;font-stretch:normal;text-indent:0;text-align:start;text-decoration:none;line-height:normal;letter-spacing:normal;word-spacing:normal;text-transform:none;direction:ltr;block-progression:tb;writing-mode:lr-tb;text-anchor:start;baseline-shift:baseline;color:#000000;fill:#1df015;fill-opacity:1;stroke:none;stroke-width:0.10000000000000001;marker:none;visibility:visible;display:inline;overflow:visible;enable-background:accumulate;font-family:Sans;-inkscape-font-specification:Sans;stroke-miterlimit:4;stroke-dasharray:none;stroke-opacity:1;opacity:1;fill-rule:nonzero"
     d="m 438.15625,241 c -6.10143,-0.18945 -11.66922,0.0125 -16.71875,0.1875 -22.35881,0.8455 -45.17806,7.76656 -51.34375,9.78125 -0.0279,-2.34972 -0.0625,-6 -0.0625,-6 l -0.0312,-0.3125 -0.125,-0.28125 -0.0937,-0.21875 -0.28125,-0.5 -0.5625,-0.1875 -0.28125,-0.125 -0.3125,-0.0937 -0.3125,0.0312 c -1.03443,0.1293 -9.86935,1.45013 -20.5,3.8125 -10.63065,2.36237 -22.82848,5.70985 -30.34375,10.09375 -1.9387,1.14041 -2.99112,2.49112 -4,3.5 l 0,0.0312 -0.0312,0.0312 c -2.38867,2.57241 -4.52953,7.86792 -6.4375,13.1875 -1.90797,5.31958 -3.36664,10.38355 -3.71875,12.4375 l -0.0312,0.1875 L 303,286.75 c 0,0 0.23091,2.05323 0.46875,4.15625 0.11892,1.05151 0.21341,2.107 0.3125,2.9375 0.0496,0.41525 0.12087,0.7908 0.15625,1.0625 0.0319,0.24513 0.031,0.29359 0.0937,0.5625 l -0.0312,0 c 0.003,0.0172 0.0278,0.0449 0.0312,0.0625 0.20186,1.01446 0.49,2.6183 1.0625,3.8125 l 0.0312,0.0937 0.25,0.59375 0.0312,0.0312 c 0.39106,0.98205 0.79507,2.1762 1.84375,3.09375 0.01,0.009 0.0215,0.0226 0.0312,0.0312 2.28597,2.0441 5.58482,3.43482 10.5625,5.625 8.00496,3.4307 20.67613,5.60159 32.5625,5.5 l 0.0312,0 0.0312,0 c 4.14593,-0.20224 8.26309,-0.59792 11.78125,-1 l 0.0312,0 c 5.44821,-0.64979 10.06239,-1.12591 13.1875,-0.375 1.56256,0.37546 2.70596,0.98959 3.625,2.03125 0.91904,1.04166 1.62985,2.55346 2,4.84375 0.91848,5.74049 -1.34087,12.4005 -3.9375,17.59375 -1.29831,2.59663 -2.64194,4.82799 -3.6875,6.40625 -0.52278,0.78913 -0.96975,1.41522 -1.28125,1.84375 -0.15575,0.21426 -0.29177,0.39046 -0.375,0.5 -0.0416,0.0548 -0.0748,0.10078 -0.0937,0.125 l -0.34375,0.34375 0,0.5625 0,0.40625 0,1.125 1.09375,0.25 0.375,0.0937 0.5,0.125 0.4375,-0.1875 c 0,0 4.67282,-2.14899 9.375,-4.3125 2.35109,-1.08175 4.69584,-2.159 6.5,-3 0.90208,-0.4205 1.66431,-0.7665 2.21875,-1.03125 0.27722,-0.13237 0.51662,-0.25871 0.6875,-0.34375 0.0854,-0.0425 0.15335,-0.0591 0.21875,-0.0937 0.0486,-0.0258 0.12791,-0.064 0.21875,-0.125 0.0313,-0.021 0.006,-0.0205 0.0625,-0.0625 l 0.53125,-0.34375 0.0312,-0.0312 0.0625,-0.0625 0.5,-0.375 0.0625,-0.0625 0.0625,-0.0625 c 1.44773,-1.44773 4.25754,-4.44952 9.96875,-11.0625 10.76038,-12.40837 22.94805,-13.84489 32.53125,-11.5625 2.20972,0.61872 5.09773,2.25081 7,4.0625 2.22518,2.19501 3.34065,5.75643 3.78125,9.28125 0.44174,3.5339 0.24126,6.96201 0.0937,8.78125 -0.14858,2.1297 -0.28654,3.24857 -0.375,3.8125 -0.0885,0.56393 -0.0971,0.48196 -0.1875,0.84375 l -0.0937,0.34375 0.0937,0.34375 0.0937,0.40625 0.28125,1.0625 1.09375,0 0.40625,0 0.34375,0 0.28125,-0.125 0.15625,-0.0937 0.0625,-0.0312 15.03125,-6.5625 0.5,-0.21875 0.21875,-0.53125 3.03125,-7.09375 5.9375,1.375 c -0.0205,0.7654 -0.0526,1.94574 -0.0625,4.21875 -0.0126,2.89611 0.0214,6.10574 0.3125,7.96875 l 0,0.0312 c 1.27557,7.54711 5.97278,13.20061 12.1875,17.34375 11.38914,7.73208 27.79537,8.63855 40.09375,2.90625 6.836,-3.21085 12.7249,-8.27218 17.0625,-14.46875 3.09717,-4.43927 5.38006,-9.39524 6.625,-14.375 2.91449,-11.4498 0.054,-23.21446 -2.15625,-28.6875 -6.82498,-16.70592 -19.66718,-31.0369 -38.25,-42.65625 l -0.0312,0 -1.09375,-0.6875 0,-0.0312 C 479.723,245.56351 456.46053,241.56836 438.15625,241 z m -0.0625,2.8125 c 17.98634,0.52851 40.53325,4.40524 69.65625,22.28125 l 1.09375,0.6875 0,0.0312 c 18.20504,11.37815 30.58398,25.22516 37.15625,41.3125 1.98973,4.92696 4.71676,16.3873 2.03125,26.9375 -1.15506,4.62024 -3.28467,9.27677 -6.1875,13.4375 -4.0624,5.80343 -9.5735,10.5421 -15.9375,13.53125 l 0,-0.0312 c -11.30162,5.2677 -26.90164,4.38042 -37.3125,-2.6875 -5.78528,-3.85686 -9.87557,-8.78461 -11,-15.4375 -0.2089,-1.33699 -0.26241,-4.67736 -0.25,-7.53125 0.0124,-2.85389 0.0625,-5.3125 0.0625,-5.3125 l 0.0312,-1.15625 -1.125,-0.25 -8.1875,-1.90625 -1.15625,-0.28125 -0.46875,1.09375 -3.28125,7.6875 -13,5.6875 c 0.0911,-0.72709 0.16507,-1.4285 0.28125,-3.09375 0.15249,-1.88076 0.38951,-5.5089 -0.0937,-9.375 -0.48326,-3.8661 -1.66166,-8.03114 -4.625,-10.9375 l 0,-0.0312 c -2.29773,-2.18831 -5.39722,-3.93747 -8.1875,-4.71875 l -0.0312,-0.0312 -0.0312,0 c -10.40802,-2.49792 -23.98842,-0.72901 -35.40625,12.4375 l 0,0.0312 c -5.63745,6.52758 -8.35288,9.44307 -9.71875,10.8125 -0.0124,0.0125 -0.0815,0.0815 -0.0937,0.0937 L 392,337.3125 l -0.59375,0.40625 -0.0312,0.0312 c -0.0275,0.014 -0.0552,0.0121 -0.0937,0.0312 -0.14553,0.0724 -0.35535,0.18374 -0.625,0.3125 -0.53931,0.25752 -1.28958,0.61269 -2.1875,1.03125 -1.79584,0.83712 -4.15109,1.91925 -6.5,3 -2.92105,1.344 -4.03511,1.8427 -5.8125,2.65625 1.04859,-1.61252 2.31916,-3.60707 3.5625,-6.09375 2.72837,-5.45675 5.26902,-12.55299 4.1875,-19.3125 -0.42985,-2.65971 -1.33466,-4.74791 -2.6875,-6.28125 -1.35284,-1.53334 -3.11881,-2.46296 -5.09375,-2.9375 -3.94989,-0.94909 -8.73571,-0.30646 -14.1875,0.34375 -3.47252,0.39686 -7.51919,0.77046 -11.5625,0.96875 -0.0103,9e-5 -0.0209,-8e-5 -0.0312,0 -11.50512,0.0942 -23.98658,-2.11478 -31.375,-5.28125 -5.00116,-2.20051 -8.09967,-3.61471 -9.8125,-5.15625 l -0.0312,0 c -0.31171,-0.26718 -0.69375,-1.0625 -1.09375,-2.0625 l -0.0312,0 0,-0.0312 -0.3125,-0.6875 0,-0.0312 -0.0312,-0.0625 c -0.18869,-0.37738 -0.68213,-2.25439 -0.875,-3.21875 l 0,-0.0625 0,-0.0312 c 0.065,0.26009 -0.0295,-0.0592 -0.0625,-0.3125 -0.033,-0.2533 -0.0761,-0.59025 -0.125,-1 -0.0978,-0.8195 -0.19392,-1.88901 -0.3125,-2.9375 -0.22111,-1.9551 -0.41004,-3.62511 -0.4375,-3.875 0.27052,-1.5094 1.71475,-6.66082 3.5625,-11.8125 1.86703,-5.20542 4.33242,-10.62241 5.84375,-12.25 l -0.0312,0 c 1.17182,-1.17673 1.95887,-2.17985 3.40625,-3.03125 6.88473,-4.0161 19.0119,-7.44362 29.53125,-9.78125 9.5402,-2.12005 17.12822,-3.28563 19.03125,-3.5625 0.0224,1.63157 0.0937,6.05134 0.0937,6.625 l 0,1.96875 1.875,-0.625 c 3.37594,-1.15746 28.89294,-9.32959 52.40625,-10.21875 5.05047,-0.17502 10.5358,-0.39492 16.53125,-0.21875 z"
     id="body"
     inkscape:connector-curvature="0"
     inkscape:label="#path10" /><path
     d="m 466.8,328.15 c 5.5,-14.4 17.5,-24.9 31.1,-27.2 9.2,-1.6 25.9,-1.8 34.7,14.9 3.7,7 3.5,16 -0.6,23.7 -4.1,7.8 -11.5,12.9 -20.3,13.8 -8.7,0.9 -15.2,-1.1 -18.8,-5.8 -3.7,-4.8 -4.4,-11.3 -1.8,-16.6 2.8,-5.7 7.1,-8.7 12.9,-9.2 4.5,-0.4 7.8,1.5 9,3.4 0.3,0.6 1,1.7 1,3.3 v 0.1 c 0,4.3 -3.9,5.4 -4.7,5.5 -0.2,0 -1.4,0 -3,-0.4 l -0.8,-0.3 -0.5,-0.2 -0.4,-0.1 c -2.8,-0.5 -5.6,1.2 -6.4,3.9 -0.1,0.5 -0.2,1 -0.2,1.5 0,1.8 0.9,3.5 2.5,4.6 l -0.1,0 0.2,0.1 0.3,0.2 c 0.8,0.5 1.6,0.8 2.4,1 2.2,0.7 4.2,1.1 6.2,1.1 6.8,0 16.2,-5.8 16.3,-16.8 0.1,-6.2 -3,-11.8 -8.5,-15.4 -6.3,-4.1 -17.1,-5.6 -27.2,0.6 -7.3,4.5 -11.3,11.1 -12.9,17.8"
     id="innertail"
     inkscape:connector-curvature="0"
     style="fill:#73ba25"
     inkscape:label="#path12" /><path
     id="path1977_1_"
     display="none"
     opacity="0.41"
     fill="#73BA25"
     d="M529,239c-5.7-0.2-10.2-5.1-10.1-10.8  c0.1-2.8,1.3-5.4,3.3-7.3c2-1.9,4.7-2.9,7.5-2.8c5.7,0.2,10.3,5,10.1,10.8c-0.1,2.8-1.3,5.3-3.3,7.3C534.4,238.1,531.8,239,529,239  L529,239z M531.4,229.5c2.6,0,4.6-1.4,4.6-3.1c0-1.7-2.1-3.1-4.6-3.1c-2.6,0-4.6,1.4-4.6,3.1C526.8,228.1,528.8,229.5,531.4,229.5" /><path
     sodipodi:type="arc"
     style="fill:#1e367b;fill-opacity:1;stroke:#101a05;stroke-width:0.30000001;stroke-linejoin:round;stroke-miterlimit:4;stroke-opacity:1;stroke-dasharray:none"
     id="pupil"
     sodipodi:cx="332.375"
     sodipodi:cy="273.79999"
     sodipodi:rx="6.125"
     sodipodi:ry="3"
     d="m 338.5,273.79999 a 6.125,3 0 1 1 -12.25,0 6.125,3 0 1 1 12.25,0 z"
     inkscape:label="#path2995"
     transform="matrix(0.95486196,0,0,1.4495098,12.002736,-124.20079)" /></svg>