<?xml version="1.0" encoding="UTF-8" standalone="no"?>
<!-- Generator: Adobe Illustrator 17.1.0, SVG Export Plug-In . SVG Version: 6.00 Build 0)  -->

<svg
   xmlns:dc="http://purl.org/dc/elements/1.1/"
   xmlns:cc="http://creativecommons.org/ns#"
   xmlns:rdf="http://www.w3.org/1999/02/22-rdf-syntax-ns#"
   xmlns:svg="http://www.w3.org/2000/svg"
   xmlns="http://www.w3.org/2000/svg"
   xmlns:sodipodi="http://sodipodi.sourceforge.net/DTD/sodipodi-0.dtd"
   xmlns:inkscape="http://www.inkscape.org/namespaces/inkscape"
   height="100%"
   width="100%"
   xml:space="preserve"
   enable-background="new 0 0 400 300"
   viewBox="0 0 400 300"
   y="0px"
   x="0px"
   sodipodi:version="0.32"
   inkscape:output_extension="org.inkscape.output.svg.inkscape"
   sodipodi:docname="OpenSUSE_Logo.svg"
   inkscape:version="0.48.4 r9939"
   id="svg4578"
   version="1.1"><sodipodi:namedview
     width="400px"
     height="300px"
     id="base"
     bordercolor="#d6d6d6"
     objecttolerance="10"
     pagecolor="#ffffff"
     borderlayer="true"
     guidetolerance="10"
     inkscape:cy="225.52116"
     borderopacity="1"
     inkscape:cx="210.90624"
     gridtolerance="10000"
     inkscape:zoom="4.1407643"
     inkscape:window-width="1287"
     inkscape:pageshadow="2"
     inkscape:pageopacity="0.0"
     inkscape:window-y="-3"
     inkscape:window-height="748"
     inkscape:current-layer="layer1"
     inkscape:document-units="px"
     inkscape:showpageshadow="false"
     inkscape:window-x="-3"
     showgrid="false"
     inkscape:window-maximized="1"
     inkscape:object-paths="true" /><metadata
     id="metadata14"><rdf:RDF><cc:Work
         rdf:about=""><dc:format>image/svg+xml</dc:format><dc:type
           rdf:resource="http://purl.org/dc/dcmitype/StillImage" /></cc:Work></rdf:RDF></metadata><defs
     id="defs12"><marker
       inkscape:stockid="Arrow1Lstart"
       orient="auto"
       refY="0.0"
       refX="0.0"
       id="Arrow1Lstart"
       style="overflow:visible"><path
         id="path3776"
         d="M 0.0,0.0 L 5.0,-5.0 L -12.5,0.0 L 5.0,5.0 L 0.0,0.0 z "
         style="fill-rule:evenodd;stroke:#000000;stroke-width:1.0pt"
         transform="scale(0.8) translate(12.5,0)" /></marker></defs><g
     inkscape:groupmode="layer"
     inkscape:label="Layer 1"
     id="layer1"><path
       sodipodi:nodetypes="ccccccccccccccccccccccccccaasaascccc"
       style="font-size:medium;font-style:normal;font-variant:normal;font-weight:normal;font-stretch:normal;text-indent:0;text-align:start;text-decoration:none;line-height:normal;letter-spacing:normal;word-spacing:normal;text-transform:none;direction:ltr;block-progression:tb;writing-mode:lr-tb;text-anchor:start;baseline-shift:baseline;color:#000000;fill:#000000;fill-opacity:1;stroke:#000000;stroke-width:0;stroke-linejoin:round;stroke-miterlimit:4;stroke-opacity:1;stroke-dasharray:none;marker:none;visibility:visible;display:inline;overflow:visible;enable-background:accumulate;font-family:Sans;-inkscape-font-specification:Sans"
       d="m 204.6875,9.90625 c -39.93765,0.291016 -79.8557,18.891876 -104.66019,50.368069 -13.188956,18.029266 -16.773117,45.696571 -0.871446,63.262211 14.850806,17.11897 43.729546,21.52359 61.277276,5.97719 6.13274,-12.26868 5.33641,-9.43834 9.76273,-17.33428 13.75308,-5.76069 21.4574,10.48613 26.12984,-0.3305 -0.78918,-8.78747 -2.05533,-22.238089 10.21781,-22.940538 12.5678,-1.48004 23.26528,7.9977 29.64317,17.830868 8.36982,5.59871 21.40995,17.57929 31.19193,11.29247 2.44548,-10.58167 -12.07373,-17.9216 -7.45147,-28.56357 5.24034,-7.63067 15.45435,-0.425501 23.05409,-1.846386 14.50756,0.58913 29.75155,-1.90042 42.20045,-9.64397 10.54926,-7.556672 8.83696,-22.463649 5.24895,-33.274675 -3.52897,-9.911512 -9.87209,-19.773164 -20.62903,-22.769037 -12.94445,-3.916851 -26.09004,-7.942615 -39.58634,-9.243573 -7.7809,-0.458071 -11.06472,7.718085 -18.79745,2.593581 -15.27786,-3.682915 -31.0026,-5.6745363 -46.73032,-5.37786 z m 2.375,10.78125 c 20.85256,-0.329251 41.33363,4.589234 61.21875,10.40625 2.49711,-4.229707 1.71145,-9.512416 8.25424,-5.805061 7.39735,5.902998 26.62651,8.854209 29.30199,17.36809 4.28564,21.981297 -8.17257,33.153932 -19.4004,33.815934 -11.39087,0.922408 -6.69645,0.651928 -18.07276,-0.782765 -13.12307,-3.863458 -23.6687,9.638389 -19.63445,21.858806 3.3027,13.055836 -9.86175,-4.987941 -12.89793,-8.153222 -11.43355,-11.638606 -31.70692,-16.006911 -45.0386,-5.022305 -5.39416,3.37931 -25.56024,37.929903 -43.43018,33.792223 -5.79416,-1.3416 -6.49016,-10.23716 -7.83295,-16.03104 -2.80112,-12.086305 4.30382,-36.951862 -0.0366,-37.219942 -11.76293,-0.726516 -8.17564,23.716283 -8.7434,36.077062 -0.36881,8.02961 9.3531,18.34063 3.50744,23.85777 -5.29359,4.99609 -10.39168,3.06922 -21.38501,-4.4191 -8.20525,-5.58917 -13.684512,-15.36461 -13.381905,-17.3463 -5.032972,-19.751065 7.035875,-37.255639 21.588745,-50.001848 18.96962,-16.418958 42.74408,-27.559284 67.57116,-31.311186 6.09393,-0.861894 12.25847,-1.239435 18.41186,-1.083366 z"
       id="rand"
       inkscape:connector-curvature="0" /><path
       sodipodi:nodetypes="cccccccccccscccccccccccccccccccccccccccccccccccccc"
       inkscape:connector-curvature="0"
       id="body"
       d="m 198.75,14.1875 c -27.98951,2.104059 -55.06361,13.017673 -77.10062,30.302639 -15.23813,12.330053 -28.641771,30.000804 -28.260432,50.508975 0.09745,19.038546 15.709042,36.407206 34.704372,38.289196 13.62445,2.47602 29.40246,-3.56331 34.69306,-17.07318 3.61646,-8.3971 3.40643,-20.693881 -4.27475,-26.698666 -5.91596,0.578663 -2.10008,-0.986287 -8.66762,1.966803 -1.89054,5.672828 -0.94241,7.526926 -1.48894,16.306403 -1.45005,7.70941 -9.77049,11.15717 -17.54558,11.23112 -7.66967,-2.94337 -16.23225,-8.22876 -19.77202,-15.30397 0.14495,-3.46766 -7.14599,-10.999706 13.49191,-28.954833 7.21038,-2.335297 2.51063,-1.842767 16.26552,-2.566559 7.2,-0.378869 16.76805,5.469496 21.07802,9.877552 6.85667,6.425949 9.69253,15.791944 15.11284,23.13821 4.9779,3.41634 18.08113,13.06419 15.45799,-0.28788 -0.33102,-7.73682 2.14595,-17.6001 11.18822,-18.845136 10.4562,-2.925727 20.71645,2.623144 27.98654,9.802998 8.53255,7.714058 17.48988,15.126898 28.36199,19.308768 8.76575,2.88638 -1.99259,-11.23617 -2.12255,-14.91738 -3.04878,-6.240652 -3.30961,-18.114247 6.35438,-17.593013 18.76996,-0.470496 38.74562,1.473621 55.84917,-7.992133 10.64946,-4.354993 9.39247,-19.238041 5.55491,-28.0069 -2.55266,-9.977575 -9.00105,-19.121406 -19.75463,-21.127049 -12.40352,-3.948119 -25.14465,-6.881519 -37.96259,-9.074243 -4.50075,10.494554 -17.31892,1.774139 -26.17081,1.430978 C 227.65516,14.583838 213.12519,14.479369 198.75,14.1875 z m 9.9375,2.71875 c 19.51323,0.852074 38.74041,4.705654 57.67292,9.228826 3.01977,-2.649869 1.37434,-10.42933 8.63841,-6.038604 13.02384,3.60873 26.78006,5.736786 38.80675,12.139285 6.98777,5.002855 8.44795,14.322482 11.21061,21.922405 3.5894,11.266765 -4.86876,20.664327 -15.76105,22.048155 -15.57863,4.701024 -32.02946,2.748349 -48.01485,4.040093 -12.43588,2.957643 -7.63301,18.784252 -3.80833,27.01018 0.70312,7.64416 -10.70936,-2.82861 -13.69459,-4.76682 -10.25768,-8.41551 -20.19898,-20.427817 -34.76862,-20.02102 -10.138,-0.587594 -19.20756,7.148569 -18.98317,17.523656 2.46952,12.600634 -12.60623,5.781654 -14.16172,-1.657092 -5.8345,-15.300188 -17.76105,-26.4554 -34.90015,-28.45893 -5.423,0.751463 -6.52538,-2.995603 -18.26763,3.271464 -6.32918,6.219734 -12.49176,11.203006 -15.1774,19.920871 -1.88724,9.865801 3.87498,19.156951 12.23294,23.583091 9.1867,7.61624 19.82218,4.34174 28.3669,-1.78686 4.8587,-6.52543 0.85607,-14.74718 3.86799,-20.875084 7.88304,-8.282337 11.36411,8.430074 10.16029,14.432134 -1.70883,12.90723 -13.60136,22.90285 -26.57748,22.68204 C 116.32255,131.723 97.31109,116.49434 96.259704,96.799899 95.343112,78.344676 106.36624,61.37683 119.81481,49.661036 143.02453,30.2374 172.58409,17.886574 203.01728,17.19451 c 1.89219,-0.05953 3.77611,-0.270426 5.67022,-0.28826 z"
       style="font-size:medium;font-style:normal;font-variant:normal;font-weight:normal;font-stretch:normal;text-indent:0;text-align:start;text-decoration:none;line-height:normal;letter-spacing:normal;word-spacing:normal;text-transform:none;direction:ltr;block-progression:tb;writing-mode:lr-tb;text-anchor:start;baseline-shift:baseline;color:#000000;fill:#73ba25;fill-opacity:1;stroke:none;stroke-width:3.13499999;marker:none;visibility:visible;display:inline;overflow:visible;enable-background:accumulate;font-family:Sans;-inkscape-font-specification:Sans" /></g><g
     inkscape:groupmode="layer"
     inkscape:label="Layer 1"
     id="layer1_1_" /><path
     style="fill:none;stroke:#73ba25;stroke-width:2.83459997;stroke-miterlimit:10"
     inkscape:connector-curvature="0"
     inkscape:label="#path8"
     d="m 325.914,67.42878 -1.02,0.188 c -3.225,1.935 -11.302,5.626 -18.862,5.773 -9.366,0.195 -28.245,-9.424 -30.213,-10.444 l -0.188,-0.22 c -0.474,-1.127 -3.308,-7.831 -3.904,-9.243 13.588,8.949 24.856,13.898 33.487,14.665 9.605,0.854 17.093,-4.388 20.294,-6.626 0.628,-0.424 1.102,-0.768 1.298,-0.841 l -0.892,6.748 z"
     stroke-miterlimit="10"
     id="mouth" /><path
     style="fill:none;stroke:#73ba25;stroke-width:2.83462262;stroke-miterlimit:10"
     inkscape:connector-curvature="0"
     d="m 288.18799,44.59979 c 0.131,-3.72399 1.69103,-7.177991 4.41808,-9.708989 2.71904,-2.547998 6.2711,-3.861794 9.99516,-3.739794 7.69113,0.277 13.71823,6.752995 13.45623,14.435983 -0.138,3.716 -1.69903,7.1608 -4.41808,9.7008 -2.71904,2.54799 -6.2621,3.86299 -10.00316,3.73999 -7.67413,-0.286 -13.70123,-6.75299 -13.44823,-14.42799 z"
     stroke-miterlimit="10"
     sodipodi:nodetypes="ccccccc"
     id="eye" /></svg>