<?xml version="1.0" encoding="UTF-8" standalone="no"?>
<!-- Generator: Adobe Illustrator 17.1.0, SVG Export Plug-In . SVG Version: 6.00 Build 0)  -->

<svg
   xmlns:dc="http://purl.org/dc/elements/1.1/"
   xmlns:cc="http://creativecommons.org/ns#"
   xmlns:rdf="http://www.w3.org/1999/02/22-rdf-syntax-ns#"
   xmlns:svg="http://www.w3.org/2000/svg"
   xmlns="http://www.w3.org/2000/svg"
   xmlns:sodipodi="http://sodipodi.sourceforge.net/DTD/sodipodi-0.dtd"
   xmlns:inkscape="http://www.inkscape.org/namespaces/inkscape"
   height="100%"
   width="100%"
   xml:space="preserve"
   enable-background="new 0 0 400 300"
   viewBox="0 0 400 300"
   y="0px"
   x="0px"
   sodipodi:version="0.32"
   inkscape:output_extension="org.inkscape.output.svg.inkscape"
   sodipodi:docname="OpenSUSE_Logo.svg"
   inkscape:version="0.48.4 r9939"
   id="svg4578"
   version="1.1"><sodipodi:namedview
     width="400px"
     height="300px"
     id="base"
     bordercolor="#d6d6d6"
     objecttolerance="10"
     pagecolor="#ffffff"
     borderlayer="true"
     guidetolerance="10"
     inkscape:cy="225.52116"
     borderopacity="1"
     inkscape:cx="210.90624"
     gridtolerance="10000"
     inkscape:zoom="4.1407643"
     inkscape:window-width="1920"
     inkscape:pageshadow="2"
     inkscape:pageopacity="0.0"
     inkscape:window-y="32"
     inkscape:window-height="1025"
     inkscape:current-layer="svg4578"
     inkscape:document-units="px"
     inkscape:showpageshadow="false"
     inkscape:window-x="-3"
     showgrid="false"
     inkscape:window-maximized="1"
     inkscape:object-paths="true" /><metadata
     id="metadata14"><rdf:RDF><cc:Work
         rdf:about=""><dc:format>image/svg+xml</dc:format><dc:type
           rdf:resource="http://purl.org/dc/dcmitype/StillImage" /></cc:Work></rdf:RDF></metadata><defs
     id="defs12"><marker
       style="overflow:visible"
       id="Arrow1Lstart"
       refX="0.0"
       refY="0.0"
       orient="auto"
       inkscape:stockid="Arrow1Lstart"><path
         transform="scale(0.8) translate(12.5,0)"
         style="fill-rule:evenodd;stroke:#000000;stroke-width:1.0pt"
         d="M 0.0,0.0 L 5.0,-5.0 L -12.5,0.0 L 5.0,5.0 L 0.0,0.0 z "
         id="path3776" /></marker></defs><g
     id="layer1"
     inkscape:label="Layer 1"
     inkscape:groupmode="layer"><path
       inkscape:label="#path17-4"
       sodipodi:nodetypes="ccccccccccccccccccccccccccccccccccccccccccccccccc"
       inkscape:connector-curvature="0"
       id="rand"
       d="M 203.1998,11.060448 C 169.58114,11.47481 137.17577,27.168353 113.40773,50.30748 97.98174,65.990993 87.071938,89.444685 93.793551,111.56044 c 5.472917,19.98869 26.472549,34.23862 47.206869,30.62754 17.32457,-1.95598 29.913,-20.08511 26.79313,-37.15879 -0.0277,-6.359005 -7.62797,-11.056247 -12.75,-8.468742 -5.3926,1.685969 -6.37053,7.834152 -4.96875,12.624992 0.79957,7.82064 -6.49426,14.21806 -14.125,13.40625 -16.49536,0.98789 -27.77603,-19.17612 -20.5625,-33.343742 4.96761,-11.787983 18.85487,-16.312626 30.46875,-13.09375 15.88109,3.905147 25.98475,19.252153 28.4375,34.749992 6.18468,2.64109 11.95117,7.77418 18.53125,8.6875 4.05003,-0.62118 1.15657,-6.48909 1.50599,-9.71715 -0.75674,-7.41597 0.51023,-17.358221 9.02526,-19.564092 13.08766,-3.988032 25.63224,4.870002 32.65625,15.468742 3.75247,5.17775 8.00579,9.81001 14.3421,11.69727 5.42518,1.63505 10.23924,7.57222 16.1579,5.36523 0.63177,-6.19692 -5.48426,-10.44238 -6.9375,-16.375 -2.0185,-5.76541 -4.72751,-14.45169 0.625,-18.999992 9.45693,-2.365716 19.3376,2.060579 28.84375,0.90625 13.53297,-0.843858 28.0875,-3.528003 38.4375,-12.65625 3.32204,-5.590564 3.10701,-12.266221 3.15625,-18.5625 -3.15804,-10.247539 -4.98879,-22.859872 -14.09375,-29.5 -15.16836,-8.245464 -32.84147,-11.49828 -49.78125,-14.28125 -3.82219,-0.06353 -2.39476,5.141622 -3.0625,7.03125 -19.55078,-6.363373 -39.89006,-9.953152 -60.5,-9.34375 z m 0.125,6.03125 c 22.77512,-0.607913 45.3199,4.086549 66.59375,11.90625 -0.056,-4.933644 -1.40504,-11.837387 5.78125,-8 13.24298,3.19437 13.41558,8.834086 24.84517,16.65377 5.9737,6.7537 7.73679,14.171755 10.14775,22.576488 -0.98948,5.268723 3.43728,13.133644 -2.86555,15.478324 -15.96805,9.160392 -23.5644,7.51844 -41.25237,4.916418 -7.16622,-1.193814 -14.94394,3.38848 -15.25,11.125 -1.15711,7.595807 1.52529,15.194982 4.84375,21.874992 -5.82373,-2.54456 -11.4912,-5.15012 -14.77546,-10.85782 -7.69236,-11.211947 -20.07823,-20.900356 -34.41204,-19.235922 -9.76275,0.03143 -18.32337,8.213534 -18.5625,18.062492 -0.37496,3.25458 -0.35081,6.54945 -0.0937,9.8125 -4.31128,-2.34994 -9.85163,-3.59478 -9.84375,-9.25 -5.15022,-18.659863 -22.84838,-34.855249 -43.125,-32.874992 -17.78888,0.319898 -31.92129,19.112098 -27.46875,36.218742 2.58035,14.71932 17.64525,25.74537 32.59375,22.8125 10.95682,-1.11628 17.75533,-12.87258 15.28125,-23.21875 -1.0755,-4.2325 6.31053,-3.89329 5.875,0.1875 3.21474,14.8194 -8.32319,30.83104 -23.75,31.1875 C 117.9574,138.79583 99.607577,121.86092 98.106051,102.40419 95.799867,77.305987 113.38781,55.254511 132.95889,41.709116 153.60744,27.153352 177.92624,17.131861 203.3248,17.091698 z"
       style="font-size:medium;font-style:normal;font-variant:normal;font-weight:normal;font-stretch:normal;text-indent:0;text-align:start;text-decoration:none;line-height:normal;letter-spacing:normal;word-spacing:normal;text-transform:none;direction:ltr;block-progression:tb;writing-mode:lr-tb;text-anchor:start;baseline-shift:baseline;color:#000000;fill:#101a05;fill-opacity:1;stroke:none;stroke-width:2.07292676;marker:none;visibility:visible;display:inline;overflow:visible;enable-background:accumulate;font-family:Sans;-inkscape-font-specification:Sans" /><path
       inkscape:label="#path17"
       inkscape:connector-curvature="0"
       id="body"
       d="m 200.84375,13.09375 c -17.27821,0.576196 -39.18321,4.65849 -67.0625,22.875 l -0.0312,0 -1.03125,0.75 -0.0312,0.03125 c -17.47818,11.642785 -29.68508,26.061785 -36,42.8125 -2.060147,5.411196 -4.7265,17.28916 -2.03125,28.625 1.164034,4.96283 3.324887,9.9025 6.21875,14.375 l 0.0312,0 c 6.62009,10.08024 17.62415,16.81905 29.5,17.90625 16.73957,1.62202 29.72509,-6.58432 34.3125,-21.71875 0.96259,-3.15685 1.27078,-6.45544 1.125,-9.71875 l 0,-0.0312 c -0.14025,-2.31701 -0.20529,-4.95432 -1.40625,-7.34375 -1.48093,-2.806208 -4.53994,-4.140866 -7.4375,-3.625 L 157,98 c -0.66754,0.08894 -1.26873,0.268581 -1.84375,0.53125 l 0,0.03125 c -1.4562,0.689833 -2.95832,1.88947 -3.65625,3.65625 -0.18905,0.52392 -0.19235,0.98424 -0.1875,1.53125 0.005,0.54701 0.0704,1.15373 0.125,1.75 0.10916,1.19254 0.25404,2.40186 0.28125,2.75 0.33374,3.77064 -0.59258,7.61356 -2.84375,10.71875 -3.21051,4.39969 -8.82401,6.25653 -16.75,5.375 -7.87474,-0.94064 -14.49442,-5.68077 -18.25,-13.25 -3.68316,-7.34267 -3.86337,-16.175489 -0.5625,-22.78125 4.0275,-8.145308 9.74585,-12.042428 15.5625,-13.8125 5.81665,-1.770072 11.74903,-1.33669 15.96875,-0.5625 12.29874,2.257636 23.62557,12.840736 28.6875,27.03125 0.82926,2.28334 1.24279,4.04154 1.59375,5.6875 l 0.5625,2.5 0.0937,0.46875 0.4375,0.21875 14.25,7.40625 0.125,0.0625 0.0937,0.0937 0.28125,0.1875 0.3125,0 0.375,0 0.875,0 0.125,-0.875 0.0937,-0.46875 0.0312,-0.15625 -0.0312,-0.1875 c -0.0609,-0.32403 -0.11955,-0.38318 -0.21875,-1 -0.0992,-0.61682 -0.23039,-1.73817 -0.40625,-3.875 -0.14016,-1.86744 -0.36659,-5.37777 0.0625,-9 0.42909,-3.622233 1.52968,-7.294795 3.75,-9.59375 1.76396,-1.880167 4.60441,-3.636904 6.625,-4.09375 l 0.0312,0 c 9.10067,-2.333861 20.83209,-0.824851 31.09375,11.8125 5.39062,6.65291 8.09192,9.75535 9.40625,11.15625 l 0.4375,0.4375 0.0312,0.0625 0.0625,0.0312 0.5625,0.46875 0.0937,0.0625 0.0625,0.0312 c 0.14799,0.0789 0.4157,0.20927 0.9375,0.46875 0.5218,0.25948 1.24021,0.60823 2.09375,1.03125 1.70708,0.84604 3.93373,1.96298 6.15625,3.0625 4.44504,2.19904 8.84375,4.375 8.84375,4.375 l 0.3125,0.15625 0.375,-0.0937 0.34375,-0.0625 0.8125,-0.1875 0,-0.84375 0,-0.375 0,-0.40625 -0.25,-0.25 c 0.0199,0.0268 0.13394,0.14481 -0.0312,-0.0312 -0.0191,-0.026 -0.0328,-0.0523 -0.0625,-0.0937 -0.0825,-0.1152 -0.19285,-0.31031 -0.34375,-0.53125 -0.3018,-0.44188 -0.71813,-1.06938 -1.21875,-1.875 -1.00125,-1.61124 -2.32727,-3.89342 -3.5625,-6.53125 -2.47047,-5.27567 -4.6222,-12.0041 -3.6875,-17.875 l 0,-0.03125 c 0.36978,-2.364786 1.07385,-3.978762 2,-5.09375 0.92615,-1.114988 2.11452,-1.767636 3.625,-2.15625 3.02096,-0.777228 7.36532,-0.297899 12.5,0.34375 3.30988,0.375312 7.17273,0.92299 11.21875,1 l 0.0312,0 c 11.19206,0.07647 23.15512,-2.086139 30.6875,-5.59375 4.73578,-2.184841 7.83078,-3.6903 9.875,-5.6875 l 0,-0.03125 c 0.005,-0.0044 0.0262,0.0044 0.0312,0 0.95391,-0.833241 1.30822,-1.959143 1.65625,-3 l 0.0312,-0.0625 0.25,-0.59375 L 327,71.40625 327,71.375 c 0.31277,-0.916783 0.804,-2.671086 0.96875,-3.8125 L 328,67.21875 l -0.0625,-0.125 c -0.004,-0.03844 -0.0296,-0.09986 -0.0312,-0.21875 -0.003,-0.237784 0.0119,-0.588849 0.0312,-1 0.0387,-0.822303 0.13076,-1.913628 0.21875,-2.96875 0.17599,-2.110245 0.375,-4.15625 0.375,-4.15625 l 0.0312,-0.125 -0.0312,-0.125 C 328.24893,56.479598 326.86532,51.346165 325.0625,46 324.16109,43.326917 323.15183,40.624107 322.125,38.3125 321.09817,36.000893 320.10235,34.094295 319,32.875 l -0.0312,0 c -1.01532,-1.082206 -1.94409,-2.348617 -3.71875,-3.5 l -0.0312,0 c -7.06759,-4.371553 -18.60919,-7.73683 -28.65625,-10.125 -5.02353,-1.194085 -9.68083,-2.123227 -13.15625,-2.78125 -3.47542,-0.658023 -5.91187,-1.08173 -6.125,-1.125 l -0.21875,-0.03125 -0.25,0.0625 -0.28125,0.0625 -0.5625,0.15625 -0.15625,0.53125 -0.0625,0.21875 -0.0625,0.15625 0,0.15625 c 0,0 -0.0599,4.372948 -0.0937,6.59375 -5.31755,-1.860192 -27.40811,-9.104268 -48.96875,-9.96875 -4.78241,-0.188794 -10.02185,-0.379565 -15.78125,-0.1875 z m 0.0312,2.0625 c 5.67582,-0.180713 10.87611,0.03005 15.65625,0.21875 22.37437,0.897109 46.4461,9.105112 49.6875,10.28125 l 1.40625,0.5 0,-1.5 c 0,-0.637197 0.10106,-5.887345 0.125,-7.125 0.84913,0.152541 2.31866,0.407824 5.28125,0.96875 3.45301,0.653781 8.04952,1.56585 13.03125,2.75 9.96347,2.3683 21.45917,5.790606 28.0625,9.875 1.48368,0.962603 2.23407,1.97347 3.34375,3.15625 0.77475,0.856942 1.79374,2.651917 2.78125,4.875 0.98751,2.223083 1.95661,4.869241 2.84375,7.5 1.76461,5.232844 3.11871,10.501664 3.34375,12.0625 -0.0178,0.172693 -0.17354,1.990257 -0.34375,4.03125 -0.0891,1.068302 -0.1778,2.130641 -0.21875,3 -0.0205,0.43468 -0.0357,0.811578 -0.0312,1.125 0.002,0.156711 0.0166,0.297332 0.0312,0.4375 7.2e-4,0.0069 -5.2e-4,0.02451 0,0.03125 -0.13293,0.836936 -0.56162,2.531455 -0.8125,3.28125 -0.005,0.01515 -0.0264,0.04818 -0.0312,0.0625 l -0.25,0.625 -0.0312,0.03125 0,0.03125 c -0.34946,1.042906 -0.67745,1.832525 -1.09375,2.1875 l -0.0312,0.03125 -0.0312,0.03125 c -1.63962,1.613199 -4.60932,3.097034 -9.34375,5.28125 -7.05273,3.284252 -18.8817,5.507679 -29.78125,5.4375 -0.0109,-2.08e-4 -0.0203,2.15e-4 -0.0312,0 -3.87586,-0.07629 -7.66094,-0.590129 -11,-0.96875 -5.13622,-0.641842 -9.62613,-1.252885 -13.28125,-0.3125 -1.82756,0.470193 -3.45986,1.365802 -4.6875,2.84375 -1.22764,1.477948 -2.0281,3.475567 -2.4375,6.09375 -1.04864,6.586516 1.28503,13.66086 3.84375,19.125 1.27936,2.73207 2.62103,5.05284 3.65625,6.71875 0.0993,0.15981 0.15668,0.22773 0.25,0.375 -1.53566,-0.75913 -3.13057,-1.55085 -6.3125,-3.125 -2.2223,-1.09941 -4.48128,-2.18563 -6.1875,-3.03125 -0.85311,-0.42281 -1.57352,-0.80381 -2.09375,-1.0625 -0.41943,-0.20857 -0.59522,-0.26645 -0.6875,-0.3125 l -0.0625,-0.0312 -0.5,-0.4375 -0.34375,-0.34375 c -1.23569,-1.31708 -3.90513,-4.39625 -9.28125,-11.03125 -10.69444,-13.170325 -23.45007,-14.986998 -33.1875,-12.5 -0.01,0.0025 -0.0215,-0.0025 -0.0312,0 -2.64496,0.609208 -5.60478,2.469634 -7.65625,4.65625 -2.73805,2.835015 -3.85617,6.960282 -4.3125,10.8125 -0.45633,3.85222 -0.23692,7.46746 -0.0937,9.375 0.16189,1.96716 0.29838,2.96567 0.40625,3.6875 l -12.8125,-6.65625 -0.46875,-2 c -0.35738,-1.67604 -0.81674,-3.53988 -1.6875,-5.9375 -5.27981,-14.801298 -17.0486,-25.951666 -30.25,-28.375 -4.42199,-0.811301 -10.65929,-1.28553 -16.9375,0.625 -6.27821,1.91053 -12.55246,6.259413 -16.8125,14.875 -3.64085,7.286139 -3.40436,16.71675 0.5625,24.625 4.03614,8.13467 11.28509,13.35266 19.84375,14.375 8.36577,0.93045 14.95629,-1.1055 18.6875,-6.21875 2.56551,-3.53879 3.59335,-7.86143 3.21875,-12.09375 -0.0436,-0.55785 -0.1779,-1.65218 -0.28125,-2.78125 -0.0517,-0.56453 -0.0898,-1.1115 -0.0937,-1.5625 -0.004,-0.43368 0.037,-0.78306 0.0312,-0.78125 -2.3e-4,7e-5 4.6e-4,-0.0325 0,-0.0312 0.44106,-1.09202 1.50753,-1.98543 2.59375,-2.5 0.41666,-0.19033 0.7842,-0.31294 1.25,-0.375 l 0.0312,0 0.0312,0 c 2.04374,-0.37343 4.18196,0.53173 5.25,2.53125 0.004,0.009 -0.004,0.0226 0,0.0312 0.908,1.82635 1.01484,4.15788 1.15625,6.5 6.4e-4,0.0106 -6.4e-4,0.0207 0,0.0312 0.13426,3.068 -0.12387,6.09544 -1,8.96875 -4.33763,14.31039 -16.13939,21.83021 -32.125,20.28125 -11.20803,-1.02606 -21.72684,-7.43029 -28,-16.96875 -0.005,-0.008 0.005,-0.0235 0,-0.0312 -2.765318,-4.27932 -4.836848,-8.9949 -5.9375,-13.6875 -2.546446,-10.709992 0.03095,-22.398502 1.9375,-27.40625 6.14738,-16.306296 18.00814,-30.419188 35.21875,-41.875 l 0.0312,0 1.03125,-0.75 0.0312,-0.03125 c 27.56504,-18.001953 48.91792,-21.95811 65.9375,-22.5 z"
       style="font-size:medium;font-style:normal;font-variant:normal;font-weight:normal;font-stretch:normal;text-indent:0;text-align:start;text-decoration:none;line-height:normal;letter-spacing:normal;word-spacing:normal;text-transform:none;direction:ltr;block-progression:tb;writing-mode:lr-tb;text-anchor:start;baseline-shift:baseline;color:#000000;fill:#73ba25;fill-opacity:1;stroke:none;stroke-width:2.07292676;marker:none;visibility:visible;display:inline;overflow:visible;enable-background:accumulate;font-family:Sans;-inkscape-font-specification:Sans" /></g><g
     id="layer1_1_"
     inkscape:label="Layer 1"
     inkscape:groupmode="layer" /><path
     id="mouth"
     stroke-miterlimit="10"
     d="m 325.914,69.843793 -1.02,0.188 c -3.225,1.935 -11.302,5.626 -18.862,5.773 -9.366,0.195 -28.245,-9.424 -30.213,-10.444 l -0.188,-0.22 c -0.474,-1.127 -3.308,-7.831 -3.904,-9.243 13.588,8.949 24.856,13.898 33.487,14.665 9.605,0.854 17.093,-4.388 20.294,-6.626 0.628,-0.424 1.102,-0.768 1.298,-0.841 l -0.892,6.748 z"
     inkscape:label="#path8"
     inkscape:connector-curvature="0"
     style="fill:none;stroke:#73ba25;stroke-width:2.83459997;stroke-miterlimit:10" /><path
     id="eye"
     sodipodi:nodetypes="ccccccc"
     stroke-miterlimit="10"
     d="m 283.59947,43.633785 c 0.131,-3.72399 1.69103,-7.177991 4.41808,-9.708989 2.71904,-2.547998 6.2711,-3.861794 9.99516,-3.739794 7.69113,0.277 13.71823,6.752995 13.45623,14.435983 -0.138,3.716 -1.69903,7.1608 -4.41808,9.7008 -2.71904,2.54799 -6.2621,3.86299 -10.00316,3.73999 -7.67413,-0.286 -13.70123,-6.75299 -13.44823,-14.42799 z"
     inkscape:connector-curvature="0"
     style="fill:none;stroke:#73ba25;stroke-width:2.83462262;stroke-miterlimit:10" /></svg>