<?xml version="1.0" encoding="UTF-8" standalone="no"?>
<!-- Created with Inkscape (http://www.inkscape.org/) -->

<svg
   xmlns:dc="http://purl.org/dc/elements/1.1/"
   xmlns:cc="http://creativecommons.org/ns#"
   xmlns:rdf="http://www.w3.org/1999/02/22-rdf-syntax-ns#"
   xmlns:svg="http://www.w3.org/2000/svg"
   xmlns="http://www.w3.org/2000/svg"
   xmlns:sodipodi="http://sodipodi.sourceforge.net/DTD/sodipodi-0.dtd"
   xmlns:inkscape="http://www.inkscape.org/namespaces/inkscape"
   width="744.09448"
   height="1052.3622"
   id="svg2"
   version="1.1"
   inkscape:version="0.48.4 r9939"
   sodipodi:docname="button.svg">
  <defs
     id="defs4" />
  <sodipodi:namedview
     id="base"
     pagecolor="#ffffff"
     bordercolor="#666666"
     borderopacity="1.0"
     inkscape:pageopacity="0.0"
     inkscape:pageshadow="2"
     inkscape:zoom="0.98994949"
     inkscape:cx="161.10147"
     inkscape:cy="644.56095"
     inkscape:document-units="px"
     inkscape:current-layer="layer1"
     showgrid="false"
     units="mm"
     inkscape:window-width="1920"
     inkscape:window-height="1060"
     inkscape:window-x="1917"
     inkscape:window-y="-3"
     inkscape:window-maximized="1" />
  <metadata
     id="metadata7">
    <rdf:RDF>
      <cc:Work
         rdf:about="">
        <dc:format>image/svg+xml</dc:format>
        <dc:type
           rdf:resource="http://purl.org/dc/dcmitype/StillImage" />
      </cc:Work>
    </rdf:RDF>
  </metadata>
  <g
     inkscape:label="Ebene 1"
     inkscape:groupmode="layer"
     id="layer1"
     transform="translate(0,-2.5390623e-6)">
    <path
       sodipodi:type="arc"
       style="opacity:1;fill:#82e7f6;fill-opacity:1;stroke:#000000;stroke-width:0.29601711000000003;stroke-linejoin:round;stroke-miterlimit:4;stroke-opacity:1;stroke-dasharray:none"
       id="path2985"
       sodipodi:cx="458.10419"
       sodipodi:cy="478.09045"
       sodipodi:rx="128.79445"
       sodipodi:ry="105.56094"
       d="m 586.89864,478.09045 a 128.79445,105.56094 0 1 1 -257.5889,0 128.79445,105.56094 0 1 1 257.5889,0 z"
       transform="matrix(-0.81863177,-0.41172888,0.50234867,-0.9988091,294.2861,810.53936)" />
    <g
       transform="matrix(0.58889084,0,0,-0.58889084,99.181145,409.54107)"
       id="g4569"
       style="fill:#ffcf75;fill-rule:nonzero;fill-opacity:1">
      <path
         d="m 160.13,603.66 h 0.09 -0.09"
         id="path4595"
         inkscape:connector-curvature="0"
         style="fill:#ffcf75;fill-opacity:1" />
      <g
         transform="matrix(2.30724,0,0,2.30724,-136.436,314.961)"
         id="g5207"
         style="fill:#ffcf75;fill-opacity:1">
        <path
           d="m 118.02,123.06 c 0.15,0 0.31,-0.05 0.41,0.11 0.11,-0.58 0.21,-1.15 0.37,-1.78 l -0.16,-0.1 -0.21,0.52 c -0.57,-1.57 0.37,-3.14 0.63,-4.65 0.52,-0.68 0.52,-1.62 0.47,-2.51 -0.63,0.11 -0.31,-0.68 -0.73,-0.78 0.1,-0.26 0.31,-0.47 0.26,-0.84 -0.94,-0.42 -1.62,0.63 -1.78,1.26 -0.15,0.31 -0.15,0.73 -0.52,0.99 -0.16,-0.84 -0.78,-0.05 -1.25,-0.16 -1.15,5.7 -0.84,11.65 -0.73,17.71 0.42,1.2 0,2.3 0.1,3.61 0.32,-0.79 0,-1.78 0.26,-2.62 0.11,0.68 0.37,1.26 0.26,1.99 l 0.26,-2.35 h 0.11 v 6.74 c -0.11,-6.06 2.14,-11.34 2.25,-17.14"
           id="path4735"
           inkscape:connector-curvature="0"
           style="fill:#ffcf75;fill-opacity:1" />
        <path
           d="m 115.93,131.06 -0.16,2.14 0.16,-1.78 v -0.36"
           id="path4761"
           inkscape:connector-curvature="0"
           style="fill:#ffcf75;fill-opacity:1" />
        <path
           d="m 131.08,114.13 c -0.89,-0.89 -1.83,-1.83 -2.77,-2.25 -0.11,3.19 1.62,6.22 2.66,9.3 1.88,3.5 3.03,7.42 5.75,10.66 l 0.36,0.99 c -2.14,-6.16 -3.6,-12.64 -6,-18.7"
           id="path4763"
           inkscape:connector-curvature="0"
           style="fill:#ffcf75;fill-opacity:1" />
        <path
           d="m 102.5,114.76 c 0.21,-0.11 0.31,0.15 0.47,0.26 -0.05,-1.36 0.73,-1.31 -0.1,-2.51 -0.37,-0.26 -0.74,-0.42 -1.26,-0.37 -3.864,3.56 -5.222,8.73 -6.633,13.01 l 1.097,-2.61 c -0.627,2.87 -1.619,5.9 -2.508,8.88 2.195,-5.85 5.486,-11.39 8.934,-16.66"
           id="path4765"
           inkscape:connector-curvature="0"
           style="fill:#ffcf75;fill-opacity:1" />
        <path
           d="m 115.51,126.2 0.15,-2.67 -0.15,2.67"
           id="path4767"
           inkscape:connector-curvature="0"
           style="fill:#ffcf75;fill-opacity:1" />
        <path
           d="m 157.51,118.52 c -5.59,-4.18 -12.07,-8.83 -15.78,-15.41 -2.09,-0.58 -3.86,-1.94 -6.27,-1.78 0.58,0.26 -0.26,0.84 0,1.25 h -0.52 c 0.42,0.47 1.2,0.58 1.26,1.26 -0.47,0.15 -0.21,1.51 -1.36,1.04 0.26,0.63 0.89,0.79 1.51,0.84 0.58,1.36 2.15,0.89 3.14,1.51 5.53,3.82 10.29,9.56 16.56,11.81 0.52,-0.1 1.36,0.26 1.46,-0.52"
           id="path4769"
           inkscape:connector-curvature="0"
           style="fill:#ffcf75;fill-opacity:1" />
        <path
           d="m 79.148,110.26 0.261,0.26 c 3.03,-1.98 5.694,-5.01 9.142,-5.9 0.732,0.16 1.045,0.11 1.776,0.11 0.105,-0.27 0,-0.68 0.366,-0.89 0.627,0.36 0.731,-0.37 0.993,-0.73 -0.209,-0.32 -0.679,0.1 -0.836,-0.37 0.313,-0.63 1.567,-0.31 1.462,-1.25 -0.574,-0.94 -2.507,-0.05 -1.723,-1.884 l -0.366,-1.515 c -5.329,1.358 -8.254,6.739 -12.068,10.399 l 1.619,-1.1 c -0.104,-0.05 -0.156,0.05 -0.209,0.11 l -0.261,-0.27 c 0.888,-0.26 1.097,-1.35 2.142,-1.35 -0.209,1.04 -1.724,1.56 -2.298,2.61 0.783,-0.16 1.514,-1.1 2.298,-1.62 -0.47,1.04 -1.515,1.93 -2.664,2.77 l -2.612,3.13 c 1.045,-1.04 1.828,-1.88 2.978,-2.51"
           id="path4771"
           inkscape:connector-curvature="0"
           style="fill:#ffcf75;fill-opacity:1" />
        <path
           d="m 116.55,111.88 c 5.38,0.58 10.03,-1.62 14.16,-4.28 -6.11,1.57 -12.69,4.07 -18.96,0.78 -1,-0.15 -2.09,-0.62 -2.51,-1.62 l 0.16,-0.42 -0.89,-0.36 c 0,0.16 0.05,0.31 -0.11,0.36 -0.42,-0.41 -1.36,-0.1 -1.77,-0.73 l 0.1,-0.1 c -0.52,-0.31 -1.77,-1.05 -2.71,-0.78 -4.184,-3.29 -7.476,-7.005 -9.409,-11.759 0.471,0 1.097,0.888 1.097,1.359 0.157,0.104 0.209,0.313 0.366,0.261 l 0.157,-0.157 c -0.314,0.731 0.731,0.94 0.888,1.515 -0.157,-0.575 -1.202,-1.672 -0.627,-2.508 L 94.35,90.046 c -0.679,0.261 -0.522,-0.575 -0.784,-0.836 0.418,-1.829 -1.097,-4.232 -1.097,-6.53 0.052,-1.672 -0.992,-2.56 -0.261,-4.023 l 0.104,0.104 c 0.105,-0.156 0.418,-1.358 -0.208,-0.992 -0.157,-0.314 0.261,-0.314 0.208,-0.366 -0.208,-0.418 -0.104,-1.045 0.262,-1.358 l 0.156,0.104 c 0.314,-0.679 0.889,-1.828 0.471,-2.612 0.731,0 0.679,-1.097 0.992,-1.672 0.418,-2.298 1.568,-4.597 3.292,-6.478 0.261,-0.783 1.201,-1.306 1.619,-2.037 0.836,0.261 1.676,-1.306 2.406,-0.732 l -0.16,0.105 c 1.46,-0.418 1.1,-2.09 2.87,-1.985 1.94,-1.15 4.29,-0.418 6.43,-0.627 2.77,-0.679 5.12,1.253 7.63,0.731 1.67,0.522 3.29,1.568 5.01,1.515 2.98,1.463 6.32,2.926 8.41,6.165 4.24,5.538 6.22,12.381 5.28,19.8 -1.46,6.164 -7.26,12.538 -13.79,13.268 -7.42,1.62 -13.43,-2.402 -17.29,-8.41 -2.62,-4.336 -3.3,-11.18 -0.42,-15.672 2.35,-4.545 7.62,-5.747 12.54,-5.225 2.71,0.418 5.59,1.463 6.89,4.127 2.46,3.762 0.79,8.934 0,12.904 -0.63,1.359 -2.04,1.933 -3.24,2.508 -2.77,-0.052 -5.43,-0.157 -7.42,-2.142 0.42,-2.926 -0.15,-6.374 2.93,-8.15 1.1,-0.261 1.93,-1.045 3.24,-0.731 0.36,-1.045 -1.15,-0.575 -1.62,-0.993 -2.04,0.784 -4.02,1.933 -4.55,4.232 l -0.62,6.53 c 0.78,3.448 4.75,3.291 7.52,3.866 3.19,-0.47 5.85,-2.09 7.78,-4.754 0.58,-1.881 1.52,-3.761 1.15,-5.903 0.84,-2.09 0,-4.336 -0.26,-6.635 -1.15,-2.978 -2.92,-6.008 -5.9,-7.889 -4.02,-0.783 -8.2,-1.567 -12.17,0 -5.12,1.358 -9.35,6.478 -10.03,11.65 -1.41,8.464 3.13,15.986 9.92,20.427 6.2,3.96 14.76,3.11 20.69,-1.463 6.63,-5.224 10.55,-12.747 9.67,-21.471 -0.32,-7.732 -5.23,-14.576 -12.07,-18.285 -3.19,-0.888 -6.53,-2.873 -9.62,-2.665 -2.66,-0.157 -5.01,-0.783 -7.94,-0.365 l -1.09,-0.366 0.1,-0.522 c 0.47,0.104 0.89,0.156 1.41,0.156 -4.49,-0.365 -9.51,0.523 -13.059,2.978 -0.679,0.94 -1.829,0.94 -2.508,1.515 -4.545,2.09 -5.694,7.157 -7.522,11.18 l -0.105,1.254 c 0.209,-0.627 0.47,-1.254 0.731,-1.881 0.575,1.359 -0.522,2.299 -0.522,3.762 -1.724,4.231 -0.418,9.874 0,13.792 0.105,0.94 0.94,2.194 0.522,2.612 0.262,1.253 0.68,2.351 1.254,3.5 1.149,-0.209 0.731,1.097 1.149,1.672 1.359,1.515 1.725,3.447 3.501,5.017 0.94,0.21 0.992,-0.58 1.724,0 -0.523,-0.68 -0.784,-0.21 -1.463,-0.52 0.313,0.1 0.47,-0.68 0.836,-0.53 -0.105,-0.15 -0.523,-0.15 -0.366,-0.47 0.314,-0.15 0.627,0.26 0.888,0.47 -0.052,0.32 0.261,0.63 0.523,1.05 0.731,-0.05 1.515,0.94 1.619,1.36 -0.313,0.41 -0.47,-0.32 -0.783,-0.27 l 0.417,0.37 -0.522,0.16 0.732,0.73 v -0.11 c 0.414,-0.26 0.884,0 1.144,0.37 l -0.52,0.37 c 2.98,1.09 4.81,4.85 8.15,5.27 2.25,1.41 5.07,1.94 7.94,1.99 v -0.11"
           id="path4773"
           inkscape:connector-curvature="0"
           style="fill:#ffcf75;fill-opacity:1" />
        <path
           d="m 114.78,110.37 c -0.53,-0.16 -0.94,-0.68 -1.62,-0.47 0.47,0.31 1.09,0.31 1.62,0.47"
           id="path4775"
           inkscape:connector-curvature="0"
           style="fill:#ffcf75;fill-opacity:1" />
        <path
           d="m 112.01,110.26 h 0.52 -0.52"
           id="path4777"
           inkscape:connector-curvature="0"
           style="fill:#ffcf75;fill-opacity:1" />
        <path
           d="m 101.25,103.73 -0.63,-0.62 0.63,0.62"
           id="path4779"
           inkscape:connector-curvature="0"
           style="fill:#ffcf75;fill-opacity:1" />
        <path
           d="M 98.582,102.74 98.477,103 h 0.366 l -0.261,-0.26"
           id="path4781"
           inkscape:connector-curvature="0"
           style="fill:#ffcf75;fill-opacity:1" />
        <path
           d="m 98.843,102.58 -0.627,-0.47 0.627,0.47"
           id="path4783"
           inkscape:connector-curvature="0"
           style="fill:#ffcf75;fill-opacity:1" />
        <path
           d="m 96.231,100.96 -0.366,-0.36 0.366,0.36"
           id="path4785"
           inkscape:connector-curvature="0"
           style="fill:#ffcf75;fill-opacity:1" />
        <path
           d="m 91.842,98.718 -0.156,-0.627 0.156,0.627"
           id="path4787"
           inkscape:connector-curvature="0"
           style="fill:#ffcf75;fill-opacity:1" />
        <path
           d="m 163.41,97.725 c 0,-0.156 0.06,-0.209 0.16,-0.261 -6.43,-2.09 -12.33,-5.485 -19.33,-6.269 -0.36,0.261 -0.94,0.105 -1.25,0.522 0.21,0.575 0.42,1.15 0.99,1.62 -0.36,0.784 -2.14,-0.052 -1.52,1.097 1.68,0.261 3.14,0.94 4.55,1.672 5.01,0.522 10.19,0.313 15.05,1.619 h 1.35"
           id="path4789"
           inkscape:connector-curvature="0"
           style="fill:#ffcf75;fill-opacity:1" />
        <path
           d="m 70.893,91.456 c 4.441,0.105 8.202,-0.731 12.643,-0.261 0.313,1.097 1.828,-0.104 1.776,0.993 1.202,-0.418 -0.261,-0.941 0.366,-1.724 0.731,-0.47 1.724,-0.679 2.037,-1.411 -0.104,-0.575 -1.358,-0.731 -0.522,-1.358 -2.873,-0.209 -6.74,-0.105 -9.665,-0.157 -3.552,0.418 -7,1.045 -10.135,2.403 1.097,0.157 2.403,-0.261 3.5,-0.104 -3.813,0.679 -7.261,2.403 -10.762,3.866 l 10.762,-2.247"
           id="path4791"
           inkscape:connector-curvature="0"
           style="fill:#ffcf75;fill-opacity:1" />
        <path
           d="m 94.35,93.703 -0.157,-0.366 0.157,0.366"
           id="path4793"
           inkscape:connector-curvature="0"
           style="fill:#ffcf75;fill-opacity:1" />
        <path
           d="m 151.87,79.806 c 5.12,-0.679 10.92,0.157 14.83,-3.134 -0.2,-0.627 0.27,-0.889 0.63,-1.254 l -1.67,0.627 c -7.36,0.836 -16.46,-1.881 -21.42,4.231 0.52,0.47 0.94,0.627 1.62,0.888 2.25,0.105 3.97,-1.097 6.01,-1.358"
           id="path4795"
           inkscape:connector-curvature="0"
           style="fill:#ffcf75;fill-opacity:1" />
        <path
           d="m 88.447,79.649 h 0.105 v -0.47 h -0.105 v 0.47 z"
           id="path4797"
           inkscape:connector-curvature="0"
           style="fill:#ffcf75;fill-opacity:1" />
        <path
           d="m 85.835,76.672 c 0.47,0 0.835,-0.575 1.097,-0.784 l 0.156,-0.627 C 86.775,75.418 86.67,75 86.461,74.895 c -0.104,-0.209 0.157,-0.261 0.209,-0.365 0.262,0.104 0.366,0.313 0.627,0.261 0.366,-0.575 0.366,-0.888 0.523,-1.515 -0.209,0 -0.366,-0.261 -0.523,-0.366 0.627,-0.47 -0.052,-1.097 0.157,-1.515 -1.881,-1.881 -4.702,-1.463 -6.792,-2.769 -3.552,-1.41 -7.261,-2.873 -11.127,-3.134 L 65.774,64.76 c 1.149,0.471 2.507,0.784 3.5,1.359 -2.038,0.157 -4.127,-0.888 -6.008,-0.627 1.776,0.784 3.03,1.933 4.754,2.873 -0.105,0.209 -0.366,0.105 -0.523,0.157 l 0.157,0.104 h -0.888 l 1.358,0.262 -0.104,0.104 c -0.052,0 0.679,-0.052 0.888,0.261 -0.105,0.888 2.403,0.314 1.097,0.993 0.314,0.313 0.732,0.261 1.15,0.261 l -0.366,-0.261 c 1.41,0 2.351,1.149 3.761,1.619 0.94,0.471 1.985,0.575 2.717,1.515 l -0.105,0.157 c 1.568,0.366 3.03,2.351 4.911,2.508 0.627,1.045 2.194,0.052 3.344,0.365 l 0.418,0.262"
           id="path4799"
           inkscape:connector-curvature="0"
           style="fill:#ffcf75;fill-opacity:1" />
        <path
           d="m 91.215,74.634 0.105,0.157 0.261,-0.418 c -0.783,-0.313 -0.104,-1.41 -0.104,-1.724 -0.47,1.202 -0.732,2.351 -0.784,3.605 0.366,-0.157 -0.209,-1.306 0.522,-1.62"
           id="path4801"
           inkscape:connector-curvature="0"
           style="fill:#ffcf75;fill-opacity:1" />
        <path
           d="m 90.85,71.029 c -0.157,-0.104 -0.157,-0.261 -0.157,-0.418 l -0.261,0.784 0.418,-0.366"
           id="path4803"
           inkscape:connector-curvature="0"
           style="fill:#ffcf75;fill-opacity:1" />
        <path
           d="m 90.954,70.507 0.105,-0.522 -0.105,0.522"
           id="path4805"
           inkscape:connector-curvature="0"
           style="fill:#ffcf75;fill-opacity:1" />
        <path
           d="m 149.15,62.88 c 2.2,-1.62 3.97,-3.866 4.76,-6.27 -4.76,2.561 -10.35,4.128 -14.32,8.621 0.16,0.731 0.99,0.156 1.41,0.522 l -0.26,0.261 c 3.4,1.15 5.59,-2.142 8.41,-3.134"
           id="path4807"
           inkscape:connector-curvature="0"
           style="fill:#ffcf75;fill-opacity:1" />
        <path
           d="M 94.35,60.738 C 93.201,59.484 96.126,58.439 94.193,57.446 89.335,52.745 83.902,47.207 78.521,42.557 l 2.298,2.508 c -0.783,0.209 -1.41,-0.836 -2.037,-1.149 l -2.247,-2.142 c 0.836,0.836 1.829,1.724 1.986,2.664 -1.463,-0.992 -2.978,-2.037 -4.493,-3.03 0.836,1.202 1.881,1.515 2.612,2.508 -0.052,0.156 -0.209,0.156 -0.366,0.156 4.545,6.113 9.769,12.538 16.038,17.397 -0.156,0.366 0.262,0.68 0.523,0.784 0.731,0 1.149,-0.94 1.515,-1.515"
           id="path4809"
           inkscape:connector-curvature="0"
           style="fill:#ffcf75;fill-opacity:1" />
        <path
           d="m 97.223,60.477 1.515,-1.15 c -1.149,0.261 -2.142,0.784 -3.03,1.672 0.627,0.052 0.732,-0.888 1.515,-0.522"
           id="path4811"
           inkscape:connector-curvature="0"
           style="fill:#ffcf75;fill-opacity:1" />
        <path
           d="m 125.54,57.864 c -0.16,-0.104 -0.37,-0.156 -0.63,-0.156 0.21,0.052 0.42,0.156 0.63,0.156"
           id="path4813"
           inkscape:connector-curvature="0"
           style="fill:#ffcf75;fill-opacity:1" />
        <path
           d="m 129.93,53.685 c 1.25,0.157 0.21,-1.045 0.52,-1.463 l -0.37,-0.784 c 1.15,-4.336 1.88,-9.037 1.73,-13.791 -3.4,4.858 -4.39,10.866 -6.9,16.195 h 0.16 c 0.26,0.261 -0.05,0.574 -0.26,0.731 1.25,0.941 3.5,1.463 5.01,0.523 l 0.11,-1.411"
           id="path4815"
           inkscape:connector-curvature="0"
           style="fill:#ffcf75;fill-opacity:1" />
        <path
           d="m 110.49,51.7 c -0.36,-0.523 0.53,-0.836 0.79,-1.254 -1.1,-0.104 -0.21,-1.619 -1.41,-1.359 C 105.42,42.714 102.71,35.609 99.731,28.609 99,27.564 98.268,26.206 97.119,25.631 l -0.261,0.366 c 3.134,9.037 5.802,18.336 10.032,26.957 l -0.37,0.731 1.26,0.784 c 1.09,-0.732 1.93,-1.568 2.71,-2.769"
           id="path4817"
           inkscape:connector-curvature="0"
           style="fill:#ffcf75;fill-opacity:1" />
      </g>
    </g>
    <text
       xml:space="preserve"
       style="font-size:27.00454521px;font-style:normal;font-variant:normal;font-weight:normal;font-stretch:normal;text-align:center;line-height:125.99999905%;letter-spacing:0.10608929px;word-spacing:0px;text-anchor:middle;fill:#50559d;fill-opacity:1;stroke:none;font-family:Droid Serif;-inkscape-font-specification:Droid Serif"
       x="159.0451"
       y="166.71227"
       id="text3794"
       sodipodi:linespacing="126%"><tspan
         sodipodi:role="line"
         id="tspan3796"
         x="159.09814"
         y="166.71227"
         rotate="0 0 0 0 0 0 0">Organisation</tspan><tspan
         sodipodi:role="line"
         x="159.09816"
         y="200.73799"
         id="tspan3802">Sommerfest</tspan></text>
    <text
       xml:space="preserve"
       style="font-size:28px;font-style:normal;font-variant:normal;font-weight:normal;font-stretch:normal;line-height:125%;letter-spacing:0px;word-spacing:0px;fill:#000000;fill-opacity:1;stroke:none;font-family:Droid Serif;-inkscape-font-specification:Droid Serif"
       x="193.9493"
       y="439.19958"
       id="text3798"
       sodipodi:linespacing="125%"><tspan
         sodipodi:role="line"
         id="tspan3800"
         x="193.9493"
         y="439.19958" /></text>
  </g>
</svg>
