<?xml version="1.0" encoding="UTF-8" standalone="no"?>
<!-- Created with Inkscape (http://www.inkscape.org/) -->

<svg
   xmlns:dc="http://purl.org/dc/elements/1.1/"
   xmlns:cc="http://creativecommons.org/ns#"
   xmlns:rdf="http://www.w3.org/1999/02/22-rdf-syntax-ns#"
   xmlns:svg="http://www.w3.org/2000/svg"
   xmlns="http://www.w3.org/2000/svg"
   xmlns:sodipodi="http://sodipodi.sourceforge.net/DTD/sodipodi-0.dtd"
   xmlns:inkscape="http://www.inkscape.org/namespaces/inkscape"
   width="210mm"
   height="297mm"
   viewBox="0 0 210 297"
   version="1.1"
   id="svg4432"
   inkscape:version="0.92.4 (5da689c313, 2019-01-14)"
   sodipodi:docname="cat-front.svg">
  <defs
     id="defs4426" />
  <sodipodi:namedview
     id="base"
     pagecolor="#ffffff"
     bordercolor="#666666"
     borderopacity="1.0"
     inkscape:pageopacity="0.0"
     inkscape:pageshadow="2"
     inkscape:zoom="1.7495628"
     inkscape:cx="463.9453"
     inkscape:cy="527.14286"
     inkscape:document-units="mm"
     inkscape:current-layer="layer1"
     showgrid="false"
     inkscape:window-width="1920"
     inkscape:window-height="1171"
     inkscape:window-x="0"
     inkscape:window-y="0"
     inkscape:window-maximized="1" />
  <metadata
     id="metadata4429">
    <rdf:RDF>
      <cc:Work
         rdf:about="">
        <dc:format>image/svg+xml</dc:format>
        <dc:type
           rdf:resource="http://purl.org/dc/dcmitype/StillImage" />
        <dc:title />
      </cc:Work>
    </rdf:RDF>
  </metadata>
  <g
     inkscape:label="Ebene 1"
     inkscape:groupmode="layer"
     id="layer1">
    <path
       style="fill:#a3a3a3;stroke-width:1.15010726"
       d="m 420.82812,310.74023 c -7.23545,18.55628 -8.08386,39.99766 -10.25195,60.71485 -1.15075,23.8081 -35.91286,17.56854 -51.36133,29.02539 -18.40821,1.39162 0.37703,17.26019 8.69727,4.50976 14.53316,-15.58 53.47087,-7.4411 47.69727,-34.58984 4.09156,-11.85721 27.91452,-15.62303 29.90429,-0.35937 10.31002,16.03571 33.98332,-8.98119 51.25977,-2.64454 13.19108,0.62258 34.43193,2.01192 26.35156,17.79688 16.34105,-26.01332 -30.77306,-20.15349 -47.03516,-18.85938 -17.89307,7.70987 -33.63722,0.79314 -35.33007,-18.8125 -6.12828,-11.94436 -9.16056,-27.80703 -19.93165,-36.78125 z m 148.12891,7.10547 c -6.28932,5.58427 -38.30805,36.63074 -13.75,19.19336 3.9289,-4.4602 22.8844,-12.47685 13.75,-19.19336 z m 5.35547,17.48242 c 0.45188,10.34974 1.90186,49.2641 4.06836,18.72852 -0.55623,-6.29126 -1.15858,-13.06859 -4.06836,-18.72852 z m -36.45703,16.81446 c -11.22259,5.77873 -5.92521,20.36268 -0.94141,2.6289 l 0.9375,-2.4746 z m -235.79102,14.9414 c -7.12803,17.10013 -3.07702,37.21756 3.25782,54.89063 9.4826,17.79065 9.19603,32.57883 -2.90625,48.56445 -5.48646,8.17282 -5.1355,45.27734 -1.34571,17.92188 2.61546,-6.78754 8.65081,13.01567 6.69141,-5.92774 0.59182,-18.6503 21.47303,-31.84144 5.41211,-47.97265 -8.27031,-21.43431 -8.15889,-44.30923 -10.00391,-66.77344 z m 273.52344,2.85157 c -6.61999,7.30314 8.58588,10.65683 0,0 z m -266.75,2.95507 c 5.229,12.60147 28.42528,28.65289 39.4375,43.84376 6.06846,9.87749 16.953,9.45374 5.16992,-2.3086 -11.52597,-16.85238 -27.53014,-30.62121 -44.60742,-41.53516 z m 262.50391,11.0879 c -9.18391,13.55867 6.772,2.09782 13.33398,15.73632 15.862,9.48057 24.40519,37.87546 34.18555,43.55469 -8.76628,-22.2528 -25.38945,-41.54241 -44.14649,-56.24609 -1.8664,0.0113 -2.50035,-1.8029 -3.37304,-3.04492 z m -33.58399,45.23046 a 48.487412,61.192346 0 0 0 -48.48633,61.19336 48.487412,61.192346 0 0 0 48.48633,61.19141 48.487412,61.192346 0 0 0 48.48828,-61.19141 48.487412,61.192346 0 0 0 -48.48828,-61.19336 z m 82.83399,20.43555 c 8.01055,26.52575 8.02631,56.22745 1.29882,83.24219 -9.39269,24.92477 -15.02301,53.56701 -36.73046,71.37305 19.29418,-7.94287 27.18672,-31.73951 33.09961,-50.375 9.21755,-20.48943 13.11144,-42.55094 10.98046,-64.99219 -0.88766,-13.16999 -0.73909,-28.16107 -8.64843,-39.24805 z m -250.54297,26.04688 c 3.65887,8.33113 3.39698,32.92177 -9.54883,23.50976 -7.42688,-15.20375 -9.7825,-7.28248 -3.07812,3.46094 5.96919,11.85456 -15.3381,22.33124 -13.29688,36.50391 -3.36661,6.92632 -0.29336,38.08249 1.86719,15.00976 0.0265,-22.9632 15.04008,-43.47083 32.48437,-56.21094 23.40749,-13.79954 48.65011,5.86262 55.20899,28.86524 1.83662,9.43476 11.52204,37.17635 6.80273,11.37695 -4.17464,-23.74919 -22.01765,-53.5791 -49.78516,-49.28711 -12.52323,5.54555 -16.01813,-4.34923 -20.65429,-13.22851 z m -71.375,29.03906 c -4.07394,2.5028 2.475,3.32466 0,0 z m -0.43945,8.50976 c -2.90267,40.48989 13.26878,80.20828 37.22851,112.14454 3.83474,6.23467 27.25001,28.17189 24.59375,21.73437 -28.62649,-23.11321 -42.69477,-58.82782 -53.75976,-92.86133 -4.47378,-13.34218 -4.86396,-27.39416 -8.0625,-41.01758 z m 180.61914,43.81055 c -18.44066,-0.2454 -16.74801,28.11718 1.89062,13.91992 7.88939,-1.69837 8.67202,-13.03015 -0.043,-13.80468 -0.63687,-0.0698 -1.25279,-0.10732 -1.84765,-0.11524 z m 105.16601,49.27734 c -16.96014,11.167 -35.0664,25.00171 -54.76367,28.63868 -11.90623,12.48646 -44.68678,13.28206 -50.74805,21.27539 17.1072,-0.87704 35.85815,-13.34284 50.54883,-13.76758 8.19424,18.80489 -8.51679,33.91628 -12.34961,51.43945 7.26992,-6.5303 19.37047,-47.19276 20.84766,-14.97656 0.99753,18.56659 9.16484,40.32775 -0.77539,55.33398 8.59691,-14.43658 12.51751,14.14663 6.14843,19.04297 -19.18896,13.33304 -7.90287,47.38701 -30.09179,53.83008 -19.18594,5.04257 -13.55647,-35.38467 -36.37696,-37.27734 -8.77394,-8.84905 -30.47009,1.63678 -27.91796,-15.1543 -0.3103,-11.96772 -8.33813,-32.30121 10.76757,-19.01953 9.85576,6.35577 30.08326,-0.18122 25.34766,-9.01953 -8.64718,19.51464 -51.51043,2.28179 -40.51367,-20.76172 -2.66219,-20.32864 -8.42148,29.51049 -2.67188,37.0957 8.6792,24.24934 -8.35212,41.52312 -17.02734,61.875 -8.45488,15.44334 18.53075,42.84902 -12.39063,39.85938 -8.05991,-9.48299 -37.37268,11.2591 -10.89257,3.41601 13.26005,-3.96483 31.64778,-0.95386 35.97265,5.29688 -4.4736,-10.3858 4.47546,-12.2399 -4.67969,-16.67578 -6.68579,-21.78134 -5.57988,-46.22359 14.86329,-59.54688 16.8277,-17.85108 45.808,5.00286 51.0039,24.2461 5.79787,12.07664 -8.7667,40.53596 -0.14843,42.26562 8.62087,-3.67465 28.18908,-3.59083 7.10937,-4.07812 -10.31376,-11.95597 -2.76605,-36.10467 17.30664,-29.31055 9.30958,3.72616 16.04943,41.27769 23.90234,29.60156 -16.5408,-14.48647 -19.3841,-39.39775 -14.5957,-59.77148 4.01707,-25.83663 33.98969,-37.65655 55.34375,-23.27344 17.00213,8.43303 20.4272,30.48986 21.3711,30.38086 4.94811,17.1524 -0.32648,48.87312 -20.94532,51.20312 -8.40767,-1.96951 -38.80337,-2.18792 -35.03711,3.04102 13.0136,0.7886 54.5525,-5.34871 26.5586,11.45703 9.8626,-1.46351 18.81916,-14.76223 27.40625,-12.66992 -12.48526,-4.82377 12.72742,-26.87104 9.48632,-35.38477 5.46395,7.46597 18.95037,35.00319 3.79688,34.6836 -22.91444,-1.74531 21.05439,14.76297 10.02539,-4.8086 -4.64285,-22.75007 -17.85625,-41.98965 -23.68164,-64.40429 -10.53808,-19.82363 -34.41368,-25.82421 -55.23437,-24.53516 -4.12804,-19.69251 -1.2714,-36.30481 -7.90821,-55.37109 -1.43652,-18.46099 -4.23487,-37.42683 0.0156,-55.70508 15.09569,-7.2943 29.59425,-16.21268 40.92773,-28.47071 z m -120.71289,51.52344 c -5.151,0.80485 4.44813,1.00158 0,0 z m -20.04687,4.59375 c -0.16408,-0.009 -0.35142,-0.003 -0.56446,0.0215 -7.87185,1.83492 -0.5685,37.25411 3.25781,16.48047 14.93855,8.69639 29.10968,31.02491 37.47071,39.23828 -7.29177,-20.87301 -27.75006,-33.35094 -39.32422,-50.75196 -1.12319,-1.14363 1.62134,-4.84835 -0.83984,-4.98828 z m -29.53907,2.01172 c -8.09936,-0.18203 -15.40693,3.92786 -1.83789,4.51367 4.60865,15.57702 1.2474,3.94347 8.08203,-0.34765 13.65718,0.23168 6.02473,-5.35435 -2.7832,-3.80274 -1.13086,-0.22394 -2.30389,-0.33727 -3.46094,-0.36328 z m 28.72461,25.08399 c -4.5267,4.28541 4.39631,4.55894 0,0 z m 73.47071,8.35351 c -9.26612,6.83758 -6.17819,44.25054 -2.83985,17.79102 0.23622,-6.02151 3.24819,-11.78236 2.83985,-17.79102 z m -2.97657,42.30859 c -0.43313,14.64847 33.16102,-5.62783 9.9336,3.38086 -3.67174,0.22489 -6.71151,-2.09287 -9.9336,-3.38086 z m 13.70117,98.8379 c -19.14134,0.90224 13.23501,4.73819 4.91797,0.3457 z"
       transform="scale(0.26458333)"
       id="path3893"
       inkscape:connector-curvature="0" />
  </g>
</svg>
