  0
SECTION
  2
HEADER
  9
$ACADVER
  1
AC1014
  9
$HANDSEED
  5
FFFF
  9
$MEASUREMENT
 70
     1
  0
ENDSEC
  0
SECTION
  2
TABLES
  0
TABLE
  2
VPORT
  5
8
330
0
100
AcDbSymbolTable
 70
     4
  0
VPORT
  5
2E
330
8
100
AcDbSymbolTableRecord
100
AcDbViewportTableRecord
  2
*ACTIVE
 70
     0
 10
0.0
 20
0.0
 11
1.0
 21
1.0
 12
210.0
 22
148.5
 13
0.0
 23
0.0
 14
10.0
 24
10.0
 15
10.0
 25
10.0
 16
0.0
 26
0.0
 36
1.0
 17
0.0
 27
0.0
 37
0.0
 40
341.0
 41
1.24
 42
50.0
 43
0.0
 44
0.0
 50
0.0
 51
0.0
 71
     0
 72
   100
 73
     1
 74
     3
 75
     0
 76
     0
 77
     0
 78
     0
  0
ENDTAB
  0
TABLE
  2
LTYPE
  5
5
330
0
100
AcDbSymbolTable
 70
     1
  0
LTYPE
  5
14
330
5
100
AcDbSymbolTableRecord
100
AcDbLinetypeTableRecord
  2
BYBLOCK
 70
     0
  3

 72
    65
 73
     0
 40
0.0
  0
LTYPE
  5
15
330
5
100
AcDbSymbolTableRecord
100
AcDbLinetypeTableRecord
  2
BYLAYER
 70
     0
  3

 72
    65
 73
     0
 40
0.0
  0
LTYPE
  5
16
330
5
100
AcDbSymbolTableRecord
100
AcDbLinetypeTableRecord
  2
CONTINUOUS
 70
     0
  3
Solid line
 72
    65
 73
     0
 40
0.0
  0
ENDTAB
  0
TABLE
  2
LAYER
  5
2
100
AcDbSymbolTable
 70
2
  0
LAYER
  5
50
100
AcDbSymbolTableRecord
100
AcDbLayerTableRecord
  2
0
 70
0
  6
CONTINUOUS
  0
LAYER
  5
51
100
AcDbSymbolTableRecord
100
AcDbLayerTableRecord
  2
Ebene_1
 70
0
  6
CONTINUOUS
  0
ENDTAB
  0
TABLE
  2
STYLE
  5
3
330
0
100
AcDbSymbolTable
 70
     1
  0
STYLE
  5
11
330
3
100
AcDbSymbolTableRecord
100
AcDbTextStyleTableRecord
  2
STANDARD
 70
     0
 40
0.0
 41
1.0
 50
0.0
 71
     0
 42
2.5
  3
txt
  4

  0
ENDTAB
  0
TABLE
  2
VIEW
  5
6
330
0
100
AcDbSymbolTable
 70
     0
  0
ENDTAB
  0
TABLE
  2
UCS
  5
7
330
0
100
AcDbSymbolTable
 70
     0
  0
ENDTAB
  0
TABLE
  2
APPID
  5
9
330
0
100
AcDbSymbolTable
 70
     2
  0
APPID
  5
12
330
9
100
AcDbSymbolTableRecord
100
AcDbRegAppTableRecord
  2
ACAD
 70
     0
  0
ENDTAB
  0
TABLE
  2
DIMSTYLE
  5
A
330
0
100
AcDbSymbolTable
 70
     1
  0
DIMSTYLE
105
27
330
A
100
AcDbSymbolTableRecord
100
AcDbDimStyleTableRecord
  2
ISO-25
 70
     0
  3

  4

  5

  6

  7

 40
1.0
 41
2.5
 42
0.625
 43
3.75
 44
1.25
 45
0.0
 46
0.0
 47
0.0
 48
0.0
140
2.5
141
2.5
142
0.0
143
0.03937007874016
144
1.0
145
0.0
146
1.0
147
0.625
 71
     0
 72
     0
 73
     0
 74
     0
 75
     0
 76
     0
 77
     1
 78
     8
170
     0
171
     3
172
     1
173
     0
174
     0
175
     0
176
     0
177
     0
178
     0
270
     2
271
     2
272
     2
273
     2
274
     3
340
11
275
     0
280
     0
281
     0
282
     0
283
     0
284
     8
285
     0
286
     0
287
     3
288
     0
  0
ENDTAB
  0
TABLE
  2
BLOCK_RECORD
  5
1
330
0
100
AcDbSymbolTable
 70
     1
  0
BLOCK_RECORD
  5
1F
330
1
100
AcDbSymbolTableRecord
100
AcDbBlockTableRecord
  2
*MODEL_SPACE
  0
BLOCK_RECORD
  5
1B
330
1
100
AcDbSymbolTableRecord
100
AcDbBlockTableRecord
  2
*PAPER_SPACE
  0
ENDTAB
  0
ENDSEC
  0
SECTION
  2
BLOCKS
  0
BLOCK
  5
20
330
1F
100
AcDbEntity
  8
0
100
AcDbBlockBegin
  2
*MODEL_SPACE
 70
     0
 10
0.0
 20
0.0
 30
0.0
  3
*MODEL_SPACE
  1

  0
ENDBLK
  5
21
330
1F
100
AcDbEntity
  8
0
100
AcDbBlockEnd
  0
BLOCK
  5
1C
330
1B
100
AcDbEntity
 67
     1
  8
0
100
AcDbBlockBegin
  2
*PAPER_SPACE
  1

  0
ENDBLK
  5
1D
330
1B
100
AcDbEntity
 67
     1
  8
0
100
AcDbBlockEnd
  0
ENDSEC
  0
SECTION
  2
ENTITIES
  0
SPLINE
  5
100
100
AcDbEntity
  8
Ebene_1
 62
7
100
AcDbSpline
 70
8
 71
3
 72
8
 73
4
 74
0
 40
0
 40
0
 40
0
 40
0
 40
1
 40
1
 40
1
 40
1
 10
144.573600
 20
241.203924
 30
0.0
 10
134.705430
 20
236.832945
 30
0.0
 10
132.147940
 20
220.993103
 30
0.0
 10
120.649590
 20
221.061054
 30
0.0
  0
SPLINE
  5
101
100
AcDbEntity
  8
Ebene_1
 62
7
100
AcDbSpline
 70
8
 71
3
 72
8
 73
4
 74
0
 40
0
 40
0
 40
0
 40
0
 40
1
 40
1
 40
1
 40
1
 10
120.649590
 20
221.061054
 30
0.0
 10
115.438920
 20
221.164617
 30
0.0
 10
111.013520
 20
218.181100
 30
0.0
 10
119.139840
 20
219.533914
 30
0.0
  0
SPLINE
  5
102
100
AcDbEntity
  8
Ebene_1
 62
7
100
AcDbSpline
 70
8
 71
3
 72
8
 73
4
 74
0
 40
0
 40
0
 40
0
 40
0
 40
1
 40
1
 40
1
 40
1
 10
119.139840
 20
219.533914
 30
0.0
 10
127.622230
 20
216.431670
 30
0.0
 10
137.062720
 20
227.444177
 30
0.0
 10
144.011310
 20
217.865538
 30
0.0
  0
SPLINE
  5
103
100
AcDbEntity
  8
Ebene_1
 62
7
100
AcDbSpline
 70
8
 71
3
 72
8
 73
4
 74
0
 40
0
 40
0
 40
0
 40
0
 40
1
 40
1
 40
1
 40
1
 10
144.011310
 20
217.865538
 30
0.0
 10
146.619350
 20
208.814959
 30
0.0
 10
160.222740
 20
205.410165
 30
0.0
 10
162.559050
 20
194.665300
 30
0.0
  0
SPLINE
  5
104
100
AcDbEntity
  8
Ebene_1
 62
7
100
AcDbSpline
 70
8
 71
3
 72
8
 73
4
 74
0
 40
0
 40
0
 40
0
 40
0
 40
1
 40
1
 40
1
 40
1
 10
162.559050
 20
194.665300
 30
0.0
 10
171.837300
 20
182.174490
 30
0.0
 10
178.507530
 20
167.274610
 30
0.0
 10
178.215330
 20
151.459550
 30
0.0
  0
SPLINE
  5
105
100
AcDbEntity
  8
Ebene_1
 62
7
100
AcDbSpline
 70
8
 71
3
 72
8
 73
4
 74
0
 40
0
 40
0
 40
0
 40
0
 40
1
 40
1
 40
1
 40
1
 10
178.215330
 20
151.459550
 30
0.0
 10
178.620570
 20
139.904580
 30
0.0
 10
179.489070
 20
127.525680
 30
0.0
 10
169.786470
 20
119.308580
 30
0.0
  0
SPLINE
  5
106
100
AcDbEntity
  8
Ebene_1
 62
7
100
AcDbSpline
 70
8
 71
3
 72
8
 73
4
 74
0
 40
0
 40
0
 40
0
 40
0
 40
1
 40
1
 40
1
 40
1
 10
169.786470
 20
119.308580
 30
0.0
 10
167.958310
 20
113.859230
 30
0.0
 10
170.232660
 20
109.495970
 30
0.0
 10
163.129110
 20
107.661470
 30
0.0
  0
SPLINE
  5
107
100
AcDbEntity
  8
Ebene_1
 62
7
100
AcDbSpline
 70
8
 71
3
 72
8
 73
4
 74
0
 40
0
 40
0
 40
0
 40
0
 40
1
 40
1
 40
1
 40
1
 10
163.129110
 20
107.661470
 30
0.0
 10
155.928020
 20
102.437260
 30
0.0
 10
148.046120
 20
98.457940
 30
0.0
 10
139.548450
 20
95.861900
 30
0.0
  0
SPLINE
  5
108
100
AcDbEntity
  8
Ebene_1
 62
7
100
AcDbSpline
 70
8
 71
3
 72
8
 73
4
 74
0
 40
0
 40
0
 40
0
 40
0
 40
1
 40
1
 40
1
 40
1
 10
139.548450
 20
95.861900
 30
0.0
 10
130.552860
 20
92.057060
 30
0.0
 10
120.356800
 20
89.762270
 30
0.0
 10
110.895360
 20
93.381040
 30
0.0
  0
SPLINE
  5
109
100
AcDbEntity
  8
Ebene_1
 62
7
100
AcDbSpline
 70
8
 71
3
 72
8
 73
4
 74
0
 40
0
 40
0
 40
0
 40
0
 40
1
 40
1
 40
1
 40
1
 10
110.895360
 20
93.381040
 30
0.0
 10
99.672516
 20
94.373690
 30
0.0
 10
88.535188
 20
97.376090
 30
0.0
 10
80.579366
 20
105.847070
 30
0.0
  0
SPLINE
  5
10a
100
AcDbEntity
  8
Ebene_1
 62
7
100
AcDbSpline
 70
8
 71
3
 72
8
 73
4
 74
0
 40
0
 40
0
 40
0
 40
0
 40
1
 40
1
 40
1
 40
1
 10
80.579366
 20
105.847070
 30
0.0
 10
73.652144
 20
109.738650
 30
0.0
 10
69.259156
 20
117.453420
 30
0.0
 10
64.719981
 20
122.739480
 30
0.0
  0
SPLINE
  5
10b
100
AcDbEntity
  8
Ebene_1
 62
7
100
AcDbSpline
 70
8
 71
3
 72
8
 73
4
 74
0
 40
0
 40
0
 40
0
 40
0
 40
1
 40
1
 40
1
 40
1
 10
64.719981
 20
122.739480
 30
0.0
 10
67.582668
 20
111.131660
 30
0.0
 10
78.833290
 20
105.393380
 30
0.0
 10
87.073494
 20
97.998460
 30
0.0
  0
SPLINE
  5
10c
100
AcDbEntity
  8
Ebene_1
 62
7
100
AcDbSpline
 70
8
 71
3
 72
8
 73
4
 74
0
 40
0
 40
0
 40
0
 40
0
 40
1
 40
1
 40
1
 40
1
 10
87.073494
 20
97.998460
 30
0.0
 10
95.915138
 20
92.308010
 30
0.0
 10
106.930960
 20
93.484150
 30
0.0
 10
116.663700
 20
90.473610
 30
0.0
  0
SPLINE
  5
10d
100
AcDbEntity
  8
Ebene_1
 62
7
100
AcDbSpline
 70
8
 71
3
 72
8
 73
4
 74
0
 40
0
 40
0
 40
0
 40
0
 40
1
 40
1
 40
1
 40
1
 10
116.663700
 20
90.473610
 30
0.0
 10
128.258340
 20
87.869370
 30
0.0
 10
138.597540
 20
94.648320
 30
0.0
 10
149.379700
 20
97.543740
 30
0.0
  0
SPLINE
  5
10e
100
AcDbEntity
  8
Ebene_1
 62
7
100
AcDbSpline
 70
8
 71
3
 72
8
 73
4
 74
0
 40
0
 40
0
 40
0
 40
0
 40
1
 40
1
 40
1
 40
1
 10
149.379700
 20
97.543740
 30
0.0
 10
158.823360
 20
101.699600
 30
0.0
 10
168.553880
 20
107.181690
 30
0.0
 10
174.816030
 20
115.586680
 30
0.0
  0
SPLINE
  5
10f
100
AcDbEntity
  8
Ebene_1
 62
7
100
AcDbSpline
 70
8
 71
3
 72
8
 73
4
 74
0
 40
0
 40
0
 40
0
 40
0
 40
1
 40
1
 40
1
 40
1
 10
174.816030
 20
115.586680
 30
0.0
 10
178.045650
 20
124.159470
 30
0.0
 10
180.447340
 20
133.346070
 30
0.0
 10
180.719570
 20
142.631680
 30
0.0
  0
SPLINE
  5
110
100
AcDbEntity
  8
Ebene_1
 62
7
100
AcDbSpline
 70
8
 71
3
 72
8
 73
4
 74
0
 40
0
 40
0
 40
0
 40
0
 40
1
 40
1
 40
1
 40
1
 10
180.719570
 20
142.631680
 30
0.0
 10
180.975300
 20
157.998490
 30
0.0
 10
178.539430
 20
173.918640
 30
0.0
 10
169.783860
 20
186.906830
 30
0.0
  0
SPLINE
  5
111
100
AcDbEntity
  8
Ebene_1
 62
7
100
AcDbSpline
 70
8
 71
3
 72
8
 73
4
 74
0
 40
0
 40
0
 40
0
 40
0
 40
1
 40
1
 40
1
 40
1
 10
169.783860
 20
186.906830
 30
0.0
 10
164.623950
 20
194.347250
 30
0.0
 10
160.883560
 20
202.977317
 30
0.0
 10
154.398790
 20
209.354170
 30
0.0
  0
SPLINE
  5
112
100
AcDbEntity
  8
Ebene_1
 62
7
100
AcDbSpline
 70
8
 71
3
 72
8
 73
4
 74
0
 40
0
 40
0
 40
0
 40
0
 40
1
 40
1
 40
1
 40
1
 10
154.398790
 20
209.354170
 30
0.0
 10
144.583380
 20
214.115176
 30
0.0
 10
143.759060
 20
224.687233
 30
0.0
 10
145.935980
 20
234.051990
 30
0.0
  0
SPLINE
  5
113
100
AcDbEntity
  8
Ebene_1
 62
7
100
AcDbSpline
 70
8
 71
3
 72
8
 73
4
 74
0
 40
0
 40
0
 40
0
 40
0
 40
1
 40
1
 40
1
 40
1
 10
145.935980
 20
234.051990
 30
0.0
 10
146.269440
 20
236.443683
 30
0.0
 10
146.848440
 20
239.532318
 30
0.0
 10
144.573600
 20
241.203924
 30
0.0
  0
SPLINE
  5
114
100
AcDbEntity
  8
Ebene_1
 62
7
100
AcDbSpline
 70
8
 71
3
 72
8
 73
4
 74
0
 40
0
 40
0
 40
0
 40
0
 40
1
 40
1
 40
1
 40
1
 10
112.727480
 20
219.284849
 30
0.0
 10
104.320360
 20
214.874105
 30
0.0
 10
106.447580
 20
240.849310
 30
0.0
 10
95.754427
 20
231.065542
 30
0.0
  0
SPLINE
  5
115
100
AcDbEntity
  8
Ebene_1
 62
7
100
AcDbSpline
 70
8
 71
3
 72
8
 73
4
 74
0
 40
0
 40
0
 40
0
 40
0
 40
1
 40
1
 40
1
 40
1
 10
95.754427
 20
231.065542
 30
0.0
 10
91.443493
 20
223.723966
 30
0.0
 10
87.838789
 20
213.790796
 30
0.0
 10
84.641544
 20
207.481257
 30
0.0
  0
SPLINE
  5
116
100
AcDbEntity
  8
Ebene_1
 62
7
100
AcDbSpline
 70
8
 71
3
 72
8
 73
4
 74
0
 40
0
 40
0
 40
0
 40
0
 40
1
 40
1
 40
1
 40
1
 10
84.641544
 20
207.481257
 30
0.0
 10
75.286618
 20
204.526504
 30
0.0
 10
73.914787
 20
192.880720
 30
0.0
 10
69.189858
 20
185.570460
 30
0.0
  0
SPLINE
  5
117
100
AcDbEntity
  8
Ebene_1
 62
7
100
AcDbSpline
 70
8
 71
3
 72
8
 73
4
 74
0
 40
0
 40
0
 40
0
 40
0
 40
1
 40
1
 40
1
 40
1
 10
69.189858
 20
185.570460
 30
0.0
 10
62.233544
 20
174.957020
 30
0.0
 10
60.729884
 20
162.307360
 30
0.0
 10
59.961458
 20
149.960670
 30
0.0
  0
SPLINE
  5
118
100
AcDbEntity
  8
Ebene_1
 62
7
100
AcDbSpline
 70
8
 71
3
 72
8
 73
4
 74
0
 40
0
 40
0
 40
0
 40
0
 40
1
 40
1
 40
1
 40
1
 10
59.961458
 20
149.960670
 30
0.0
 10
60.463223
 20
142.518340
 30
0.0
 10
59.202398
 20
131.299210
 30
0.0
 10
64.159662
 20
126.375240
 30
0.0
  0
SPLINE
  5
119
100
AcDbEntity
  8
Ebene_1
 62
7
100
AcDbSpline
 70
8
 71
3
 72
8
 73
4
 74
0
 40
0
 40
0
 40
0
 40
0
 40
1
 40
1
 40
1
 40
1
 10
64.159662
 20
126.375240
 30
0.0
 10
59.295570
 20
142.189410
 30
0.0
 10
62.454146
 20
159.101760
 30
0.0
 10
65.480183
 20
174.977560
 30
0.0
  0
SPLINE
  5
11a
100
AcDbEntity
  8
Ebene_1
 62
7
100
AcDbSpline
 70
8
 71
3
 72
8
 73
4
 74
0
 40
0
 40
0
 40
0
 40
0
 40
1
 40
1
 40
1
 40
1
 10
65.480183
 20
174.977560
 30
0.0
 10
69.877794
 20
185.497210
 30
0.0
 10
75.148398
 20
196.711020
 30
0.0
 10
83.243884
 20
204.665919
 30
0.0
  0
SPLINE
  5
11b
100
AcDbEntity
  8
Ebene_1
 62
7
100
AcDbSpline
 70
8
 71
3
 72
8
 73
4
 74
0
 40
0
 40
0
 40
0
 40
0
 40
1
 40
1
 40
1
 40
1
 10
83.243884
 20
204.665919
 30
0.0
 10
89.074745
 20
206.166707
 30
0.0
 10
84.876146
 20
190.619000
 30
0.0
 10
89.906645
 20
192.638820
 30
0.0
  0
SPLINE
  5
11c
100
AcDbEntity
  8
Ebene_1
 62
7
100
AcDbSpline
 70
8
 71
3
 72
8
 73
4
 74
0
 40
0
 40
0
 40
0
 40
0
 40
1
 40
1
 40
1
 40
1
 10
89.906645
 20
192.638820
 30
0.0
 10
85.250347
 20
203.830012
 30
0.0
 10
88.104935
 20
216.573875
 30
0.0
 10
94.896526
 20
226.275609
 30
0.0
  0
SPLINE
  5
11d
100
AcDbEntity
  8
Ebene_1
 62
7
100
AcDbSpline
 70
8
 71
3
 72
8
 73
4
 74
0
 40
0
 40
0
 40
0
 40
0
 40
1
 40
1
 40
1
 40
1
 10
94.896526
 20
226.275609
 30
0.0
 10
98.920719
 20
238.614111
 30
0.0
 10
108.195260
 20
224.658978
 30
0.0
 10
108.419440
 20
217.838109
 30
0.0
  0
SPLINE
  5
11e
100
AcDbEntity
  8
Ebene_1
 62
7
100
AcDbSpline
 70
8
 71
3
 72
8
 73
4
 74
0
 40
0
 40
0
 40
0
 40
0
 40
1
 40
1
 40
1
 40
1
 10
108.419440
 20
217.838109
 30
0.0
 10
108.603600
 20
214.682228
 30
0.0
 10
113.533390
 20
201.906267
 30
0.0
 10
114.096900
 20
206.670702
 30
0.0
  0
SPLINE
  5
11f
100
AcDbEntity
  8
Ebene_1
 62
7
100
AcDbSpline
 70
8
 71
3
 72
8
 73
4
 74
0
 40
0
 40
0
 40
0
 40
0
 40
1
 40
1
 40
1
 40
1
 10
114.096900
 20
206.670702
 30
0.0
 10
112.382880
 20
210.197868
 30
0.0
 10
106.389310
 20
216.933153
 30
0.0
 10
112.727480
 20
219.284849
 30
0.0
  0
LWPOLYLINE
  5
120
100
AcDbEntity
  8
Ebene_1
 62
7
100
AcDbPolyline
 90
1
 70
1
 10
144.573600
 20
241.203924
 30
0.0
  0
SPLINE
  5
121
100
AcDbEntity
  8
Ebene_1
 62
7
100
AcDbSpline
 70
8
 71
3
 72
8
 73
4
 74
0
 40
0
 40
0
 40
0
 40
0
 40
1
 40
1
 40
1
 40
1
 10
106.774360
 20
222.990566
 30
0.0
 10
108.043910
 20
220.057708
 30
0.0
 10
107.054270
 20
222.343923
 30
0.0
 10
106.774360
 20
222.990566
 30
0.0
  0
LWPOLYLINE
  5
122
100
AcDbEntity
  8
Ebene_1
 62
7
100
AcDbPolyline
 90
1
 70
1
 10
112.727480
 20
219.284849
 30
0.0
  0
SPLINE
  5
123
100
AcDbEntity
  8
Ebene_1
 62
7
100
AcDbSpline
 70
8
 71
3
 72
8
 73
4
 74
0
 40
0
 40
0
 40
0
 40
0
 40
1
 40
1
 40
1
 40
1
 10
99.104028
 20
217.035372
 30
0.0
 10
97.382607
 20
212.749685
 30
0.0
 10
100.193520
 20
207.505642
 30
0.0
 10
96.022007
 20
204.307264
 30
0.0
  0
SPLINE
  5
124
100
AcDbEntity
  8
Ebene_1
 62
7
100
AcDbSpline
 70
8
 71
3
 72
8
 73
4
 74
0
 40
0
 40
0
 40
0
 40
0
 40
1
 40
1
 40
1
 40
1
 10
96.022007
 20
204.307264
 30
0.0
 10
96.446450
 20
196.050060
 30
0.0
 10
108.242360
 20
198.917296
 30
0.0
 10
103.857960
 20
206.339275
 30
0.0
  0
SPLINE
  5
125
100
AcDbEntity
  8
Ebene_1
 62
7
100
AcDbSpline
 70
8
 71
3
 72
8
 73
4
 74
0
 40
0
 40
0
 40
0
 40
0
 40
1
 40
1
 40
1
 40
1
 10
103.857960
 20
206.339275
 30
0.0
 10
103.194650
 20
210.154958
 30
0.0
 10
102.675160
 20
214.732395
 30
0.0
 10
99.104028
 20
217.035372
 30
0.0
  0
LWPOLYLINE
  5
126
100
AcDbEntity
  8
Ebene_1
 62
7
100
AcDbPolyline
 90
1
 70
1
 10
106.774360
 20
222.990566
 30
0.0
  0
SPLINE
  5
127
100
AcDbEntity
  8
Ebene_1
 62
7
100
AcDbSpline
 70
8
 71
3
 72
8
 73
4
 74
0
 40
0
 40
0
 40
0
 40
0
 40
1
 40
1
 40
1
 40
1
 10
136.430950
 20
178.960180
 30
0.0
 10
139.841170
 20
172.585330
 30
0.0
 10
132.587140
 20
161.516390
 30
0.0
 10
128.310670
 20
171.881730
 30
0.0
  0
SPLINE
  5
128
100
AcDbEntity
  8
Ebene_1
 62
7
100
AcDbSpline
 70
8
 71
3
 72
8
 73
4
 74
0
 40
0
 40
0
 40
0
 40
0
 40
1
 40
1
 40
1
 40
1
 10
128.310670
 20
171.881730
 30
0.0
 10
122.829090
 20
174.183920
 30
0.0
 10
133.805980
 20
165.068750
 30
0.0
 10
129.866990
 20
161.428520
 30
0.0
  0
SPLINE
  5
129
100
AcDbEntity
  8
Ebene_1
 62
7
100
AcDbSpline
 70
8
 71
3
 72
8
 73
4
 74
0
 40
0
 40
0
 40
0
 40
0
 40
1
 40
1
 40
1
 40
1
 10
129.866990
 20
161.428520
 30
0.0
 10
126.895700
 20
156.812200
 30
0.0
 10
123.355930
 20
143.339590
 30
0.0
 10
127.570570
 20
142.429990
 30
0.0
  0
SPLINE
  5
12a
100
AcDbEntity
  8
Ebene_1
 62
7
100
AcDbSpline
 70
8
 71
3
 72
8
 73
4
 74
0
 40
0
 40
0
 40
0
 40
0
 40
1
 40
1
 40
1
 40
1
 10
127.570570
 20
142.429990
 30
0.0
 10
128.181430
 20
153.212460
 30
0.0
 10
131.449180
 20
165.710270
 30
0.0
 10
140.810080
 20
171.911850
 30
0.0
  0
SPLINE
  5
12b
100
AcDbEntity
  8
Ebene_1
 62
7
100
AcDbSpline
 70
8
 71
3
 72
8
 73
4
 74
0
 40
0
 40
0
 40
0
 40
0
 40
1
 40
1
 40
1
 40
1
 10
140.810080
 20
171.911850
 30
0.0
 10
152.406370
 20
174.524660
 30
0.0
 10
166.048140
 20
165.825630
 30
0.0
 10
166.224880
 20
153.415540
 30
0.0
  0
SPLINE
  5
12c
100
AcDbEntity
  8
Ebene_1
 62
7
100
AcDbSpline
 70
8
 71
3
 72
8
 73
4
 74
0
 40
0
 40
0
 40
0
 40
0
 40
1
 40
1
 40
1
 40
1
 10
166.224880
 20
153.415540
 30
0.0
 10
166.130380
 20
149.161370
 30
0.0
 10
171.459790
 20
139.384560
 30
0.0
 10
169.998030
 20
149.440900
 30
0.0
  0
SPLINE
  5
12d
100
AcDbEntity
  8
Ebene_1
 62
7
100
AcDbSpline
 70
8
 71
3
 72
8
 73
4
 74
0
 40
0
 40
0
 40
0
 40
0
 40
1
 40
1
 40
1
 40
1
 10
169.998030
 20
149.440900
 30
0.0
 10
168.426930
 20
160.264470
 30
0.0
 10
161.611610
 20
173.052380
 30
0.0
 10
149.671820
 20
174.293670
 30
0.0
  0
SPLINE
  5
12e
100
AcDbEntity
  8
Ebene_1
 62
7
100
AcDbSpline
 70
8
 71
3
 72
8
 73
4
 74
0
 40
0
 40
0
 40
0
 40
0
 40
1
 40
1
 40
1
 40
1
 10
149.671820
 20
174.293670
 30
0.0
 10
144.955960
 20
174.283670
 30
0.0
 10
138.082560
 20
172.834050
 30
0.0
 10
136.430950
 20
178.960180
 30
0.0
  0
LWPOLYLINE
  5
12f
100
AcDbEntity
  8
Ebene_1
 62
7
100
AcDbPolyline
 90
1
 70
1
 10
99.104028
 20
217.035372
 30
0.0
  0
SPLINE
  5
130
100
AcDbEntity
  8
Ebene_1
 62
7
100
AcDbSpline
 70
8
 71
3
 72
8
 73
4
 74
0
 40
0
 40
0
 40
0
 40
0
 40
1
 40
1
 40
1
 40
1
 10
43.524992
 20
113.904200
 30
0.0
 10
41.587131
 20
107.724440
 30
0.0
 10
29.352401
 20
117.164320
 30
0.0
 10
31.015513
 20
105.779530
 30
0.0
  0
SPLINE
  5
131
100
AcDbEntity
  8
Ebene_1
 62
7
100
AcDbSpline
 70
8
 71
3
 72
8
 73
4
 74
0
 40
0
 40
0
 40
0
 40
0
 40
1
 40
1
 40
1
 40
1
 10
31.015513
 20
105.779530
 30
0.0
 10
30.171632
 20
101.384470
 30
0.0
 10
36.190017
 20
85.885040
 30
0.0
 10
37.228735
 20
88.496970
 30
0.0
  0
SPLINE
  5
132
100
AcDbEntity
  8
Ebene_1
 62
7
100
AcDbSpline
 70
8
 71
3
 72
8
 73
4
 74
0
 40
0
 40
0
 40
0
 40
0
 40
1
 40
1
 40
1
 40
1
 10
37.228735
 20
88.496970
 30
0.0
 10
33.313732
 20
97.094180
 30
0.0
 10
49.545976
 20
89.862540
 30
0.0
 10
41.029740
 20
96.780320
 30
0.0
  0
SPLINE
  5
133
100
AcDbEntity
  8
Ebene_1
 62
7
100
AcDbSpline
 70
8
 71
3
 72
8
 73
4
 74
0
 40
0
 40
0
 40
0
 40
0
 40
1
 40
1
 40
1
 40
1
 10
41.029740
 20
96.780320
 30
0.0
 10
35.779616
 20
101.355150
 30
0.0
 10
46.271001
 20
94.332570
 30
0.0
 10
42.269134
 20
101.505910
 30
0.0
  0
SPLINE
  5
134
100
AcDbEntity
  8
Ebene_1
 62
7
100
AcDbSpline
 70
8
 71
3
 72
8
 73
4
 74
0
 40
0
 40
0
 40
0
 40
0
 40
1
 40
1
 40
1
 40
1
 10
42.269134
 20
101.505910
 30
0.0
 10
41.342526
 20
105.855490
 30
0.0
 10
49.981504
 20
93.586150
 30
0.0
 10
47.369740
 20
103.299300
 30
0.0
  0
SPLINE
  5
135
100
AcDbEntity
  8
Ebene_1
 62
7
100
AcDbSpline
 70
8
 71
3
 72
8
 73
4
 74
0
 40
0
 40
0
 40
0
 40
0
 40
1
 40
1
 40
1
 40
1
 10
47.369740
 20
103.299300
 30
0.0
 10
56.903396
 20
100.133800
 30
0.0
 10
59.675248
 20
88.919780
 30
0.0
 10
65.733450
 20
81.885610
 30
0.0
  0
SPLINE
  5
136
100
AcDbEntity
  8
Ebene_1
 62
7
100
AcDbSpline
 70
8
 71
3
 72
8
 73
4
 74
0
 40
0
 40
0
 40
0
 40
0
 40
1
 40
1
 40
1
 40
1
 10
65.733450
 20
81.885610
 30
0.0
 10
72.378672
 20
71.575560
 30
0.0
 10
80.230402
 20
57.785390
 30
0.0
 10
94.310533
 20
58.227800
 30
0.0
  0
SPLINE
  5
137
100
AcDbEntity
  8
Ebene_1
 62
7
100
AcDbSpline
 70
8
 71
3
 72
8
 73
4
 74
0
 40
0
 40
0
 40
0
 40
0
 40
1
 40
1
 40
1
 40
1
 10
94.310533
 20
58.227800
 30
0.0
 10
105.709910
 20
60.234700
 30
0.0
 10
97.535077
 20
75.070330
 30
0.0
 10
101.289610
 20
82.895630
 30
0.0
  0
SPLINE
  5
138
100
AcDbEntity
  8
Ebene_1
 62
7
100
AcDbSpline
 70
8
 71
3
 72
8
 73
4
 74
0
 40
0
 40
0
 40
0
 40
0
 40
1
 40
1
 40
1
 40
1
 10
101.289610
 20
82.895630
 30
0.0
 10
101.836110
 20
86.415340
 30
0.0
 10
102.717970
 20
95.898860
 30
0.0
 10
100.692170
 20
87.570110
 30
0.0
  0
SPLINE
  5
139
100
AcDbEntity
  8
Ebene_1
 62
7
100
AcDbSpline
 70
8
 71
3
 72
8
 73
4
 74
0
 40
0
 40
0
 40
0
 40
0
 40
1
 40
1
 40
1
 40
1
 10
100.692170
 20
87.570110
 30
0.0
 10
97.285651
 20
79.083530
 30
0.0
 10
102.274300
 20
68.639970
 30
0.0
 10
97.504880
 20
61.163800
 30
0.0
  0
SPLINE
  5
13a
100
AcDbEntity
  8
Ebene_1
 62
7
100
AcDbSpline
 70
8
 71
3
 72
8
 73
4
 74
0
 40
0
 40
0
 40
0
 40
0
 40
1
 40
1
 40
1
 40
1
 10
97.504880
 20
61.163800
 30
0.0
 10
87.880663
 20
57.213430
 30
0.0
 10
78.614954
 20
65.726530
 30
0.0
 10
73.628123
 20
73.266520
 30
0.0
  0
SPLINE
  5
13b
100
AcDbEntity
  8
Ebene_1
 62
7
100
AcDbSpline
 70
8
 71
3
 72
8
 73
4
 74
0
 40
0
 40
0
 40
0
 40
0
 40
1
 40
1
 40
1
 40
1
 10
73.628123
 20
73.266520
 30
0.0
 10
67.682138
 20
81.446790
 30
0.0
 10
61.713901
 20
89.576400
 30
0.0
 10
56.340943
 20
98.148600
 30
0.0
  0
SPLINE
  5
13c
100
AcDbEntity
  8
Ebene_1
 62
7
100
AcDbSpline
 70
8
 71
3
 72
8
 73
4
 74
0
 40
0
 40
0
 40
0
 40
0
 40
1
 40
1
 40
1
 40
1
 10
56.340943
 20
98.148600
 30
0.0
 10
51.732820
 20
103.308440
 30
0.0
 10
46.397764
 20
107.365050
 30
0.0
 10
43.524992
 20
113.904200
 30
0.0
  0
LWPOLYLINE
  5
13d
100
AcDbEntity
  8
Ebene_1
 62
7
100
AcDbPolyline
 90
1
 70
1
 10
136.430950
 20
178.960180
 30
0.0
  0
SPLINE
  5
13e
100
AcDbEntity
  8
Ebene_1
 62
7
100
AcDbSpline
 70
8
 71
3
 72
8
 73
4
 74
0
 40
0
 40
0
 40
0
 40
0
 40
1
 40
1
 40
1
 40
1
 10
138.149700
 20
92.234210
 30
0.0
 10
136.633750
 20
89.692220
 30
0.0
 10
140.107050
 20
91.038960
 30
0.0
 10
138.149700
 20
92.234210
 30
0.0
  0
LWPOLYLINE
  5
13f
100
AcDbEntity
  8
Ebene_1
 62
7
100
AcDbPolyline
 90
1
 70
1
 10
43.524992
 20
113.904200
 30
0.0
  0
SPLINE
  5
140
100
AcDbEntity
  8
Ebene_1
 62
7
100
AcDbSpline
 70
8
 71
3
 72
8
 73
4
 74
0
 40
0
 40
0
 40
0
 40
0
 40
1
 40
1
 40
1
 40
1
 10
138.284580
 20
89.781130
 30
0.0
 10
137.410390
 20
84.466310
 30
0.0
 10
136.536120
 20
70.119530
 30
0.0
 10
140.594480
 20
70.800660
 30
0.0
  0
SPLINE
  5
141
100
AcDbEntity
  8
Ebene_1
 62
7
100
AcDbSpline
 70
8
 71
3
 72
8
 73
4
 74
0
 40
0
 40
0
 40
0
 40
0
 40
1
 40
1
 40
1
 40
1
 10
140.594480
 20
70.800660
 30
0.0
 10
148.664330
 20
78.281800
 30
0.0
 10
160.349210
 20
65.350650
 30
0.0
 10
159.653320
 20
56.420200
 30
0.0
  0
SPLINE
  5
142
100
AcDbEntity
  8
Ebene_1
 62
7
100
AcDbSpline
 70
8
 71
3
 72
8
 73
4
 74
0
 40
0
 40
0
 40
0
 40
0
 40
1
 40
1
 40
1
 40
1
 10
159.653320
 20
56.420200
 30
0.0
 10
160.696940
 20
51.907660
 30
0.0
 10
158.973960
 20
38.910710
 30
0.0
 10
161.196470
 20
39.892580
 30
0.0
  0
SPLINE
  5
143
100
AcDbEntity
  8
Ebene_1
 62
7
100
AcDbSpline
 70
8
 71
3
 72
8
 73
4
 74
0
 40
0
 40
0
 40
0
 40
0
 40
1
 40
1
 40
1
 40
1
 10
161.196470
 20
39.892580
 30
0.0
 10
165.072390
 20
50.607890
 30
0.0
 10
158.999590
 20
61.416780
 30
0.0
 10
156.711960
 20
71.766850
 30
0.0
  0
SPLINE
  5
144
100
AcDbEntity
  8
Ebene_1
 62
7
100
AcDbSpline
 70
8
 71
3
 72
8
 73
4
 74
0
 40
0
 40
0
 40
0
 40
0
 40
1
 40
1
 40
1
 40
1
 10
156.711960
 20
71.766850
 30
0.0
 10
154.662560
 20
80.063130
 30
0.0
 10
145.694820
 20
83.384820
 30
0.0
 10
139.482540
 20
85.353990
 30
0.0
  0
SPLINE
  5
145
100
AcDbEntity
  8
Ebene_1
 62
7
100
AcDbSpline
 70
8
 71
3
 72
8
 73
4
 74
0
 40
0
 40
0
 40
0
 40
0
 40
1
 40
1
 40
1
 40
1
 10
139.482540
 20
85.353990
 30
0.0
 10
139.149170
 20
86.838670
 30
0.0
 10
139.509640
 20
88.595220
 30
0.0
 10
138.284580
 20
89.781130
 30
0.0
  0
LWPOLYLINE
  5
146
100
AcDbEntity
  8
Ebene_1
 62
7
100
AcDbPolyline
 90
1
 70
1
 10
138.149700
 20
92.234210
 30
0.0
  0
SPLINE
  5
147
100
AcDbEntity
  8
Ebene_1
 62
7
100
AcDbSpline
 70
8
 71
3
 72
8
 73
4
 74
0
 40
0
 40
0
 40
0
 40
0
 40
1
 40
1
 40
1
 40
1
 10
37.228735
 20
88.496970
 30
0.0
 10
40.523193
 20
79.010500
 30
0.0
 10
47.665443
 20
71.378410
 30
0.0
 10
53.163757
 20
63.134020
 30
0.0
  0
SPLINE
  5
148
100
AcDbEntity
  8
Ebene_1
 62
7
100
AcDbSpline
 70
8
 71
3
 72
8
 73
4
 74
0
 40
0
 40
0
 40
0
 40
0
 40
1
 40
1
 40
1
 40
1
 10
53.163757
 20
63.134020
 30
0.0
 10
61.671753
 20
55.961110
 30
0.0
 10
71.697269
 20
50.466500
 30
0.0
 10
81.985321
 20
46.268810
 30
0.0
  0
SPLINE
  5
149
100
AcDbEntity
  8
Ebene_1
 62
7
100
AcDbSpline
 70
8
 71
3
 72
8
 73
4
 74
0
 40
0
 40
0
 40
0
 40
0
 40
1
 40
1
 40
1
 40
1
 10
81.985321
 20
46.268810
 30
0.0
 10
94.337507
 20
42.604140
 30
0.0
 10
106.529950
 20
37.163750
 30
0.0
 10
119.617510
 20
37.232750
 30
0.0
  0
SPLINE
  5
14a
100
AcDbEntity
  8
Ebene_1
 62
7
100
AcDbSpline
 70
8
 71
3
 72
8
 73
4
 74
0
 40
0
 40
0
 40
0
 40
0
 40
1
 40
1
 40
1
 40
1
 10
119.617510
 20
37.232750
 30
0.0
 10
129.087800
 20
37.437740
 30
0.0
 10
138.397780
 20
35.947650
 30
0.0
 10
147.716770
 20
34.713220
 30
0.0
  0
SPLINE
  5
14b
100
AcDbEntity
  8
Ebene_1
 62
7
100
AcDbSpline
 70
8
 71
3
 72
8
 73
4
 74
0
 40
0
 40
0
 40
0
 40
0
 40
1
 40
1
 40
1
 40
1
 10
147.716770
 20
34.713220
 30
0.0
 10
155.694630
 20
36.498800
 30
0.0
 10
140.375710
 20
37.060310
 30
0.0
 10
137.455410
 20
38.404500
 30
0.0
  0
SPLINE
  5
14c
100
AcDbEntity
  8
Ebene_1
 62
7
100
AcDbSpline
 70
8
 71
3
 72
8
 73
4
 74
0
 40
0
 40
0
 40
0
 40
0
 40
1
 40
1
 40
1
 40
1
 10
137.455410
 20
38.404500
 30
0.0
 10
124.216450
 20
42.250920
 30
0.0
 10
110.411250
 20
42.571430
 30
0.0
 10
96.910790
 20
44.901150
 30
0.0
  0
SPLINE
  5
14d
100
AcDbEntity
  8
Ebene_1
 62
7
100
AcDbSpline
 70
8
 71
3
 72
8
 73
4
 74
0
 40
0
 40
0
 40
0
 40
0
 40
1
 40
1
 40
1
 40
1
 10
96.910790
 20
44.901150
 30
0.0
 10
78.632898
 20
49.388160
 30
0.0
 10
58.588093
 20
56.203010
 30
0.0
 10
48.246446
 20
73.169450
 30
0.0
  0
SPLINE
  5
14e
100
AcDbEntity
  8
Ebene_1
 62
7
100
AcDbSpline
 70
8
 71
3
 72
8
 73
4
 74
0
 40
0
 40
0
 40
0
 40
0
 40
1
 40
1
 40
1
 40
1
 10
48.246446
 20
73.169450
 30
0.0
 10
44.796524
 20
78.426160
 30
0.0
 10
41.678934
 20
83.989930
 30
0.0
 10
37.228735
 20
88.496970
 30
0.0
  0
LWPOLYLINE
  5
14f
100
AcDbEntity
  8
Ebene_1
 62
7
100
AcDbPolyline
 90
1
 70
1
 10
138.284580
 20
89.781130
 30
0.0
  0
SPLINE
  5
150
100
AcDbEntity
  8
Ebene_1
 62
7
100
AcDbSpline
 70
8
 71
3
 72
8
 73
4
 74
0
 40
0
 40
0
 40
0
 40
0
 40
1
 40
1
 40
1
 40
1
 10
106.996570
 20
85.555030
 30
0.0
 10
105.752150
 20
75.915150
 30
0.0
 10
110.805980
 20
65.686950
 30
0.0
 10
117.672640
 20
59.298510
 30
0.0
  0
SPLINE
  5
151
100
AcDbEntity
  8
Ebene_1
 62
7
100
AcDbSpline
 70
8
 71
3
 72
8
 73
4
 74
0
 40
0
 40
0
 40
0
 40
0
 40
1
 40
1
 40
1
 40
1
 10
117.672640
 20
59.298510
 30
0.0
 10
128.630950
 20
57.474360
 30
0.0
 10
128.821230
 20
71.908040
 30
0.0
 10
124.907570
 20
78.773090
 30
0.0
  0
SPLINE
  5
152
100
AcDbEntity
  8
Ebene_1
 62
7
100
AcDbSpline
 70
8
 71
3
 72
8
 73
4
 74
0
 40
0
 40
0
 40
0
 40
0
 40
1
 40
1
 40
1
 40
1
 10
124.907570
 20
78.773090
 30
0.0
 10
123.774490
 20
84.118040
 30
0.0
 10
119.026720
 20
85.044330
 30
0.0
 10
122.975950
 20
78.820490
 30
0.0
  0
SPLINE
  5
153
100
AcDbEntity
  8
Ebene_1
 62
7
100
AcDbSpline
 70
8
 71
3
 72
8
 73
4
 74
0
 40
0
 40
0
 40
0
 40
0
 40
1
 40
1
 40
1
 40
1
 10
122.975950
 20
78.820490
 30
0.0
 10
127.893310
 20
72.903470
 30
0.0
 10
123.639500
 20
54.316430
 30
0.0
 10
115.337750
 20
64.440790
 30
0.0
  0
SPLINE
  5
154
100
AcDbEntity
  8
Ebene_1
 62
7
100
AcDbSpline
 70
8
 71
3
 72
8
 73
4
 74
0
 40
0
 40
0
 40
0
 40
0
 40
1
 40
1
 40
1
 40
1
 10
115.337750
 20
64.440790
 30
0.0
 10
110.447520
 20
70.487750
 30
0.0
 10
109.859680
 20
78.825450
 30
0.0
 10
106.996570
 20
85.554980
 30
0.0
  0
LWPOLYLINE
  5
155
100
AcDbEntity
  8
Ebene_1
 62
7
100
AcDbPolyline
 90
1
 70
1
 10
37.228735
 20
88.496970
 30
0.0
  0
LWPOLYLINE
  5
156
100
AcDbEntity
  8
Ebene_1
 62
7
100
AcDbPolyline
 90
1
 70
1
 10
106.996570
 20
85.554980
 30
0.0
  0
ENDSEC
  0
SECTION
  2
OBJECTS
  0
DICTIONARY
  5
C
330
0
100
AcDbDictionary
  3
ACAD_GROUP
350
D
  3
ACAD_MLINESTYLE
350
17
  0
DICTIONARY
  5
D
330
C
100
AcDbDictionary
  0
DICTIONARY
  5
1A
330
C
100
AcDbDictionary
  0
DICTIONARY
  5
17
330
C
100
AcDbDictionary
  3
STANDARD
350
18
  0
DICTIONARY
  5
19
330
C
100
AcDbDictionary
  0
ENDSEC
  0
EOF
