<?xml version="1.0" encoding="UTF-8" standalone="no"?>
<!-- Created with Inkscape (http://www.inkscape.org/) -->

<svg
   xmlns:dc="http://purl.org/dc/elements/1.1/"
   xmlns:cc="http://creativecommons.org/ns#"
   xmlns:rdf="http://www.w3.org/1999/02/22-rdf-syntax-ns#"
   xmlns:svg="http://www.w3.org/2000/svg"
   xmlns="http://www.w3.org/2000/svg"
   xmlns:sodipodi="http://sodipodi.sourceforge.net/DTD/sodipodi-0.dtd"
   xmlns:inkscape="http://www.inkscape.org/namespaces/inkscape"
   width="210mm"
   height="297mm"
   viewBox="0 0 210 297"
   version="1.1"
   id="svg4142"
   inkscape:version="0.92.4 (5da689c313, 2019-01-14)"
   sodipodi:docname="cat-left.svg">
  <defs
     id="defs4136" />
  <sodipodi:namedview
     id="base"
     pagecolor="#ffffff"
     bordercolor="#666666"
     borderopacity="1.0"
     inkscape:pageopacity="0.0"
     inkscape:pageshadow="2"
     inkscape:zoom="4.0460766"
     inkscape:cx="237.14286"
     inkscape:cy="695.37265"
     inkscape:document-units="mm"
     inkscape:current-layer="layer1"
     showgrid="false"
     inkscape:window-width="1920"
     inkscape:window-height="1171"
     inkscape:window-x="0"
     inkscape:window-y="0"
     inkscape:window-maximized="1" />
  <metadata
     id="metadata4139">
    <rdf:RDF>
      <cc:Work
         rdf:about="">
        <dc:format>image/svg+xml</dc:format>
        <dc:type
           rdf:resource="http://purl.org/dc/dcmitype/StillImage" />
        <dc:title></dc:title>
      </cc:Work>
    </rdf:RDF>
  </metadata>
  <g
     inkscape:label="Ebene 1"
     inkscape:groupmode="layer"
     id="layer1">
    <path
       style="fill:#a3a3a3;stroke-width:0.1270012"
       d="m 68.429505,88.363104 c -0.204837,1.8498 0.475256,4.25409 -0.221157,5.79062 -0.877485,2.09094 3.133397,1.6691 3.841496,3.49944 2.089198,2.29987 4.149834,4.946236 4.268465,8.193636 0.372287,2.41068 1.064942,4.78342 0.880157,7.2479 0.191262,2.02691 -0.3865,4.08001 -1.367342,6.00243 -0.979946,2.01235 -3.113392,3.08151 -5.133584,3.74461 0.218395,-1.06765 3.797705,-1.43422 3.147433,-3.02895 0.13725,-1.34263 0.914202,-2.38566 2.209607,-2.32415 0.503566,-1.9016 0.142669,-4.01245 0.565182,-6.16001 -0.07078,-2.69016 -0.553821,-5.37091 -1.088779,-8.00254 -0.893797,-2.35283 -2.701965,-4.251026 -4.386128,-6.072806 -1.452983,-1.37733 -4.03411,-1.36731 -4.371707,-3.58652 -0.761762,-0.67023 -1.237618,-1.31839 -1.423747,0.14486 -1.689137,0.11098 0.845428,-2.20908 -0.990632,-1.89153 -0.756068,0.28458 0.514877,1.7586 -0.832842,0.76108 -0.916869,1.85437 -2.871303,-0.30248 -4.567441,-0.012 -1.093216,-0.45481 0.06903,-1.97151 0.23437,-0.93267 0.381945,0.36407 2.998904,1.36957 3.731747,0.85695 -0.201607,-1.34779 2.487115,-2.20163 3.396747,-3.47695 0.683705,-0.31682 1.451854,-0.33143 2.108155,-0.75343 z m -11.791529,0.5705 c 0.388848,0.57112 -2.17302,1.62226 -2.155169,2.95353 -0.131704,2.32885 -2.205241,3.3108 -3.78452,4.90233 -1.516552,1.37825 -2.653631,3.328876 -2.834164,5.389766 -0.868955,2.59558 -0.307012,5.39605 -0.454956,8.08126 0.126936,2.42343 -0.310174,5.12716 1.014177,7.28488 0.756467,0.56748 2.163051,2.80409 0.473482,1.01614 -1.426527,-1.09604 0.406636,2.61749 1.261171,3.07596 1.753336,1.60327 4.148664,2.42381 6.452074,2.59476 1.627671,0.27344 1.940597,0.53957 0.195979,0.3986 -0.272836,0.24043 -0.414017,2.59101 -0.81022,2.05124 -0.08307,-0.69447 0.183557,-1.67287 -0.110337,-2.1968 -2.389065,-0.44116 -4.818308,-1.34535 -6.620687,-3.01328 -1.175657,-1.54716 -1.856002,-3.48673 -1.888281,-5.3633 -0.721762,-3.04071 -0.475022,-6.21478 -0.64629,-9.3179 0.09684,-3.38591 0.449697,-7.100876 2.97352,-9.641916 1.442424,-1.63393 3.801089,-2.60842 4.317095,-4.89999 0.684803,-1.14484 1.319353,-2.8037 2.617126,-3.31528 z m -0.507979,3.11765 c 1.613834,0.77088 0.316585,3.08437 0.391705,4.20439 -1.103577,0.24819 -1.724622,-0.95614 -0.419676,-1.06972 0.226758,-1.10551 -0.472988,-0.94809 -0.844947,-0.42044 -0.225571,-0.82427 -0.04248,-2.40725 0.872918,-2.71423 z m 3.197739,2.88406 c 0.323498,1.25191 -0.805228,2.39545 -0.134877,0.47645 h -5.29e-4 l 0.135392,-0.47645 z m 4.739245,5.238956 c 0.414796,1.77242 2.108891,1.12607 3.169809,1.52844 -1.167754,0.3427 -0.857401,0.68384 -2.432052,1.14962 -1.120095,2.36942 -2.796871,-2.78542 -1.553779,-0.5546 2.393034,2.29084 0.525515,-1.53677 0.816022,-2.12346 z m -1.365808,5.72316 c 0.341389,2.1716 3.133045,3.31654 5.095338,3.77471 1.977848,0.28494 4.27945,-0.54093 4.915421,-2.56083 0.871268,-1.47105 0.01648,2.3584 -0.251672,2.96001 -0.439499,1.67429 -2.301388,3.29345 -4.202967,3.64798 -2.556007,0.80863 -5.136485,-1.15871 -5.526981,-3.69226 0.273431,-1.79015 -0.369811,-2.20069 -0.277186,-4.02989 l 0.248047,-0.0997 z m -15.954065,13.7325 c 1.082873,1.63131 1.212752,3.96739 2.235565,5.74549 1.066842,1.9383 2.093148,3.86472 3.399234,5.65949 1.279589,2.38036 2.78044,-0.42373 2.972581,-2.0551 0.07514,-0.82305 0.640482,-2.21535 0.386323,-0.52164 -0.128648,1.66272 -1.117105,4.09563 -1.090565,5.19148 -2.406721,-0.56106 -2.394066,-2.48139 -3.683923,-4.1967 -1.247611,-1.7649 -2.159725,-3.73088 -3.223292,-5.60076 -0.790255,-0.30898 -2.358559,-0.0439 -2.067263,1.02794 -0.332476,-1.51074 -1.597457,-3.20395 -0.59005,-4.67984 0.522369,-0.25872 1.119822,-0.34995 1.66139,-0.57036 z m 23.364465,3.5326 c -0.195869,0.82896 -3.277217,0.94146 -0.906659,0.30487 0.302832,-0.099 0.597432,-0.22682 0.906659,-0.30487 z m -3.887102,1.15962 c -0.04116,1.5166 -0.182349,3.364 -0.202224,5.01522 0.03962,0.80986 -0.465527,2.15578 0.932929,1.82312 1.170588,0.12961 1.302152,0.76059 0.08461,0.14576 -2.408746,0.65736 0.149939,2.13033 1.384101,2.40082 1.453902,0.96548 2.466245,2.69983 2.871788,4.12082 0.582901,-2.20011 -0.177443,-4.66636 -2.30046,-5.72523 -0.710073,-0.93125 1.895232,1.03589 2.130592,1.73172 0.860314,1.47475 1.092928,3.88347 -0.144013,5.17009 -0.166375,-1.48149 -0.339666,-3.07733 -1.635712,-4.05067 -1.131742,-2.03985 -5.002662,-0.89974 -3.92275,-4.03217 -0.02262,-2.04 0.295932,-4.07746 0.353613,-6.09976 -2.129565,0.22157 -4.281839,0.40422 -6.423138,0.0704 -0.902523,-0.53405 2.391574,-0.25137 3.15323,-0.30356 1.245319,0.007 2.481662,-0.13391 3.717433,-0.2666 z m -20.461798,0.78599 c 1.05419,1.78572 1.411036,3.99847 2.311146,5.90423 1.237146,3.06445 3.338658,5.72332 5.663043,8.0236 0.432475,0.57365 3.09652,2.02216 1.058453,1.16149 -2.24408,-1.88568 -4.366276,-4.0275 -5.931712,-6.51577 -1.479876,-2.57459 -2.223019,-5.48077 -3.159985,-8.27156 l 0.0028,-0.20989 z m 15.562357,1.35444 c 0.91938,1.5764 0.974985,3.71444 1.719527,5.46294 1.277861,1.98476 -2.18201,4.34637 -2.578481,2.2249 2.298116,1.93054 2.625135,-2.26955 1.617554,-3.64726 -0.172571,-1.20859 -1.351277,-3.00248 -0.7586,-4.04058 z m 9.734288,13.01833 c 0.03759,1.10092 -1.316799,2.37567 -0.274402,0.57103 0.09147,-0.19035 0.182936,-0.38069 0.274402,-0.57103 z m -0.754991,1.71204 c -0.310682,1.26174 -3.491209,1.50169 -1.050253,0.50618 0.346826,-0.17539 0.697931,-0.34217 1.050253,-0.50618 z m -2.166795,1.21698 c -1.626904,1.15328 -3.999261,-0.13422 -5.938128,0.002 -0.942541,0.1221 -4.811355,-0.7622 -2.135489,-0.56927 2.684455,0.20292 5.383279,0.57622 8.073617,0.56735 z m -11.661303,-1.7017 c 1.049377,0.24504 2.670733,1.25571 0.64544,0.48679 -0.04846,-0.13421 -1.353791,-0.4093 -0.64544,-0.48679 z"
       id="path3885"
       inkscape:connector-curvature="0" />
  </g>
</svg>
