  0
SECTION
  2
HEADER
  9
$ACADVER
  1
AC1009
  9
$EXTMIN
 10
0.0
 20
0.0
 30
0.0
  9
$EXTMAX
 10
1000.0
 20
1000.0
 30
0.0
  9
$FILLMODE
 70
 0
  9
$SPLFRAME
 70
 1
  0
ENDSEC
  0
SECTION
  2
TABLES
  0
TABLE
  2
LAYER
 70
1
  0
LAYER
  2
0
 70
     0
 62
     7
  6
CONTINUOUS
  0
ENDTAB
  0
ENDSEC
  0
SECTION
  2
ENTITIES
  0
POLYLINE
  8
0
 62
     33
 66
     1
 10
0
 20
0
 30
0.0
 70
     1
 40
0
 41
0
  0
VERTEX
  8
0
 10
3.1034
 20
8.15761
 30
0.0
 40
0
 41
0
  0
VERTEX
  8
0
 10
3.104
 20
8.15804
 30
0.0
 40
0
 41
0
  0
VERTEX
  8
0
 10
3.10661
 20
8.16878
 30
0.0
 40
0
 41
0
  0
VERTEX
  8
0
 10
3.10796
 20
8.18571
 30
0.0
 40
0
 41
0
  0
VERTEX
  8
0
 10
3.10796
 20
8.19129
 30
0.0
 40
0
 41
0
  0
VERTEX
  8
0
 10
3.10796
 20
8.19906
 30
0.0
 40
0
 41
0
  0
VERTEX
  8
0
 10
3.11176
 20
8.22228
 30
0.0
 40
0
 41
0
  0
VERTEX
  8
0
 10
3.1211
 20
8.22526
 30
0.0
 40
0
 41
0
  0
VERTEX
  8
0
 10
3.12207
 20
8.22424
 30
0.0
 40
0
 41
0
  0
VERTEX
  8
0
 10
3.12261
 20
8.22368
 30
0.0
 40
0
 41
0
  0
VERTEX
  8
0
 10
3.12543
 20
8.20003
 30
0.0
 40
0
 41
0
  0
VERTEX
  8
0
 10
3.12756
 20
8.15776
 30
0.0
 40
0
 41
0
  0
VERTEX
  8
0
 10
3.12782
 20
8.14785
 30
0.0
 40
0
 41
0
  0
VERTEX
  8
0
 10
3.12804
 20
8.13639
 30
0.0
 40
0
 41
0
  0
VERTEX
  8
0
 10
3.12939
 20
8.10194
 30
0.0
 40
0
 41
0
  0
VERTEX
  8
0
 10
3.13336
 20
8.06663
 30
0.0
 40
0
 41
0
  0
VERTEX
  8
0
 10
3.14208
 20
8.02681
 30
0.0
 40
0
 41
0
  0
VERTEX
  8
0
 10
3.15414
 20
7.98226
 30
0.0
 40
0
 41
0
  0
VERTEX
  8
0
 10
3.15831
 20
7.96739
 30
0.0
 40
0
 41
0
  0
VERTEX
  8
0
 10
3.16037
 20
7.95996
 30
0.0
 40
0
 41
0
  0
VERTEX
  8
0
 10
3.16699
 20
7.93772
 30
0.0
 40
0
 41
0
  0
VERTEX
  8
0
 10
3.17378
 20
7.91851
 30
0.0
 40
0
 41
0
  0
VERTEX
  8
0
 10
3.17953
 20
7.9075
 30
0.0
 40
0
 41
0
  0
VERTEX
  8
0
 10
3.1836
 20
7.90326
 30
0.0
 40
0
 41
0
  0
VERTEX
  8
0
 10
3.18528
 20
7.90246
 30
0.0
 40
0
 41
0
  0
VERTEX
  8
0
 10
3.18815
 20
7.9011
 30
0.0
 40
0
 41
0
  0
VERTEX
  8
0
 10
3.19488
 20
7.89268
 30
0.0
 40
0
 41
0
  0
VERTEX
  8
0
 10
3.19086
 20
7.88282
 30
0.0
 40
0
 41
0
  0
VERTEX
  8
0
 10
3.18847
 20
7.88069
 30
0.0
 40
0
 41
0
  0
VERTEX
  8
0
 10
3.1875
 20
7.87989
 30
0.0
 40
0
 41
0
  0
VERTEX
  8
0
 10
3.18158
 20
7.87071
 30
0.0
 40
0
 41
0
  0
VERTEX
  8
0
 10
3.18158
 20
7.86762
 30
0.0
 40
0
 41
0
  0
VERTEX
  8
0
 10
3.18158
 20
7.86535
 30
0.0
 40
0
 41
0
  0
VERTEX
  8
0
 10
3.17871
 20
7.85851
 30
0.0
 40
0
 41
0
  0
VERTEX
  8
0
 10
3.17329
 20
7.84842
 30
0.0
 40
0
 41
0
  0
VERTEX
  8
0
 10
3.17199
 20
7.84646
 30
0.0
 40
0
 41
0
  0
VERTEX
  8
0
 10
3.16743
 20
7.83979
 30
0.0
 40
0
 41
0
  0
VERTEX
  8
0
 10
3.14925
 20
7.7966
 30
0.0
 40
0
 41
0
  0
VERTEX
  8
0
 10
3.14019
 20
7.75564
 30
0.0
 40
0
 41
0
  0
VERTEX
  8
0
 10
3.14019
 20
7.74197
 30
0.0
 40
0
 41
0
  0
VERTEX
  8
0
 10
3.14019
 20
7.73594
 30
0.0
 40
0
 41
0
  0
VERTEX
  8
0
 10
3.139
 20
7.71778
 30
0.0
 40
0
 41
0
  0
VERTEX
  8
0
 10
3.13433
 20
7.7161
 30
0.0
 40
0
 41
0
  0
VERTEX
  8
0
 10
3.13379
 20
7.71658
 30
0.0
 40
0
 41
0
  0
VERTEX
  8
0
 10
3.13286
 20
7.71739
 30
0.0
 40
0
 41
0
  0
VERTEX
  8
0
 10
3.12483
 20
7.73264
 30
0.0
 40
0
 41
0
  0
VERTEX
  8
0
 10
3.12446
 20
7.73426
 30
0.0
 40
0
 41
0
  0
VERTEX
  8
0
 10
3.12392
 20
7.73654
 30
0.0
 40
0
 41
0
  0
VERTEX
  8
0
 10
3.11697
 20
7.74197
 30
0.0
 40
0
 41
0
  0
VERTEX
  8
0
 10
3.11128
 20
7.71793
 30
0.0
 40
0
 41
0
  0
VERTEX
  8
0
 10
3.11046
 20
7.70979
 30
0.0
 40
0
 41
0
  0
VERTEX
  8
0
 10
3.10992
 20
7.70486
 30
0.0
 40
0
 41
0
  0
VERTEX
  8
0
 10
3.10682
 20
7.68744
 30
0.0
 40
0
 41
0
  0
VERTEX
  8
0
 10
3.10254
 20
7.68143
 30
0.0
 40
0
 41
0
  0
VERTEX
  8
0
 10
3.10249
 20
7.68147
 30
0.0
 40
0
 41
0
  0
VERTEX
  8
0
 10
3.10097
 20
7.68246
 30
0.0
 40
0
 41
0
  0
VERTEX
  8
0
 10
3.09983
 20
7.69211
 30
0.0
 40
0
 41
0
  0
VERTEX
  8
0
 10
3.10064
 20
7.71468
 30
0.0
 40
0
 41
0
  0
VERTEX
  8
0
 10
3.10444
 20
7.74403
 30
0.0
 40
0
 41
0
  0
VERTEX
  8
0
 10
3.10883
 20
7.76742
 30
0.0
 40
0
 41
0
  0
VERTEX
  8
0
 10
3.11074
 20
7.77507
 30
0.0
 40
0
 41
0
  0
VERTEX
  8
0
 10
3.11322
 20
7.78532
 30
0.0
 40
0
 41
0
  0
VERTEX
  8
0
 10
3.12858
 20
7.82889
 30
0.0
 40
0
 41
0
  0
VERTEX
  8
0
 10
3.14785
 20
7.86231
 30
0.0
 40
0
 41
0
  0
VERTEX
  8
0
 10
3.15229
 20
7.86751
 30
0.0
 40
0
 41
0
  0
VERTEX
  8
0
 10
3.15608
 20
7.87201
 30
0.0
 40
0
 41
0
  0
VERTEX
  8
0
 10
3.16661
 20
7.8909
 30
0.0
 40
0
 41
0
  0
VERTEX
  8
0
 10
3.16569
 20
7.90528
 30
0.0
 40
0
 41
0
  0
VERTEX
  8
0
 10
3.16379
 20
7.90744
 30
0.0
 40
0
 41
0
  0
VERTEX
  8
0
 10
3.16237
 20
7.90907
 30
0.0
 40
0
 41
0
  0
VERTEX
  8
0
 10
3.15576
 20
7.92611
 30
0.0
 40
0
 41
0
  0
VERTEX
  8
0
 10
3.14242
 20
7.96556
 30
0.0
 40
0
 41
0
  0
VERTEX
  8
0
 10
3.12696
 20
8.01551
 30
0.0
 40
0
 41
0
  0
VERTEX
  8
0
 10
3.1161
 20
8.05317
 30
0.0
 40
0
 41
0
  0
VERTEX
  8
0
 10
3.11279
 20
8.06575
 30
0.0
 40
0
 41
0
  0
VERTEX
  8
0
 10
3.11035
 20
8.07476
 30
0.0
 40
0
 41
0
  0
VERTEX
  8
0
 10
3.10411
 20
8.102
 30
0.0
 40
0
 41
0
  0
VERTEX
  8
0
 10
3.09961
 20
8.12983
 30
0.0
 40
0
 41
0
  0
VERTEX
  8
0
 10
3.09933
 20
8.1486
 30
0.0
 40
0
 41
0
  0
VERTEX
  8
0
 10
3.10167
 20
8.15653
 30
0.0
 40
0
 41
0
  0
VERTEX
  8
0
 10
3.1034
 20
8.15761
 30
0.0
 40
0
 41
0
  0
SEQEND
 8
0
  0
POLYLINE
  8
0
 62
     33
 66
     1
 10
0
 20
0
 30
0.0
 70
     1
 40
0
 41
0
  0
VERTEX
  8
0
 10
3.10368
 20
7.66401
 30
0.0
 40
0
 41
0
  0
VERTEX
  8
0
 10
3.10417
 20
7.66401
 30
0.0
 40
0
 41
0
  0
VERTEX
  8
0
 10
3.10607
 20
7.65989
 30
0.0
 40
0
 41
0
  0
VERTEX
  8
0
 10
3.10568
 20
7.65918
 30
0.0
 40
0
 41
0
  0
VERTEX
  8
0
 10
3.10525
 20
7.65853
 30
0.0
 40
0
 41
0
  0
VERTEX
  8
0
 10
3.10189
 20
7.6544
 30
0.0
 40
0
 41
0
  0
VERTEX
  8
0
 10
3.10081
 20
7.6544
 30
0.0
 40
0
 41
0
  0
VERTEX
  8
0
 10
3.10026
 20
7.6544
 30
0.0
 40
0
 41
0
  0
VERTEX
  8
0
 10
3.09879
 20
7.65799
 30
0.0
 40
0
 41
0
  0
VERTEX
  8
0
 10
3.09879
 20
7.65918
 30
0.0
 40
0
 41
0
  0
VERTEX
  8
0
 10
3.09879
 20
7.66043
 30
0.0
 40
0
 41
0
  0
VERTEX
  8
0
 10
3.10243
 20
7.66401
 30
0.0
 40
0
 41
0
  0
VERTEX
  8
0
 10
3.10368
 20
7.66401
 30
0.0
 40
0
 41
0
  0
SEQEND
 8
0
  0
POLYLINE
  8
0
 62
     33
 66
     1
 10
0
 20
0
 30
0.0
 70
     1
 40
0
 41
0
  0
VERTEX
  8
0
 10
3.10389
 20
7.62067
 30
0.0
 40
0
 41
0
  0
VERTEX
  8
0
 10
3.10444
 20
7.61703
 30
0.0
 40
0
 41
0
  0
VERTEX
  8
0
 10
3.10807
 20
7.59597
 30
0.0
 40
0
 41
0
  0
VERTEX
  8
0
 10
3.11187
 20
7.5765
 30
0.0
 40
0
 41
0
  0
VERTEX
  8
0
 10
3.11253
 20
7.57368
 30
0.0
 40
0
 41
0
  0
VERTEX
  8
0
 10
3.11313
 20
7.57086
 30
0.0
 40
0
 41
0
  0
VERTEX
  8
0
 10
3.11578
 20
7.55501
 30
0.0
 40
0
 41
0
  0
VERTEX
  8
0
 10
3.11719
 20
7.54292
 30
0.0
 40
0
 41
0
  0
VERTEX
  8
0
 10
3.11719
 20
7.53885
 30
0.0
 40
0
 41
0
  0
VERTEX
  8
0
 10
3.11719
 20
7.53256
 30
0.0
 40
0
 41
0
  0
VERTEX
  8
0
 10
3.12121
 20
7.51361
 30
0.0
 40
0
 41
0
  0
VERTEX
  8
0
 10
3.13157
 20
7.47293
 30
0.0
 40
0
 41
0
  0
VERTEX
  8
0
 10
3.14556
 20
7.42632
 30
0.0
 40
0
 41
0
  0
VERTEX
  8
0
 10
3.15647
 20
7.39404
 30
0.0
 40
0
 41
0
  0
VERTEX
  8
0
 10
3.1606
 20
7.38346
 30
0.0
 40
0
 41
0
  0
VERTEX
  8
0
 10
3.16488
 20
7.37229
 30
0.0
 40
0
 41
0
  0
VERTEX
  8
0
 10
3.17904
 20
7.33908
 30
0.0
 40
0
 41
0
  0
VERTEX
  8
0
 10
3.20182
 20
7.28928
 30
0.0
 40
0
 41
0
  0
VERTEX
  8
0
 10
3.22347
 20
7.24539
 30
0.0
 40
0
 41
0
  0
VERTEX
  8
0
 10
3.23529
 20
7.22342
 30
0.0
 40
0
 41
0
  0
VERTEX
  8
0
 10
3.23872
 20
7.21858
 30
0.0
 40
0
 41
0
  0
VERTEX
  8
0
 10
3.24013
 20
7.21664
 30
0.0
 40
0
 41
0
  0
VERTEX
  8
0
 10
3.24951
 20
7.20187
 30
0.0
 40
0
 41
0
  0
VERTEX
  8
0
 10
3.2595
 20
7.18506
 30
0.0
 40
0
 41
0
  0
VERTEX
  8
0
 10
3.26118
 20
7.18201
 30
0.0
 40
0
 41
0
  0
VERTEX
  8
0
 10
3.26286
 20
7.17899
 30
0.0
 40
0
 41
0
  0
VERTEX
  8
0
 10
3.27556
 20
7.16069
 30
0.0
 40
0
 41
0
  0
VERTEX
  8
0
 10
3.29025
 20
7.14301
 30
0.0
 40
0
 41
0
  0
VERTEX
  8
0
 10
3.29297
 20
7.14031
 30
0.0
 40
0
 41
0
  0
VERTEX
  8
0
 10
3.29926
 20
7.13396
 30
0.0
 40
0
 41
0
  0
VERTEX
  8
0
 10
3.31847
 20
7.11501
 30
0.0
 40
0
 41
0
  0
VERTEX
  8
0
 10
3.33968
 20
7.09483
 30
0.0
 40
0
 41
0
  0
VERTEX
  8
0
 10
3.35476
 20
7.08154
 30
0.0
 40
0
 41
0
  0
VERTEX
  8
0
 10
3.36106
 20
7.07671
 30
0.0
 40
0
 41
0
  0
VERTEX
  8
0
 10
3.36193
 20
7.07667
 30
0.0
 40
0
 41
0
  0
VERTEX
  8
0
 10
3.36236
 20
7.07667
 30
0.0
 40
0
 41
0
  0
VERTEX
  8
0
 10
3.36535
 20
7.07308
 30
0.0
 40
0
 41
0
  0
VERTEX
  8
0
 10
3.36535
 20
7.07189
 30
0.0
 40
0
 41
0
  0
VERTEX
  8
0
 10
3.36535
 20
7.07172
 30
0.0
 40
0
 41
0
  0
VERTEX
  8
0
 10
3.36003
 20
7.07113
 30
0.0
 40
0
 41
0
  0
VERTEX
  8
0
 10
3.34631
 20
7.07949
 30
0.0
 40
0
 41
0
  0
VERTEX
  8
0
 10
3.32726
 20
7.09462
 30
0.0
 40
0
 41
0
  0
VERTEX
  8
0
 10
3.31114
 20
7.10921
 30
0.0
 40
0
 41
0
  0
VERTEX
  8
0
 10
3.3061
 20
7.11431
 30
0.0
 40
0
 41
0
  0
VERTEX
  8
0
 10
3.29503
 20
7.12537
 30
0.0
 40
0
 41
0
  0
VERTEX
  8
0
 10
3.26324
 20
7.15978
 30
0.0
 40
0
 41
0
  0
VERTEX
  8
0
 10
3.2296
 20
7.20269
 30
0.0
 40
0
 41
0
  0
VERTEX
  8
0
 10
3.20042
 20
7.24994
 30
0.0
 40
0
 41
0
  0
VERTEX
  8
0
 10
3.17785
 20
7.29357
 30
0.0
 40
0
 41
0
  0
VERTEX
  8
0
 10
3.1709
 20
7.30832
 30
0.0
 40
0
 41
0
  0
VERTEX
  8
0
 10
3.16433
 20
7.32215
 30
0.0
 40
0
 41
0
  0
VERTEX
  8
0
 10
3.13883
 20
7.38135
 30
0.0
 40
0
 41
0
  0
VERTEX
  8
0
 10
3.12321
 20
7.42637
 30
0.0
 40
0
 41
0
  0
VERTEX
  8
0
 10
3.12164
 20
7.43306
 30
0.0
 40
0
 41
0
  0
VERTEX
  8
0
 10
3.12028
 20
7.43869
 30
0.0
 40
0
 41
0
  0
VERTEX
  8
0
 10
3.11356
 20
7.46679
 30
0.0
 40
0
 41
0
  0
VERTEX
  8
0
 10
3.1084
 20
7.48839
 30
0.0
 40
0
 41
0
  0
VERTEX
  8
0
 10
3.10786
 20
7.49067
 30
0.0
 40
0
 41
0
  0
VERTEX
  8
0
 10
3.10732
 20
7.493
 30
0.0
 40
0
 41
0
  0
VERTEX
  8
0
 10
3.10444
 20
7.52311
 30
0.0
 40
0
 41
0
  0
VERTEX
  8
0
 10
3.10215
 20
7.56776
 30
0.0
 40
0
 41
0
  0
VERTEX
  8
0
 10
3.10189
 20
7.57736
 30
0.0
 40
0
 41
0
  0
VERTEX
  8
0
 10
3.10167
 20
7.58501
 30
0.0
 40
0
 41
0
  0
VERTEX
  8
0
 10
3.10113
 20
7.60801
 30
0.0
 40
0
 41
0
  0
VERTEX
  8
0
 10
3.10124
 20
7.62506
 30
0.0
 40
0
 41
0
  0
VERTEX
  8
0
 10
3.10215
 20
7.62907
 30
0.0
 40
0
 41
0
  0
VERTEX
  8
0
 10
3.10357
 20
7.62278
 30
0.0
 40
0
 41
0
  0
VERTEX
  8
0
 10
3.10389
 20
7.62067
 30
0.0
 40
0
 41
0
  0
SEQEND
 8
0
  0
POLYLINE
  8
0
 62
     33
 66
     1
 10
0
 20
0
 30
0.0
 70
     1
 40
0
 41
0
  0
VERTEX
  8
0
 10
3.14524
 20
8.20335
 30
0.0
 40
0
 41
0
  0
VERTEX
  8
0
 10
3.1474
 20
8.20335
 30
0.0
 40
0
 41
0
  0
VERTEX
  8
0
 10
3.15392
 20
8.19922
 30
0.0
 40
0
 41
0
  0
VERTEX
  8
0
 10
3.17051
 20
8.18782
 30
0.0
 40
0
 41
0
  0
VERTEX
  8
0
 10
3.19282
 20
8.17074
 30
0.0
 40
0
 41
0
  0
VERTEX
  8
0
 10
3.21229
 20
8.15494
 30
0.0
 40
0
 41
0
  0
VERTEX
  8
0
 10
3.21869
 20
8.14958
 30
0.0
 40
0
 41
0
  0
VERTEX
  8
0
 10
3.22678
 20
8.14274
 30
0.0
 40
0
 41
0
  0
VERTEX
  8
0
 10
3.25076
 20
8.12169
 30
0.0
 40
0
 41
0
  0
VERTEX
  8
0
 10
3.2755
 20
8.09814
 30
0.0
 40
0
 41
0
  0
VERTEX
  8
0
 10
3.29551
 20
8.07611
 30
0.0
 40
0
 41
0
  0
VERTEX
  8
0
 10
3.30925
 20
8.05886
 30
0.0
 40
0
 41
0
  0
VERTEX
  8
0
 10
3.31358
 20
8.0529
 30
0.0
 40
0
 41
0
  0
VERTEX
  8
0
 10
3.31967
 20
8.04449
 30
0.0
 40
0
 41
0
  0
VERTEX
  8
0
 10
3.33806
 20
8.0191
 30
0.0
 40
0
 41
0
  0
VERTEX
  8
0
 10
3.34939
 20
8.00211
 30
0.0
 40
0
 41
0
  0
VERTEX
  8
0
 10
3.35157
 20
7.99501
 30
0.0
 40
0
 41
0
  0
VERTEX
  8
0
 10
3.34918
 20
7.99186
 30
0.0
 40
0
 41
0
  0
VERTEX
  8
0
 10
3.34831
 20
7.99089
 30
0.0
 40
0
 41
0
  0
VERTEX
  8
0
 10
3.34765
 20
7.99029
 30
0.0
 40
0
 41
0
  0
VERTEX
  8
0
 10
3.34332
 20
7.99078
 30
0.0
 40
0
 41
0
  0
VERTEX
  8
0
 10
3.3335
 20
7.99767
 30
0.0
 40
0
 41
0
  0
VERTEX
  8
0
 10
3.31743
 20
8.01286
 30
0.0
 40
0
 41
0
  0
VERTEX
  8
0
 10
3.29937
 20
8.03147
 30
0.0
 40
0
 41
0
  0
VERTEX
  8
0
 10
3.29351
 20
8.03771
 30
0.0
 40
0
 41
0
  0
VERTEX
  8
0
 10
3.28851
 20
8.04303
 30
0.0
 40
0
 41
0
  0
VERTEX
  8
0
 10
3.27376
 20
8.05892
 30
0.0
 40
0
 41
0
  0
VERTEX
  8
0
 10
3.25651
 20
8.07775
 30
0.0
 40
0
 41
0
  0
VERTEX
  8
0
 10
3.2436
 20
8.09224
 30
0.0
 40
0
 41
0
  0
VERTEX
  8
0
 10
3.2379
 20
8.0989
 30
0.0
 40
0
 41
0
  0
VERTEX
  8
0
 10
3.23693
 20
8.10026
 30
0.0
 40
0
 41
0
  0
VERTEX
  8
0
 10
3.23594
 20
8.10167
 30
0.0
 40
0
 41
0
  0
VERTEX
  8
0
 10
3.23042
 20
8.10753
 30
0.0
 40
0
 41
0
  0
VERTEX
  8
0
 10
3.21804
 20
8.11979
 30
0.0
 40
0
 41
0
  0
VERTEX
  8
0
 10
3.20156
 20
8.13542
 30
0.0
 40
0
 41
0
  0
VERTEX
  8
0
 10
3.18744
 20
8.14839
 30
0.0
 40
0
 41
0
  0
VERTEX
  8
0
 10
3.18272
 20
8.15261
 30
0.0
 40
0
 41
0
  0
VERTEX
  8
0
 10
3.17811
 20
8.15679
 30
0.0
 40
0
 41
0
  0
VERTEX
  8
0
 10
3.16439
 20
8.16938
 30
0.0
 40
0
 41
0
  0
VERTEX
  8
0
 10
3.14942
 20
8.18371
 30
0.0
 40
0
 41
0
  0
VERTEX
  8
0
 10
3.13926
 20
8.19417
 30
0.0
 40
0
 41
0
  0
VERTEX
  8
0
 10
3.13558
 20
8.19792
 30
0.0
 40
0
 41
0
  0
VERTEX
  8
0
 10
3.13558
 20
8.19911
 30
0.0
 40
0
 41
0
  0
VERTEX
  8
0
 10
3.13558
 20
8.20019
 30
0.0
 40
0
 41
0
  0
VERTEX
  8
0
 10
3.14279
 20
8.20335
 30
0.0
 40
0
 41
0
  0
VERTEX
  8
0
 10
3.14524
 20
8.20335
 30
0.0
 40
0
 41
0
  0
SEQEND
 8
0
  0
POLYLINE
  8
0
 62
     33
 66
     1
 10
0
 20
0
 30
0.0
 70
     1
 40
0
 41
0
  0
VERTEX
  8
0
 10
3.28944
 20
7.52311
 30
0.0
 40
0
 41
0
  0
VERTEX
  8
0
 10
3.29113
 20
7.53207
 30
0.0
 40
0
 41
0
  0
VERTEX
  8
0
 10
3.30881
 20
7.58128
 30
0.0
 40
0
 41
0
  0
VERTEX
  8
0
 10
3.33393
 20
7.62592
 30
0.0
 40
0
 41
0
  0
VERTEX
  8
0
 10
3.33936
 20
7.63254
 30
0.0
 40
0
 41
0
  0
VERTEX
  8
0
 10
3.35493
 20
7.65158
 30
0.0
 40
0
 41
0
  0
VERTEX
  8
0
 10
3.33914
 20
7.68175
 30
0.0
 40
0
 41
0
  0
VERTEX
  8
0
 10
3.33686
 20
7.68608
 30
0.0
 40
0
 41
0
  0
VERTEX
  8
0
 10
3.32829
 20
7.70643
 30
0.0
 40
0
 41
0
  0
VERTEX
  8
0
 10
3.32482
 20
7.72131
 30
0.0
 40
0
 41
0
  0
VERTEX
  8
0
 10
3.32508
 20
7.72288
 30
0.0
 40
0
 41
0
  0
VERTEX
  8
0
 10
3.32536
 20
7.72467
 30
0.0
 40
0
 41
0
  0
VERTEX
  8
0
 10
3.32785
 20
7.72976
 30
0.0
 40
0
 41
0
  0
VERTEX
  8
0
 10
3.33399
 20
7.72065
 30
0.0
 40
0
 41
0
  0
VERTEX
  8
0
 10
3.33578
 20
7.71744
 30
0.0
 40
0
 41
0
  0
VERTEX
  8
0
 10
3.33697
 20
7.71522
 30
0.0
 40
0
 41
0
  0
VERTEX
  8
0
 10
3.34554
 20
7.70167
 30
0.0
 40
0
 41
0
  0
VERTEX
  8
0
 10
3.35493
 20
7.68864
 30
0.0
 40
0
 41
0
  0
VERTEX
  8
0
 10
3.35661
 20
7.68664
 30
0.0
 40
0
 41
0
  0
VERTEX
  8
0
 10
3.36837
 20
7.67225
 30
0.0
 40
0
 41
0
  0
VERTEX
  8
0
 10
3.38986
 20
7.68544
 30
0.0
 40
0
 41
0
  0
VERTEX
  8
0
 10
3.39279
 20
7.68728
 30
0.0
 40
0
 41
0
  0
VERTEX
  8
0
 10
3.405
 20
7.69683
 30
0.0
 40
0
 41
0
  0
VERTEX
  8
0
 10
3.41135
 20
7.70344
 30
0.0
 40
0
 41
0
  0
VERTEX
  8
0
 10
3.41135
 20
7.70562
 30
0.0
 40
0
 41
0
  0
VERTEX
  8
0
 10
3.41135
 20
7.70822
 30
0.0
 40
0
 41
0
  0
VERTEX
  8
0
 10
3.40864
 20
7.71604
 30
0.0
 40
0
 41
0
  0
VERTEX
  8
0
 10
3.40349
 20
7.72879
 30
0.0
 40
0
 41
0
  0
VERTEX
  8
0
 10
3.40224
 20
7.73133
 30
0.0
 40
0
 41
0
  0
VERTEX
  8
0
 10
3.39958
 20
7.73671
 30
0.0
 40
0
 41
0
  0
VERTEX
  8
0
 10
3.39219
 20
7.76411
 30
0.0
 40
0
 41
0
  0
VERTEX
  8
0
 10
3.39378
 20
7.78217
 30
0.0
 40
0
 41
0
  0
VERTEX
  8
0
 10
3.39567
 20
7.78282
 30
0.0
 40
0
 41
0
  0
VERTEX
  8
0
 10
3.39632
 20
7.7831
 30
0.0
 40
0
 41
0
  0
VERTEX
  8
0
 10
3.40072
 20
7.77865
 30
0.0
 40
0
 41
0
  0
VERTEX
  8
0
 10
3.40522
 20
7.76861
 30
0.0
 40
0
 41
0
  0
VERTEX
  8
0
 10
3.40597
 20
7.766
 30
0.0
 40
0
 41
0
  0
VERTEX
  8
0
 10
3.40668
 20
7.76346
 30
0.0
 40
0
 41
0
  0
VERTEX
  8
0
 10
3.41319
 20
7.74897
 30
0.0
 40
0
 41
0
  0
VERTEX
  8
0
 10
3.42139
 20
7.73589
 30
0.0
 40
0
 41
0
  0
VERTEX
  8
0
 10
3.42301
 20
7.73406
 30
0.0
 40
0
 41
0
  0
VERTEX
  8
0
 10
3.42535
 20
7.73139
 30
0.0
 40
0
 41
0
  0
VERTEX
  8
0
 10
3.4349
 20
7.72413
 30
0.0
 40
0
 41
0
  0
VERTEX
  8
0
 10
3.44472
 20
7.72347
 30
0.0
 40
0
 41
0
  0
VERTEX
  8
0
 10
3.44721
 20
7.72413
 30
0.0
 40
0
 41
0
  0
VERTEX
  8
0
 10
3.44889
 20
7.72461
 30
0.0
 40
0
 41
0
  0
VERTEX
  8
0
 10
3.46625
 20
7.72721
 30
0.0
 40
0
 41
0
  0
VERTEX
  8
0
 10
3.4899
 20
7.7296
 30
0.0
 40
0
 41
0
  0
VERTEX
  8
0
 10
3.49479
 20
7.72993
 30
0.0
 40
0
 41
0
  0
VERTEX
  8
0
 10
3.49972
 20
7.73031
 30
0.0
 40
0
 41
0
  0
VERTEX
  8
0
 10
3.51465
 20
7.7309
 30
0.0
 40
0
 41
0
  0
VERTEX
  8
0
 10
3.52897
 20
7.72976
 30
0.0
 40
0
 41
0
  0
VERTEX
  8
0
 10
3.54226
 20
7.72569
 30
0.0
 40
0
 41
0
  0
VERTEX
  8
0
 10
3.5549
 20
7.71994
 30
0.0
 40
0
 41
0
  0
VERTEX
  8
0
 10
3.55908
 20
7.71783
 30
0.0
 40
0
 41
0
  0
VERTEX
  8
0
 10
3.56603
 20
7.71436
 30
0.0
 40
0
 41
0
  0
VERTEX
  8
0
 10
3.5855
 20
7.70079
 30
0.0
 40
0
 41
0
  0
VERTEX
  8
0
 10
3.61176
 20
7.67714
 30
0.0
 40
0
 41
0
  0
VERTEX
  8
0
 10
3.63482
 20
7.64996
 30
0.0
 40
0
 41
0
  0
VERTEX
  8
0
 10
3.64833
 20
7.62961
 30
0.0
 40
0
 41
0
  0
VERTEX
  8
0
 10
3.65186
 20
7.62235
 30
0.0
 40
0
 41
0
  0
VERTEX
  8
0
 10
3.655
 20
7.61578
 30
0.0
 40
0
 41
0
  0
VERTEX
  8
0
 10
3.66292
 20
7.59532
 30
0.0
 40
0
 41
0
  0
VERTEX
  8
0
 10
3.67426
 20
7.56147
 30
0.0
 40
0
 41
0
  0
VERTEX
  8
0
 10
3.68375
 20
7.52707
 30
0.0
 40
0
 41
0
  0
VERTEX
  8
0
 10
3.68864
 20
7.50569
 30
0.0
 40
0
 41
0
  0
VERTEX
  8
0
 10
3.68967
 20
7.49849
 30
0.0
 40
0
 41
0
  0
VERTEX
  8
0
 10
3.69032
 20
7.49397
 30
0.0
 40
0
 41
0
  0
VERTEX
  8
0
 10
3.69108
 20
7.48008
 30
0.0
 40
0
 41
0
  0
VERTEX
  8
0
 10
3.68744
 20
7.47694
 30
0.0
 40
0
 41
0
  0
VERTEX
  8
0
 10
3.68668
 20
7.47715
 30
0.0
 40
0
 41
0
  0
VERTEX
  8
0
 10
3.68576
 20
7.47749
 30
0.0
 40
0
 41
0
  0
VERTEX
  8
0
 10
3.68099
 20
7.48432
 30
0.0
 40
0
 41
0
  0
VERTEX
  8
0
 10
3.67692
 20
7.49567
 30
0.0
 40
0
 41
0
  0
VERTEX
  8
0
 10
3.67638
 20
7.49826
 30
0.0
 40
0
 41
0
  0
VERTEX
  8
0
 10
3.67361
 20
7.51161
 30
0.0
 40
0
 41
0
  0
VERTEX
  8
0
 10
3.66336
 20
7.55117
 30
0.0
 40
0
 41
0
  0
VERTEX
  8
0
 10
3.64779
 20
7.59392
 30
0.0
 40
0
 41
0
  0
VERTEX
  8
0
 10
3.62853
 20
7.62918
 30
0.0
 40
0
 41
0
  0
VERTEX
  8
0
 10
3.611
 20
7.6525
 30
0.0
 40
0
 41
0
  0
VERTEX
  8
0
 10
3.60444
 20
7.65956
 30
0.0
 40
0
 41
0
  0
VERTEX
  8
0
 10
3.59543
 20
7.66917
 30
0.0
 40
0
 41
0
  0
VERTEX
  8
0
 10
3.55214
 20
7.70079
 30
0.0
 40
0
 41
0
  0
VERTEX
  8
0
 10
3.51025
 20
7.71089
 30
0.0
 40
0
 41
0
  0
VERTEX
  8
0
 10
3.50201
 20
7.70969
 30
0.0
 40
0
 41
0
  0
VERTEX
  8
0
 10
3.48676
 20
7.70757
 30
0.0
 40
0
 41
0
  0
VERTEX
  8
0
 10
3.43012
 20
7.69174
 30
0.0
 40
0
 41
0
  0
VERTEX
  8
0
 10
3.39942
 20
7.66878
 30
0.0
 40
0
 41
0
  0
VERTEX
  8
0
 10
3.39719
 20
7.66314
 30
0.0
 40
0
 41
0
  0
VERTEX
  8
0
 10
3.39643
 20
7.66129
 30
0.0
 40
0
 41
0
  0
VERTEX
  8
0
 10
3.38743
 20
7.64958
 30
0.0
 40
0
 41
0
  0
VERTEX
  8
0
 10
3.38444
 20
7.64958
 30
0.0
 40
0
 41
0
  0
VERTEX
  8
0
 10
3.38163
 20
7.64958
 30
0.0
 40
0
 41
0
  0
VERTEX
  8
0
 10
3.37299
 20
7.64247
 30
0.0
 40
0
 41
0
  0
VERTEX
  8
0
 10
3.3571
 20
7.62332
 30
0.0
 40
0
 41
0
  0
VERTEX
  8
0
 10
3.33908
 20
7.59526
 30
0.0
 40
0
 41
0
  0
VERTEX
  8
0
 10
3.32531
 20
7.5701
 30
0.0
 40
0
 41
0
  0
VERTEX
  8
0
 10
3.32118
 20
7.56147
 30
0.0
 40
0
 41
0
  0
VERTEX
  8
0
 10
3.31836
 20
7.55567
 30
0.0
 40
0
 41
0
  0
VERTEX
  8
0
 10
3.31044
 20
7.53797
 30
0.0
 40
0
 41
0
  0
VERTEX
  8
0
 10
3.30393
 20
7.51958
 30
0.0
 40
0
 41
0
  0
VERTEX
  8
0
 10
3.30035
 20
7.50174
 30
0.0
 40
0
 41
0
  0
VERTEX
  8
0
 10
3.29872
 20
7.48514
 30
0.0
 40
0
 41
0
  0
VERTEX
  8
0
 10
3.29844
 20
7.4796
 30
0.0
 40
0
 41
0
  0
VERTEX
  8
0
 10
3.29796
 20
7.47157
 30
0.0
 40
0
 41
0
  0
VERTEX
  8
0
 10
3.29606
 20
7.44743
 30
0.0
 40
0
 41
0
  0
VERTEX
  8
0
 10
3.29363
 20
7.42844
 30
0.0
 40
0
 41
0
  0
VERTEX
  8
0
 10
3.29075
 20
7.42106
 30
0.0
 40
0
 41
0
  0
VERTEX
  8
0
 10
3.28765
 20
7.42269
 30
0.0
 40
0
 41
0
  0
VERTEX
  8
0
 10
3.28717
 20
7.4235
 30
0.0
 40
0
 41
0
  0
VERTEX
  8
0
 10
3.28569
 20
7.42589
 30
0.0
 40
0
 41
0
  0
VERTEX
  8
0
 10
3.28413
 20
7.43799
 30
0.0
 40
0
 41
0
  0
VERTEX
  8
0
 10
3.28358
 20
7.46326
 30
0.0
 40
0
 41
0
  0
VERTEX
  8
0
 10
3.28549
 20
7.4936
 30
0.0
 40
0
 41
0
  0
VERTEX
  8
0
 10
3.28819
 20
7.51585
 30
0.0
 40
0
 41
0
  0
VERTEX
  8
0
 10
3.28961
 20
7.52317
 30
0.0
 40
0
 41
0
  0
VERTEX
  8
0
 10
3.28944
 20
7.52311
 30
0.0
 40
0
 41
0
  0
SEQEND
 8
0
  0
POLYLINE
  8
0
 62
     33
 66
     1
 10
0
 20
0
 30
0.0
 70
     1
 40
0
 41
0
  0
VERTEX
  8
0
 10
3.32172
 20
8.08122
 30
0.0
 40
0
 41
0
  0
VERTEX
  8
0
 10
3.32264
 20
8.08083
 30
0.0
 40
0
 41
0
  0
VERTEX
  8
0
 10
3.33778
 20
8.08496
 30
0.0
 40
0
 41
0
  0
VERTEX
  8
0
 10
3.36133
 20
8.09517
 30
0.0
 40
0
 41
0
  0
VERTEX
  8
0
 10
3.36654
 20
8.09782
 30
0.0
 40
0
 41
0
  0
VERTEX
  8
0
 10
3.37343
 20
8.10135
 30
0.0
 40
0
 41
0
  0
VERTEX
  8
0
 10
3.40256
 20
8.11344
 30
0.0
 40
0
 41
0
  0
VERTEX
  8
0
 10
3.42882
 20
8.11951
 30
0.0
 40
0
 41
0
  0
VERTEX
  8
0
 10
3.43431
 20
8.12001
 30
0.0
 40
0
 41
0
  0
VERTEX
  8
0
 10
3.43896
 20
8.1205
 30
0.0
 40
0
 41
0
  0
VERTEX
  8
0
 10
3.48546
 20
8.13396
 30
0.0
 40
0
 41
0
  0
VERTEX
  8
0
 10
3.48947
 20
8.13596
 30
0.0
 40
0
 41
0
  0
VERTEX
  8
0
 10
3.49294
 20
8.13781
 30
0.0
 40
0
 41
0
  0
VERTEX
  8
0
 10
3.51275
 20
8.14703
 30
0.0
 40
0
 41
0
  0
VERTEX
  8
0
 10
3.5306
 20
8.15429
 30
0.0
 40
0
 41
0
  0
VERTEX
  8
0
 10
3.53315
 20
8.15511
 30
0.0
 40
0
 41
0
  0
VERTEX
  8
0
 10
3.53564
 20
8.15597
 30
0.0
 40
0
 41
0
  0
VERTEX
  8
0
 10
3.54742
 20
8.16064
 30
0.0
 40
0
 41
0
  0
VERTEX
  8
0
 10
3.55524
 20
8.16471
 30
0.0
 40
0
 41
0
  0
VERTEX
  8
0
 10
3.55583
 20
8.16525
 30
0.0
 40
0
 41
0
  0
VERTEX
  8
0
 10
3.55637
 20
8.16585
 30
0.0
 40
0
 41
0
  0
VERTEX
  8
0
 10
3.55919
 20
8.1799
 30
0.0
 40
0
 41
0
  0
VERTEX
  8
0
 10
3.56119
 20
8.20372
 30
0.0
 40
0
 41
0
  0
VERTEX
  8
0
 10
3.56142
 20
8.20921
 30
0.0
 40
0
 41
0
  0
VERTEX
  8
0
 10
3.56158
 20
8.21474
 30
0.0
 40
0
 41
0
  0
VERTEX
  8
0
 10
3.56315
 20
8.24235
 30
0.0
 40
0
 41
0
  0
VERTEX
  8
0
 10
3.56506
 20
8.26367
 30
0.0
 40
0
 41
0
  0
VERTEX
  8
0
 10
3.56543
 20
8.26594
 30
0.0
 40
0
 41
0
  0
VERTEX
  8
0
 10
3.56575
 20
8.26828
 30
0.0
 40
0
 41
0
  0
VERTEX
  8
0
 10
3.56967
 20
8.29531
 30
0.0
 40
0
 41
0
  0
VERTEX
  8
0
 10
3.56993
 20
8.29725
 30
0.0
 40
0
 41
0
  0
VERTEX
  8
0
 10
3.57064
 20
8.3029
 30
0.0
 40
0
 41
0
  0
VERTEX
  8
0
 10
3.57324
 20
8.31961
 30
0.0
 40
0
 41
0
  0
VERTEX
  8
0
 10
3.57742
 20
8.34332
 30
0.0
 40
0
 41
0
  0
VERTEX
  8
0
 10
3.58143
 20
8.36285
 30
0.0
 40
0
 41
0
  0
VERTEX
  8
0
 10
3.58361
 20
8.37158
 30
0.0
 40
0
 41
0
  0
VERTEX
  8
0
 10
3.58421
 20
8.37256
 30
0.0
 40
0
 41
0
  0
VERTEX
  8
0
 10
3.58453
 20
8.3731
 30
0.0
 40
0
 41
0
  0
VERTEX
  8
0
 10
3.58214
 20
8.38504
 30
0.0
 40
0
 41
0
  0
VERTEX
  8
0
 10
3.58149
 20
8.38639
 30
0.0
 40
0
 41
0
  0
VERTEX
  8
0
 10
3.58046
 20
8.3884
 30
0.0
 40
0
 41
0
  0
VERTEX
  8
0
 10
3.57932
 20
8.39708
 30
0.0
 40
0
 41
0
  0
VERTEX
  8
0
 10
3.58399
 20
8.40733
 30
0.0
 40
0
 41
0
  0
VERTEX
  8
0
 10
3.58589
 20
8.4101
 30
0.0
 40
0
 41
0
  0
VERTEX
  8
0
 10
3.58713
 20
8.412
 30
0.0
 40
0
 41
0
  0
VERTEX
  8
0
 10
3.5925
 20
8.42275
 30
0.0
 40
0
 41
0
  0
VERTEX
  8
0
 10
3.59526
 20
8.43093
 30
0.0
 40
0
 41
0
  0
VERTEX
  8
0
 10
3.59526
 20
8.43365
 30
0.0
 40
0
 41
0
  0
VERTEX
  8
0
 10
3.59526
 20
8.43804
 30
0.0
 40
0
 41
0
  0
VERTEX
  8
0
 10
3.59744
 20
8.45122
 30
0.0
 40
0
 41
0
  0
VERTEX
  8
0
 10
3.60335
 20
8.45762
 30
0.0
 40
0
 41
0
  0
VERTEX
  8
0
 10
3.61203
 20
8.45275
 30
0.0
 40
0
 41
0
  0
VERTEX
  8
0
 10
3.62039
 20
8.44081
 30
0.0
 40
0
 41
0
  0
VERTEX
  8
0
 10
3.62256
 20
8.43647
 30
0.0
 40
0
 41
0
  0
VERTEX
  8
0
 10
3.62468
 20
8.43224
 30
0.0
 40
0
 41
0
  0
VERTEX
  8
0
 10
3.63271
 20
8.42025
 30
0.0
 40
0
 41
0
  0
VERTEX
  8
0
 10
3.64393
 20
8.41108
 30
0.0
 40
0
 41
0
  0
VERTEX
  8
0
 10
3.65788
 20
8.4081
 30
0.0
 40
0
 41
0
  0
VERTEX
  8
0
 10
3.67176
 20
8.4095
 30
0.0
 40
0
 41
0
  0
VERTEX
  8
0
 10
3.67626
 20
8.41054
 30
0.0
 40
0
 41
0
  0
VERTEX
  8
0
 10
3.6791
 20
8.41124
 30
0.0
 40
0
 41
0
  0
VERTEX
  8
0
 10
3.69185
 20
8.41342
 30
0.0
 40
0
 41
0
  0
VERTEX
  8
0
 10
3.69982
 20
8.41363
 30
0.0
 40
0
 41
0
  0
VERTEX
  8
0
 10
3.70031
 20
8.41331
 30
0.0
 40
0
 41
0
  0
VERTEX
  8
0
 10
3.70074
 20
8.41303
 30
0.0
 40
0
 41
0
  0
VERTEX
  8
0
 10
3.71408
 20
8.4139
 30
0.0
 40
0
 41
0
  0
VERTEX
  8
0
 10
3.73714
 20
8.41726
 30
0.0
 40
0
 41
0
  0
VERTEX
  8
0
 10
3.74251
 20
8.41824
 30
0.0
 40
0
 41
0
  0
VERTEX
  8
0
 10
3.74783
 20
8.41922
 30
0.0
 40
0
 41
0
  0
VERTEX
  8
0
 10
3.77214
 20
8.42269
 30
0.0
 40
0
 41
0
  0
VERTEX
  8
0
 10
3.78776
 20
8.42361
 30
0.0
 40
0
 41
0
  0
VERTEX
  8
0
 10
3.78879
 20
8.42333
 30
0.0
 40
0
 41
0
  0
VERTEX
  8
0
 10
3.78976
 20
8.42307
 30
0.0
 40
0
 41
0
  0
VERTEX
  8
0
 10
3.80246
 20
8.42507
 30
0.0
 40
0
 41
0
  0
VERTEX
  8
0
 10
3.8035
 20
8.42563
 30
0.0
 40
0
 41
0
  0
VERTEX
  8
0
 10
3.80632
 20
8.42731
 30
0.0
 40
0
 41
0
  0
VERTEX
  8
0
 10
3.83057
 20
8.43126
 30
0.0
 40
0
 41
0
  0
VERTEX
  8
0
 10
3.87961
 20
8.43685
 30
0.0
 40
0
 41
0
  0
VERTEX
  8
0
 10
3.92746
 20
8.44021
 30
0.0
 40
0
 41
0
  0
VERTEX
  8
0
 10
3.94982
 20
8.44049
 30
0.0
 40
0
 41
0
  0
VERTEX
  8
0
 10
3.95107
 20
8.43918
 30
0.0
 40
0
 41
0
  0
VERTEX
  8
0
 10
3.95161
 20
8.43858
 30
0.0
 40
0
 41
0
  0
VERTEX
  8
0
 10
3.94976
 20
8.43278
 30
0.0
 40
0
 41
0
  0
VERTEX
  8
0
 10
3.94879
 20
8.4324
 30
0.0
 40
0
 41
0
  0
VERTEX
  8
0
 10
3.94526
 20
8.4311
 30
0.0
 40
0
 41
0
  0
VERTEX
  8
0
 10
3.92415
 20
8.42746
 30
0.0
 40
0
 41
0
  0
VERTEX
  8
0
 10
3.88015
 20
8.42139
 30
0.0
 40
0
 41
0
  0
VERTEX
  8
0
 10
3.82981
 20
8.41585
 30
0.0
 40
0
 41
0
  0
VERTEX
  8
0
 10
3.79704
 20
8.41297
 30
0.0
 40
0
 41
0
  0
VERTEX
  8
0
 10
3.78614
 20
8.41243
 30
0.0
 40
0
 41
0
  0
VERTEX
  8
0
 10
3.77914
 20
8.41211
 30
0.0
 40
0
 41
0
  0
VERTEX
  8
0
 10
3.74382
 20
8.40929
 30
0.0
 40
0
 41
0
  0
VERTEX
  8
0
 10
3.71636
 20
8.40597
 30
0.0
 40
0
 41
0
  0
VERTEX
  8
0
 10
3.71332
 20
8.40533
 30
0.0
 40
0
 41
0
  0
VERTEX
  8
0
 10
3.71029
 20
8.40474
 30
0.0
 40
0
 41
0
  0
VERTEX
  8
0
 10
3.69189
 20
8.40213
 30
0.0
 40
0
 41
0
  0
VERTEX
  8
0
 10
3.67643
 20
8.40076
 30
0.0
 40
0
 41
0
  0
VERTEX
  8
0
 10
3.67133
 20
8.40076
 30
0.0
 40
0
 41
0
  0
VERTEX
  8
0
 10
3.66493
 20
8.40076
 30
0.0
 40
0
 41
0
  0
VERTEX
  8
0
 10
3.64572
 20
8.3941
 30
0.0
 40
0
 41
0
  0
VERTEX
  8
0
 10
3.64942
 20
8.38092
 30
0.0
 40
0
 41
0
  0
VERTEX
  8
0
 10
3.65235
 20
8.3789
 30
0.0
 40
0
 41
0
  0
VERTEX
  8
0
 10
3.65397
 20
8.37782
 30
0.0
 40
0
 41
0
  0
VERTEX
  8
0
 10
3.66417
 20
8.36594
 30
0.0
 40
0
 41
0
  0
VERTEX
  8
0
 10
3.66417
 20
8.36199
 30
0.0
 40
0
 41
0
  0
VERTEX
  8
0
 10
3.66417
 20
8.359
 30
0.0
 40
0
 41
0
  0
VERTEX
  8
0
 10
3.6684
 20
8.35042
 30
0.0
 40
0
 41
0
  0
VERTEX
  8
0
 10
3.66911
 20
8.34999
 30
0.0
 40
0
 41
0
  0
VERTEX
  8
0
 10
3.66976
 20
8.34956
 30
0.0
 40
0
 41
0
  0
VERTEX
  8
0
 10
3.67171
 20
8.33703
 30
0.0
 40
0
 41
0
  0
VERTEX
  8
0
 10
3.67139
 20
8.33544
 30
0.0
 40
0
 41
0
  0
VERTEX
  8
0
 10
3.67085
 20
8.33328
 30
0.0
 40
0
 41
0
  0
VERTEX
  8
0
 10
3.67269
 20
8.32292
 30
0.0
 40
0
 41
0
  0
VERTEX
  8
0
 10
3.68175
 20
8.31039
 30
0.0
 40
0
 41
0
  0
VERTEX
  8
0
 10
3.6849
 20
8.30712
 30
0.0
 40
0
 41
0
  0
VERTEX
  8
0
 10
3.6881
 20
8.30376
 30
0.0
 40
0
 41
0
  0
VERTEX
  8
0
 10
3.69726
 20
8.29113
 30
0.0
 40
0
 41
0
  0
VERTEX
  8
0
 10
3.69879
 20
8.28049
 30
0.0
 40
0
 41
0
  0
VERTEX
  8
0
 10
3.69824
 20
8.27806
 30
0.0
 40
0
 41
0
  0
VERTEX
  8
0
 10
3.69769
 20
8.27587
 30
0.0
 40
0
 41
0
  0
VERTEX
  8
0
 10
3.69928
 20
8.26329
 30
0.0
 40
0
 41
0
  0
VERTEX
  8
0
 10
3.70736
 20
8.24636
 30
0.0
 40
0
 41
0
  0
VERTEX
  8
0
 10
3.71007
 20
8.24192
 30
0.0
 40
0
 41
0
  0
VERTEX
  8
0
 10
3.71338
 20
8.23654
 30
0.0
 40
0
 41
0
  0
VERTEX
  8
0
 10
3.72532
 20
8.22151
 30
0.0
 40
0
 41
0
  0
VERTEX
  8
0
 10
3.7385
 20
8.21778
 30
0.0
 40
0
 41
0
  0
VERTEX
  8
0
 10
3.74289
 20
8.21778
 30
0.0
 40
0
 41
0
  0
VERTEX
  8
0
 10
3.75006
 20
8.21778
 30
0.0
 40
0
 41
0
  0
VERTEX
  8
0
 10
3.77171
 20
8.22076
 30
0.0
 40
0
 41
0
  0
VERTEX
  8
0
 10
3.808
 20
8.2264
 30
0.0
 40
0
 41
0
  0
VERTEX
  8
0
 10
3.81549
 20
8.22775
 30
0.0
 40
0
 41
0
  0
VERTEX
  8
0
 10
3.82503
 20
8.22954
 30
0.0
 40
0
 41
0
  0
VERTEX
  8
0
 10
3.86724
 20
8.23497
 30
0.0
 40
0
 41
0
  0
VERTEX
  8
0
 10
3.90539
 20
8.23617
 30
0.0
 40
0
 41
0
  0
VERTEX
  8
0
 10
3.91297
 20
8.23579
 30
0.0
 40
0
 41
0
  0
VERTEX
  8
0
 10
3.92258
 20
8.23535
 30
0.0
 40
0
 41
0
  0
VERTEX
  8
0
 10
3.9515
 20
8.23247
 30
0.0
 40
0
 41
0
  0
VERTEX
  8
0
 10
3.99219
 20
8.22661
 30
0.0
 40
0
 41
0
  0
VERTEX
  8
0
 10
4.0255
 20
8.21989
 30
0.0
 40
0
 41
0
  0
VERTEX
  8
0
 10
4.04031
 20
8.2156
 30
0.0
 40
0
 41
0
  0
VERTEX
  8
0
 10
4.04194
 20
8.21392
 30
0.0
 40
0
 41
0
  0
VERTEX
  8
0
 10
4.04281
 20
8.213
 30
0.0
 40
0
 41
0
  0
VERTEX
  8
0
 10
4.04144
 20
8.20421
 30
0.0
 40
0
 41
0
  0
VERTEX
  8
0
 10
4.03629
 20
8.18571
 30
0.0
 40
0
 41
0
  0
VERTEX
  8
0
 10
4.02892
 20
8.16613
 30
0.0
 40
0
 41
0
  0
VERTEX
  8
0
 10
4.02387
 20
8.15549
 30
0.0
 40
0
 41
0
  0
VERTEX
  8
0
 10
4.02186
 20
8.15306
 30
0.0
 40
0
 41
0
  0
VERTEX
  8
0
 10
4.02143
 20
8.15256
 30
0.0
 40
0
 41
0
  0
VERTEX
  8
0
 10
4.01844
 20
8.15246
 30
0.0
 40
0
 41
0
  0
VERTEX
  8
0
 10
4.01818
 20
8.16021
 30
0.0
 40
0
 41
0
  0
VERTEX
  8
0
 10
4.02061
 20
8.17231
 30
0.0
 40
0
 41
0
  0
VERTEX
  8
0
 10
4.02382
 20
8.18192
 30
0.0
 40
0
 41
0
  0
VERTEX
  8
0
 10
4.02533
 20
8.1849
 30
0.0
 40
0
 41
0
  0
VERTEX
  8
0
 10
4.02632
 20
8.18696
 30
0.0
 40
0
 41
0
  0
VERTEX
  8
0
 10
4.02929
 20
8.1964
 30
0.0
 40
0
 41
0
  0
VERTEX
  8
0
 10
4.02924
 20
8.20275
 30
0.0
 40
0
 41
0
  0
VERTEX
  8
0
 10
4.02875
 20
8.20324
 30
0.0
 40
0
 41
0
  0
VERTEX
  8
0
 10
4.02772
 20
8.20421
 30
0.0
 40
0
 41
0
  0
VERTEX
  8
0
 10
4.00336
 20
8.21158
 30
0.0
 40
0
 41
0
  0
VERTEX
  8
0
 10
3.95828
 20
8.22131
 30
0.0
 40
0
 41
0
  0
VERTEX
  8
0
 10
3.94694
 20
8.22336
 30
0.0
 40
0
 41
0
  0
VERTEX
  8
0
 10
3.93576
 20
8.22542
 30
0.0
 40
0
 41
0
  0
VERTEX
  8
0
 10
3.90115
 20
8.22564
 30
0.0
 40
0
 41
0
  0
VERTEX
  8
0
 10
3.84494
 20
8.22006
 30
0.0
 40
0
 41
0
  0
VERTEX
  8
0
 10
3.78999
 20
8.20844
 30
0.0
 40
0
 41
0
  0
VERTEX
  8
0
 10
3.75771
 20
8.19797
 30
0.0
 40
0
 41
0
  0
VERTEX
  8
0
 10
3.74799
 20
8.1926
 30
0.0
 40
0
 41
0
  0
VERTEX
  8
0
 10
3.74371
 20
8.19026
 30
0.0
 40
0
 41
0
  0
VERTEX
  8
0
 10
3.73008
 20
8.18468
 30
0.0
 40
0
 41
0
  0
VERTEX
  8
0
 10
3.72222
 20
8.18842
 30
0.0
 40
0
 41
0
  0
VERTEX
  8
0
 10
3.72038
 20
8.19037
 30
0.0
 40
0
 41
0
  0
VERTEX
  8
0
 10
3.71924
 20
8.19157
 30
0.0
 40
0
 41
0
  0
VERTEX
  8
0
 10
3.7105
 20
8.20449
 30
0.0
 40
0
 41
0
  0
VERTEX
  8
0
 10
3.70014
 20
8.2226
 30
0.0
 40
0
 41
0
  0
VERTEX
  8
0
 10
3.69824
 20
8.2264
 30
0.0
 40
0
 41
0
  0
VERTEX
  8
0
 10
3.68431
 20
8.2539
 30
0.0
 40
0
 41
0
  0
VERTEX
  8
0
 10
3.65457
 20
8.25325
 30
0.0
 40
0
 41
0
  0
VERTEX
  8
0
 10
3.64529
 20
8.2531
 30
0.0
 40
0
 41
0
  0
VERTEX
  8
0
 10
3.61751
 20
8.24843
 30
0.0
 40
0
 41
0
  0
VERTEX
  8
0
 10
3.59358
 20
8.23546
 30
0.0
 40
0
 41
0
  0
VERTEX
  8
0
 10
3.58197
 20
8.21354
 30
0.0
 40
0
 41
0
  0
VERTEX
  8
0
 10
3.58078
 20
8.18972
 30
0.0
 40
0
 41
0
  0
VERTEX
  8
0
 10
3.58197
 20
8.18201
 30
0.0
 40
0
 41
0
  0
VERTEX
  8
0
 10
3.58301
 20
8.17513
 30
0.0
 40
0
 41
0
  0
VERTEX
  8
0
 10
3.57921
 20
8.15033
 30
0.0
 40
0
 41
0
  0
VERTEX
  8
0
 10
3.56472
 20
8.14165
 30
0.0
 40
0
 41
0
  0
VERTEX
  8
0
 10
3.56104
 20
8.14264
 30
0.0
 40
0
 41
0
  0
VERTEX
  8
0
 10
3.5586
 20
8.14333
 30
0.0
 40
0
 41
0
  0
VERTEX
  8
0
 10
3.54596
 20
8.14085
 30
0.0
 40
0
 41
0
  0
VERTEX
  8
0
 10
3.51904
 20
8.13276
 30
0.0
 40
0
 41
0
  0
VERTEX
  8
0
 10
3.48579
 20
8.12022
 30
0.0
 40
0
 41
0
  0
VERTEX
  8
0
 10
3.46012
 20
8.10915
 30
0.0
 40
0
 41
0
  0
VERTEX
  8
0
 10
3.45176
 20
8.10514
 30
0.0
 40
0
 41
0
  0
VERTEX
  8
0
 10
3.44814
 20
8.10346
 30
0.0
 40
0
 41
0
  0
VERTEX
  8
0
 10
3.43213
 20
8.09631
 30
0.0
 40
0
 41
0
  0
VERTEX
  8
0
 10
3.42432
 20
8.09261
 30
0.0
 40
0
 41
0
  0
VERTEX
  8
0
 10
3.42176
 20
8.09261
 30
0.0
 40
0
 41
0
  0
VERTEX
  8
0
 10
3.41982
 20
8.09261
 30
0.0
 40
0
 41
0
  0
VERTEX
  8
0
 10
3.41407
 20
8.08908
 30
0.0
 40
0
 41
0
  0
VERTEX
  8
0
 10
3.40332
 20
8.08225
 30
0.0
 40
0
 41
0
  0
VERTEX
  8
0
 10
3.40104
 20
8.08057
 30
0.0
 40
0
 41
0
  0
VERTEX
  8
0
 10
3.39871
 20
8.07894
 30
0.0
 40
0
 41
0
  0
VERTEX
  8
0
 10
3.38687
 20
8.0721
 30
0.0
 40
0
 41
0
  0
VERTEX
  8
0
 10
3.37912
 20
8.06853
 30
0.0
 40
0
 41
0
  0
VERTEX
  8
0
 10
3.37657
 20
8.06853
 30
0.0
 40
0
 41
0
  0
VERTEX
  8
0
 10
3.37424
 20
8.06853
 30
0.0
 40
0
 41
0
  0
VERTEX
  8
0
 10
3.36724
 20
8.06506
 30
0.0
 40
0
 41
0
  0
VERTEX
  8
0
 10
3.35736
 20
8.05832
 30
0.0
 40
0
 41
0
  0
VERTEX
  8
0
 10
3.35553
 20
8.05664
 30
0.0
 40
0
 41
0
  0
VERTEX
  8
0
 10
3.35215
 20
8.05371
 30
0.0
 40
0
 41
0
  0
VERTEX
  8
0
 10
3.33703
 20
8.04775
 30
0.0
 40
0
 41
0
  0
VERTEX
  8
0
 10
3.32856
 20
8.05425
 30
0.0
 40
0
 41
0
  0
VERTEX
  8
0
 10
3.32856
 20
8.05638
 30
0.0
 40
0
 41
0
  0
VERTEX
  8
0
 10
3.32856
 20
8.0594
 30
0.0
 40
0
 41
0
  0
VERTEX
  8
0
 10
3.3226
 20
8.06771
 30
0.0
 40
0
 41
0
  0
VERTEX
  8
0
 10
3.32167
 20
8.06853
 30
0.0
 40
0
 41
0
  0
VERTEX
  8
0
 10
3.31939
 20
8.07047
 30
0.0
 40
0
 41
0
  0
VERTEX
  8
0
 10
3.31494
 20
8.07915
 30
0.0
 40
0
 41
0
  0
VERTEX
  8
0
 10
3.32047
 20
8.08171
 30
0.0
 40
0
 41
0
  0
VERTEX
  8
0
 10
3.32178
 20
8.08117
 30
0.0
 40
0
 41
0
  0
VERTEX
  8
0
 10
3.32172
 20
8.08122
 30
0.0
 40
0
 41
0
  0
SEQEND
 8
0
  0
POLYLINE
  8
0
 62
     33
 66
     1
 10
0
 20
0
 30
0.0
 70
     1
 40
0
 41
0
  0
VERTEX
  8
0
 10
3.47694
 20
6.26167
 30
0.0
 40
0
 41
0
  0
VERTEX
  8
0
 10
3.47771
 20
6.26237
 30
0.0
 40
0
 41
0
  0
VERTEX
  8
0
 10
3.491
 20
6.26824
 30
0.0
 40
0
 41
0
  0
VERTEX
  8
0
 10
3.51215
 20
6.27567
 30
0.0
 40
0
 41
0
  0
VERTEX
  8
0
 10
3.51693
 20
6.27713
 30
0.0
 40
0
 41
0
  0
VERTEX
  8
0
 10
3.52165
 20
6.27865
 30
0.0
 40
0
 41
0
  0
VERTEX
  8
0
 10
3.53608
 20
6.28288
 30
0.0
 40
0
 41
0
  0
VERTEX
  8
0
 10
3.54704
 20
6.28504
 30
0.0
 40
0
 41
0
  0
VERTEX
  8
0
 10
3.55296
 20
6.28375
 30
0.0
 40
0
 41
0
  0
VERTEX
  8
0
 10
3.55621
 20
6.28049
 30
0.0
 40
0
 41
0
  0
VERTEX
  8
0
 10
3.55707
 20
6.27924
 30
0.0
 40
0
 41
0
  0
VERTEX
  8
0
 10
3.55789
 20
6.27806
 30
0.0
 40
0
 41
0
  0
VERTEX
  8
0
 10
3.56119
 20
6.27479
 30
0.0
 40
0
 41
0
  0
VERTEX
  8
0
 10
3.56743
 20
6.27311
 30
0.0
 40
0
 41
0
  0
VERTEX
  8
0
 10
3.57889
 20
6.27414
 30
0.0
 40
0
 41
0
  0
VERTEX
  8
0
 10
3.59375
 20
6.27686
 30
0.0
 40
0
 41
0
  0
VERTEX
  8
0
 10
3.59874
 20
6.27778
 30
0.0
 40
0
 41
0
  0
VERTEX
  8
0
 10
3.60368
 20
6.27875
 30
0.0
 40
0
 41
0
  0
VERTEX
  8
0
 10
3.61843
 20
6.28201
 30
0.0
 40
0
 41
0
  0
VERTEX
  8
0
 10
3.62935
 20
6.28575
 30
0.0
 40
0
 41
0
  0
VERTEX
  8
0
 10
3.63417
 20
6.29058
 30
0.0
 40
0
 41
0
  0
VERTEX
  8
0
 10
3.63569
 20
6.29611
 30
0.0
 40
0
 41
0
  0
VERTEX
  8
0
 10
3.6359
 20
6.29796
 30
0.0
 40
0
 41
0
  0
VERTEX
  8
0
 10
3.63607
 20
6.29981
 30
0.0
 40
0
 41
0
  0
VERTEX
  8
0
 10
3.63422
 20
6.31179
 30
0.0
 40
0
 41
0
  0
VERTEX
  8
0
 10
3.62944
 20
6.32449
 30
0.0
 40
0
 41
0
  0
VERTEX
  8
0
 10
3.62819
 20
6.32661
 30
0.0
 40
0
 41
0
  0
VERTEX
  8
0
 10
3.62235
 20
6.33653
 30
0.0
 40
0
 41
0
  0
VERTEX
  8
0
 10
3.61356
 20
6.37136
 30
0.0
 40
0
 41
0
  0
VERTEX
  8
0
 10
3.61529
 20
6.4229
 30
0.0
 40
0
 41
0
  0
VERTEX
  8
0
 10
3.63222
 20
6.47547
 30
0.0
 40
0
 41
0
  0
VERTEX
  8
0
 10
3.65414
 20
6.51258
 30
0.0
 40
0
 41
0
  0
VERTEX
  8
0
 10
3.66347
 20
6.52322
 30
0.0
 40
0
 41
0
  0
VERTEX
  8
0
 10
3.6684
 20
6.52892
 30
0.0
 40
0
 41
0
  0
VERTEX
  8
0
 10
3.68169
 20
6.54725
 30
0.0
 40
0
 41
0
  0
VERTEX
  8
0
 10
3.69146
 20
6.5709
 30
0.0
 40
0
 41
0
  0
VERTEX
  8
0
 10
3.69439
 20
6.60092
 30
0.0
 40
0
 41
0
  0
VERTEX
  8
0
 10
3.69293
 20
6.63336
 30
0.0
 40
0
 41
0
  0
VERTEX
  8
0
 10
3.692
 20
6.6441
 30
0.0
 40
0
 41
0
  0
VERTEX
  8
0
 10
3.69103
 20
6.65543
 30
0.0
 40
0
 41
0
  0
VERTEX
  8
0
 10
3.68778
 20
6.68929
 30
0.0
 40
0
 41
0
  0
VERTEX
  8
0
 10
3.68431
 20
6.72006
 30
0.0
 40
0
 41
0
  0
VERTEX
  8
0
 10
3.68104
 20
6.73921
 30
0.0
 40
0
 41
0
  0
VERTEX
  8
0
 10
3.67887
 20
6.74735
 30
0.0
 40
0
 41
0
  0
VERTEX
  8
0
 10
3.67774
 20
6.74972
 30
0.0
 40
0
 41
0
  0
VERTEX
  8
0
 10
3.67671
 20
6.75179
 30
0.0
 40
0
 41
0
  0
VERTEX
  8
0
 10
3.67731
 20
6.78212
 30
0.0
 40
0
 41
0
  0
VERTEX
  8
0
 10
3.685
 20
6.83626
 30
0.0
 40
0
 41
0
  0
VERTEX
  8
0
 10
3.68761
 20
6.85021
 30
0.0
 40
0
 41
0
  0
VERTEX
  8
0
 10
3.68858
 20
6.85553
 30
0.0
 40
0
 41
0
  0
VERTEX
  8
0
 10
3.69293
 20
6.87121
 30
0.0
 40
0
 41
0
  0
VERTEX
  8
0
 10
3.69694
 20
6.87235
 30
0.0
 40
0
 41
0
  0
VERTEX
  8
0
 10
3.69879
 20
6.85553
 30
0.0
 40
0
 41
0
  0
VERTEX
  8
0
 10
3.69835
 20
6.83094
 30
0.0
 40
0
 41
0
  0
VERTEX
  8
0
 10
3.69786
 20
6.82275
 30
0.0
 40
0
 41
0
  0
VERTEX
  8
0
 10
3.69743
 20
6.81646
 30
0.0
 40
0
 41
0
  0
VERTEX
  8
0
 10
3.69732
 20
6.79004
 30
0.0
 40
0
 41
0
  0
VERTEX
  8
0
 10
3.69976
 20
6.77192
 30
0.0
 40
0
 41
0
  0
VERTEX
  8
0
 10
3.70063
 20
6.76969
 30
0.0
 40
0
 41
0
  0
VERTEX
  8
0
 10
3.70231
 20
6.76535
 30
0.0
 40
0
 41
0
  0
VERTEX
  8
0
 10
3.72781
 20
6.74593
 30
0.0
 40
0
 41
0
  0
VERTEX
  8
0
 10
3.77588
 20
6.72965
 30
0.0
 40
0
 41
0
  0
VERTEX
  8
0
 10
3.7889
 20
6.72683
 30
0.0
 40
0
 41
0
  0
VERTEX
  8
0
 10
3.79644
 20
6.72526
 30
0.0
 40
0
 41
0
  0
VERTEX
  8
0
 10
3.8195
 20
6.72206
 30
0.0
 40
0
 41
0
  0
VERTEX
  8
0
 10
3.84065
 20
6.72331
 30
0.0
 40
0
 41
0
  0
VERTEX
  8
0
 10
3.85411
 20
6.73118
 30
0.0
 40
0
 41
0
  0
VERTEX
  8
0
 10
3.86062
 20
6.74214
 30
0.0
 40
0
 41
0
  0
VERTEX
  8
0
 10
3.86171
 20
6.74604
 30
0.0
 40
0
 41
0
  0
VERTEX
  8
0
 10
3.86589
 20
6.76112
 30
0.0
 40
0
 41
0
  0
VERTEX
  8
0
 10
3.86632
 20
6.74544
 30
0.0
 40
0
 41
0
  0
VERTEX
  8
0
 10
3.86649
 20
6.73921
 30
0.0
 40
0
 41
0
  0
VERTEX
  8
0
 10
3.85601
 20
6.71858
 30
0.0
 40
0
 41
0
  0
VERTEX
  8
0
 10
3.82813
 20
6.71061
 30
0.0
 40
0
 41
0
  0
VERTEX
  8
0
 10
3.81961
 20
6.71061
 30
0.0
 40
0
 41
0
  0
VERTEX
  8
0
 10
3.81278
 20
6.71067
 30
0.0
 40
0
 41
0
  0
VERTEX
  8
0
 10
3.79226
 20
6.71317
 30
0.0
 40
0
 41
0
  0
VERTEX
  8
0
 10
3.76079
 20
6.71918
 30
0.0
 40
0
 41
0
  0
VERTEX
  8
0
 10
3.73329
 20
6.72689
 30
0.0
 40
0
 41
0
  0
VERTEX
  8
0
 10
3.72021
 20
6.7321
 30
0.0
 40
0
 41
0
  0
VERTEX
  8
0
 10
3.7181
 20
6.73432
 30
0.0
 40
0
 41
0
  0
VERTEX
  8
0
 10
3.71636
 20
6.73611
 30
0.0
 40
0
 41
0
  0
VERTEX
  8
0
 10
3.7085
 20
6.73882
 30
0.0
 40
0
 41
0
  0
VERTEX
  8
0
 10
3.70725
 20
6.72917
 30
0.0
 40
0
 41
0
  0
VERTEX
  8
0
 10
3.70801
 20
6.72618
 30
0.0
 40
0
 41
0
  0
VERTEX
  8
0
 10
3.70844
 20
6.72439
 30
0.0
 40
0
 41
0
  0
VERTEX
  8
0
 10
3.71078
 20
6.70839
 30
0.0
 40
0
 41
0
  0
VERTEX
  8
0
 10
3.71268
 20
6.6881
 30
0.0
 40
0
 41
0
  0
VERTEX
  8
0
 10
3.71294
 20
6.68408
 30
0.0
 40
0
 41
0
  0
VERTEX
  8
0
 10
3.71317
 20
6.68012
 30
0.0
 40
0
 41
0
  0
VERTEX
  8
0
 10
3.71522
 20
6.65597
 30
0.0
 40
0
 41
0
  0
VERTEX
  8
0
 10
3.71778
 20
6.63254
 30
0.0
 40
0
 41
0
  0
VERTEX
  8
0
 10
3.71832
 20
6.6289
 30
0.0
 40
0
 41
0
  0
VERTEX
  8
0
 10
3.72194
 20
6.6026
 30
0.0
 40
0
 41
0
  0
VERTEX
  8
0
 10
3.74957
 20
6.60206
 30
0.0
 40
0
 41
0
  0
VERTEX
  8
0
 10
3.75401
 20
6.602
 30
0.0
 40
0
 41
0
  0
VERTEX
  8
0
 10
3.80214
 20
6.5911
 30
0.0
 40
0
 41
0
  0
VERTEX
  8
0
 10
3.80697
 20
6.58903
 30
0.0
 40
0
 41
0
  0
VERTEX
  8
0
 10
3.81104
 20
6.58735
 30
0.0
 40
0
 41
0
  0
VERTEX
  8
0
 10
3.83094
 20
6.57937
 30
0.0
 40
0
 41
0
  0
VERTEX
  8
0
 10
3.84526
 20
6.57406
 30
0.0
 40
0
 41
0
  0
VERTEX
  8
0
 10
3.84663
 20
6.57362
 30
0.0
 40
0
 41
0
  0
VERTEX
  8
0
 10
3.85092
 20
6.57232
 30
0.0
 40
0
 41
0
  0
VERTEX
  8
0
 10
3.86367
 20
6.56179
 30
0.0
 40
0
 41
0
  0
VERTEX
  8
0
 10
3.88547
 20
6.53831
 30
0.0
 40
0
 41
0
  0
VERTEX
  8
0
 10
3.90668
 20
6.5096
 30
0.0
 40
0
 41
0
  0
VERTEX
  8
0
 10
3.91894
 20
6.48921
 30
0.0
 40
0
 41
0
  0
VERTEX
  8
0
 10
3.9221
 20
6.48199
 30
0.0
 40
0
 41
0
  0
VERTEX
  8
0
 10
3.92393
 20
6.47771
 30
0.0
 40
0
 41
0
  0
VERTEX
  8
0
 10
3.93164
 20
6.45671
 30
0.0
 40
0
 41
0
  0
VERTEX
  8
0
 10
3.93571
 20
6.44129
 30
0.0
 40
0
 41
0
  0
VERTEX
  8
0
 10
3.93576
 20
6.43978
 30
0.0
 40
0
 41
0
  0
VERTEX
  8
0
 10
3.93576
 20
6.43647
 30
0.0
 40
0
 41
0
  0
VERTEX
  8
0
 10
3.93718
 20
6.42649
 30
0.0
 40
0
 41
0
  0
VERTEX
  8
0
 10
3.94314
 20
6.42042
 30
0.0
 40
0
 41
0
  0
VERTEX
  8
0
 10
3.95638
 20
6.42085
 30
0.0
 40
0
 41
0
  0
VERTEX
  8
0
 10
3.97396
 20
6.42518
 30
0.0
 40
0
 41
0
  0
VERTEX
  8
0
 10
3.97976
 20
6.42686
 30
0.0
 40
0
 41
0
  0
VERTEX
  8
0
 10
3.98475
 20
6.42839
 30
0.0
 40
0
 41
0
  0
VERTEX
  8
0
 10
4.00732
 20
6.43636
 30
0.0
 40
0
 41
0
  0
VERTEX
  8
0
 10
4.02181
 20
6.44308
 30
0.0
 40
0
 41
0
  0
VERTEX
  8
0
 10
4.02274
 20
6.44396
 30
0.0
 40
0
 41
0
  0
VERTEX
  8
0
 10
4.0236
 20
6.44482
 30
0.0
 40
0
 41
0
  0
VERTEX
  8
0
 10
4.02778
 20
6.45546
 30
0.0
 40
0
 41
0
  0
VERTEX
  8
0
 10
4.03049
 20
6.47092
 30
0.0
 40
0
 41
0
  0
VERTEX
  8
0
 10
4.03071
 20
6.47418
 30
0.0
 40
0
 41
0
  0
VERTEX
  8
0
 10
4.03103
 20
6.48079
 30
0.0
 40
0
 41
0
  0
VERTEX
  8
0
 10
4.03537
 20
6.50196
 30
0.0
 40
0
 41
0
  0
VERTEX
  8
0
 10
4.04514
 20
6.53885
 30
0.0
 40
0
 41
0
  0
VERTEX
  8
0
 10
4.05697
 20
6.57454
 30
0.0
 40
0
 41
0
  0
VERTEX
  8
0
 10
4.06467
 20
6.59381
 30
0.0
 40
0
 41
0
  0
VERTEX
  8
0
 10
4.06782
 20
6.59885
 30
0.0
 40
0
 41
0
  0
VERTEX
  8
0
 10
4.0689
 20
6.60064
 30
0.0
 40
0
 41
0
  0
VERTEX
  8
0
 10
4.07926
 20
6.61567
 30
0.0
 40
0
 41
0
  0
VERTEX
  8
0
 10
4.09289
 20
6.63422
 30
0.0
 40
0
 41
0
  0
VERTEX
  8
0
 10
4.09565
 20
6.63775
 30
0.0
 40
0
 41
0
  0
VERTEX
  8
0
 10
4.11561
 20
6.66363
 30
0.0
 40
0
 41
0
  0
VERTEX
  8
0
 10
4.11253
 20
6.70036
 30
0.0
 40
0
 41
0
  0
VERTEX
  8
0
 10
4.1116
 20
6.71104
 30
0.0
 40
0
 41
0
  0
VERTEX
  8
0
 10
4.10406
 20
6.74257
 30
0.0
 40
0
 41
0
  0
VERTEX
  8
0
 10
4.09115
 20
6.74013
 30
0.0
 40
0
 41
0
  0
VERTEX
  8
0
 10
4.08963
 20
6.73757
 30
0.0
 40
0
 41
0
  0
VERTEX
  8
0
 10
4.08854
 20
6.73589
 30
0.0
 40
0
 41
0
  0
VERTEX
  8
0
 10
4.0804
 20
6.72499
 30
0.0
 40
0
 41
0
  0
VERTEX
  8
0
 10
4.07769
 20
6.72499
 30
0.0
 40
0
 41
0
  0
VERTEX
  8
0
 10
4.07671
 20
6.72499
 30
0.0
 40
0
 41
0
  0
VERTEX
  8
0
 10
4.07389
 20
6.73269
 30
0.0
 40
0
 41
0
  0
VERTEX
  8
0
 10
4.07992
 20
6.7436
 30
0.0
 40
0
 41
0
  0
VERTEX
  8
0
 10
4.08208
 20
6.74517
 30
0.0
 40
0
 41
0
  0
VERTEX
  8
0
 10
4.08675
 20
6.74864
 30
0.0
 40
0
 41
0
  0
VERTEX
  8
0
 10
4.09999
 20
6.77756
 30
0.0
 40
0
 41
0
  0
VERTEX
  8
0
 10
4.09907
 20
6.81733
 30
0.0
 40
0
 41
0
  0
VERTEX
  8
0
 10
4.09663
 20
6.82617
 30
0.0
 40
0
 41
0
  0
VERTEX
  8
0
 10
4.09597
 20
6.8285
 30
0.0
 40
0
 41
0
  0
VERTEX
  8
0
 10
4.09131
 20
6.85775
 30
0.0
 40
0
 41
0
  0
VERTEX
  8
0
 10
4.08615
 20
6.90082
 30
0.0
 40
0
 41
0
  0
VERTEX
  8
0
 10
4.08524
 20
6.91004
 30
0.0
 40
0
 41
0
  0
VERTEX
  8
0
 10
4.08388
 20
6.92307
 30
0.0
 40
0
 41
0
  0
VERTEX
  8
0
 10
4.07964
 20
6.96208
 30
0.0
 40
0
 41
0
  0
VERTEX
  8
0
 10
4.07536
 20
6.99208
 30
0.0
 40
0
 41
0
  0
VERTEX
  8
0
 10
4.07129
 20
7.00586
 30
0.0
 40
0
 41
0
  0
VERTEX
  8
0
 10
4.06754
 20
7.00911
 30
0.0
 40
0
 41
0
  0
VERTEX
  8
0
 10
4.06635
 20
7.00911
 30
0.0
 40
0
 41
0
  0
VERTEX
  8
0
 10
4.06472
 20
7.00911
 30
0.0
 40
0
 41
0
  0
VERTEX
  8
0
 10
4.05994
 20
7.00575
 30
0.0
 40
0
 41
0
  0
VERTEX
  8
0
 10
4.05994
 20
7.00461
 30
0.0
 40
0
 41
0
  0
VERTEX
  8
0
 10
4.05994
 20
7.00108
 30
0.0
 40
0
 41
0
  0
VERTEX
  8
0
 10
4.0535
 20
6.9904
 30
0.0
 40
0
 41
0
  0
VERTEX
  8
0
 10
4.04113
 20
6.96756
 30
0.0
 40
0
 41
0
  0
VERTEX
  8
0
 10
4.03814
 20
6.96235
 30
0.0
 40
0
 41
0
  0
VERTEX
  8
0
 10
4.0351
 20
6.95719
 30
0.0
 40
0
 41
0
  0
VERTEX
  8
0
 10
4.02072
 20
6.93044
 30
0.0
 40
0
 41
0
  0
VERTEX
  8
0
 10
4.01058
 20
6.90913
 30
0.0
 40
0
 41
0
  0
VERTEX
  8
0
 10
4.00971
 20
6.90663
 30
0.0
 40
0
 41
0
  0
VERTEX
  8
0
 10
4.00879
 20
6.90419
 30
0.0
 40
0
 41
0
  0
VERTEX
  8
0
 10
4.0039
 20
6.89399
 30
0.0
 40
0
 41
0
  0
VERTEX
  8
0
 10
4.00049
 20
6.88872
 30
0.0
 40
0
 41
0
  0
VERTEX
  8
0
 10
3.99935
 20
6.88872
 30
0.0
 40
0
 41
0
  0
VERTEX
  8
0
 10
3.99837
 20
6.88872
 30
0.0
 40
0
 41
0
  0
VERTEX
  8
0
 10
3.99561
 20
6.88976
 30
0.0
 40
0
 41
0
  0
VERTEX
  8
0
 10
3.99561
 20
6.89008
 30
0.0
 40
0
 41
0
  0
VERTEX
  8
0
 10
3.99561
 20
6.89328
 30
0.0
 40
0
 41
0
  0
VERTEX
  8
0
 10
3.99897
 20
6.90278
 30
0.0
 40
0
 41
0
  0
VERTEX
  8
0
 10
4.00683
 20
6.92453
 30
0.0
 40
0
 41
0
  0
VERTEX
  8
0
 10
4.01594
 20
6.94672
 30
0.0
 40
0
 41
0
  0
VERTEX
  8
0
 10
4.02138
 20
6.95844
 30
0.0
 40
0
 41
0
  0
VERTEX
  8
0
 10
4.023
 20
6.96078
 30
0.0
 40
0
 41
0
  0
VERTEX
  8
0
 10
4.02408
 20
6.96246
 30
0.0
 40
0
 41
0
  0
VERTEX
  8
0
 10
4.03424
 20
6.98335
 30
0.0
 40
0
 41
0
  0
VERTEX
  8
0
 10
4.03478
 20
6.98497
 30
0.0
 40
0
 41
0
  0
VERTEX
  8
0
 10
4.03526
 20
6.98665
 30
0.0
 40
0
 41
0
  0
VERTEX
  8
0
 10
4.0459
 20
7.00771
 30
0.0
 40
0
 41
0
  0
VERTEX
  8
0
 10
4.04715
 20
7.00939
 30
0.0
 40
0
 41
0
  0
VERTEX
  8
0
 10
4.04969
 20
7.01307
 30
0.0
 40
0
 41
0
  0
VERTEX
  8
0
 10
4.05572
 20
7.03722
 30
0.0
 40
0
 41
0
  0
VERTEX
  8
0
 10
4.05263
 20
7.0715
 30
0.0
 40
0
 41
0
  0
VERTEX
  8
0
 10
4.05067
 20
7.08024
 30
0.0
 40
0
 41
0
  0
VERTEX
  8
0
 10
4.04497
 20
7.10563
 30
0.0
 40
0
 41
0
  0
VERTEX
  8
0
 10
4.02832
 20
7.10238
 30
0.0
 40
0
 41
0
  0
VERTEX
  8
0
 10
4.02604
 20
7.10194
 30
0.0
 40
0
 41
0
  0
VERTEX
  8
0
 10
4.01253
 20
7.09771
 30
0.0
 40
0
 41
0
  0
VERTEX
  8
0
 10
3.99983
 20
7.09218
 30
0.0
 40
0
 41
0
  0
VERTEX
  8
0
 10
3.99794
 20
7.09104
 30
0.0
 40
0
 41
0
  0
VERTEX
  8
0
 10
3.99457
 20
7.08908
 30
0.0
 40
0
 41
0
  0
VERTEX
  8
0
 10
3.98367
 20
7.08453
 30
0.0
 40
0
 41
0
  0
VERTEX
  8
0
 10
3.96197
 20
7.07661
 30
0.0
 40
0
 41
0
  0
VERTEX
  8
0
 10
3.9356
 20
7.06814
 30
0.0
 40
0
 41
0
  0
VERTEX
  8
0
 10
3.90733
 20
7.0599
 30
0.0
 40
0
 41
0
  0
VERTEX
  8
0
 10
3.88004
 20
7.05263
 30
0.0
 40
0
 41
0
  0
VERTEX
  8
0
 10
3.85639
 20
7.04715
 30
0.0
 40
0
 41
0
  0
VERTEX
  8
0
 10
3.83931
 20
7.04422
 30
0.0
 40
0
 41
0
  0
VERTEX
  8
0
 10
3.83247
 20
7.04362
 30
0.0
 40
0
 41
0
  0
VERTEX
  8
0
 10
3.83154
 20
7.0446
 30
0.0
 40
0
 41
0
  0
VERTEX
  8
0
 10
3.83094
 20
7.04519
 30
0.0
 40
0
 41
0
  0
VERTEX
  8
0
 10
3.83518
 20
7.05274
 30
0.0
 40
0
 41
0
  0
VERTEX
  8
0
 10
3.84858
 20
7.05724
 30
0.0
 40
0
 41
0
  0
VERTEX
  8
0
 10
3.85172
 20
7.05724
 30
0.0
 40
0
 41
0
  0
VERTEX
  8
0
 10
3.85628
 20
7.05724
 30
0.0
 40
0
 41
0
  0
VERTEX
  8
0
 10
3.87007
 20
7.06093
 30
0.0
 40
0
 41
0
  0
VERTEX
  8
0
 10
3.89469
 20
7.06808
 30
0.0
 40
0
 41
0
  0
VERTEX
  8
0
 10
3.89996
 20
7.06976
 30
0.0
 40
0
 41
0
  0
VERTEX
  8
0
 10
3.90522
 20
7.0715
 30
0.0
 40
0
 41
0
  0
VERTEX
  8
0
 10
3.93772
 20
7.08208
 30
0.0
 40
0
 41
0
  0
VERTEX
  8
0
 10
3.96983
 20
7.09244
 30
0.0
 40
0
 41
0
  0
VERTEX
  8
0
 10
3.97488
 20
7.09407
 30
0.0
 40
0
 41
0
  0
VERTEX
  8
0
 10
3.986
 20
7.09765
 30
0.0
 40
0
 41
0
  0
VERTEX
  8
0
 10
4.02528
 20
7.11356
 30
0.0
 40
0
 41
0
  0
VERTEX
  8
0
 10
4.04536
 20
7.12831
 30
0.0
 40
0
 41
0
  0
VERTEX
  8
0
 10
4.04693
 20
7.13124
 30
0.0
 40
0
 41
0
  0
VERTEX
  8
0
 10
4.04779
 20
7.13292
 30
0.0
 40
0
 41
0
  0
VERTEX
  8
0
 10
4.05339
 20
7.13764
 30
0.0
 40
0
 41
0
  0
VERTEX
  8
0
 10
4.06228
 20
7.13797
 30
0.0
 40
0
 41
0
  0
VERTEX
  8
0
 10
4.06478
 20
7.13743
 30
0.0
 40
0
 41
0
  0
VERTEX
  8
0
 10
4.06662
 20
7.13704
 30
0.0
 40
0
 41
0
  0
VERTEX
  8
0
 10
4.08892
 20
7.14046
 30
0.0
 40
0
 41
0
  0
VERTEX
  8
0
 10
4.09076
 20
7.14139
 30
0.0
 40
0
 41
0
  0
VERTEX
  8
0
 10
4.0925
 20
7.14231
 30
0.0
 40
0
 41
0
  0
VERTEX
  8
0
 10
4.11399
 20
7.15332
 30
0.0
 40
0
 41
0
  0
VERTEX
  8
0
 10
4.14535
 20
7.16917
 30
0.0
 40
0
 41
0
  0
VERTEX
  8
0
 10
4.15207
 20
7.17247
 30
0.0
 40
0
 41
0
  0
VERTEX
  8
0
 10
4.15875
 20
7.17583
 30
0.0
 40
0
 41
0
  0
VERTEX
  8
0
 10
4.19174
 20
7.1945
 30
0.0
 40
0
 41
0
  0
VERTEX
  8
0
 10
4.21642
 20
7.21104
 30
0.0
 40
0
 41
0
  0
VERTEX
  8
0
 10
4.21897
 20
7.21326
 30
0.0
 40
0
 41
0
  0
VERTEX
  8
0
 10
4.2226
 20
7.21658
 30
0.0
 40
0
 41
0
  0
VERTEX
  8
0
 10
4.23432
 20
7.22575
 30
0.0
 40
0
 41
0
  0
VERTEX
  8
0
 10
4.25157
 20
7.23785
 30
0.0
 40
0
 41
0
  0
VERTEX
  8
0
 10
4.26557
 20
7.24642
 30
0.0
 40
0
 41
0
  0
VERTEX
  8
0
 10
4.27138
 20
7.24794
 30
0.0
 40
0
 41
0
  0
VERTEX
  8
0
 10
4.27138
 20
7.24794
 30
0.0
 40
0
 41
0
  0
VERTEX
  8
0
 10
4.27138
 20
7.24794
 30
0.0
 40
0
 41
0
  0
VERTEX
  8
0
 10
4.26118
 20
7.23796
 30
0.0
 40
0
 41
0
  0
VERTEX
  8
0
 10
4.23747
 20
7.21744
 30
0.0
 40
0
 41
0
  0
VERTEX
  8
0
 10
4.21067
 20
7.19521
 30
0.0
 40
0
 41
0
  0
VERTEX
  8
0
 10
4.19526
 20
7.183
 30
0.0
 40
0
 41
0
  0
VERTEX
  8
0
 10
4.19114
 20
7.18007
 30
0.0
 40
0
 41
0
  0
VERTEX
  8
0
 10
4.18924
 20
7.17876
 30
0.0
 40
0
 41
0
  0
VERTEX
  8
0
 10
4.17046
 20
7.16764
 30
0.0
 40
0
 41
0
  0
VERTEX
  8
0
 10
4.1454
 20
7.15386
 30
0.0
 40
0
 41
0
  0
VERTEX
  8
0
 10
4.14035
 20
7.15121
 30
0.0
 40
0
 41
0
  0
VERTEX
  8
0
 10
4.10351
 20
7.13194
 30
0.0
 40
0
 41
0
  0
VERTEX
  8
0
 10
4.09765
 20
7.10303
 30
0.0
 40
0
 41
0
  0
VERTEX
  8
0
 10
4.09489
 20
7.08951
 30
0.0
 40
0
 41
0
  0
VERTEX
  8
0
 10
4.09467
 20
7.03549
 30
0.0
 40
0
 41
0
  0
VERTEX
  8
0
 10
4.09999
 20
6.93951
 30
0.0
 40
0
 41
0
  0
VERTEX
  8
0
 10
4.11029
 20
6.85368
 30
0.0
 40
0
 41
0
  0
VERTEX
  8
0
 10
4.11925
 20
6.81651
 30
0.0
 40
0
 41
0
  0
VERTEX
  8
0
 10
4.12229
 20
6.81651
 30
0.0
 40
0
 41
0
  0
VERTEX
  8
0
 10
4.12375
 20
6.81651
 30
0.0
 40
0
 41
0
  0
VERTEX
  8
0
 10
4.12825
 20
6.81478
 30
0.0
 40
0
 41
0
  0
VERTEX
  8
0
 10
4.13086
 20
6.80817
 30
0.0
 40
0
 41
0
  0
VERTEX
  8
0
 10
4.13021
 20
6.79454
 30
0.0
 40
0
 41
0
  0
VERTEX
  8
0
 10
4.12756
 20
6.7775
 30
0.0
 40
0
 41
0
  0
VERTEX
  8
0
 10
4.12657
 20
6.77181
 30
0.0
 40
0
 41
0
  0
VERTEX
  8
0
 10
4.12511
 20
6.76383
 30
0.0
 40
0
 41
0
  0
VERTEX
  8
0
 10
4.12224
 20
6.73693
 30
0.0
 40
0
 41
0
  0
VERTEX
  8
0
 10
4.12532
 20
6.71376
 30
0.0
 40
0
 41
0
  0
VERTEX
  8
0
 10
4.12685
 20
6.70757
 30
0.0
 40
0
 41
0
  0
VERTEX
  8
0
 10
4.12776
 20
6.70378
 30
0.0
 40
0
 41
0
  0
VERTEX
  8
0
 10
4.13232
 20
6.68728
 30
0.0
 40
0
 41
0
  0
VERTEX
  8
0
 10
4.13553
 20
6.67785
 30
0.0
 40
0
 41
0
  0
VERTEX
  8
0
 10
4.13585
 20
6.67751
 30
0.0
 40
0
 41
0
  0
VERTEX
  8
0
 10
4.13612
 20
6.67725
 30
0.0
 40
0
 41
0
  0
VERTEX
  8
0
 10
4.14681
 20
6.67632
 30
0.0
 40
0
 41
0
  0
VERTEX
  8
0
 10
4.16601
 20
6.67626
 30
0.0
 40
0
 41
0
  0
VERTEX
  8
0
 10
4.17051
 20
6.67638
 30
0.0
 40
0
 41
0
  0
VERTEX
  8
0
 10
4.18539
 20
6.67686
 30
0.0
 40
0
 41
0
  0
VERTEX
  8
0
 10
4.23025
 20
6.67096
 30
0.0
 40
0
 41
0
  0
VERTEX
  8
0
 10
4.28369
 20
6.65175
 30
0.0
 40
0
 41
0
  0
VERTEX
  8
0
 10
4.3284
 20
6.62007
 30
0.0
 40
0
 41
0
  0
VERTEX
  8
0
 10
4.35519
 20
6.58886
 30
0.0
 40
0
 41
0
  0
VERTEX
  8
0
 10
4.36176
 20
6.57715
 30
0.0
 40
0
 41
0
  0
VERTEX
  8
0
 10
4.36464
 20
6.57206
 30
0.0
 40
0
 41
0
  0
VERTEX
  8
0
 10
4.37164
 20
6.55567
 30
0.0
 40
0
 41
0
  0
VERTEX
  8
0
 10
4.38103
 20
6.52914
 30
0.0
 40
0
 41
0
  0
VERTEX
  8
0
 10
4.38807
 20
6.50342
 30
0.0
 40
0
 41
0
  0
VERTEX
  8
0
 10
4.3909
 20
6.48888
 30
0.0
 40
0
 41
0
  0
VERTEX
  8
0
 10
4.391
 20
6.48421
 30
0.0
 40
0
 41
0
  0
VERTEX
  8
0
 10
4.391
 20
6.48258
 30
0.0
 40
0
 41
0
  0
VERTEX
  8
0
 10
4.39779
 20
6.46511
 30
0.0
 40
0
 41
0
  0
VERTEX
  8
0
 10
4.41081
 20
6.44108
 30
0.0
 40
0
 41
0
  0
VERTEX
  8
0
 10
4.41396
 20
6.43608
 30
0.0
 40
0
 41
0
  0
VERTEX
  8
0
 10
4.4171
 20
6.43115
 30
0.0
 40
0
 41
0
  0
VERTEX
  8
0
 10
4.43012
 20
6.40875
 30
0.0
 40
0
 41
0
  0
VERTEX
  8
0
 10
4.43685
 20
6.3974
 30
0.0
 40
0
 41
0
  0
VERTEX
  8
0
 10
4.43685
 20
6.39361
 30
0.0
 40
0
 41
0
  0
VERTEX
  8
0
 10
4.43685
 20
6.39085
 30
0.0
 40
0
 41
0
  0
VERTEX
  8
0
 10
4.43951
 20
6.38254
 30
0.0
 40
0
 41
0
  0
VERTEX
  8
0
 10
4.44472
 20
6.36789
 30
0.0
 40
0
 41
0
  0
VERTEX
  8
0
 10
4.44601
 20
6.36475
 30
0.0
 40
0
 41
0
  0
VERTEX
  8
0
 10
4.44835
 20
6.359
 30
0.0
 40
0
 41
0
  0
VERTEX
  8
0
 10
4.45344
 20
6.34082
 30
0.0
 40
0
 41
0
  0
VERTEX
  8
0
 10
4.45865
 20
6.31375
 30
0.0
 40
0
 41
0
  0
VERTEX
  8
0
 10
4.46072
 20
6.28971
 30
0.0
 40
0
 41
0
  0
VERTEX
  8
0
 10
4.46018
 20
6.27767
 30
0.0
 40
0
 41
0
  0
VERTEX
  8
0
 10
4.45882
 20
6.27501
 30
0.0
 40
0
 41
0
  0
VERTEX
  8
0
 10
4.45801
 20
6.27354
 30
0.0
 40
0
 41
0
  0
VERTEX
  8
0
 10
4.45361
 20
6.27001
 30
0.0
 40
0
 41
0
  0
VERTEX
  8
0
 10
4.44667
 20
6.27225
 30
0.0
 40
0
 41
0
  0
VERTEX
  8
0
 10
4.44467
 20
6.27339
 30
0.0
 40
0
 41
0
  0
VERTEX
  8
0
 10
4.44325
 20
6.27419
 30
0.0
 40
0
 41
0
  0
VERTEX
  8
0
 10
4.42969
 20
6.27838
 30
0.0
 40
0
 41
0
  0
VERTEX
  8
0
 10
4.41168
 20
6.28153
 30
0.0
 40
0
 41
0
  0
VERTEX
  8
0
 10
4.40804
 20
6.28185
 30
0.0
 40
0
 41
0
  0
VERTEX
  8
0
 10
4.403
 20
6.28233
 30
0.0
 40
0
 41
0
  0
VERTEX
  8
0
 10
4.38797
 20
6.28526
 30
0.0
 40
0
 41
0
  0
VERTEX
  8
0
 10
4.38243
 20
6.28928
 30
0.0
 40
0
 41
0
  0
VERTEX
  8
0
 10
4.3909
 20
6.29264
 30
0.0
 40
0
 41
0
  0
VERTEX
  8
0
 10
4.40733
 20
6.294
 30
0.0
 40
0
 41
0
  0
VERTEX
  8
0
 10
4.41282
 20
6.294
 30
0.0
 40
0
 41
0
  0
VERTEX
  8
0
 10
4.44374
 20
6.294
 30
0.0
 40
0
 41
0
  0
VERTEX
  8
0
 10
4.4426
 20
6.32889
 30
0.0
 40
0
 41
0
  0
VERTEX
  8
0
 10
4.44233
 20
6.33626
 30
0.0
 40
0
 41
0
  0
VERTEX
  8
0
 10
4.43858
 20
6.36339
 30
0.0
 40
0
 41
0
  0
VERTEX
  8
0
 10
4.4285
 20
6.38949
 30
0.0
 40
0
 41
0
  0
VERTEX
  8
0
 10
4.42507
 20
6.39632
 30
0.0
 40
0
 41
0
  0
VERTEX
  8
0
 10
4.42279
 20
6.40082
 30
0.0
 40
0
 41
0
  0
VERTEX
  8
0
 10
4.41157
 20
6.42139
 30
0.0
 40
0
 41
0
  0
VERTEX
  8
0
 10
4.403
 20
6.43494
 30
0.0
 40
0
 41
0
  0
VERTEX
  8
0
 10
4.40213
 20
6.43593
 30
0.0
 40
0
 41
0
  0
VERTEX
  8
0
 10
4.4011
 20
6.43701
 30
0.0
 40
0
 41
0
  0
VERTEX
  8
0
 10
4.39665
 20
6.43881
 30
0.0
 40
0
 41
0
  0
VERTEX
  8
0
 10
4.39551
 20
6.42904
 30
0.0
 40
0
 41
0
  0
VERTEX
  8
0
 10
4.39551
 20
6.42578
 30
0.0
 40
0
 41
0
  0
VERTEX
  8
0
 10
4.39551
 20
6.41749
 30
0.0
 40
0
 41
0
  0
VERTEX
  8
0
 10
4.39008
 20
6.39247
 30
0.0
 40
0
 41
0
  0
VERTEX
  8
0
 10
4.37825
 20
6.3661
 30
0.0
 40
0
 41
0
  0
VERTEX
  8
0
 10
4.37511
 20
6.36143
 30
0.0
 40
0
 41
0
  0
VERTEX
  8
0
 10
4.37235
 20
6.35747
 30
0.0
 40
0
 41
0
  0
VERTEX
  8
0
 10
4.36475
 20
6.34517
 30
0.0
 40
0
 41
0
  0
VERTEX
  8
0
 10
4.35331
 20
6.32547
 30
0.0
 40
0
 41
0
  0
VERTEX
  8
0
 10
4.34407
 20
6.30821
 30
0.0
 40
0
 41
0
  0
VERTEX
  8
0
 10
4.34033
 20
6.30143
 30
0.0
 40
0
 41
0
  0
VERTEX
  8
0
 10
4.34033
 20
6.29915
 30
0.0
 40
0
 41
0
  0
VERTEX
  8
0
 10
4.34033
 20
6.29844
 30
0.0
 40
0
 41
0
  0
VERTEX
  8
0
 10
4.34722
 20
6.29639
 30
0.0
 40
0
 41
0
  0
VERTEX
  8
0
 10
4.34836
 20
6.29633
 30
0.0
 40
0
 41
0
  0
VERTEX
  8
0
 10
4.34944
 20
6.29633
 30
0.0
 40
0
 41
0
  0
VERTEX
  8
0
 10
4.36236
 20
6.29183
 30
0.0
 40
0
 41
0
  0
VERTEX
  8
0
 10
4.36333
 20
6.29113
 30
0.0
 40
0
 41
0
  0
VERTEX
  8
0
 10
4.36388
 20
6.29075
 30
0.0
 40
0
 41
0
  0
VERTEX
  8
0
 10
4.36436
 20
6.28771
 30
0.0
 40
0
 41
0
  0
VERTEX
  8
0
 10
4.35385
 20
6.28803
 30
0.0
 40
0
 41
0
  0
VERTEX
  8
0
 10
4.35042
 20
6.28842
 30
0.0
 40
0
 41
0
  0
VERTEX
  8
0
 10
4.34754
 20
6.28879
 30
0.0
 40
0
 41
0
  0
VERTEX
  8
0
 10
4.33886
 20
6.28911
 30
0.0
 40
0
 41
0
  0
VERTEX
  8
0
 10
4.32949
 20
6.28683
 30
0.0
 40
0
 41
0
  0
VERTEX
  8
0
 10
4.31879
 20
6.28
 30
0.0
 40
0
 41
0
  0
VERTEX
  8
0
 10
4.30718
 20
6.27029
 30
0.0
 40
0
 41
0
  0
VERTEX
  8
0
 10
4.30339
 20
6.26699
 30
0.0
 40
0
 41
0
  0
VERTEX
  8
0
 10
4.29958
 20
6.26372
 30
0.0
 40
0
 41
0
  0
VERTEX
  8
0
 10
4.28006
 20
6.2494
 30
0.0
 40
0
 41
0
  0
VERTEX
  8
0
 10
4.26417
 20
6.24078
 30
0.0
 40
0
 41
0
  0
VERTEX
  8
0
 10
4.26226
 20
6.24035
 30
0.0
 40
0
 41
0
  0
VERTEX
  8
0
 10
4.25956
 20
6.23981
 30
0.0
 40
0
 41
0
  0
VERTEX
  8
0
 10
4.25114
 20
6.23936
 30
0.0
 40
0
 41
0
  0
VERTEX
  8
0
 10
4.24951
 20
6.24246
 30
0.0
 40
0
 41
0
  0
VERTEX
  8
0
 10
4.25689
 20
6.24892
 30
0.0
 40
0
 41
0
  0
VERTEX
  8
0
 10
4.26867
 20
6.25592
 30
0.0
 40
0
 41
0
  0
VERTEX
  8
0
 10
4.27274
 20
6.25792
 30
0.0
 40
0
 41
0
  0
VERTEX
  8
0
 10
4.27615
 20
6.25965
 30
0.0
 40
0
 41
0
  0
VERTEX
  8
0
 10
4.29031
 20
6.26904
 30
0.0
 40
0
 41
0
  0
VERTEX
  8
0
 10
4.29796
 20
6.27756
 30
0.0
 40
0
 41
0
  0
VERTEX
  8
0
 10
4.29818
 20
6.27881
 30
0.0
 40
0
 41
0
  0
VERTEX
  8
0
 10
4.29833
 20
6.28
 30
0.0
 40
0
 41
0
  0
VERTEX
  8
0
 10
4.29715
 20
6.28375
 30
0.0
 40
0
 41
0
  0
VERTEX
  8
0
 10
4.28782
 20
6.28624
 30
0.0
 40
0
 41
0
  0
VERTEX
  8
0
 10
4.26411
 20
6.28706
 30
0.0
 40
0
 41
0
  0
VERTEX
  8
0
 10
4.23101
 20
6.28689
 30
0.0
 40
0
 41
0
  0
VERTEX
  8
0
 10
4.22
 20
6.28674
 30
0.0
 40
0
 41
0
  0
VERTEX
  8
0
 10
4.20904
 20
6.28662
 30
0.0
 40
0
 41
0
  0
VERTEX
  8
0
 10
4.16178
 20
6.28624
 30
0.0
 40
0
 41
0
  0
VERTEX
  8
0
 10
4.13456
 20
6.28624
 30
0.0
 40
0
 41
0
  0
VERTEX
  8
0
 10
4.13368
 20
6.28629
 30
0.0
 40
0
 41
0
  0
VERTEX
  8
0
 10
4.13238
 20
6.2864
 30
0.0
 40
0
 41
0
  0
VERTEX
  8
0
 10
4.12875
 20
6.28825
 30
0.0
 40
0
 41
0
  0
VERTEX
  8
0
 10
4.13325
 20
6.29183
 30
0.0
 40
0
 41
0
  0
VERTEX
  8
0
 10
4.1454
 20
6.29622
 30
0.0
 40
0
 41
0
  0
VERTEX
  8
0
 10
4.15881
 20
6.29964
 30
0.0
 40
0
 41
0
  0
VERTEX
  8
0
 10
4.16331
 20
6.30051
 30
0.0
 40
0
 41
0
  0
VERTEX
  8
0
 10
4.16846
 20
6.30154
 30
0.0
 40
0
 41
0
  0
VERTEX
  8
0
 10
4.18419
 20
6.30328
 30
0.0
 40
0
 41
0
  0
VERTEX
  8
0
 10
4.21001
 20
6.30388
 30
0.0
 40
0
 41
0
  0
VERTEX
  8
0
 10
4.24311
 20
6.30236
 30
0.0
 40
0
 41
0
  0
VERTEX
  8
0
 10
4.27518
 20
6.29969
 30
0.0
 40
0
 41
0
  0
VERTEX
  8
0
 10
4.28586
 20
6.29861
 30
0.0
 40
0
 41
0
  0
VERTEX
  8
0
 10
4.28956
 20
6.29829
 30
0.0
 40
0
 41
0
  0
VERTEX
  8
0
 10
4.30083
 20
6.29753
 30
0.0
 40
0
 41
0
  0
VERTEX
  8
0
 10
4.31049
 20
6.29878
 30
0.0
 40
0
 41
0
  0
VERTEX
  8
0
 10
4.31831
 20
6.3036
 30
0.0
 40
0
 41
0
  0
VERTEX
  8
0
 10
4.32553
 20
6.31076
 30
0.0
 40
0
 41
0
  0
VERTEX
  8
0
 10
4.32785
 20
6.31321
 30
0.0
 40
0
 41
0
  0
VERTEX
  8
0
 10
4.33242
 20
6.31819
 30
0.0
 40
0
 41
0
  0
VERTEX
  8
0
 10
4.34397
 20
6.33513
 30
0.0
 40
0
 41
0
  0
VERTEX
  8
0
 10
4.35867
 20
6.3629
 30
0.0
 40
0
 41
0
  0
VERTEX
  8
0
 10
4.3699
 20
6.39208
 30
0.0
 40
0
 41
0
  0
VERTEX
  8
0
 10
4.375
 20
6.41157
 30
0.0
 40
0
 41
0
  0
VERTEX
  8
0
 10
4.37565
 20
6.41813
 30
0.0
 40
0
 41
0
  0
VERTEX
  8
0
 10
4.37657
 20
6.42806
 30
0.0
 40
0
 41
0
  0
VERTEX
  8
0
 10
4.37185
 20
6.46679
 30
0.0
 40
0
 41
0
  0
VERTEX
  8
0
 10
4.35325
 20
6.49436
 30
0.0
 40
0
 41
0
  0
VERTEX
  8
0
 10
4.34728
 20
6.49864
 30
0.0
 40
0
 41
0
  0
VERTEX
  8
0
 10
4.34446
 20
6.50065
 30
0.0
 40
0
 41
0
  0
VERTEX
  8
0
 10
4.33214
 20
6.51036
 30
0.0
 40
0
 41
0
  0
VERTEX
  8
0
 10
4.3246
 20
6.51736
 30
0.0
 40
0
 41
0
  0
VERTEX
  8
0
 10
4.32422
 20
6.51801
 30
0.0
 40
0
 41
0
  0
VERTEX
  8
0
 10
4.32368
 20
6.51893
 30
0.0
 40
0
 41
0
  0
VERTEX
  8
0
 10
4.32379
 20
6.52263
 30
0.0
 40
0
 41
0
  0
VERTEX
  8
0
 10
4.32943
 20
6.52229
 30
0.0
 40
0
 41
0
  0
VERTEX
  8
0
 10
4.33876
 20
6.5179
 30
0.0
 40
0
 41
0
  0
VERTEX
  8
0
 10
4.3469
 20
6.51232
 30
0.0
 40
0
 41
0
  0
VERTEX
  8
0
 10
4.34933
 20
6.51014
 30
0.0
 40
0
 41
0
  0
VERTEX
  8
0
 10
4.35129
 20
6.5084
 30
0.0
 40
0
 41
0
  0
VERTEX
  8
0
 10
4.36025
 20
6.50201
 30
0.0
 40
0
 41
0
  0
VERTEX
  8
0
 10
4.36594
 20
6.49983
 30
0.0
 40
0
 41
0
  0
VERTEX
  8
0
 10
4.36632
 20
6.50022
 30
0.0
 40
0
 41
0
  0
VERTEX
  8
0
 10
4.36664
 20
6.5006
 30
0.0
 40
0
 41
0
  0
VERTEX
  8
0
 10
4.36649
 20
6.50922
 30
0.0
 40
0
 41
0
  0
VERTEX
  8
0
 10
4.36415
 20
6.52371
 30
0.0
 40
0
 41
0
  0
VERTEX
  8
0
 10
4.36344
 20
6.52696
 30
0.0
 40
0
 41
0
  0
VERTEX
  8
0
 10
4.36014
 20
6.54139
 30
0.0
 40
0
 41
0
  0
VERTEX
  8
0
 10
4.33903
 20
6.58203
 30
0.0
 40
0
 41
0
  0
VERTEX
  8
0
 10
4.29682
 20
6.62424
 30
0.0
 40
0
 41
0
  0
VERTEX
  8
0
 10
4.24197
 20
6.65012
 30
0.0
 40
0
 41
0
  0
VERTEX
  8
0
 10
4.19482
 20
6.65728
 30
0.0
 40
0
 41
0
  0
VERTEX
  8
0
 10
4.17947
 20
6.65603
 30
0.0
 40
0
 41
0
  0
VERTEX
  8
0
 10
4.17453
 20
6.65565
 30
0.0
 40
0
 41
0
  0
VERTEX
  8
0
 10
4.15093
 20
6.65246
 30
0.0
 40
0
 41
0
  0
VERTEX
  8
0
 10
4.134
 20
6.64844
 30
0.0
 40
0
 41
0
  0
VERTEX
  8
0
 10
4.13243
 20
6.64768
 30
0.0
 40
0
 41
0
  0
VERTEX
  8
0
 10
4.1281
 20
6.64567
 30
0.0
 40
0
 41
0
  0
VERTEX
  8
0
 10
4.11632
 20
6.63499
 30
0.0
 40
0
 41
0
  0
VERTEX
  8
0
 10
4.09685
 20
6.6129
 30
0.0
 40
0
 41
0
  0
VERTEX
  8
0
 10
4.0785
 20
6.58724
 30
0.0
 40
0
 41
0
  0
VERTEX
  8
0
 10
4.06842
 20
6.56988
 30
0.0
 40
0
 41
0
  0
VERTEX
  8
0
 10
4.06597
 20
6.56369
 30
0.0
 40
0
 41
0
  0
VERTEX
  8
0
 10
4.06337
 20
6.55729
 30
0.0
 40
0
 41
0
  0
VERTEX
  8
0
 10
4.05772
 20
6.53717
 30
0.0
 40
0
 41
0
  0
VERTEX
  8
0
 10
4.05122
 20
6.50603
 30
0.0
 40
0
 41
0
  0
VERTEX
  8
0
 10
4.04769
 20
6.47808
 30
0.0
 40
0
 41
0
  0
VERTEX
  8
0
 10
4.04736
 20
6.46414
 30
0.0
 40
0
 41
0
  0
VERTEX
  8
0
 10
4.04856
 20
6.46121
 30
0.0
 40
0
 41
0
  0
VERTEX
  8
0
 10
4.04899
 20
6.46007
 30
0.0
 40
0
 41
0
  0
VERTEX
  8
0
 10
4.05181
 20
6.44396
 30
0.0
 40
0
 41
0
  0
VERTEX
  8
0
 10
4.05464
 20
6.41932
 30
0.0
 40
0
 41
0
  0
VERTEX
  8
0
 10
4.05507
 20
6.41396
 30
0.0
 40
0
 41
0
  0
VERTEX
  8
0
 10
4.0555
 20
6.40842
 30
0.0
 40
0
 41
0
  0
VERTEX
  8
0
 10
4.0574
 20
6.39176
 30
0.0
 40
0
 41
0
  0
VERTEX
  8
0
 10
4.06125
 20
6.37528
 30
0.0
 40
0
 41
0
  0
VERTEX
  8
0
 10
4.06847
 20
6.359
 30
0.0
 40
0
 41
0
  0
VERTEX
  8
0
 10
4.07764
 20
6.34293
 30
0.0
 40
0
 41
0
  0
VERTEX
  8
0
 10
4.08083
 20
6.33768
 30
0.0
 40
0
 41
0
  0
VERTEX
  8
0
 10
4.08393
 20
6.33257
 30
0.0
 40
0
 41
0
  0
VERTEX
  8
0
 10
4.10021
 20
6.30951
 30
0.0
 40
0
 41
0
  0
VERTEX
  8
0
 10
4.11339
 20
6.29492
 30
0.0
 40
0
 41
0
  0
VERTEX
  8
0
 10
4.11501
 20
6.294
 30
0.0
 40
0
 41
0
  0
VERTEX
  8
0
 10
4.12657
 20
6.2876
 30
0.0
 40
0
 41
0
  0
VERTEX
  8
0
 10
4.11393
 20
6.28429
 30
0.0
 40
0
 41
0
  0
VERTEX
  8
0
 10
4.11219
 20
6.28386
 30
0.0
 40
0
 41
0
  0
VERTEX
  8
0
 10
4.09185
 20
6.28342
 30
0.0
 40
0
 41
0
  0
VERTEX
  8
0
 10
4.09039
 20
6.28381
 30
0.0
 40
0
 41
0
  0
VERTEX
  8
0
 10
4.08822
 20
6.2844
 30
0.0
 40
0
 41
0
  0
VERTEX
  8
0
 10
4.08214
 20
6.28851
 30
0.0
 40
0
 41
0
  0
VERTEX
  8
0
 10
4.08128
 20
6.29617
 30
0.0
 40
0
 41
0
  0
VERTEX
  8
0
 10
4.08171
 20
6.2985
 30
0.0
 40
0
 41
0
  0
VERTEX
  8
0
 10
4.08203
 20
6.30029
 30
0.0
 40
0
 41
0
  0
VERTEX
  8
0
 10
4.07639
 20
6.32189
 30
0.0
 40
0
 41
0
  0
VERTEX
  8
0
 10
4.07508
 20
6.32383
 30
0.0
 40
0
 41
0
  0
VERTEX
  8
0
 10
4.07292
 20
6.32721
 30
0.0
 40
0
 41
0
  0
VERTEX
  8
0
 10
4.06603
 20
6.34028
 30
0.0
 40
0
 41
0
  0
VERTEX
  8
0
 10
4.0541
 20
6.36481
 30
0.0
 40
0
 41
0
  0
VERTEX
  8
0
 10
4.04264
 20
6.39008
 30
0.0
 40
0
 41
0
  0
VERTEX
  8
0
 10
4.03662
 20
6.40451
 30
0.0
 40
0
 41
0
  0
VERTEX
  8
0
 10
4.03521
 20
6.4089
 30
0.0
 40
0
 41
0
  0
VERTEX
  8
0
 10
4.03461
 20
6.41069
 30
0.0
 40
0
 41
0
  0
VERTEX
  8
0
 10
4.03039
 20
6.41531
 30
0.0
 40
0
 41
0
  0
VERTEX
  8
0
 10
4.02214
 20
6.41461
 30
0.0
 40
0
 41
0
  0
VERTEX
  8
0
 10
4.01964
 20
6.41374
 30
0.0
 40
0
 41
0
  0
VERTEX
  8
0
 10
4.0179
 20
6.41319
 30
0.0
 40
0
 41
0
  0
VERTEX
  8
0
 10
4.00151
 20
6.41086
 30
0.0
 40
0
 41
0
  0
VERTEX
  8
0
 10
3.98004
 20
6.40967
 30
0.0
 40
0
 41
0
  0
VERTEX
  8
0
 10
3.97575
 20
6.40961
 30
0.0
 40
0
 41
0
  0
VERTEX
  8
0
 10
3.96994
 20
6.40961
 30
0.0
 40
0
 41
0
  0
VERTEX
  8
0
 10
3.95057
 20
6.40799
 30
0.0
 40
0
 41
0
  0
VERTEX
  8
0
 10
3.9414
 20
6.40375
 30
0.0
 40
0
 41
0
  0
VERTEX
  8
0
 10
3.94075
 20
6.4024
 30
0.0
 40
0
 41
0
  0
VERTEX
  8
0
 10
3.94021
 20
6.40142
 30
0.0
 40
0
 41
0
  0
VERTEX
  8
0
 10
3.93728
 20
6.38351
 30
0.0
 40
0
 41
0
  0
VERTEX
  8
0
 10
3.93468
 20
6.35476
 30
0.0
 40
0
 41
0
  0
VERTEX
  8
0
 10
3.93431
 20
6.34831
 30
0.0
 40
0
 41
0
  0
VERTEX
  8
0
 10
3.93381
 20
6.34033
 30
0.0
 40
0
 41
0
  0
VERTEX
  8
0
 10
3.93326
 20
6.31629
 30
0.0
 40
0
 41
0
  0
VERTEX
  8
0
 10
3.93712
 20
6.29958
 30
0.0
 40
0
 41
0
  0
VERTEX
  8
0
 10
3.94883
 20
6.29383
 30
0.0
 40
0
 41
0
  0
VERTEX
  8
0
 10
3.96588
 20
6.29417
 30
0.0
 40
0
 41
0
  0
VERTEX
  8
0
 10
3.97151
 20
6.29465
 30
0.0
 40
0
 41
0
  0
VERTEX
  8
0
 10
3.97526
 20
6.29503
 30
0.0
 40
0
 41
0
  0
VERTEX
  8
0
 10
3.98915
 20
6.29497
 30
0.0
 40
0
 41
0
  0
VERTEX
  8
0
 10
3.99561
 20
6.29264
 30
0.0
 40
0
 41
0
  0
VERTEX
  8
0
 10
3.99561
 20
6.29183
 30
0.0
 40
0
 41
0
  0
VERTEX
  8
0
 10
3.99561
 20
6.29096
 30
0.0
 40
0
 41
0
  0
VERTEX
  8
0
 10
3.98639
 20
6.28819
 30
0.0
 40
0
 41
0
  0
VERTEX
  8
0
 10
3.96799
 20
6.28678
 30
0.0
 40
0
 41
0
  0
VERTEX
  8
0
 10
3.96186
 20
6.28678
 30
0.0
 40
0
 41
0
  0
VERTEX
  8
0
 10
3.95458
 20
6.28678
 30
0.0
 40
0
 41
0
  0
VERTEX
  8
0
 10
3.93289
 20
6.285
 30
0.0
 40
0
 41
0
  0
VERTEX
  8
0
 10
3.92144
 20
6.27919
 30
0.0
 40
0
 41
0
  0
VERTEX
  8
0
 10
3.91976
 20
6.27718
 30
0.0
 40
0
 41
0
  0
VERTEX
  8
0
 10
3.91862
 20
6.27588
 30
0.0
 40
0
 41
0
  0
VERTEX
  8
0
 10
3.91032
 20
6.26753
 30
0.0
 40
0
 41
0
  0
VERTEX
  8
0
 10
3.90756
 20
6.26753
 30
0.0
 40
0
 41
0
  0
VERTEX
  8
0
 10
3.90679
 20
6.26753
 30
0.0
 40
0
 41
0
  0
VERTEX
  8
0
 10
3.90468
 20
6.27268
 30
0.0
 40
0
 41
0
  0
VERTEX
  8
0
 10
3.90375
 20
6.28418
 30
0.0
 40
0
 41
0
  0
VERTEX
  8
0
 10
3.90468
 20
6.29628
 30
0.0
 40
0
 41
0
  0
VERTEX
  8
0
 10
3.90631
 20
6.3024
 30
0.0
 40
0
 41
0
  0
VERTEX
  8
0
 10
3.90761
 20
6.30322
 30
0.0
 40
0
 41
0
  0
VERTEX
  8
0
 10
3.90847
 20
6.30382
 30
0.0
 40
0
 41
0
  0
VERTEX
  8
0
 10
3.91488
 20
6.32585
 30
0.0
 40
0
 41
0
  0
VERTEX
  8
0
 10
3.92275
 20
6.36882
 30
0.0
 40
0
 41
0
  0
VERTEX
  8
0
 10
3.92443
 20
6.37989
 30
0.0
 40
0
 41
0
  0
VERTEX
  8
0
 10
3.92486
 20
6.38276
 30
0.0
 40
0
 41
0
  0
VERTEX
  8
0
 10
3.92247
 20
6.40419
 30
0.0
 40
0
 41
0
  0
VERTEX
  8
0
 10
3.92165
 20
6.40528
 30
0.0
 40
0
 41
0
  0
VERTEX
  8
0
 10
3.92051
 20
6.40668
 30
0.0
 40
0
 41
0
  0
VERTEX
  8
0
 10
3.9184
 20
6.41325
 30
0.0
 40
0
 41
0
  0
VERTEX
  8
0
 10
3.92074
 20
6.42144
 30
0.0
 40
0
 41
0
  0
VERTEX
  8
0
 10
3.92188
 20
6.42361
 30
0.0
 40
0
 41
0
  0
VERTEX
  8
0
 10
3.92312
 20
6.42611
 30
0.0
 40
0
 41
0
  0
VERTEX
  8
0
 10
3.92404
 20
6.43864
 30
0.0
 40
0
 41
0
  0
VERTEX
  8
0
 10
3.91596
 20
6.46056
 30
0.0
 40
0
 41
0
  0
VERTEX
  8
0
 10
3.91276
 20
6.46756
 30
0.0
 40
0
 41
0
  0
VERTEX
  8
0
 10
3.9081
 20
6.47781
 30
0.0
 40
0
 41
0
  0
VERTEX
  8
0
 10
3.88026
 20
6.51947
 30
0.0
 40
0
 41
0
  0
VERTEX
  8
0
 10
3.84614
 20
6.54889
 30
0.0
 40
0
 41
0
  0
VERTEX
  8
0
 10
3.83832
 20
6.553
 30
0.0
 40
0
 41
0
  0
VERTEX
  8
0
 10
3.83225
 20
6.55621
 30
0.0
 40
0
 41
0
  0
VERTEX
  8
0
 10
3.81321
 20
6.56418
 30
0.0
 40
0
 41
0
  0
VERTEX
  8
0
 10
3.78624
 20
6.57303
 30
0.0
 40
0
 41
0
  0
VERTEX
  8
0
 10
3.76253
 20
6.57813
 30
0.0
 40
0
 41
0
  0
VERTEX
  8
0
 10
3.75038
 20
6.5791
 30
0.0
 40
0
 41
0
  0
VERTEX
  8
0
 10
3.74729
 20
6.57807
 30
0.0
 40
0
 41
0
  0
VERTEX
  8
0
 10
3.74387
 20
6.57699
 30
0.0
 40
0
 41
0
  0
VERTEX
  8
0
 10
3.72319
 20
6.56164
 30
0.0
 40
0
 41
0
  0
VERTEX
  8
0
 10
3.70546
 20
6.54081
 30
0.0
 40
0
 41
0
  0
VERTEX
  8
0
 10
3.70356
 20
6.53694
 30
0.0
 40
0
 41
0
  0
VERTEX
  8
0
 10
3.70264
 20
6.5351
 30
0.0
 40
0
 41
0
  0
VERTEX
  8
0
 10
3.69581
 20
6.52696
 30
0.0
 40
0
 41
0
  0
VERTEX
  8
0
 10
3.68804
 20
6.52208
 30
0.0
 40
0
 41
0
  0
VERTEX
  8
0
 10
3.68664
 20
6.52186
 30
0.0
 40
0
 41
0
  0
VERTEX
  8
0
 10
3.68494
 20
6.52165
 30
0.0
 40
0
 41
0
  0
VERTEX
  8
0
 10
3.67372
 20
6.51269
 30
0.0
 40
0
 41
0
  0
VERTEX
  8
0
 10
3.65918
 20
6.49414
 30
0.0
 40
0
 41
0
  0
VERTEX
  8
0
 10
3.65593
 20
6.48904
 30
0.0
 40
0
 41
0
  0
VERTEX
  8
0
 10
3.65289
 20
6.48449
 30
0.0
 40
0
 41
0
  0
VERTEX
  8
0
 10
3.64421
 20
6.47049
 30
0.0
 40
0
 41
0
  0
VERTEX
  8
0
 10
3.63818
 20
6.45676
 30
0.0
 40
0
 41
0
  0
VERTEX
  8
0
 10
3.63596
 20
6.44168
 30
0.0
 40
0
 41
0
  0
VERTEX
  8
0
 10
3.63579
 20
6.42458
 30
0.0
 40
0
 41
0
  0
VERTEX
  8
0
 10
3.63585
 20
6.41889
 30
0.0
 40
0
 41
0
  0
VERTEX
  8
0
 10
3.63585
 20
6.41357
 30
0.0
 40
0
 41
0
  0
VERTEX
  8
0
 10
3.63824
 20
6.3826
 30
0.0
 40
0
 41
0
  0
VERTEX
  8
0
 10
3.64253
 20
6.35406
 30
0.0
 40
0
 41
0
  0
VERTEX
  8
0
 10
3.64356
 20
6.34988
 30
0.0
 40
0
 41
0
  0
VERTEX
  8
0
 10
3.64453
 20
6.34576
 30
0.0
 40
0
 41
0
  0
VERTEX
  8
0
 10
3.64876
 20
6.32443
 30
0.0
 40
0
 41
0
  0
VERTEX
  8
0
 10
3.65093
 20
6.31039
 30
0.0
 40
0
 41
0
  0
VERTEX
  8
0
 10
3.65093
 20
6.30567
 30
0.0
 40
0
 41
0
  0
VERTEX
  8
0
 10
3.65093
 20
6.30274
 30
0.0
 40
0
 41
0
  0
VERTEX
  8
0
 10
3.65338
 20
6.29389
 30
0.0
 40
0
 41
0
  0
VERTEX
  8
0
 10
3.66271
 20
6.29135
 30
0.0
 40
0
 41
0
  0
VERTEX
  8
0
 10
3.66585
 20
6.29129
 30
0.0
 40
0
 41
0
  0
VERTEX
  8
0
 10
3.66862
 20
6.29124
 30
0.0
 40
0
 41
0
  0
VERTEX
  8
0
 10
3.67708
 20
6.29025
 30
0.0
 40
0
 41
0
  0
VERTEX
  8
0
 10
3.67215
 20
6.28662
 30
0.0
 40
0
 41
0
  0
VERTEX
  8
0
 10
3.67036
 20
6.28569
 30
0.0
 40
0
 41
0
  0
VERTEX
  8
0
 10
3.66813
 20
6.28461
 30
0.0
 40
0
 41
0
  0
VERTEX
  8
0
 10
3.66233
 20
6.27832
 30
0.0
 40
0
 41
0
  0
VERTEX
  8
0
 10
3.66228
 20
6.26687
 30
0.0
 40
0
 41
0
  0
VERTEX
  8
0
 10
3.66292
 20
6.26313
 30
0.0
 40
0
 41
0
  0
VERTEX
  8
0
 10
3.66331
 20
6.26079
 30
0.0
 40
0
 41
0
  0
VERTEX
  8
0
 10
3.66949
 20
6.23861
 30
0.0
 40
0
 41
0
  0
VERTEX
  8
0
 10
3.67008
 20
6.23742
 30
0.0
 40
0
 41
0
  0
VERTEX
  8
0
 10
3.67074
 20
6.23611
 30
0.0
 40
0
 41
0
  0
VERTEX
  8
0
 10
3.66976
 20
6.229
 30
0.0
 40
0
 41
0
  0
VERTEX
  8
0
 10
3.66949
 20
6.229
 30
0.0
 40
0
 41
0
  0
VERTEX
  8
0
 10
3.6665
 20
6.229
 30
0.0
 40
0
 41
0
  0
VERTEX
  8
0
 10
3.65761
 20
6.23736
 30
0.0
 40
0
 41
0
  0
VERTEX
  8
0
 10
3.64378
 20
6.25478
 30
0.0
 40
0
 41
0
  0
VERTEX
  8
0
 10
3.64079
 20
6.25928
 30
0.0
 40
0
 41
0
  0
VERTEX
  8
0
 10
3.63894
 20
6.2621
 30
0.0
 40
0
 41
0
  0
VERTEX
  8
0
 10
3.63081
 20
6.26878
 30
0.0
 40
0
 41
0
  0
VERTEX
  8
0
 10
3.61578
 20
6.26768
 30
0.0
 40
0
 41
0
  0
VERTEX
  8
0
 10
3.61094
 20
6.26665
 30
0.0
 40
0
 41
0
  0
VERTEX
  8
0
 10
3.60792
 20
6.26606
 30
0.0
 40
0
 41
0
  0
VERTEX
  8
0
 10
3.58154
 20
6.26286
 30
0.0
 40
0
 41
0
  0
VERTEX
  8
0
 10
3.54833
 20
6.26047
 30
0.0
 40
0
 41
0
  0
VERTEX
  8
0
 10
3.54189
 20
6.26019
 30
0.0
 40
0
 41
0
  0
VERTEX
  8
0
 10
3.53537
 20
6.25999
 30
0.0
 40
0
 41
0
  0
VERTEX
  8
0
 10
3.50597
 20
6.25743
 30
0.0
 40
0
 41
0
  0
VERTEX
  8
0
 10
3.48703
 20
6.25401
 30
0.0
 40
0
 41
0
  0
VERTEX
  8
0
 10
3.48583
 20
6.25331
 30
0.0
 40
0
 41
0
  0
VERTEX
  8
0
 10
3.48361
 20
6.25206
 30
0.0
 40
0
 41
0
  0
VERTEX
  8
0
 10
3.4745
 20
6.25256
 30
0.0
 40
0
 41
0
  0
VERTEX
  8
0
 10
3.47586
 20
6.26036
 30
0.0
 40
0
 41
0
  0
VERTEX
  8
0
 10
3.47743
 20
6.26167
 30
0.0
 40
0
 41
0
  0
VERTEX
  8
0
 10
3.47694
 20
6.26167
 30
0.0
 40
0
 41
0
  0
SEQEND
 8
0
  0
POLYLINE
  8
0
 62
     33
 66
     1
 10
0
 20
0
 30
0.0
 70
     1
 40
0
 41
0
  0
VERTEX
  8
0
 10
4.07335
 20
7.09337
 30
0.0
 40
0
 41
0
  0
VERTEX
  8
0
 10
4.07362
 20
7.09321
 30
0.0
 40
0
 41
0
  0
VERTEX
  8
0
 10
4.07667
 20
7.09608
 30
0.0
 40
0
 41
0
  0
VERTEX
  8
0
 10
4.07796
 20
7.10487
 30
0.0
 40
0
 41
0
  0
VERTEX
  8
0
 10
4.07796
 20
7.10781
 30
0.0
 40
0
 41
0
  0
VERTEX
  8
0
 10
4.07796
 20
7.11079
 30
0.0
 40
0
 41
0
  0
VERTEX
  8
0
 10
4.07667
 20
7.11962
 30
0.0
 40
0
 41
0
  0
VERTEX
  8
0
 10
4.07362
 20
7.1225
 30
0.0
 40
0
 41
0
  0
VERTEX
  8
0
 10
4.07335
 20
7.12229
 30
0.0
 40
0
 41
0
  0
VERTEX
  8
0
 10
4.07269
 20
7.1219
 30
0.0
 40
0
 41
0
  0
VERTEX
  8
0
 10
4.06874
 20
7.11133
 30
0.0
 40
0
 41
0
  0
VERTEX
  8
0
 10
4.06874
 20
7.10781
 30
0.0
 40
0
 41
0
  0
VERTEX
  8
0
 10
4.06874
 20
7.10422
 30
0.0
 40
0
 41
0
  0
VERTEX
  8
0
 10
4.07269
 20
7.09381
 30
0.0
 40
0
 41
0
  0
VERTEX
  8
0
 10
4.07335
 20
7.09337
 30
0.0
 40
0
 41
0
  0
SEQEND
 8
0
  0
POLYLINE
  8
0
 62
     33
 66
     1
 10
0
 20
0
 30
0.0
 70
     1
 40
0
 41
0
  0
VERTEX
  8
0
 10
4.07796
 20
7.07172
 30
0.0
 40
0
 41
0
  0
VERTEX
  8
0
 10
4.0791
 20
7.07172
 30
0.0
 40
0
 41
0
  0
VERTEX
  8
0
 10
4.08251
 20
7.07514
 30
0.0
 40
0
 41
0
  0
VERTEX
  8
0
 10
4.08251
 20
7.07622
 30
0.0
 40
0
 41
0
  0
VERTEX
  8
0
 10
4.08251
 20
7.07813
 30
0.0
 40
0
 41
0
  0
VERTEX
  8
0
 10
4.07856
 20
7.08339
 30
0.0
 40
0
 41
0
  0
VERTEX
  8
0
 10
4.07796
 20
7.08376
 30
0.0
 40
0
 41
0
  0
VERTEX
  8
0
 10
4.07764
 20
7.08399
 30
0.0
 40
0
 41
0
  0
VERTEX
  8
0
 10
4.07335
 20
7.0804
 30
0.0
 40
0
 41
0
  0
VERTEX
  8
0
 10
4.07335
 20
7.07921
 30
0.0
 40
0
 41
0
  0
VERTEX
  8
0
 10
4.07335
 20
7.07736
 30
0.0
 40
0
 41
0
  0
VERTEX
  8
0
 10
4.07676
 20
7.07172
 30
0.0
 40
0
 41
0
  0
VERTEX
  8
0
 10
4.07796
 20
7.07172
 30
0.0
 40
0
 41
0
  0
SEQEND
 8
0
  0
POLYLINE
  8
0
 62
     33
 66
     1
 10
0
 20
0
 30
0.0
 70
     1
 40
0
 41
0
  0
VERTEX
  8
0
 10
3.53819
 20
7.00618
 30
0.0
 40
0
 41
0
  0
VERTEX
  8
0
 10
3.53917
 20
7.00662
 30
0.0
 40
0
 41
0
  0
VERTEX
  8
0
 10
3.55593
 20
7.00831
 30
0.0
 40
0
 41
0
  0
VERTEX
  8
0
 10
3.58035
 20
7.00911
 30
0.0
 40
0
 41
0
  0
VERTEX
  8
0
 10
3.58849
 20
7.00911
 30
0.0
 40
0
 41
0
  0
VERTEX
  8
0
 10
3.59674
 20
7.00911
 30
0.0
 40
0
 41
0
  0
VERTEX
  8
0
 10
3.62153
 20
7.00732
 30
0.0
 40
0
 41
0
  0
VERTEX
  8
0
 10
3.63531
 20
7.00299
 30
0.0
 40
0
 41
0
  0
VERTEX
  8
0
 10
3.62847
 20
6.99783
 30
0.0
 40
0
 41
0
  0
VERTEX
  8
0
 10
3.60699
 20
6.99414
 30
0.0
 40
0
 41
0
  0
VERTEX
  8
0
 10
3.59983
 20
6.99354
 30
0.0
 40
0
 41
0
  0
VERTEX
  8
0
 10
3.59657
 20
6.99333
 30
0.0
 40
0
 41
0
  0
VERTEX
  8
0
 10
3.58708
 20
6.99067
 30
0.0
 40
0
 41
0
  0
VERTEX
  8
0
 10
3.58458
 20
6.9846
 30
0.0
 40
0
 41
0
  0
VERTEX
  8
0
 10
3.58479
 20
6.98264
 30
0.0
 40
0
 41
0
  0
VERTEX
  8
0
 10
3.5849
 20
6.98133
 30
0.0
 40
0
 41
0
  0
VERTEX
  8
0
 10
3.58365
 20
6.96283
 30
0.0
 40
0
 41
0
  0
VERTEX
  8
0
 10
3.58333
 20
6.96121
 30
0.0
 40
0
 41
0
  0
VERTEX
  8
0
 10
3.5829
 20
6.95921
 30
0.0
 40
0
 41
0
  0
VERTEX
  8
0
 10
3.58046
 20
6.95324
 30
0.0
 40
0
 41
0
  0
VERTEX
  8
0
 10
3.57721
 20
6.9554
 30
0.0
 40
0
 41
0
  0
VERTEX
  8
0
 10
3.57661
 20
6.95638
 30
0.0
 40
0
 41
0
  0
VERTEX
  8
0
 10
3.57601
 20
6.95736
 30
0.0
 40
0
 41
0
  0
VERTEX
  8
0
 10
3.57232
 20
6.97163
 30
0.0
 40
0
 41
0
  0
VERTEX
  8
0
 10
3.57232
 20
6.97635
 30
0.0
 40
0
 41
0
  0
VERTEX
  8
0
 10
3.57226
 20
6.98031
 30
0.0
 40
0
 41
0
  0
VERTEX
  8
0
 10
3.56674
 20
6.99214
 30
0.0
 40
0
 41
0
  0
VERTEX
  8
0
 10
3.55122
 20
6.99576
 30
0.0
 40
0
 41
0
  0
VERTEX
  8
0
 10
3.54622
 20
6.99556
 30
0.0
 40
0
 41
0
  0
VERTEX
  8
0
 10
3.54254
 20
6.99544
 30
0.0
 40
0
 41
0
  0
VERTEX
  8
0
 10
3.53142
 20
6.99875
 30
0.0
 40
0
 41
0
  0
VERTEX
  8
0
 10
3.53597
 20
7.00537
 30
0.0
 40
0
 41
0
  0
VERTEX
  8
0
 10
3.53808
 20
7.00618
 30
0.0
 40
0
 41
0
  0
VERTEX
  8
0
 10
3.53819
 20
7.00618
 30
0.0
 40
0
 41
0
  0
SEQEND
 8
0
  0
POLYLINE
  8
0
 62
     33
 66
     1
 10
0
 20
0
 30
0.0
 70
     1
 40
0
 41
0
  0
VERTEX
  8
0
 10
3.58154
 20
6.94168
 30
0.0
 40
0
 41
0
  0
VERTEX
  8
0
 10
3.58301
 20
6.93935
 30
0.0
 40
0
 41
0
  0
VERTEX
  8
0
 10
3.58594
 20
6.92372
 30
0.0
 40
0
 41
0
  0
VERTEX
  8
0
 10
3.58263
 20
6.91282
 30
0.0
 40
0
 41
0
  0
VERTEX
  8
0
 10
3.58154
 20
6.91282
 30
0.0
 40
0
 41
0
  0
VERTEX
  8
0
 10
3.58074
 20
6.91282
 30
0.0
 40
0
 41
0
  0
VERTEX
  8
0
 10
3.57829
 20
6.91813
 30
0.0
 40
0
 41
0
  0
VERTEX
  8
0
 10
3.57699
 20
6.92839
 30
0.0
 40
0
 41
0
  0
VERTEX
  8
0
 10
3.57704
 20
6.93083
 30
0.0
 40
0
 41
0
  0
VERTEX
  8
0
 10
3.57704
 20
6.93397
 30
0.0
 40
0
 41
0
  0
VERTEX
  8
0
 10
3.57807
 20
6.94336
 30
0.0
 40
0
 41
0
  0
VERTEX
  8
0
 10
3.58111
 20
6.94239
 30
0.0
 40
0
 41
0
  0
VERTEX
  8
0
 10
3.58154
 20
6.94168
 30
0.0
 40
0
 41
0
  0
SEQEND
 8
0
  0
POLYLINE
  8
0
 62
     33
 66
     1
 10
0
 20
0
 30
0.0
 70
     1
 40
0
 41
0
  0
VERTEX
  8
0
 10
3.68147
 20
7.0159
 30
0.0
 40
0
 41
0
  0
VERTEX
  8
0
 10
3.68181
 20
7.01633
 30
0.0
 40
0
 41
0
  0
VERTEX
  8
0
 10
3.69006
 20
7.01872
 30
0.0
 40
0
 41
0
  0
VERTEX
  8
0
 10
3.69282
 20
7.01872
 30
0.0
 40
0
 41
0
  0
VERTEX
  8
0
 10
3.69433
 20
7.01872
 30
0.0
 40
0
 41
0
  0
VERTEX
  8
0
 10
3.699
 20
7.01671
 30
0.0
 40
0
 41
0
  0
VERTEX
  8
0
 10
3.69922
 20
7.01107
 30
0.0
 40
0
 41
0
  0
VERTEX
  8
0
 10
3.69874
 20
7.00933
 30
0.0
 40
0
 41
0
  0
VERTEX
  8
0
 10
3.69775
 20
7.00618
 30
0.0
 40
0
 41
0
  0
VERTEX
  8
0
 10
3.70301
 20
6.98606
 30
0.0
 40
0
 41
0
  0
VERTEX
  8
0
 10
3.7175
 20
6.9681
 30
0.0
 40
0
 41
0
  0
VERTEX
  8
0
 10
3.72119
 20
6.96604
 30
0.0
 40
0
 41
0
  0
VERTEX
  8
0
 10
3.72342
 20
6.96479
 30
0.0
 40
0
 41
0
  0
VERTEX
  8
0
 10
3.72939
 20
6.95947
 30
0.0
 40
0
 41
0
  0
VERTEX
  8
0
 10
3.7424
 20
6.94678
 30
0.0
 40
0
 41
0
  0
VERTEX
  8
0
 10
3.75874
 20
6.92969
 30
0.0
 40
0
 41
0
  0
VERTEX
  8
0
 10
3.77681
 20
6.90994
 30
0.0
 40
0
 41
0
  0
VERTEX
  8
0
 10
3.79508
 20
6.88926
 30
0.0
 40
0
 41
0
  0
VERTEX
  8
0
 10
3.81201
 20
6.86936
 30
0.0
 40
0
 41
0
  0
VERTEX
  8
0
 10
3.82601
 20
6.85189
 30
0.0
 40
0
 41
0
  0
VERTEX
  8
0
 10
3.83339
 20
6.84207
 30
0.0
 40
0
 41
0
  0
VERTEX
  8
0
 10
3.83561
 20
6.83865
 30
0.0
 40
0
 41
0
  0
VERTEX
  8
0
 10
3.83832
 20
6.83447
 30
0.0
 40
0
 41
0
  0
VERTEX
  8
0
 10
3.84592
 20
6.82129
 30
0.0
 40
0
 41
0
  0
VERTEX
  8
0
 10
3.85433
 20
6.80425
 30
0.0
 40
0
 41
0
  0
VERTEX
  8
0
 10
3.85943
 20
6.79081
 30
0.0
 40
0
 41
0
  0
VERTEX
  8
0
 10
3.86068
 20
6.78483
 30
0.0
 40
0
 41
0
  0
VERTEX
  8
0
 10
3.85992
 20
6.78401
 30
0.0
 40
0
 41
0
  0
VERTEX
  8
0
 10
3.85981
 20
6.78396
 30
0.0
 40
0
 41
0
  0
VERTEX
  8
0
 10
3.85633
 20
6.78683
 30
0.0
 40
0
 41
0
  0
VERTEX
  8
0
 10
3.85167
 20
6.79449
 30
0.0
 40
0
 41
0
  0
VERTEX
  8
0
 10
3.85069
 20
6.79644
 30
0.0
 40
0
 41
0
  0
VERTEX
  8
0
 10
3.84967
 20
6.79844
 30
0.0
 40
0
 41
0
  0
VERTEX
  8
0
 10
3.83838
 20
6.815
 30
0.0
 40
0
 41
0
  0
VERTEX
  8
0
 10
3.82226
 20
6.83518
 30
0.0
 40
0
 41
0
  0
VERTEX
  8
0
 10
3.8189
 20
6.83903
 30
0.0
 40
0
 41
0
  0
VERTEX
  8
0
 10
3.81549
 20
6.84289
 30
0.0
 40
0
 41
0
  0
VERTEX
  8
0
 10
3.80029
 20
6.86111
 30
0.0
 40
0
 41
0
  0
VERTEX
  8
0
 10
3.79069
 20
6.87369
 30
0.0
 40
0
 41
0
  0
VERTEX
  8
0
 10
3.79015
 20
6.87472
 30
0.0
 40
0
 41
0
  0
VERTEX
  8
0
 10
3.78863
 20
6.87744
 30
0.0
 40
0
 41
0
  0
VERTEX
  8
0
 10
3.77533
 20
6.89128
 30
0.0
 40
0
 41
0
  0
VERTEX
  8
0
 10
3.74815
 20
6.9171
 30
0.0
 40
0
 41
0
  0
VERTEX
  8
0
 10
3.72092
 20
6.94092
 30
0.0
 40
0
 41
0
  0
VERTEX
  8
0
 10
3.70985
 20
6.95133
 30
0.0
 40
0
 41
0
  0
VERTEX
  8
0
 10
3.70617
 20
6.95133
 30
0.0
 40
0
 41
0
  0
VERTEX
  8
0
 10
3.70508
 20
6.95133
 30
0.0
 40
0
 41
0
  0
VERTEX
  8
0
 10
3.70182
 20
6.9464
 30
0.0
 40
0
 41
0
  0
VERTEX
  8
0
 10
3.69868
 20
6.93679
 30
0.0
 40
0
 41
0
  0
VERTEX
  8
0
 10
3.69829
 20
6.93446
 30
0.0
 40
0
 41
0
  0
VERTEX
  8
0
 10
3.69786
 20
6.93218
 30
0.0
 40
0
 41
0
  0
VERTEX
  8
0
 10
3.69303
 20
6.91758
 30
0.0
 40
0
 41
0
  0
VERTEX
  8
0
 10
3.69146
 20
6.91758
 30
0.0
 40
0
 41
0
  0
VERTEX
  8
0
 10
3.69026
 20
6.91758
 30
0.0
 40
0
 41
0
  0
VERTEX
  8
0
 10
3.68674
 20
6.93224
 30
0.0
 40
0
 41
0
  0
VERTEX
  8
0
 10
3.68229
 20
6.96474
 30
0.0
 40
0
 41
0
  0
VERTEX
  8
0
 10
3.6799
 20
6.99832
 30
0.0
 40
0
 41
0
  0
VERTEX
  8
0
 10
3.68001
 20
7.0146
 30
0.0
 40
0
 41
0
  0
VERTEX
  8
0
 10
3.68132
 20
7.0159
 30
0.0
 40
0
 41
0
  0
VERTEX
  8
0
 10
3.68147
 20
7.0159
 30
0.0
 40
0
 41
0
  0
SEQEND
 8
0
  0
POLYLINE
  8
0
 62
     33
 66
     1
 10
0
 20
0
 30
0.0
 70
     1
 40
0
 41
0
  0
VERTEX
  8
0
 10
3.69179
 20
6.90799
 30
0.0
 40
0
 41
0
  0
VERTEX
  8
0
 10
3.69293
 20
6.90799
 30
0.0
 40
0
 41
0
  0
VERTEX
  8
0
 10
3.6964
 20
6.90261
 30
0.0
 40
0
 41
0
  0
VERTEX
  8
0
 10
3.6964
 20
6.90076
 30
0.0
 40
0
 41
0
  0
VERTEX
  8
0
 10
3.6964
 20
6.89899
 30
0.0
 40
0
 41
0
  0
VERTEX
  8
0
 10
3.69293
 20
6.89356
 30
0.0
 40
0
 41
0
  0
VERTEX
  8
0
 10
3.69179
 20
6.89356
 30
0.0
 40
0
 41
0
  0
VERTEX
  8
0
 10
3.69065
 20
6.89356
 30
0.0
 40
0
 41
0
  0
VERTEX
  8
0
 10
3.68722
 20
6.89899
 30
0.0
 40
0
 41
0
  0
VERTEX
  8
0
 10
3.68722
 20
6.90076
 30
0.0
 40
0
 41
0
  0
VERTEX
  8
0
 10
3.68722
 20
6.90261
 30
0.0
 40
0
 41
0
  0
VERTEX
  8
0
 10
3.69065
 20
6.90799
 30
0.0
 40
0
 41
0
  0
VERTEX
  8
0
 10
3.69179
 20
6.90799
 30
0.0
 40
0
 41
0
  0
SEQEND
 8
0
  0
POLYLINE
  8
0
 62
     33
 66
     1
 10
0
 20
0
 30
0.0
 70
     1
 40
0
 41
0
  0
VERTEX
  8
0
 10
3.69911
 20
6.29601
 30
0.0
 40
0
 41
0
  0
VERTEX
  8
0
 10
3.69982
 20
6.29601
 30
0.0
 40
0
 41
0
  0
VERTEX
  8
0
 10
3.70188
 20
6.29313
 30
0.0
 40
0
 41
0
  0
VERTEX
  8
0
 10
3.70188
 20
6.29313
 30
0.0
 40
0
 41
0
  0
VERTEX
  8
0
 10
3.70101
 20
6.29281
 30
0.0
 40
0
 41
0
  0
VERTEX
  8
0
 10
3.69342
 20
6.29313
 30
0.0
 40
0
 41
0
  0
VERTEX
  8
0
 10
3.69303
 20
6.29351
 30
0.0
 40
0
 41
0
  0
VERTEX
  8
0
 10
3.69303
 20
6.29351
 30
0.0
 40
0
 41
0
  0
VERTEX
  8
0
 10
3.69786
 20
6.29606
 30
0.0
 40
0
 41
0
  0
VERTEX
  8
0
 10
3.69911
 20
6.29601
 30
0.0
 40
0
 41
0
  0
SEQEND
 8
0
  0
POLYLINE
  8
0
 62
     33
 66
     1
 10
0
 20
0
 30
0.0
 70
     1
 40
0
 41
0
  0
VERTEX
  8
0
 10
3.74924
 20
6.30029
 30
0.0
 40
0
 41
0
  0
VERTEX
  8
0
 10
3.75065
 20
6.30029
 30
0.0
 40
0
 41
0
  0
VERTEX
  8
0
 10
3.75489
 20
6.2979
 30
0.0
 40
0
 41
0
  0
VERTEX
  8
0
 10
3.75489
 20
6.2979
 30
0.0
 40
0
 41
0
  0
VERTEX
  8
0
 10
3.75375
 20
6.29764
 30
0.0
 40
0
 41
0
  0
VERTEX
  8
0
 10
3.74192
 20
6.29775
 30
0.0
 40
0
 41
0
  0
VERTEX
  8
0
 10
3.74115
 20
6.29807
 30
0.0
 40
0
 41
0
  0
VERTEX
  8
0
 10
3.74115
 20
6.29807
 30
0.0
 40
0
 41
0
  0
VERTEX
  8
0
 10
3.7474
 20
6.30035
 30
0.0
 40
0
 41
0
  0
VERTEX
  8
0
 10
3.74929
 20
6.30029
 30
0.0
 40
0
 41
0
  0
VERTEX
  8
0
 10
3.74924
 20
6.30029
 30
0.0
 40
0
 41
0
  0
SEQEND
 8
0
  0
POLYLINE
  8
0
 62
     33
 66
     1
 10
0
 20
0
 30
0.0
 70
     1
 40
0
 41
0
  0
VERTEX
  8
0
 10
3.77713
 20
7.0376
 30
0.0
 40
0
 41
0
  0
VERTEX
  8
0
 10
3.77783
 20
7.0376
 30
0.0
 40
0
 41
0
  0
VERTEX
  8
0
 10
3.77994
 20
7.03472
 30
0.0
 40
0
 41
0
  0
VERTEX
  8
0
 10
3.77994
 20
7.03472
 30
0.0
 40
0
 41
0
  0
VERTEX
  8
0
 10
3.77908
 20
7.0344
 30
0.0
 40
0
 41
0
  0
VERTEX
  8
0
 10
3.77149
 20
7.03472
 30
0.0
 40
0
 41
0
  0
VERTEX
  8
0
 10
3.77111
 20
7.0351
 30
0.0
 40
0
 41
0
  0
VERTEX
  8
0
 10
3.77111
 20
7.0351
 30
0.0
 40
0
 41
0
  0
VERTEX
  8
0
 10
3.77588
 20
7.03765
 30
0.0
 40
0
 41
0
  0
VERTEX
  8
0
 10
3.77713
 20
7.0376
 30
0.0
 40
0
 41
0
  0
SEQEND
 8
0
  0
POLYLINE
  8
0
 62
     33
 66
     1
 10
0
 20
0
 30
0.0
 70
     1
 40
0
 41
0
  0
VERTEX
  8
0
 10
3.78575
 20
7.42144
 30
0.0
 40
0
 41
0
  0
VERTEX
  8
0
 10
3.78662
 20
7.42285
 30
0.0
 40
0
 41
0
  0
VERTEX
  8
0
 10
3.79844
 20
7.43158
 30
0.0
 40
0
 41
0
  0
VERTEX
  8
0
 10
3.81597
 20
7.44049
 30
0.0
 40
0
 41
0
  0
VERTEX
  8
0
 10
3.81976
 20
7.44189
 30
0.0
 40
0
 41
0
  0
VERTEX
  8
0
 10
3.82547
 20
7.44412
 30
0.0
 40
0
 41
0
  0
VERTEX
  8
0
 10
3.84424
 20
7.44933
 30
0.0
 40
0
 41
0
  0
VERTEX
  8
0
 10
3.85661
 20
7.44781
 30
0.0
 40
0
 41
0
  0
VERTEX
  8
0
 10
3.85915
 20
7.44661
 30
0.0
 40
0
 41
0
  0
VERTEX
  8
0
 10
3.86285
 20
7.44482
 30
0.0
 40
0
 41
0
  0
VERTEX
  8
0
 10
3.87343
 20
7.42985
 30
0.0
 40
0
 41
0
  0
VERTEX
  8
0
 10
3.87201
 20
7.41114
 30
0.0
 40
0
 41
0
  0
VERTEX
  8
0
 10
3.86979
 20
7.4075
 30
0.0
 40
0
 41
0
  0
VERTEX
  8
0
 10
3.86828
 20
7.40511
 30
0.0
 40
0
 41
0
  0
VERTEX
  8
0
 10
3.85818
 20
7.39844
 30
0.0
 40
0
 41
0
  0
VERTEX
  8
0
 10
3.8374
 20
7.38775
 30
0.0
 40
0
 41
0
  0
VERTEX
  8
0
 10
3.81483
 20
7.37885
 30
0.0
 40
0
 41
0
  0
VERTEX
  8
0
 10
3.80225
 20
7.37511
 30
0.0
 40
0
 41
0
  0
VERTEX
  8
0
 10
3.79807
 20
7.37511
 30
0.0
 40
0
 41
0
  0
VERTEX
  8
0
 10
3.79676
 20
7.37511
 30
0.0
 40
0
 41
0
  0
VERTEX
  8
0
 10
3.79303
 20
7.37901
 30
0.0
 40
0
 41
0
  0
VERTEX
  8
0
 10
3.78674
 20
7.38824
 30
0.0
 40
0
 41
0
  0
VERTEX
  8
0
 10
3.78136
 20
7.39899
 30
0.0
 40
0
 41
0
  0
VERTEX
  8
0
 10
3.77908
 20
7.40539
 30
0.0
 40
0
 41
0
  0
VERTEX
  8
0
 10
3.77908
 20
7.4075
 30
0.0
 40
0
 41
0
  0
VERTEX
  8
0
 10
3.77908
 20
7.41103
 30
0.0
 40
0
 41
0
  0
VERTEX
  8
0
 10
3.78483
 20
7.42008
 30
0.0
 40
0
 41
0
  0
VERTEX
  8
0
 10
3.78575
 20
7.42144
 30
0.0
 40
0
 41
0
  0
SEQEND
 8
0
  0
POLYLINE
  8
0
 62
     33
 66
     1
 10
0
 20
0
 30
0.0
 70
     1
 40
0
 41
0
  0
VERTEX
  8
0
 10
3.89057
 20
7.82536
 30
0.0
 40
0
 41
0
  0
VERTEX
  8
0
 10
3.89464
 20
7.83501
 30
0.0
 40
0
 41
0
  0
VERTEX
  8
0
 10
3.91683
 20
7.87229
 30
0.0
 40
0
 41
0
  0
VERTEX
  8
0
 10
3.9464
 20
7.90201
 30
0.0
 40
0
 41
0
  0
VERTEX
  8
0
 10
3.95421
 20
7.90782
 30
0.0
 40
0
 41
0
  0
VERTEX
  8
0
 10
3.96636
 20
7.91689
 30
0.0
 40
0
 41
0
  0
VERTEX
  8
0
 10
4.00532
 20
7.94069
 30
0.0
 40
0
 41
0
  0
VERTEX
  8
0
 10
4.0524
 20
7.96061
 30
0.0
 40
0
 41
0
  0
VERTEX
  8
0
 10
4.09435
 20
7.96724
 30
0.0
 40
0
 41
0
  0
VERTEX
  8
0
 10
4.12181
 20
7.96376
 30
0.0
 40
0
 41
0
  0
VERTEX
  8
0
 10
4.12993
 20
7.96018
 30
0.0
 40
0
 41
0
  0
VERTEX
  8
0
 10
4.13683
 20
7.95719
 30
0.0
 40
0
 41
0
  0
VERTEX
  8
0
 10
4.16504
 20
7.95329
 30
0.0
 40
0
 41
0
  0
VERTEX
  8
0
 10
4.18815
 20
7.9649
 30
0.0
 40
0
 41
0
  0
VERTEX
  8
0
 10
4.19254
 20
7.96962
 30
0.0
 40
0
 41
0
  0
VERTEX
  8
0
 10
4.19607
 20
7.97347
 30
0.0
 40
0
 41
0
  0
VERTEX
  8
0
 10
4.20947
 20
7.98312
 30
0.0
 40
0
 41
0
  0
VERTEX
  8
0
 10
4.21571
 20
7.9784
 30
0.0
 40
0
 41
0
  0
VERTEX
  8
0
 10
4.21571
 20
7.97678
 30
0.0
 40
0
 41
0
  0
VERTEX
  8
0
 10
4.21571
 20
7.97456
 30
0.0
 40
0
 41
0
  0
VERTEX
  8
0
 10
4.21078
 20
7.96789
 30
0.0
 40
0
 41
0
  0
VERTEX
  8
0
 10
4.20117
 20
7.95546
 30
0.0
 40
0
 41
0
  0
VERTEX
  8
0
 10
4.19883
 20
7.95275
 30
0.0
 40
0
 41
0
  0
VERTEX
  8
0
 10
4.18201
 20
7.93321
 30
0.0
 40
0
 41
0
  0
VERTEX
  8
0
 10
4.2021
 20
7.91178
 30
0.0
 40
0
 41
0
  0
VERTEX
  8
0
 10
4.20486
 20
7.90886
 30
0.0
 40
0
 41
0
  0
VERTEX
  8
0
 10
4.21767
 20
7.89671
 30
0.0
 40
0
 41
0
  0
VERTEX
  8
0
 10
4.22467
 20
7.89035
 30
0.0
 40
0
 41
0
  0
VERTEX
  8
0
 10
4.227
 20
7.89035
 30
0.0
 40
0
 41
0
  0
VERTEX
  8
0
 10
4.22868
 20
7.8904
 30
0.0
 40
0
 41
0
  0
VERTEX
  8
0
 10
4.24214
 20
7.90733
 30
0.0
 40
0
 41
0
  0
VERTEX
  8
0
 10
4.257
 20
7.93778
 30
0.0
 40
0
 41
0
  0
VERTEX
  8
0
 10
4.25944
 20
7.9445
 30
0.0
 40
0
 41
0
  0
VERTEX
  8
0
 10
4.26064
 20
7.94803
 30
0.0
 40
0
 41
0
  0
VERTEX
  8
0
 10
4.26574
 20
7.95801
 30
0.0
 40
0
 41
0
  0
VERTEX
  8
0
 10
4.27246
 20
7.96631
 30
0.0
 40
0
 41
0
  0
VERTEX
  8
0
 10
4.27783
 20
7.96789
 30
0.0
 40
0
 41
0
  0
VERTEX
  8
0
 10
4.28006
 20
7.963
 30
0.0
 40
0
 41
0
  0
VERTEX
  8
0
 10
4.28006
 20
7.96132
 30
0.0
 40
0
 41
0
  0
VERTEX
  8
0
 10
4.28006
 20
7.95774
 30
0.0
 40
0
 41
0
  0
VERTEX
  8
0
 10
4.27696
 20
7.94689
 30
0.0
 40
0
 41
0
  0
VERTEX
  8
0
 10
4.26937
 20
7.9254
 30
0.0
 40
0
 41
0
  0
VERTEX
  8
0
 10
4.25971
 20
7.9031
 30
0.0
 40
0
 41
0
  0
VERTEX
  8
0
 10
4.2531
 20
7.89008
 30
0.0
 40
0
 41
0
  0
VERTEX
  8
0
 10
4.25038
 20
7.88607
 30
0.0
 40
0
 41
0
  0
VERTEX
  8
0
 10
4.24778
 20
7.88226
 30
0.0
 40
0
 41
0
  0
VERTEX
  8
0
 10
4.24169
 20
7.86974
 30
0.0
 40
0
 41
0
  0
VERTEX
  8
0
 10
4.24507
 20
7.85851
 30
0.0
 40
0
 41
0
  0
VERTEX
  8
0
 10
4.2469
 20
7.85514
 30
0.0
 40
0
 41
0
  0
VERTEX
  8
0
 10
4.24799
 20
7.85319
 30
0.0
 40
0
 41
0
  0
VERTEX
  8
0
 10
4.25629
 20
7.84099
 30
0.0
 40
0
 41
0
  0
VERTEX
  8
0
 10
4.26611
 20
7.82878
 30
0.0
 40
0
 41
0
  0
VERTEX
  8
0
 10
4.26796
 20
7.82682
 30
0.0
 40
0
 41
0
  0
VERTEX
  8
0
 10
4.26997
 20
7.82471
 30
0.0
 40
0
 41
0
  0
VERTEX
  8
0
 10
4.2755
 20
7.81765
 30
0.0
 40
0
 41
0
  0
VERTEX
  8
0
 10
4.27983
 20
7.80621
 30
0.0
 40
0
 41
0
  0
VERTEX
  8
0
 10
4.28239
 20
7.78629
 30
0.0
 40
0
 41
0
  0
VERTEX
  8
0
 10
4.28401
 20
7.76031
 30
0.0
 40
0
 41
0
  0
VERTEX
  8
0
 10
4.2845
 20
7.75163
 30
0.0
 40
0
 41
0
  0
VERTEX
  8
0
 10
4.28782
 20
7.69049
 30
0.0
 40
0
 41
0
  0
VERTEX
  8
0
 10
4.27072
 20
7.64133
 30
0.0
 40
0
 41
0
  0
VERTEX
  8
0
 10
4.26839
 20
7.6346
 30
0.0
 40
0
 41
0
  0
VERTEX
  8
0
 10
4.25412
 20
7.59868
 30
0.0
 40
0
 41
0
  0
VERTEX
  8
0
 10
4.24024
 20
7.56874
 30
0.0
 40
0
 41
0
  0
VERTEX
  8
0
 10
4.23812
 20
7.565
 30
0.0
 40
0
 41
0
  0
VERTEX
  8
0
 10
4.234
 20
7.55794
 30
0.0
 40
0
 41
0
  0
VERTEX
  8
0
 10
4.21962
 20
7.53787
 30
0.0
 40
0
 41
0
  0
VERTEX
  8
0
 10
4.19738
 20
7.51215
 30
0.0
 40
0
 41
0
  0
VERTEX
  8
0
 10
4.17503
 20
7.49169
 30
0.0
 40
0
 41
0
  0
VERTEX
  8
0
 10
4.16135
 20
7.48215
 30
0.0
 40
0
 41
0
  0
VERTEX
  8
0
 10
4.15631
 20
7.48036
 30
0.0
 40
0
 41
0
  0
VERTEX
  8
0
 10
4.15256
 20
7.47906
 30
0.0
 40
0
 41
0
  0
VERTEX
  8
0
 10
4.11697
 20
7.47537
 30
0.0
 40
0
 41
0
  0
VERTEX
  8
0
 10
4.05994
 20
7.47542
 30
0.0
 40
0
 41
0
  0
VERTEX
  8
0
 10
4.04551
 20
7.47601
 30
0.0
 40
0
 41
0
  0
VERTEX
  8
0
 10
4.03847
 20
7.47635
 30
0.0
 40
0
 41
0
  0
VERTEX
  8
0
 10
4.01758
 20
7.48383
 30
0.0
 40
0
 41
0
  0
VERTEX
  8
0
 10
3.98606
 20
7.50179
 30
0.0
 40
0
 41
0
  0
VERTEX
  8
0
 10
3.95828
 20
7.52485
 30
0.0
 40
0
 41
0
  0
VERTEX
  8
0
 10
3.94422
 20
7.5415
 30
0.0
 40
0
 41
0
  0
VERTEX
  8
0
 10
3.94168
 20
7.54785
 30
0.0
 40
0
 41
0
  0
VERTEX
  8
0
 10
3.93989
 20
7.55231
 30
0.0
 40
0
 41
0
  0
VERTEX
  8
0
 10
3.93565
 20
7.56608
 30
0.0
 40
0
 41
0
  0
VERTEX
  8
0
 10
3.94249
 20
7.56222
 30
0.0
 40
0
 41
0
  0
VERTEX
  8
0
 10
3.94433
 20
7.56049
 30
0.0
 40
0
 41
0
  0
VERTEX
  8
0
 10
3.9459
 20
7.55903
 30
0.0
 40
0
 41
0
  0
VERTEX
  8
0
 10
3.95335
 20
7.55729
 30
0.0
 40
0
 41
0
  0
VERTEX
  8
0
 10
3.95047
 20
7.5695
 30
0.0
 40
0
 41
0
  0
VERTEX
  8
0
 10
3.94868
 20
7.57308
 30
0.0
 40
0
 41
0
  0
VERTEX
  8
0
 10
3.94781
 20
7.57471
 30
0.0
 40
0
 41
0
  0
VERTEX
  8
0
 10
3.93647
 20
7.58024
 30
0.0
 40
0
 41
0
  0
VERTEX
  8
0
 10
3.935
 20
7.57969
 30
0.0
 40
0
 41
0
  0
VERTEX
  8
0
 10
3.93332
 20
7.57915
 30
0.0
 40
0
 41
0
  0
VERTEX
  8
0
 10
3.92746
 20
7.58018
 30
0.0
 40
0
 41
0
  0
VERTEX
  8
0
 10
3.92404
 20
7.58772
 30
0.0
 40
0
 41
0
  0
VERTEX
  8
0
 10
3.92356
 20
7.59033
 30
0.0
 40
0
 41
0
  0
VERTEX
  8
0
 10
3.92318
 20
7.59224
 30
0.0
 40
0
 41
0
  0
VERTEX
  8
0
 10
3.91499
 20
7.61501
 30
0.0
 40
0
 41
0
  0
VERTEX
  8
0
 10
3.91407
 20
7.61681
 30
0.0
 40
0
 41
0
  0
VERTEX
  8
0
 10
3.90881
 20
7.62696
 30
0.0
 40
0
 41
0
  0
VERTEX
  8
0
 10
3.89085
 20
7.67806
 30
0.0
 40
0
 41
0
  0
VERTEX
  8
0
 10
3.88243
 20
7.73519
 30
0.0
 40
0
 41
0
  0
VERTEX
  8
0
 10
3.882
 20
7.74826
 30
0.0
 40
0
 41
0
  0
VERTEX
  8
0
 10
3.88172
 20
7.75549
 30
0.0
 40
0
 41
0
  0
VERTEX
  8
0
 10
3.88135
 20
7.77713
 30
0.0
 40
0
 41
0
  0
VERTEX
  8
0
 10
3.88217
 20
7.79644
 30
0.0
 40
0
 41
0
  0
VERTEX
  8
0
 10
3.88504
 20
7.81093
 30
0.0
 40
0
 41
0
  0
VERTEX
  8
0
 10
3.88894
 20
7.82183
 30
0.0
 40
0
 41
0
  0
VERTEX
  8
0
 10
3.89046
 20
7.82536
 30
0.0
 40
0
 41
0
  0
VERTEX
  8
0
 10
3.89057
 20
7.82536
 30
0.0
 40
0
 41
0
  0
SEQEND
 8
0
  0
POLYLINE
  8
0
 62
     33
 66
     1
 10
0
 20
0
 30
0.0
 70
     1
 40
0
 41
0
  0
VERTEX
  8
0
 10
3.9075
 20
7.69233
 30
0.0
 40
0
 41
0
  0
VERTEX
  8
0
 10
3.91183
 20
7.68544
 30
0.0
 40
0
 41
0
  0
VERTEX
  8
0
 10
3.92899
 20
7.66715
 30
0.0
 40
0
 41
0
  0
VERTEX
  8
0
 10
3.95632
 20
7.64844
 30
0.0
 40
0
 41
0
  0
VERTEX
  8
0
 10
3.98654
 20
7.63775
 30
0.0
 40
0
 41
0
  0
VERTEX
  8
0
 10
4.00933
 20
7.63553
 30
0.0
 40
0
 41
0
  0
VERTEX
  8
0
 10
4.01671
 20
7.6365
 30
0.0
 40
0
 41
0
  0
VERTEX
  8
0
 10
4.02681
 20
7.63792
 30
0.0
 40
0
 41
0
  0
VERTEX
  8
0
 10
4.07443
 20
7.6466
 30
0.0
 40
0
 41
0
  0
VERTEX
  8
0
 10
4.1091
 20
7.65576
 30
0.0
 40
0
 41
0
  0
VERTEX
  8
0
 10
4.11279
 20
7.65733
 30
0.0
 40
0
 41
0
  0
VERTEX
  8
0
 10
4.11893
 20
7.66004
 30
0.0
 40
0
 41
0
  0
VERTEX
  8
0
 10
4.13743
 20
7.67399
 30
0.0
 40
0
 41
0
  0
VERTEX
  8
0
 10
4.16857
 20
7.70171
 30
0.0
 40
0
 41
0
  0
VERTEX
  8
0
 10
4.19689
 20
7.73172
 30
0.0
 40
0
 41
0
  0
VERTEX
  8
0
 10
4.21078
 20
7.74929
 30
0.0
 40
0
 41
0
  0
VERTEX
  8
0
 10
4.21322
 20
7.75493
 30
0.0
 40
0
 41
0
  0
VERTEX
  8
0
 10
4.21436
 20
7.75765
 30
0.0
 40
0
 41
0
  0
VERTEX
  8
0
 10
4.22179
 20
7.76969
 30
0.0
 40
0
 41
0
  0
VERTEX
  8
0
 10
4.22928
 20
7.77713
 30
0.0
 40
0
 41
0
  0
VERTEX
  8
0
 10
4.23053
 20
7.7775
 30
0.0
 40
0
 41
0
  0
VERTEX
  8
0
 10
4.23172
 20
7.77794
 30
0.0
 40
0
 41
0
  0
VERTEX
  8
0
 10
4.23882
 20
7.78418
 30
0.0
 40
0
 41
0
  0
VERTEX
  8
0
 10
4.2455
 20
7.794
 30
0.0
 40
0
 41
0
  0
VERTEX
  8
0
 10
4.24653
 20
7.79611
 30
0.0
 40
0
 41
0
  0
VERTEX
  8
0
 10
4.24799
 20
7.79937
 30
0.0
 40
0
 41
0
  0
VERTEX
  8
0
 10
4.2506
 20
7.80994
 30
0.0
 40
0
 41
0
  0
VERTEX
  8
0
 10
4.24625
 20
7.82547
 30
0.0
 40
0
 41
0
  0
VERTEX
  8
0
 10
4.22944
 20
7.85037
 30
0.0
 40
0
 41
0
  0
VERTEX
  8
0
 10
4.20469
 20
7.88183
 30
0.0
 40
0
 41
0
  0
VERTEX
  8
0
 10
4.19635
 20
7.89219
 30
0.0
 40
0
 41
0
  0
VERTEX
  8
0
 10
4.15158
 20
7.94764
 30
0.0
 40
0
 41
0
  0
VERTEX
  8
0
 10
4.12517
 20
7.94911
 30
0.0
 40
0
 41
0
  0
VERTEX
  8
0
 10
4.11481
 20
7.94971
 30
0.0
 40
0
 41
0
  0
VERTEX
  8
0
 10
4.06988
 20
7.94515
 30
0.0
 40
0
 41
0
  0
VERTEX
  8
0
 10
4.02512
 20
7.92871
 30
0.0
 40
0
 41
0
  0
VERTEX
  8
0
 10
4.01492
 20
7.92333
 30
0.0
 40
0
 41
0
  0
VERTEX
  8
0
 10
4.00379
 20
7.91754
 30
0.0
 40
0
 41
0
  0
VERTEX
  8
0
 10
3.97233
 20
7.89649
 30
0.0
 40
0
 41
0
  0
VERTEX
  8
0
 10
3.93772
 20
7.86529
 30
0.0
 40
0
 41
0
  0
VERTEX
  8
0
 10
3.9126
 20
7.83138
 30
0.0
 40
0
 41
0
  0
VERTEX
  8
0
 10
3.90056
 20
7.8055
 30
0.0
 40
0
 41
0
  0
VERTEX
  8
0
 10
3.89844
 20
7.79644
 30
0.0
 40
0
 41
0
  0
VERTEX
  8
0
 10
3.89794
 20
7.79449
 30
0.0
 40
0
 41
0
  0
VERTEX
  8
0
 10
3.89589
 20
7.77626
 30
0.0
 40
0
 41
0
  0
VERTEX
  8
0
 10
3.89469
 20
7.75265
 30
0.0
 40
0
 41
0
  0
VERTEX
  8
0
 10
3.89464
 20
7.74794
 30
0.0
 40
0
 41
0
  0
VERTEX
  8
0
 10
3.89453
 20
7.7404
 30
0.0
 40
0
 41
0
  0
VERTEX
  8
0
 10
3.89649
 20
7.71599
 30
0.0
 40
0
 41
0
  0
VERTEX
  8
0
 10
3.90468
 20
7.6971
 30
0.0
 40
0
 41
0
  0
VERTEX
  8
0
 10
3.90771
 20
7.69233
 30
0.0
 40
0
 41
0
  0
VERTEX
  8
0
 10
3.9075
 20
7.69233
 30
0.0
 40
0
 41
0
  0
SEQEND
 8
0
  0
POLYLINE
  8
0
 62
     33
 66
     1
 10
0
 20
0
 30
0.0
 70
     1
 40
0
 41
0
  0
VERTEX
  8
0
 10
4.07878
 20
7.61019
 30
0.0
 40
0
 41
0
  0
VERTEX
  8
0
 10
4.07954
 20
7.611
 30
0.0
 40
0
 41
0
  0
VERTEX
  8
0
 10
4.07949
 20
7.61589
 30
0.0
 40
0
 41
0
  0
VERTEX
  8
0
 10
4.07949
 20
7.61589
 30
0.0
 40
0
 41
0
  0
VERTEX
  8
0
 10
4.07753
 20
7.61589
 30
0.0
 40
0
 41
0
  0
VERTEX
  8
0
 10
4.07172
 20
7.61263
 30
0.0
 40
0
 41
0
  0
VERTEX
  8
0
 10
4.07032
 20
7.60758
 30
0.0
 40
0
 41
0
  0
VERTEX
  8
0
 10
4.07096
 20
7.60693
 30
0.0
 40
0
 41
0
  0
VERTEX
  8
0
 10
4.07129
 20
7.60661
 30
0.0
 40
0
 41
0
  0
VERTEX
  8
0
 10
4.07801
 20
7.60943
 30
0.0
 40
0
 41
0
  0
VERTEX
  8
0
 10
4.07878
 20
7.61019
 30
0.0
 40
0
 41
0
  0
SEQEND
 8
0
  0
POLYLINE
  8
0
 62
     33
 66
     1
 10
0
 20
0
 30
0.0
 70
     1
 40
0
 41
0
  0
VERTEX
  8
0
 10
4.10314
 20
7.50489
 30
0.0
 40
0
 41
0
  0
VERTEX
  8
0
 10
4.10482
 20
7.50146
 30
0.0
 40
0
 41
0
  0
VERTEX
  8
0
 10
4.11469
 20
7.49354
 30
0.0
 40
0
 41
0
  0
VERTEX
  8
0
 10
4.13037
 20
7.49169
 30
0.0
 40
0
 41
0
  0
VERTEX
  8
0
 10
4.14567
 20
7.49854
 30
0.0
 40
0
 41
0
  0
VERTEX
  8
0
 10
4.15479
 20
7.50933
 30
0.0
 40
0
 41
0
  0
VERTEX
  8
0
 10
4.15631
 20
7.51346
 30
0.0
 40
0
 41
0
  0
VERTEX
  8
0
 10
4.15804
 20
7.51824
 30
0.0
 40
0
 41
0
  0
VERTEX
  8
0
 10
4.16249
 20
7.53276
 30
0.0
 40
0
 41
0
  0
VERTEX
  8
0
 10
4.16342
 20
7.54574
 30
0.0
 40
0
 41
0
  0
VERTEX
  8
0
 10
4.15842
 20
7.55593
 30
0.0
 40
0
 41
0
  0
VERTEX
  8
0
 10
4.14996
 20
7.5644
 30
0.0
 40
0
 41
0
  0
VERTEX
  8
0
 10
4.14692
 20
7.56694
 30
0.0
 40
0
 41
0
  0
VERTEX
  8
0
 10
4.12804
 20
7.58285
 30
0.0
 40
0
 41
0
  0
VERTEX
  8
0
 10
4.11203
 20
7.56614
 30
0.0
 40
0
 41
0
  0
VERTEX
  8
0
 10
4.10753
 20
7.56147
 30
0.0
 40
0
 41
0
  0
VERTEX
  8
0
 10
4.0964
 20
7.53737
 30
0.0
 40
0
 41
0
  0
VERTEX
  8
0
 10
4.1001
 20
7.51085
 30
0.0
 40
0
 41
0
  0
VERTEX
  8
0
 10
4.10308
 20
7.50489
 30
0.0
 40
0
 41
0
  0
VERTEX
  8
0
 10
4.10314
 20
7.50489
 30
0.0
 40
0
 41
0
  0
SEQEND
 8
0
  0
POLYLINE
  8
0
 62
     33
 66
     1
 10
0
 20
0
 30
0.0
 70
     1
 40
0
 41
0
  0
VERTEX
  8
0
 10
3.96707
 20
6.81407
 30
0.0
 40
0
 41
0
  0
VERTEX
  8
0
 10
3.96756
 20
6.81608
 30
0.0
 40
0
 41
0
  0
VERTEX
  8
0
 10
3.97521
 20
6.83686
 30
0.0
 40
0
 41
0
  0
VERTEX
  8
0
 10
3.97597
 20
6.83817
 30
0.0
 40
0
 41
0
  0
VERTEX
  8
0
 10
3.97667
 20
6.83951
 30
0.0
 40
0
 41
0
  0
VERTEX
  8
0
 10
3.9854
 20
6.85981
 30
0.0
 40
0
 41
0
  0
VERTEX
  8
0
 10
3.98606
 20
6.86171
 30
0.0
 40
0
 41
0
  0
VERTEX
  8
0
 10
3.98699
 20
6.86458
 30
0.0
 40
0
 41
0
  0
VERTEX
  8
0
 10
3.99083
 20
6.87278
 30
0.0
 40
0
 41
0
  0
VERTEX
  8
0
 10
3.99317
 20
6.87224
 30
0.0
 40
0
 41
0
  0
VERTEX
  8
0
 10
3.99262
 20
6.86219
 30
0.0
 40
0
 41
0
  0
VERTEX
  8
0
 10
3.99001
 20
6.84901
 30
0.0
 40
0
 41
0
  0
VERTEX
  8
0
 10
3.98888
 20
6.84467
 30
0.0
 40
0
 41
0
  0
VERTEX
  8
0
 10
3.9879
 20
6.84115
 30
0.0
 40
0
 41
0
  0
VERTEX
  8
0
 10
3.98313
 20
6.81694
 30
0.0
 40
0
 41
0
  0
VERTEX
  8
0
 10
3.97944
 20
6.7909
 30
0.0
 40
0
 41
0
  0
VERTEX
  8
0
 10
3.97906
 20
6.7864
 30
0.0
 40
0
 41
0
  0
VERTEX
  8
0
 10
3.97863
 20
6.78196
 30
0.0
 40
0
 41
0
  0
VERTEX
  8
0
 10
3.97564
 20
6.76346
 30
0.0
 40
0
 41
0
  0
VERTEX
  8
0
 10
3.97271
 20
6.75385
 30
0.0
 40
0
 41
0
  0
VERTEX
  8
0
 10
3.97179
 20
6.75385
 30
0.0
 40
0
 41
0
  0
VERTEX
  8
0
 10
3.97071
 20
6.75385
 30
0.0
 40
0
 41
0
  0
VERTEX
  8
0
 10
3.96756
 20
6.76069
 30
0.0
 40
0
 41
0
  0
VERTEX
  8
0
 10
3.96756
 20
6.76292
 30
0.0
 40
0
 41
0
  0
VERTEX
  8
0
 10
3.96756
 20
6.76867
 30
0.0
 40
0
 41
0
  0
VERTEX
  8
0
 10
3.96588
 20
6.78386
 30
0.0
 40
0
 41
0
  0
VERTEX
  8
0
 10
3.9656
 20
6.78575
 30
0.0
 40
0
 41
0
  0
VERTEX
  8
0
 10
3.96528
 20
6.78771
 30
0.0
 40
0
 41
0
  0
VERTEX
  8
0
 10
3.96658
 20
6.81212
 30
0.0
 40
0
 41
0
  0
VERTEX
  8
0
 10
3.96707
 20
6.81407
 30
0.0
 40
0
 41
0
  0
SEQEND
 8
0
  0
POLYLINE
  8
0
 62
     33
 66
     1
 10
0
 20
0
 30
0.0
 70
     1
 40
0
 41
0
  0
VERTEX
  8
0
 10
3.98019
 20
6.70074
 30
0.0
 40
0
 41
0
  0
VERTEX
  8
0
 10
3.98063
 20
6.70074
 30
0.0
 40
0
 41
0
  0
VERTEX
  8
0
 10
3.99354
 20
6.69467
 30
0.0
 40
0
 41
0
  0
VERTEX
  8
0
 10
3.99511
 20
6.69368
 30
0.0
 40
0
 41
0
  0
VERTEX
  8
0
 10
3.99886
 20
6.69146
 30
0.0
 40
0
 41
0
  0
VERTEX
  8
0
 10
4.02083
 20
6.68696
 30
0.0
 40
0
 41
0
  0
VERTEX
  8
0
 10
4.04085
 20
6.69129
 30
0.0
 40
0
 41
0
  0
VERTEX
  8
0
 10
4.04368
 20
6.69353
 30
0.0
 40
0
 41
0
  0
VERTEX
  8
0
 10
4.04622
 20
6.69558
 30
0.0
 40
0
 41
0
  0
VERTEX
  8
0
 10
4.05583
 20
6.70053
 30
0.0
 40
0
 41
0
  0
VERTEX
  8
0
 10
4.05757
 20
6.69672
 30
0.0
 40
0
 41
0
  0
VERTEX
  8
0
 10
4.05718
 20
6.69601
 30
0.0
 40
0
 41
0
  0
VERTEX
  8
0
 10
4.0561
 20
6.69422
 30
0.0
 40
0
 41
0
  0
VERTEX
  8
0
 10
4.04981
 20
6.68994
 30
0.0
 40
0
 41
0
  0
VERTEX
  8
0
 10
4.03683
 20
6.68371
 30
0.0
 40
0
 41
0
  0
VERTEX
  8
0
 10
4.02208
 20
6.67882
 30
0.0
 40
0
 41
0
  0
VERTEX
  8
0
 10
4.01253
 20
6.67681
 30
0.0
 40
0
 41
0
  0
VERTEX
  8
0
 10
4.00939
 20
6.67681
 30
0.0
 40
0
 41
0
  0
VERTEX
  8
0
 10
4.00407
 20
6.67681
 30
0.0
 40
0
 41
0
  0
VERTEX
  8
0
 10
3.98822
 20
6.68371
 30
0.0
 40
0
 41
0
  0
VERTEX
  8
0
 10
3.97672
 20
6.69319
 30
0.0
 40
0
 41
0
  0
VERTEX
  8
0
 10
3.97672
 20
6.69635
 30
0.0
 40
0
 41
0
  0
VERTEX
  8
0
 10
3.97672
 20
6.69749
 30
0.0
 40
0
 41
0
  0
VERTEX
  8
0
 10
3.97971
 20
6.70079
 30
0.0
 40
0
 41
0
  0
VERTEX
  8
0
 10
3.98019
 20
6.70074
 30
0.0
 40
0
 41
0
  0
SEQEND
 8
0
  0
POLYLINE
  8
0
 62
     33
 66
     1
 10
0
 20
0
 30
0.0
 70
     1
 40
0
 41
0
  0
VERTEX
  8
0
 10
4.03624
 20
6.29639
 30
0.0
 40
0
 41
0
  0
VERTEX
  8
0
 10
4.04124
 20
6.29639
 30
0.0
 40
0
 41
0
  0
VERTEX
  8
0
 10
4.05632
 20
6.29497
 30
0.0
 40
0
 41
0
  0
VERTEX
  8
0
 10
4.06597
 20
6.29226
 30
0.0
 40
0
 41
0
  0
VERTEX
  8
0
 10
4.0664
 20
6.29161
 30
0.0
 40
0
 41
0
  0
VERTEX
  8
0
 10
4.0664
 20
6.29161
 30
0.0
 40
0
 41
0
  0
VERTEX
  8
0
 10
4.06049
 20
6.28808
 30
0.0
 40
0
 41
0
  0
VERTEX
  8
0
 10
4.04443
 20
6.28678
 30
0.0
 40
0
 41
0
  0
VERTEX
  8
0
 10
4.03911
 20
6.28678
 30
0.0
 40
0
 41
0
  0
VERTEX
  8
0
 10
4.03375
 20
6.28678
 30
0.0
 40
0
 41
0
  0
VERTEX
  8
0
 10
4.01764
 20
6.28819
 30
0.0
 40
0
 41
0
  0
VERTEX
  8
0
 10
4.00896
 20
6.29081
 30
0.0
 40
0
 41
0
  0
VERTEX
  8
0
 10
4.00896
 20
6.29161
 30
0.0
 40
0
 41
0
  0
VERTEX
  8
0
 10
4.00896
 20
6.29249
 30
0.0
 40
0
 41
0
  0
VERTEX
  8
0
 10
4.01687
 20
6.29503
 30
0.0
 40
0
 41
0
  0
VERTEX
  8
0
 10
4.03136
 20
6.29639
 30
0.0
 40
0
 41
0
  0
VERTEX
  8
0
 10
4.03624
 20
6.29639
 30
0.0
 40
0
 41
0
  0
SEQEND
 8
0
  0
POLYLINE
  8
0
 62
     33
 66
     1
 10
0
 20
0
 30
0.0
 70
     1
 40
0
 41
0
  0
VERTEX
  8
0
 10
4.06717
 20
8.27561
 30
0.0
 40
0
 41
0
  0
VERTEX
  8
0
 10
4.06944
 20
8.27794
 30
0.0
 40
0
 41
0
  0
VERTEX
  8
0
 10
4.07844
 20
8.28608
 30
0.0
 40
0
 41
0
  0
VERTEX
  8
0
 10
4.08208
 20
8.2876
 30
0.0
 40
0
 41
0
  0
VERTEX
  8
0
 10
4.08208
 20
8.2876
 30
0.0
 40
0
 41
0
  0
VERTEX
  8
0
 10
4.08182
 20
8.28694
 30
0.0
 40
0
 41
0
  0
VERTEX
  8
0
 10
4.07824
 20
8.2775
 30
0.0
 40
0
 41
0
  0
VERTEX
  8
0
 10
4.07281
 20
8.26307
 30
0.0
 40
0
 41
0
  0
VERTEX
  8
0
 10
4.07161
 20
8.25993
 30
0.0
 40
0
 41
0
  0
VERTEX
  8
0
 10
4.07015
 20
8.25618
 30
0.0
 40
0
 41
0
  0
VERTEX
  8
0
 10
4.06446
 20
8.24539
 30
0.0
 40
0
 41
0
  0
VERTEX
  8
0
 10
4.05757
 20
8.23796
 30
0.0
 40
0
 41
0
  0
VERTEX
  8
0
 10
4.0524
 20
8.23856
 30
0.0
 40
0
 41
0
  0
VERTEX
  8
0
 10
4.05046
 20
8.24561
 30
0.0
 40
0
 41
0
  0
VERTEX
  8
0
 10
4.05046
 20
8.24789
 30
0.0
 40
0
 41
0
  0
VERTEX
  8
0
 10
4.05046
 20
8.25103
 30
0.0
 40
0
 41
0
  0
VERTEX
  8
0
 10
4.05528
 20
8.26047
 30
0.0
 40
0
 41
0
  0
VERTEX
  8
0
 10
4.06483
 20
8.27322
 30
0.0
 40
0
 41
0
  0
VERTEX
  8
0
 10
4.06722
 20
8.27561
 30
0.0
 40
0
 41
0
  0
VERTEX
  8
0
 10
4.06717
 20
8.27561
 30
0.0
 40
0
 41
0
  0
SEQEND
 8
0
  0
POLYLINE
  8
0
 62
     33
 66
     1
 10
0
 20
0
 30
0.0
 70
     1
 40
0
 41
0
  0
VERTEX
  8
0
 10
4.12278
 20
8.34532
 30
0.0
 40
0
 41
0
  0
VERTEX
  8
0
 10
4.12451
 20
8.34706
 30
0.0
 40
0
 41
0
  0
VERTEX
  8
0
 10
4.13781
 20
8.35926
 30
0.0
 40
0
 41
0
  0
VERTEX
  8
0
 10
4.15332
 20
8.37289
 30
0.0
 40
0
 41
0
  0
VERTEX
  8
0
 10
4.15619
 20
8.37528
 30
0.0
 40
0
 41
0
  0
VERTEX
  8
0
 10
4.15901
 20
8.37771
 30
0.0
 40
0
 41
0
  0
VERTEX
  8
0
 10
4.17458
 20
8.39324
 30
0.0
 40
0
 41
0
  0
VERTEX
  8
0
 10
4.18793
 20
8.40907
 30
0.0
 40
0
 41
0
  0
VERTEX
  8
0
 10
4.18972
 20
8.41163
 30
0.0
 40
0
 41
0
  0
VERTEX
  8
0
 10
4.19319
 20
8.41683
 30
0.0
 40
0
 41
0
  0
VERTEX
  8
0
 10
4.20931
 20
8.42854
 30
0.0
 40
0
 41
0
  0
VERTEX
  8
0
 10
4.21924
 20
8.41792
 30
0.0
 40
0
 41
0
  0
VERTEX
  8
0
 10
4.21967
 20
8.41401
 30
0.0
 40
0
 41
0
  0
VERTEX
  8
0
 10
4.21983
 20
8.41222
 30
0.0
 40
0
 41
0
  0
VERTEX
  8
0
 10
4.21778
 20
8.40076
 30
0.0
 40
0
 41
0
  0
VERTEX
  8
0
 10
4.21712
 20
8.40076
 30
0.0
 40
0
 41
0
  0
VERTEX
  8
0
 10
4.21485
 20
8.40076
 30
0.0
 40
0
 41
0
  0
VERTEX
  8
0
 10
4.20801
 20
8.39469
 30
0.0
 40
0
 41
0
  0
VERTEX
  8
0
 10
4.19476
 20
8.38292
 30
0.0
 40
0
 41
0
  0
VERTEX
  8
0
 10
4.19185
 20
8.38004
 30
0.0
 40
0
 41
0
  0
VERTEX
  8
0
 10
4.18892
 20
8.37722
 30
0.0
 40
0
 41
0
  0
VERTEX
  8
0
 10
4.17165
 20
8.36268
 30
0.0
 40
0
 41
0
  0
VERTEX
  8
0
 10
4.15549
 20
8.35135
 30
0.0
 40
0
 41
0
  0
VERTEX
  8
0
 10
4.1531
 20
8.35004
 30
0.0
 40
0
 41
0
  0
VERTEX
  8
0
 10
4.15067
 20
8.34879
 30
0.0
 40
0
 41
0
  0
VERTEX
  8
0
 10
4.13693
 20
8.34
 30
0.0
 40
0
 41
0
  0
VERTEX
  8
0
 10
4.12462
 20
8.33051
 30
0.0
 40
0
 41
0
  0
VERTEX
  8
0
 10
4.12294
 20
8.32889
 30
0.0
 40
0
 41
0
  0
VERTEX
  8
0
 10
4.12056
 20
8.32671
 30
0.0
 40
0
 41
0
  0
VERTEX
  8
0
 10
4.11274
 20
8.32101
 30
0.0
 40
0
 41
0
  0
VERTEX
  8
0
 10
4.11025
 20
8.32406
 30
0.0
 40
0
 41
0
  0
VERTEX
  8
0
 10
4.11025
 20
8.32503
 30
0.0
 40
0
 41
0
  0
VERTEX
  8
0
 10
4.11025
 20
8.32736
 30
0.0
 40
0
 41
0
  0
VERTEX
  8
0
 10
4.11393
 20
8.33431
 30
0.0
 40
0
 41
0
  0
VERTEX
  8
0
 10
4.12115
 20
8.34364
 30
0.0
 40
0
 41
0
  0
VERTEX
  8
0
 10
4.12294
 20
8.34532
 30
0.0
 40
0
 41
0
  0
VERTEX
  8
0
 10
4.12278
 20
8.34532
 30
0.0
 40
0
 41
0
  0
SEQEND
 8
0
  0
POLYLINE
  8
0
 62
     33
 66
     1
 10
0
 20
0
 30
0.0
 70
     1
 40
0
 41
0
  0
VERTEX
  8
0
 10
4.19293
 20
8.095
 30
0.0
 40
0
 41
0
  0
VERTEX
  8
0
 10
4.19353
 20
8.09538
 30
0.0
 40
0
 41
0
  0
VERTEX
  8
0
 10
4.19754
 20
8.09375
 30
0.0
 40
0
 41
0
  0
VERTEX
  8
0
 10
4.19754
 20
8.09315
 30
0.0
 40
0
 41
0
  0
VERTEX
  8
0
 10
4.19754
 20
8.09125
 30
0.0
 40
0
 41
0
  0
VERTEX
  8
0
 10
4.19353
 20
8.08583
 30
0.0
 40
0
 41
0
  0
VERTEX
  8
0
 10
4.19293
 20
8.08539
 30
0.0
 40
0
 41
0
  0
VERTEX
  8
0
 10
4.19233
 20
8.08501
 30
0.0
 40
0
 41
0
  0
VERTEX
  8
0
 10
4.18832
 20
8.08669
 30
0.0
 40
0
 41
0
  0
VERTEX
  8
0
 10
4.18832
 20
8.08724
 30
0.0
 40
0
 41
0
  0
VERTEX
  8
0
 10
4.18832
 20
8.08919
 30
0.0
 40
0
 41
0
  0
VERTEX
  8
0
 10
4.19228
 20
8.09462
 30
0.0
 40
0
 41
0
  0
VERTEX
  8
0
 10
4.19293
 20
8.095
 30
0.0
 40
0
 41
0
  0
SEQEND
 8
0
  0
POLYLINE
  8
0
 62
     33
 66
     1
 10
0
 20
0
 30
0.0
 70
     1
 40
0
 41
0
  0
VERTEX
  8
0
 10
4.21289
 20
8.14785
 30
0.0
 40
0
 41
0
  0
VERTEX
  8
0
 10
4.21392
 20
8.15044
 30
0.0
 40
0
 41
0
  0
VERTEX
  8
0
 10
4.21815
 20
8.15776
 30
0.0
 40
0
 41
0
  0
VERTEX
  8
0
 10
4.22131
 20
8.155
 30
0.0
 40
0
 41
0
  0
VERTEX
  8
0
 10
4.22174
 20
8.15381
 30
0.0
 40
0
 41
0
  0
VERTEX
  8
0
 10
4.22211
 20
8.15272
 30
0.0
 40
0
 41
0
  0
VERTEX
  8
0
 10
4.23019
 20
8.14556
 30
0.0
 40
0
 41
0
  0
VERTEX
  8
0
 10
4.23292
 20
8.14556
 30
0.0
 40
0
 41
0
  0
VERTEX
  8
0
 10
4.23514
 20
8.14556
 30
0.0
 40
0
 41
0
  0
VERTEX
  8
0
 10
4.24197
 20
8.14051
 30
0.0
 40
0
 41
0
  0
VERTEX
  8
0
 10
4.25776
 20
8.12701
 30
0.0
 40
0
 41
0
  0
VERTEX
  8
0
 10
4.2781
 20
8.10732
 30
0.0
 40
0
 41
0
  0
VERTEX
  8
0
 10
4.30078
 20
8.08376
 30
0.0
 40
0
 41
0
  0
VERTEX
  8
0
 10
4.32368
 20
8.05871
 30
0.0
 40
0
 41
0
  0
VERTEX
  8
0
 10
4.34451
 20
8.0345
 30
0.0
 40
0
 41
0
  0
VERTEX
  8
0
 10
4.36117
 20
8.0134
 30
0.0
 40
0
 41
0
  0
VERTEX
  8
0
 10
4.36925
 20
8.00196
 30
0.0
 40
0
 41
0
  0
VERTEX
  8
0
 10
4.37142
 20
7.99783
 30
0.0
 40
0
 41
0
  0
VERTEX
  8
0
 10
4.37582
 20
7.98947
 30
0.0
 40
0
 41
0
  0
VERTEX
  8
0
 10
4.391
 20
7.96158
 30
0.0
 40
0
 41
0
  0
VERTEX
  8
0
 10
4.40278
 20
7.94293
 30
0.0
 40
0
 41
0
  0
VERTEX
  8
0
 10
4.40543
 20
7.93913
 30
0.0
 40
0
 41
0
  0
VERTEX
  8
0
 10
4.40653
 20
7.93756
 30
0.0
 40
0
 41
0
  0
VERTEX
  8
0
 10
4.41351
 20
7.92096
 30
0.0
 40
0
 41
0
  0
VERTEX
  8
0
 10
4.41351
 20
7.91542
 30
0.0
 40
0
 41
0
  0
VERTEX
  8
0
 10
4.41351
 20
7.91308
 30
0.0
 40
0
 41
0
  0
VERTEX
  8
0
 10
4.41228
 20
7.90608
 30
0.0
 40
0
 41
0
  0
VERTEX
  8
0
 10
4.40576
 20
7.91064
 30
0.0
 40
0
 41
0
  0
VERTEX
  8
0
 10
4.40386
 20
7.91243
 30
0.0
 40
0
 41
0
  0
VERTEX
  8
0
 10
4.4025
 20
7.91368
 30
0.0
 40
0
 41
0
  0
VERTEX
  8
0
 10
4.39318
 20
7.92763
 30
0.0
 40
0
 41
0
  0
VERTEX
  8
0
 10
4.38282
 20
7.94726
 30
0.0
 40
0
 41
0
  0
VERTEX
  8
0
 10
4.38103
 20
7.95133
 30
0.0
 40
0
 41
0
  0
VERTEX
  8
0
 10
4.3744
 20
7.9661
 30
0.0
 40
0
 41
0
  0
VERTEX
  8
0
 10
4.32915
 20
8.03549
 30
0.0
 40
0
 41
0
  0
VERTEX
  8
0
 10
4.26693
 20
8.09999
 30
0.0
 40
0
 41
0
  0
VERTEX
  8
0
 10
4.25185
 20
8.11219
 30
0.0
 40
0
 41
0
  0
VERTEX
  8
0
 10
4.22276
 20
8.13579
 30
0.0
 40
0
 41
0
  0
VERTEX
  8
0
 10
4.21485
 20
8.125
 30
0.0
 40
0
 41
0
  0
VERTEX
  8
0
 10
4.21326
 20
8.12294
 30
0.0
 40
0
 41
0
  0
VERTEX
  8
0
 10
4.20801
 20
8.11719
 30
0.0
 40
0
 41
0
  0
VERTEX
  8
0
 10
4.20692
 20
8.12229
 30
0.0
 40
0
 41
0
  0
VERTEX
  8
0
 10
4.20697
 20
8.12392
 30
0.0
 40
0
 41
0
  0
VERTEX
  8
0
 10
4.20697
 20
8.12528
 30
0.0
 40
0
 41
0
  0
VERTEX
  8
0
 10
4.21208
 20
8.14589
 30
0.0
 40
0
 41
0
  0
VERTEX
  8
0
 10
4.21289
 20
8.14785
 30
0.0
 40
0
 41
0
  0
SEQEND
 8
0
  0
POLYLINE
  8
0
 62
     33
 66
     1
 10
0
 20
0
 30
0.0
 70
     1
 40
0
 41
0
  0
VERTEX
  8
0
 10
4.23535
 20
6.54883
 30
0.0
 40
0
 41
0
  0
VERTEX
  8
0
 10
4.2405
 20
6.54953
 30
0.0
 40
0
 41
0
  0
VERTEX
  8
0
 10
4.26031
 20
6.54915
 30
0.0
 40
0
 41
0
  0
VERTEX
  8
0
 10
4.28142
 20
6.54194
 30
0.0
 40
0
 41
0
  0
VERTEX
  8
0
 10
4.28722
 20
6.53917
 30
0.0
 40
0
 41
0
  0
VERTEX
  8
0
 10
4.29096
 20
6.53743
 30
0.0
 40
0
 41
0
  0
VERTEX
  8
0
 10
4.30501
 20
6.52946
 30
0.0
 40
0
 41
0
  0
VERTEX
  8
0
 10
4.30919
 20
6.52419
 30
0.0
 40
0
 41
0
  0
VERTEX
  8
0
 10
4.30919
 20
6.52419
 30
0.0
 40
0
 41
0
  0
VERTEX
  8
0
 10
4.30843
 20
6.52393
 30
0.0
 40
0
 41
0
  0
VERTEX
  8
0
 10
4.29215
 20
6.52849
 30
0.0
 40
0
 41
0
  0
VERTEX
  8
0
 10
4.29031
 20
6.52946
 30
0.0
 40
0
 41
0
  0
VERTEX
  8
0
 10
4.28847
 20
6.53049
 30
0.0
 40
0
 41
0
  0
VERTEX
  8
0
 10
4.27171
 20
6.53526
 30
0.0
 40
0
 41
0
  0
VERTEX
  8
0
 10
4.25022
 20
6.53863
 30
0.0
 40
0
 41
0
  0
VERTEX
  8
0
 10
4.24599
 20
6.5389
 30
0.0
 40
0
 41
0
  0
VERTEX
  8
0
 10
4.24169
 20
6.53922
 30
0.0
 40
0
 41
0
  0
VERTEX
  8
0
 10
4.22353
 20
6.54113
 30
0.0
 40
0
 41
0
  0
VERTEX
  8
0
 10
4.21322
 20
6.54308
 30
0.0
 40
0
 41
0
  0
VERTEX
  8
0
 10
4.21289
 20
6.54335
 30
0.0
 40
0
 41
0
  0
VERTEX
  8
0
 10
4.21289
 20
6.54335
 30
0.0
 40
0
 41
0
  0
VERTEX
  8
0
 10
4.21853
 20
6.54596
 30
0.0
 40
0
 41
0
  0
VERTEX
  8
0
 10
4.23182
 20
6.54839
 30
0.0
 40
0
 41
0
  0
VERTEX
  8
0
 10
4.23525
 20
6.54883
 30
0.0
 40
0
 41
0
  0
VERTEX
  8
0
 10
4.23535
 20
6.54883
 30
0.0
 40
0
 41
0
  0
SEQEND
 8
0
  0
POLYLINE
  8
0
 62
     33
 66
     1
 10
0
 20
0
 30
0.0
 70
     1
 40
0
 41
0
  0
VERTEX
  8
0
 10
4.23178
 20
8.35678
 30
0.0
 40
0
 41
0
  0
VERTEX
  8
0
 10
4.23318
 20
8.35531
 30
0.0
 40
0
 41
0
  0
VERTEX
  8
0
 10
4.23671
 20
8.34532
 30
0.0
 40
0
 41
0
  0
VERTEX
  8
0
 10
4.24197
 20
8.32437
 30
0.0
 40
0
 41
0
  0
VERTEX
  8
0
 10
4.24615
 20
8.30057
 30
0.0
 40
0
 41
0
  0
VERTEX
  8
0
 10
4.24789
 20
8.28543
 30
0.0
 40
0
 41
0
  0
VERTEX
  8
0
 10
4.24789
 20
8.28039
 30
0.0
 40
0
 41
0
  0
VERTEX
  8
0
 10
4.24789
 20
8.27072
 30
0.0
 40
0
 41
0
  0
VERTEX
  8
0
 10
4.24507
 20
8.24164
 30
0.0
 40
0
 41
0
  0
VERTEX
  8
0
 10
4.24035
 20
8.22265
 30
0.0
 40
0
 41
0
  0
VERTEX
  8
0
 10
4.23936
 20
8.22265
 30
0.0
 40
0
 41
0
  0
VERTEX
  8
0
 10
4.23876
 20
8.22265
 30
0.0
 40
0
 41
0
  0
VERTEX
  8
0
 10
4.23703
 20
8.2379
 30
0.0
 40
0
 41
0
  0
VERTEX
  8
0
 10
4.23562
 20
8.26731
 30
0.0
 40
0
 41
0
  0
VERTEX
  8
0
 10
4.23551
 20
8.27442
 30
0.0
 40
0
 41
0
  0
VERTEX
  8
0
 10
4.23535
 20
8.28153
 30
0.0
 40
0
 41
0
  0
VERTEX
  8
0
 10
4.23389
 20
8.31592
 30
0.0
 40
0
 41
0
  0
VERTEX
  8
0
 10
4.23199
 20
8.34071
 30
0.0
 40
0
 41
0
  0
VERTEX
  8
0
 10
4.23161
 20
8.34299
 30
0.0
 40
0
 41
0
  0
VERTEX
  8
0
 10
4.23122
 20
8.34532
 30
0.0
 40
0
 41
0
  0
VERTEX
  8
0
 10
4.23047
 20
8.354
 30
0.0
 40
0
 41
0
  0
VERTEX
  8
0
 10
4.23182
 20
8.35672
 30
0.0
 40
0
 41
0
  0
VERTEX
  8
0
 10
4.23182
 20
8.35672
 30
0.0
 40
0
 41
0
  0
VERTEX
  8
0
 10
4.23178
 20
8.35678
 30
0.0
 40
0
 41
0
  0
SEQEND
 8
0
  0
POLYLINE
  8
0
 62
     33
 66
     1
 10
0
 20
0
 30
0.0
 70
     1
 40
0
 41
0
  0
VERTEX
  8
0
 10
4.23367
 20
8.21218
 30
0.0
 40
0
 41
0
  0
VERTEX
  8
0
 10
4.23378
 20
8.21246
 30
0.0
 40
0
 41
0
  0
VERTEX
  8
0
 10
4.23969
 20
8.21083
 30
0.0
 40
0
 41
0
  0
VERTEX
  8
0
 10
4.23996
 20
8.20979
 30
0.0
 40
0
 41
0
  0
VERTEX
  8
0
 10
4.24029
 20
8.20861
 30
0.0
 40
0
 41
0
  0
VERTEX
  8
0
 10
4.24511
 20
8.19401
 30
0.0
 40
0
 41
0
  0
VERTEX
  8
0
 10
4.24556
 20
8.19288
 30
0.0
 40
0
 41
0
  0
VERTEX
  8
0
 10
4.24604
 20
8.19157
 30
0.0
 40
0
 41
0
  0
VERTEX
  8
0
 10
4.2461
 20
8.18696
 30
0.0
 40
0
 41
0
  0
VERTEX
  8
0
 10
4.24078
 20
8.18696
 30
0.0
 40
0
 41
0
  0
VERTEX
  8
0
 10
4.23915
 20
8.18739
 30
0.0
 40
0
 41
0
  0
VERTEX
  8
0
 10
4.23665
 20
8.1881
 30
0.0
 40
0
 41
0
  0
VERTEX
  8
0
 10
4.23014
 20
8.19661
 30
0.0
 40
0
 41
0
  0
VERTEX
  8
0
 10
4.23193
 20
8.20942
 30
0.0
 40
0
 41
0
  0
VERTEX
  8
0
 10
4.23367
 20
8.21218
 30
0.0
 40
0
 41
0
  0
SEQEND
 8
0
  0
POLYLINE
  8
0
 62
     33
 66
     1
 10
0
 20
0
 30
0.0
 70
     1
 40
0
 41
0
  0
VERTEX
  8
0
 10
4.29574
 20
7.27718
 30
0.0
 40
0
 41
0
  0
VERTEX
  8
0
 10
4.29844
 20
7.27974
 30
0.0
 40
0
 41
0
  0
VERTEX
  8
0
 10
4.31478
 20
7.29747
 30
0.0
 40
0
 41
0
  0
VERTEX
  8
0
 10
4.33018
 20
7.31694
 30
0.0
 40
0
 41
0
  0
VERTEX
  8
0
 10
4.33251
 20
7.32032
 30
0.0
 40
0
 41
0
  0
VERTEX
  8
0
 10
4.33772
 20
7.32807
 30
0.0
 40
0
 41
0
  0
VERTEX
  8
0
 10
4.35129
 20
7.3526
 30
0.0
 40
0
 41
0
  0
VERTEX
  8
0
 10
4.37044
 20
7.39274
 30
0.0
 40
0
 41
0
  0
VERTEX
  8
0
 10
4.38699
 20
7.43386
 30
0.0
 40
0
 41
0
  0
VERTEX
  8
0
 10
4.39572
 20
7.46007
 30
0.0
 40
0
 41
0
  0
VERTEX
  8
0
 10
4.39785
 20
7.46897
 30
0.0
 40
0
 41
0
  0
VERTEX
  8
0
 10
4.39893
 20
7.47364
 30
0.0
 40
0
 41
0
  0
VERTEX
  8
0
 10
4.40522
 20
7.49664
 30
0.0
 40
0
 41
0
  0
VERTEX
  8
0
 10
4.41114
 20
7.514
 30
0.0
 40
0
 41
0
  0
VERTEX
  8
0
 10
4.412
 20
7.51579
 30
0.0
 40
0
 41
0
  0
VERTEX
  8
0
 10
4.41585
 20
7.52387
 30
0.0
 40
0
 41
0
  0
VERTEX
  8
0
 10
4.42589
 20
7.54889
 30
0.0
 40
0
 41
0
  0
VERTEX
  8
0
 10
4.435
 20
7.58219
 30
0.0
 40
0
 41
0
  0
VERTEX
  8
0
 10
4.4406
 20
7.62185
 30
0.0
 40
0
 41
0
  0
VERTEX
  8
0
 10
4.44325
 20
7.66075
 30
0.0
 40
0
 41
0
  0
VERTEX
  8
0
 10
4.44379
 20
7.67367
 30
0.0
 40
0
 41
0
  0
VERTEX
  8
0
 10
4.44467
 20
7.69564
 30
0.0
 40
0
 41
0
  0
VERTEX
  8
0
 10
4.44233
 20
7.78603
 30
0.0
 40
0
 41
0
  0
VERTEX
  8
0
 10
4.43093
 20
7.85286
 30
0.0
 40
0
 41
0
  0
VERTEX
  8
0
 10
4.42725
 20
7.86301
 30
0.0
 40
0
 41
0
  0
VERTEX
  8
0
 10
4.426
 20
7.86638
 30
0.0
 40
0
 41
0
  0
VERTEX
  8
0
 10
4.42144
 20
7.88069
 30
0.0
 40
0
 41
0
  0
VERTEX
  8
0
 10
4.41976
 20
7.88878
 30
0.0
 40
0
 41
0
  0
VERTEX
  8
0
 10
4.41997
 20
7.889
 30
0.0
 40
0
 41
0
  0
VERTEX
  8
0
 10
4.41997
 20
7.88906
 30
0.0
 40
0
 41
0
  0
VERTEX
  8
0
 10
4.4274
 20
7.882
 30
0.0
 40
0
 41
0
  0
VERTEX
  8
0
 10
4.43604
 20
7.86199
 30
0.0
 40
0
 41
0
  0
VERTEX
  8
0
 10
4.43778
 20
7.85667
 30
0.0
 40
0
 41
0
  0
VERTEX
  8
0
 10
4.44032
 20
7.84879
 30
0.0
 40
0
 41
0
  0
VERTEX
  8
0
 10
4.44629
 20
7.82443
 30
0.0
 40
0
 41
0
  0
VERTEX
  8
0
 10
4.4521
 20
7.78694
 30
0.0
 40
0
 41
0
  0
VERTEX
  8
0
 10
4.45546
 20
7.74169
 30
0.0
 40
0
 41
0
  0
VERTEX
  8
0
 10
4.45665
 20
7.69997
 30
0.0
 40
0
 41
0
  0
VERTEX
  8
0
 10
4.45671
 20
7.68604
 30
0.0
 40
0
 41
0
  0
VERTEX
  8
0
 10
4.45671
 20
7.67225
 30
0.0
 40
0
 41
0
  0
VERTEX
  8
0
 10
4.45594
 20
7.63069
 30
0.0
 40
0
 41
0
  0
VERTEX
  8
0
 10
4.45258
 20
7.5905
 30
0.0
 40
0
 41
0
  0
VERTEX
  8
0
 10
4.44547
 20
7.558
 30
0.0
 40
0
 41
0
  0
VERTEX
  8
0
 10
4.4369
 20
7.53358
 30
0.0
 40
0
 41
0
  0
VERTEX
  8
0
 10
4.4336
 20
7.52561
 30
0.0
 40
0
 41
0
  0
VERTEX
  8
0
 10
4.43061
 20
7.51861
 30
0.0
 40
0
 41
0
  0
VERTEX
  8
0
 10
4.41536
 20
7.47646
 30
0.0
 40
0
 41
0
  0
VERTEX
  8
0
 10
4.40186
 20
7.43175
 30
0.0
 40
0
 41
0
  0
VERTEX
  8
0
 10
4.39979
 20
7.42344
 30
0.0
 40
0
 41
0
  0
VERTEX
  8
0
 10
4.39735
 20
7.4139
 30
0.0
 40
0
 41
0
  0
VERTEX
  8
0
 10
4.38465
 20
7.38585
 30
0.0
 40
0
 41
0
  0
VERTEX
  8
0
 10
4.35906
 20
7.33914
 30
0.0
 40
0
 41
0
  0
VERTEX
  8
0
 10
4.33083
 20
7.29639
 30
0.0
 40
0
 41
0
  0
VERTEX
  8
0
 10
4.31369
 20
7.27485
 30
0.0
 40
0
 41
0
  0
VERTEX
  8
0
 10
4.30772
 20
7.27046
 30
0.0
 40
0
 41
0
  0
VERTEX
  8
0
 10
4.30539
 20
7.26878
 30
0.0
 40
0
 41
0
  0
VERTEX
  8
0
 10
4.28819
 20
7.26004
 30
0.0
 40
0
 41
0
  0
VERTEX
  8
0
 10
4.27567
 20
7.25683
 30
0.0
 40
0
 41
0
  0
VERTEX
  8
0
 10
4.27567
 20
7.25683
 30
0.0
 40
0
 41
0
  0
VERTEX
  8
0
 10
4.27567
 20
7.25857
 30
0.0
 40
0
 41
0
  0
VERTEX
  8
0
 10
4.28157
 20
7.26367
 30
0.0
 40
0
 41
0
  0
VERTEX
  8
0
 10
4.29303
 20
7.27468
 30
0.0
 40
0
 41
0
  0
VERTEX
  8
0
 10
4.29585
 20
7.27718
 30
0.0
 40
0
 41
0
  0
VERTEX
  8
0
 10
4.29574
 20
7.27718
 30
0.0
 40
0
 41
0
  0
SEQEND
 8
0
  0
POLYLINE
  8
0
 62
     33
 66
     1
 10
0
 20
0
 30
0.0
 70
     1
 40
0
 41
0
  0
VERTEX
  8
0
 10
4.40576
 20
6.16439
 30
0.0
 40
0
 41
0
  0
VERTEX
  8
0
 10
4.40935
 20
6.16857
 30
0.0
 40
0
 41
0
  0
VERTEX
  8
0
 10
4.4215
 20
6.17985
 30
0.0
 40
0
 41
0
  0
VERTEX
  8
0
 10
4.42871
 20
6.18201
 30
0.0
 40
0
 41
0
  0
VERTEX
  8
0
 10
4.42622
 20
6.17264
 30
0.0
 40
0
 41
0
  0
VERTEX
  8
0
 10
4.4165
 20
6.15799
 30
0.0
 40
0
 41
0
  0
VERTEX
  8
0
 10
4.41287
 20
6.15349
 30
0.0
 40
0
 41
0
  0
VERTEX
  8
0
 10
4.40782
 20
6.1474
 30
0.0
 40
0
 41
0
  0
VERTEX
  8
0
 10
4.39144
 20
6.13026
 30
0.0
 40
0
 41
0
  0
VERTEX
  8
0
 10
4.3859
 20
6.13325
 30
0.0
 40
0
 41
0
  0
VERTEX
  8
0
 10
4.3859
 20
6.13422
 30
0.0
 40
0
 41
0
  0
VERTEX
  8
0
 10
4.3859
 20
6.13721
 30
0.0
 40
0
 41
0
  0
VERTEX
  8
0
 10
4.39171
 20
6.14606
 30
0.0
 40
0
 41
0
  0
VERTEX
  8
0
 10
4.40306
 20
6.16124
 30
0.0
 40
0
 41
0
  0
VERTEX
  8
0
 10
4.40582
 20
6.16439
 30
0.0
 40
0
 41
0
  0
VERTEX
  8
0
 10
4.40576
 20
6.16439
 30
0.0
 40
0
 41
0
  0
SEQEND
 8
0
  0
ENDSEC
  0
EOF
