  0
SECTION
  2
HEADER
  9
$ACADVER
  1
AC1009
  9
$EXTMIN
 10
0.0
 20
0.0
 30
0.0
  9
$EXTMAX
 10
1000.0
 20
1000.0
 30
0.0
  9
$FILLMODE
 70
 0
  9
$SPLFRAME
 70
 1
  0
ENDSEC
  0
SECTION
  2
TABLES
  0
TABLE
  2
LAYER
 70
1
  0
LAYER
  2
0
 70
     0
 62
     7
  6
CONTINUOUS
  0
ENDTAB
  0
ENDSEC
  0
SECTION
  2
ENTITIES
  0
POLYLINE
  8
0
 62
     33
 66
     1
 10
0
 20
0
 30
0.0
 70
     1
 40
0
 41
0
  0
VERTEX
  8
0
 10
2.69407
 20
8.2156
 30
0.0
 40
0
 41
0
  0
VERTEX
  8
0
 10
2.69249
 20
8.20133
 30
0.0
 40
0
 41
0
  0
VERTEX
  8
0
 10
2.69314
 20
8.15776
 30
0.0
 40
0
 41
0
  0
VERTEX
  8
0
 10
2.69694
 20
8.097
 30
0.0
 40
0
 41
0
  0
VERTEX
  8
0
 10
2.69715
 20
8.03857
 30
0.0
 40
0
 41
0
  0
VERTEX
  8
0
 10
2.69065
 20
7.99929
 30
0.0
 40
0
 41
0
  0
VERTEX
  8
0
 10
2.68539
 20
7.98763
 30
0.0
 40
0
 41
0
  0
VERTEX
  8
0
 10
2.68283
 20
7.98161
 30
0.0
 40
0
 41
0
  0
VERTEX
  8
0
 10
2.68078
 20
7.96104
 30
0.0
 40
0
 41
0
  0
VERTEX
  8
0
 10
2.69049
 20
7.94151
 30
0.0
 40
0
 41
0
  0
VERTEX
  8
0
 10
2.71067
 20
7.92686
 30
0.0
 40
0
 41
0
  0
VERTEX
  8
0
 10
2.73757
 20
7.91487
 30
0.0
 40
0
 41
0
  0
VERTEX
  8
0
 10
2.76736
 20
7.90343
 30
0.0
 40
0
 41
0
  0
VERTEX
  8
0
 10
2.79633
 20
7.89019
 30
0.0
 40
0
 41
0
  0
VERTEX
  8
0
 10
2.82064
 20
7.8731
 30
0.0
 40
0
 41
0
  0
VERTEX
  8
0
 10
2.8341
 20
7.85622
 30
0.0
 40
0
 41
0
  0
VERTEX
  8
0
 10
2.83658
 20
7.84983
 30
0.0
 40
0
 41
0
  0
VERTEX
  8
0
 10
2.85215
 20
7.83268
 30
0.0
 40
0
 41
0
  0
VERTEX
  8
0
 10
2.89686
 20
7.77924
 30
0.0
 40
0
 41
0
  0
VERTEX
  8
0
 10
2.94971
 20
7.70253
 30
0.0
 40
0
 41
0
  0
VERTEX
  8
0
 10
2.98796
 20
7.61888
 30
0.0
 40
0
 41
0
  0
VERTEX
  8
0
 10
3.00379
 20
7.55029
 30
0.0
 40
0
 41
0
  0
VERTEX
  8
0
 10
3.00467
 20
7.52724
 30
0.0
 40
0
 41
0
  0
VERTEX
  8
0
 10
3.00831
 20
7.50353
 30
0.0
 40
0
 41
0
  0
VERTEX
  8
0
 10
3.03022
 20
7.38542
 30
0.0
 40
0
 41
0
  0
VERTEX
  8
0
 10
3.04113
 20
7.26617
 30
0.0
 40
0
 41
0
  0
VERTEX
  8
0
 10
3.03933
 20
7.24192
 30
0.0
 40
0
 41
0
  0
VERTEX
  8
0
 10
3.04118
 20
7.222
 30
0.0
 40
0
 41
0
  0
VERTEX
  8
0
 10
3.02968
 20
7.12224
 30
0.0
 40
0
 41
0
  0
VERTEX
  8
0
 10
2.99511
 20
7.02453
 30
0.0
 40
0
 41
0
  0
VERTEX
  8
0
 10
2.98546
 20
7.00558
 30
0.0
 40
0
 41
0
  0
VERTEX
  8
0
 10
2.97851
 20
6.99138
 30
0.0
 40
0
 41
0
  0
VERTEX
  8
0
 10
2.94879
 20
6.95285
 30
0.0
 40
0
 41
0
  0
VERTEX
  8
0
 10
2.89974
 20
6.912
 30
0.0
 40
0
 41
0
  0
VERTEX
  8
0
 10
2.84304
 20
6.88113
 30
0.0
 40
0
 41
0
  0
VERTEX
  8
0
 10
2.7985
 20
6.86317
 30
0.0
 40
0
 41
0
  0
VERTEX
  8
0
 10
2.78336
 20
6.85818
 30
0.0
 40
0
 41
0
  0
VERTEX
  8
0
 10
2.78413
 20
6.86214
 30
0.0
 40
0
 41
0
  0
VERTEX
  8
0
 10
2.79221
 20
6.87283
 30
0.0
 40
0
 41
0
  0
VERTEX
  8
0
 10
2.80994
 20
6.88574
 30
0.0
 40
0
 41
0
  0
VERTEX
  8
0
 10
2.83306
 20
6.89785
 30
0.0
 40
0
 41
0
  0
VERTEX
  8
0
 10
2.85813
 20
6.91
 30
0.0
 40
0
 41
0
  0
VERTEX
  8
0
 10
2.88157
 20
6.92318
 30
0.0
 40
0
 41
0
  0
VERTEX
  8
0
 10
2.8999
 20
6.93821
 30
0.0
 40
0
 41
0
  0
VERTEX
  8
0
 10
2.90961
 20
6.956
 30
0.0
 40
0
 41
0
  0
VERTEX
  8
0
 10
2.90924
 20
6.97265
 30
0.0
 40
0
 41
0
  0
VERTEX
  8
0
 10
2.90728
 20
6.97743
 30
0.0
 40
0
 41
0
  0
VERTEX
  8
0
 10
2.90821
 20
6.98682
 30
0.0
 40
0
 41
0
  0
VERTEX
  8
0
 10
2.91596
 20
7.01438
 30
0.0
 40
0
 41
0
  0
VERTEX
  8
0
 10
2.93365
 20
7.04394
 30
0.0
 40
0
 41
0
  0
VERTEX
  8
0
 10
2.9599
 20
7.0631
 30
0.0
 40
0
 41
0
  0
VERTEX
  8
0
 10
2.98574
 20
7.06933
 30
0.0
 40
0
 41
0
  0
VERTEX
  8
0
 10
2.99425
 20
7.0689
 30
0.0
 40
0
 41
0
  0
VERTEX
  8
0
 10
2.99918
 20
7.08762
 30
0.0
 40
0
 41
0
  0
VERTEX
  8
0
 10
3.00657
 20
7.18658
 30
0.0
 40
0
 41
0
  0
VERTEX
  8
0
 10
3.01238
 20
7.29031
 30
0.0
 40
0
 41
0
  0
VERTEX
  8
0
 10
3.01654
 20
7.31142
 30
0.0
 40
0
 41
0
  0
VERTEX
  8
0
 10
3.01585
 20
7.33789
 30
0.0
 40
0
 41
0
  0
VERTEX
  8
0
 10
2.97894
 20
7.60058
 30
0.0
 40
0
 41
0
  0
VERTEX
  8
0
 10
2.97368
 20
7.62646
 30
0.0
 40
0
 41
0
  0
VERTEX
  8
0
 10
2.96485
 20
7.64963
 30
0.0
 40
0
 41
0
  0
VERTEX
  8
0
 10
2.89899
 20
7.7539
 30
0.0
 40
0
 41
0
  0
VERTEX
  8
0
 10
2.81754
 20
7.84765
 30
0.0
 40
0
 41
0
  0
VERTEX
  8
0
 10
2.801
 20
7.86556
 30
0.0
 40
0
 41
0
  0
VERTEX
  8
0
 10
2.79568
 20
7.87061
 30
0.0
 40
0
 41
0
  0
VERTEX
  8
0
 10
2.77767
 20
7.88362
 30
0.0
 40
0
 41
0
  0
VERTEX
  8
0
 10
2.75179
 20
7.89828
 30
0.0
 40
0
 41
0
  0
VERTEX
  8
0
 10
2.72487
 20
7.91108
 30
0.0
 40
0
 41
0
  0
VERTEX
  8
0
 10
2.6984
 20
7.92378
 30
0.0
 40
0
 41
0
  0
VERTEX
  8
0
 10
2.67404
 20
7.93804
 30
0.0
 40
0
 41
0
  0
VERTEX
  8
0
 10
2.65326
 20
7.95551
 30
0.0
 40
0
 41
0
  0
VERTEX
  8
0
 10
2.63769
 20
7.97786
 30
0.0
 40
0
 41
0
  0
VERTEX
  8
0
 10
2.62993
 20
7.9994
 30
0.0
 40
0
 41
0
  0
VERTEX
  8
0
 10
2.62885
 20
8.00678
 30
0.0
 40
0
 41
0
  0
VERTEX
  8
0
 10
2.62369
 20
8.01133
 30
0.0
 40
0
 41
0
  0
VERTEX
  8
0
 10
2.60846
 20
8.02513
 30
0.0
 40
0
 41
0
  0
VERTEX
  8
0
 10
2.59229
 20
8.03543
 30
0.0
 40
0
 41
0
  0
VERTEX
  8
0
 10
2.5804
 20
8.03
 30
0.0
 40
0
 41
0
  0
VERTEX
  8
0
 10
2.57374
 20
8.00846
 30
0.0
 40
0
 41
0
  0
VERTEX
  8
0
 10
2.57281
 20
8.00108
 30
0.0
 40
0
 41
0
  0
VERTEX
  8
0
 10
2.56842
 20
8.00082
 30
0.0
 40
0
 41
0
  0
VERTEX
  8
0
 10
2.55496
 20
8.00358
 30
0.0
 40
0
 41
0
  0
VERTEX
  8
0
 10
2.54878
 20
8.01264
 30
0.0
 40
0
 41
0
  0
VERTEX
  8
0
 10
2.55029
 20
8.02604
 30
0.0
 40
0
 41
0
  0
VERTEX
  8
0
 10
2.55544
 20
8.04139
 30
0.0
 40
0
 41
0
  0
VERTEX
  8
0
 10
2.56039
 20
8.05638
 30
0.0
 40
0
 41
0
  0
VERTEX
  8
0
 10
2.56104
 20
8.06858
 30
0.0
 40
0
 41
0
  0
VERTEX
  8
0
 10
2.5535
 20
8.07579
 30
0.0
 40
0
 41
0
  0
VERTEX
  8
0
 10
2.53857
 20
8.07639
 30
0.0
 40
0
 41
0
  0
VERTEX
  8
0
 10
2.53381
 20
8.07553
 30
0.0
 40
0
 41
0
  0
VERTEX
  8
0
 10
2.53157
 20
8.07471
 30
0.0
 40
0
 41
0
  0
VERTEX
  8
0
 10
2.52599
 20
8.06944
 30
0.0
 40
0
 41
0
  0
VERTEX
  8
0
 10
2.52354
 20
8.06065
 30
0.0
 40
0
 41
0
  0
VERTEX
  8
0
 10
2.52431
 20
8.05078
 30
0.0
 40
0
 41
0
  0
VERTEX
  8
0
 10
2.52615
 20
8.04167
 30
0.0
 40
0
 41
0
  0
VERTEX
  8
0
 10
2.52686
 20
8.03489
 30
0.0
 40
0
 41
0
  0
VERTEX
  8
0
 10
2.52431
 20
8.03212
 30
0.0
 40
0
 41
0
  0
VERTEX
  8
0
 10
2.51644
 20
8.03515
 30
0.0
 40
0
 41
0
  0
VERTEX
  8
0
 10
2.50472
 20
8.04286
 30
0.0
 40
0
 41
0
  0
VERTEX
  8
0
 10
2.50103
 20
8.04557
 30
0.0
 40
0
 41
0
  0
VERTEX
  8
0
 10
2.49821
 20
8.03999
 30
0.0
 40
0
 41
0
  0
VERTEX
  8
0
 10
2.48562
 20
8.02513
 30
0.0
 40
0
 41
0
  0
VERTEX
  8
0
 10
2.46707
 20
8.0165
 30
0.0
 40
0
 41
0
  0
VERTEX
  8
0
 10
2.44586
 20
8.01665
 30
0.0
 40
0
 41
0
  0
VERTEX
  8
0
 10
2.42258
 20
8.02274
 30
0.0
 40
0
 41
0
  0
VERTEX
  8
0
 10
2.39789
 20
8.03168
 30
0.0
 40
0
 41
0
  0
VERTEX
  8
0
 10
2.37235
 20
8.04058
 30
0.0
 40
0
 41
0
  0
VERTEX
  8
0
 10
2.34657
 20
8.04633
 30
0.0
 40
0
 41
0
  0
VERTEX
  8
0
 10
2.32731
 20
8.04715
 30
0.0
 40
0
 41
0
  0
VERTEX
  8
0
 10
2.32118
 20
8.04606
 30
0.0
 40
0
 41
0
  0
VERTEX
  8
0
 10
2.31782
 20
8.04747
 30
0.0
 40
0
 41
0
  0
VERTEX
  8
0
 10
2.30892
 20
8.05447
 30
0.0
 40
0
 41
0
  0
VERTEX
  8
0
 10
2.30354
 20
8.06511
 30
0.0
 40
0
 41
0
  0
VERTEX
  8
0
 10
2.30344
 20
8.07633
 30
0.0
 40
0
 41
0
  0
VERTEX
  8
0
 10
2.30718
 20
8.08649
 30
0.0
 40
0
 41
0
  0
VERTEX
  8
0
 10
2.31326
 20
8.09386
 30
0.0
 40
0
 41
0
  0
VERTEX
  8
0
 10
2.32015
 20
8.09685
 30
0.0
 40
0
 41
0
  0
VERTEX
  8
0
 10
2.32633
 20
8.09369
 30
0.0
 40
0
 41
0
  0
VERTEX
  8
0
 10
2.32992
 20
8.08561
 30
0.0
 40
0
 41
0
  0
VERTEX
  8
0
 10
2.3304
 20
8.08279
 30
0.0
 40
0
 41
0
  0
VERTEX
  8
0
 10
2.33415
 20
8.07921
 30
0.0
 40
0
 41
0
  0
VERTEX
  8
0
 10
2.35562
 20
8.06862
 30
0.0
 40
0
 41
0
  0
VERTEX
  8
0
 10
2.39871
 20
8.053
 30
0.0
 40
0
 41
0
  0
VERTEX
  8
0
 10
2.44428
 20
8.04378
 30
0.0
 40
0
 41
0
  0
VERTEX
  8
0
 10
2.47114
 20
8.04476
 30
0.0
 40
0
 41
0
  0
VERTEX
  8
0
 10
2.47732
 20
8.04904
 30
0.0
 40
0
 41
0
  0
VERTEX
  8
0
 10
2.47601
 20
8.05757
 30
0.0
 40
0
 41
0
  0
VERTEX
  8
0
 10
2.48981
 20
8.08578
 30
0.0
 40
0
 41
0
  0
VERTEX
  8
0
 10
2.52778
 20
8.11854
 30
0.0
 40
0
 41
0
  0
VERTEX
  8
0
 10
2.57389
 20
8.15082
 30
0.0
 40
0
 41
0
  0
VERTEX
  8
0
 10
2.60379
 20
8.17572
 30
0.0
 40
0
 41
0
  0
VERTEX
  8
0
 10
2.61106
 20
8.18593
 30
0.0
 40
0
 41
0
  0
VERTEX
  8
0
 10
2.61778
 20
8.18907
 30
0.0
 40
0
 41
0
  0
VERTEX
  8
0
 10
2.65294
 20
8.19922
 30
0.0
 40
0
 41
0
  0
VERTEX
  8
0
 10
2.68761
 20
8.21149
 30
0.0
 40
0
 41
0
  0
VERTEX
  8
0
 10
2.69407
 20
8.2156
 30
0.0
 40
0
 41
0
  0
SEQEND
 8
0
  0
POLYLINE
  8
0
 62
     33
 66
     1
 10
0
 20
0
 30
0.0
 70
     1
 40
0
 41
0
  0
VERTEX
  8
0
 10
2.22982
 20
8.19314
 30
0.0
 40
0
 41
0
  0
VERTEX
  8
0
 10
2.23161
 20
8.19049
 30
0.0
 40
0
 41
0
  0
VERTEX
  8
0
 10
2.22293
 20
8.17285
 30
0.0
 40
0
 41
0
  0
VERTEX
  8
0
 10
2.19287
 20
8.14621
 30
0.0
 40
0
 41
0
  0
VERTEX
  8
0
 10
2.1601
 20
8.11399
 30
0.0
 40
0
 41
0
  0
VERTEX
  8
0
 10
2.14486
 20
8.0861
 30
0.0
 40
0
 41
0
  0
VERTEX
  8
0
 10
2.14497
 20
8.07682
 30
0.0
 40
0
 41
0
  0
VERTEX
  8
0
 10
2.1441
 20
8.06168
 30
0.0
 40
0
 41
0
  0
VERTEX
  8
0
 10
2.12825
 20
8.01682
 30
0.0
 40
0
 41
0
  0
VERTEX
  8
0
 10
2.09185
 20
7.96946
 30
0.0
 40
0
 41
0
  0
VERTEX
  8
0
 10
2.04476
 20
7.92757
 30
0.0
 40
0
 41
0
  0
VERTEX
  8
0
 10
2.00749
 20
7.89546
 30
0.0
 40
0
 41
0
  0
VERTEX
  8
0
 10
1.99599
 20
7.88385
 30
0.0
 40
0
 41
0
  0
VERTEX
  8
0
 10
1.98469
 20
7.87364
 30
0.0
 40
0
 41
0
  0
VERTEX
  8
0
 10
1.95437
 20
7.83925
 30
0.0
 40
0
 41
0
  0
VERTEX
  8
0
 10
1.92046
 20
7.78787
 30
0.0
 40
0
 41
0
  0
VERTEX
  8
0
 10
1.89643
 20
7.73144
 30
0.0
 40
0
 41
0
  0
VERTEX
  8
0
 10
1.88574
 20
7.68674
 30
0.0
 40
0
 41
0
  0
VERTEX
  8
0
 10
1.88444
 20
7.67165
 30
0.0
 40
0
 41
0
  0
VERTEX
  8
0
 10
1.87588
 20
7.64611
 30
0.0
 40
0
 41
0
  0
VERTEX
  8
0
 10
1.86481
 20
7.51389
 30
0.0
 40
0
 41
0
  0
VERTEX
  8
0
 10
1.86794
 20
7.37993
 30
0.0
 40
0
 41
0
  0
VERTEX
  8
0
 10
1.86649
 20
7.35346
 30
0.0
 40
0
 41
0
  0
VERTEX
  8
0
 10
1.8674
 20
7.33524
 30
0.0
 40
0
 41
0
  0
VERTEX
  8
0
 10
1.86746
 20
7.28039
 30
0.0
 40
0
 41
0
  0
VERTEX
  8
0
 10
1.86876
 20
7.20617
 30
0.0
 40
0
 41
0
  0
VERTEX
  8
0
 10
1.87885
 20
7.13396
 30
0.0
 40
0
 41
0
  0
VERTEX
  8
0
 10
1.89703
 20
7.08197
 30
0.0
 40
0
 41
0
  0
VERTEX
  8
0
 10
1.90642
 20
7.06668
 30
0.0
 40
0
 41
0
  0
VERTEX
  8
0
 10
1.90961
 20
7.06429
 30
0.0
 40
0
 41
0
  0
VERTEX
  8
0
 10
1.91846
 20
7.05567
 30
0.0
 40
0
 41
0
  0
VERTEX
  8
0
 10
1.93121
 20
7.04113
 30
0.0
 40
0
 41
0
  0
VERTEX
  8
0
 10
1.94293
 20
7.02567
 30
0.0
 40
0
 41
0
  0
VERTEX
  8
0
 10
1.95182
 20
7.01193
 30
0.0
 40
0
 41
0
  0
VERTEX
  8
0
 10
1.95622
 20
7.00256
 30
0.0
 40
0
 41
0
  0
VERTEX
  8
0
 10
1.95437
 20
7.00011
 30
0.0
 40
0
 41
0
  0
VERTEX
  8
0
 10
1.94456
 20
7.00732
 30
0.0
 40
0
 41
0
  0
VERTEX
  8
0
 10
1.92974
 20
7.02175
 30
0.0
 40
0
 41
0
  0
VERTEX
  8
0
 10
1.92507
 20
7.02669
 30
0.0
 40
0
 41
0
  0
VERTEX
  8
0
 10
1.92165
 20
7.02929
 30
0.0
 40
0
 41
0
  0
VERTEX
  8
0
 10
1.90967
 20
7.03461
 30
0.0
 40
0
 41
0
  0
VERTEX
  8
0
 10
1.9044
 20
7.02854
 30
0.0
 40
0
 41
0
  0
VERTEX
  8
0
 10
1.90722
 20
7.0121
 30
0.0
 40
0
 41
0
  0
VERTEX
  8
0
 10
1.91618
 20
6.9891
 30
0.0
 40
0
 41
0
  0
VERTEX
  8
0
 10
1.92942
 20
6.96322
 30
0.0
 40
0
 41
0
  0
VERTEX
  8
0
 10
1.94482
 20
6.93821
 30
0.0
 40
0
 41
0
  0
VERTEX
  8
0
 10
1.96061
 20
6.91775
 30
0.0
 40
0
 41
0
  0
VERTEX
  8
0
 10
1.97071
 20
6.90771
 30
0.0
 40
0
 41
0
  0
VERTEX
  8
0
 10
1.97472
 20
6.90554
 30
0.0
 40
0
 41
0
  0
VERTEX
  8
0
 10
1.99197
 20
6.88981
 30
0.0
 40
0
 41
0
  0
VERTEX
  8
0
 10
2.09358
 20
6.83339
 30
0.0
 40
0
 41
0
  0
VERTEX
  8
0
 10
2.20606
 20
6.80512
 30
0.0
 40
0
 41
0
  0
VERTEX
  8
0
 10
2.22874
 20
6.80339
 30
0.0
 40
0
 41
0
  0
VERTEX
  8
0
 10
2.23822
 20
6.80181
 30
0.0
 40
0
 41
0
  0
VERTEX
  8
0
 10
2.2666
 20
6.79563
 30
0.0
 40
0
 41
0
  0
VERTEX
  8
0
 10
2.28233
 20
6.78944
 30
0.0
 40
0
 41
0
  0
VERTEX
  8
0
 10
2.27317
 20
6.78635
 30
0.0
 40
0
 41
0
  0
VERTEX
  8
0
 10
2.24556
 20
6.787
 30
0.0
 40
0
 41
0
  0
VERTEX
  8
0
 10
2.23643
 20
6.78771
 30
0.0
 40
0
 41
0
  0
VERTEX
  8
0
 10
2.23372
 20
6.78538
 30
0.0
 40
0
 41
0
  0
VERTEX
  8
0
 10
2.22911
 20
6.76812
 30
0.0
 40
0
 41
0
  0
VERTEX
  8
0
 10
2.22228
 20
6.73583
 30
0.0
 40
0
 41
0
  0
VERTEX
  8
0
 10
2.21457
 20
6.70931
 30
0.0
 40
0
 41
0
  0
VERTEX
  8
0
 10
2.20514
 20
6.70617
 30
0.0
 40
0
 41
0
  0
VERTEX
  8
0
 10
2.20454
 20
6.70697
 30
0.0
 40
0
 41
0
  0
VERTEX
  8
0
 10
2.20389
 20
6.71246
 30
0.0
 40
0
 41
0
  0
VERTEX
  8
0
 10
2.2041
 20
6.72917
 30
0.0
 40
0
 41
0
  0
VERTEX
  8
0
 10
2.20546
 20
6.75276
 30
0.0
 40
0
 41
0
  0
VERTEX
  8
0
 10
2.20529
 20
6.77512
 30
0.0
 40
0
 41
0
  0
VERTEX
  8
0
 10
2.20242
 20
6.78944
 30
0.0
 40
0
 41
0
  0
VERTEX
  8
0
 10
2.20019
 20
6.79346
 30
0.0
 40
0
 41
0
  0
VERTEX
  8
0
 10
2.17665
 20
6.79779
 30
0.0
 40
0
 41
0
  0
VERTEX
  8
0
 10
2.06119
 20
6.83469
 30
0.0
 40
0
 41
0
  0
VERTEX
  8
0
 10
1.95731
 20
6.89572
 30
0.0
 40
0
 41
0
  0
VERTEX
  8
0
 10
1.93956
 20
6.91211
 30
0.0
 40
0
 41
0
  0
VERTEX
  8
0
 10
1.93087
 20
6.9235
 30
0.0
 40
0
 41
0
  0
VERTEX
  8
0
 10
1.90858
 20
6.96039
 30
0.0
 40
0
 41
0
  0
VERTEX
  8
0
 10
1.88547
 20
7.01281
 30
0.0
 40
0
 41
0
  0
VERTEX
  8
0
 10
1.87082
 20
7.06765
 30
0.0
 40
0
 41
0
  0
VERTEX
  8
0
 10
1.86546
 20
7.10932
 30
0.0
 40
0
 41
0
  0
VERTEX
  8
0
 10
1.86524
 20
7.12321
 30
0.0
 40
0
 41
0
  0
VERTEX
  8
0
 10
1.85813
 20
7.15315
 30
0.0
 40
0
 41
0
  0
VERTEX
  8
0
 10
1.84435
 20
7.30578
 30
0.0
 40
0
 41
0
  0
VERTEX
  8
0
 10
1.84147
 20
7.45953
 30
0.0
 40
0
 41
0
  0
VERTEX
  8
0
 10
1.83979
 20
7.49007
 30
0.0
 40
0
 41
0
  0
VERTEX
  8
0
 10
1.8405
 20
7.51546
 30
0.0
 40
0
 41
0
  0
VERTEX
  8
0
 10
1.84571
 20
7.59158
 30
0.0
 40
0
 41
0
  0
VERTEX
  8
0
 10
1.86247
 20
7.69239
 30
0.0
 40
0
 41
0
  0
VERTEX
  8
0
 10
1.89714
 20
7.78694
 30
0.0
 40
0
 41
0
  0
VERTEX
  8
0
 10
1.93907
 20
7.85183
 30
0.0
 40
0
 41
0
  0
VERTEX
  8
0
 10
1.95682
 20
7.86968
 30
0.0
 40
0
 41
0
  0
VERTEX
  8
0
 10
1.96756
 20
7.88189
 30
0.0
 40
0
 41
0
  0
VERTEX
  8
0
 10
2.00444
 20
7.91433
 30
0.0
 40
0
 41
0
  0
VERTEX
  8
0
 10
2.05544
 20
7.95649
 30
0.0
 40
0
 41
0
  0
VERTEX
  8
0
 10
2.09961
 20
8.00347
 30
0.0
 40
0
 41
0
  0
VERTEX
  8
0
 10
2.12326
 20
8.0471
 30
0.0
 40
0
 41
0
  0
VERTEX
  8
0
 10
2.12679
 20
8.06261
 30
0.0
 40
0
 41
0
  0
VERTEX
  8
0
 10
2.13211
 20
8.07161
 30
0.0
 40
0
 41
0
  0
VERTEX
  8
0
 10
2.14708
 20
8.09924
 30
0.0
 40
0
 41
0
  0
VERTEX
  8
0
 10
2.16928
 20
8.13726
 30
0.0
 40
0
 41
0
  0
VERTEX
  8
0
 10
2.19596
 20
8.17057
 30
0.0
 40
0
 41
0
  0
VERTEX
  8
0
 10
2.22054
 20
8.18951
 30
0.0
 40
0
 41
0
  0
VERTEX
  8
0
 10
2.22982
 20
8.19314
 30
0.0
 40
0
 41
0
  0
SEQEND
 8
0
  0
POLYLINE
  8
0
 62
     33
 66
     1
 10
0
 20
0
 30
0.0
 70
     1
 40
0
 41
0
  0
VERTEX
  8
0
 10
2.20985
 20
8.07036
 30
0.0
 40
0
 41
0
  0
VERTEX
  8
0
 10
2.215
 20
8.06793
 30
0.0
 40
0
 41
0
  0
VERTEX
  8
0
 10
2.22862
 20
8.05638
 30
0.0
 40
0
 41
0
  0
VERTEX
  8
0
 10
2.23861
 20
8.03792
 30
0.0
 40
0
 41
0
  0
VERTEX
  8
0
 10
2.24186
 20
8.01633
 30
0.0
 40
0
 41
0
  0
VERTEX
  8
0
 10
2.24024
 20
7.99278
 30
0.0
 40
0
 41
0
  0
VERTEX
  8
0
 10
2.23583
 20
7.96864
 30
0.0
 40
0
 41
0
  0
VERTEX
  8
0
 10
2.23053
 20
7.9451
 30
0.0
 40
0
 41
0
  0
VERTEX
  8
0
 10
2.22635
 20
7.92339
 30
0.0
 40
0
 41
0
  0
VERTEX
  8
0
 10
2.22493
 20
7.90944
 30
0.0
 40
0
 41
0
  0
VERTEX
  8
0
 10
2.22526
 20
7.90483
 30
0.0
 40
0
 41
0
  0
VERTEX
  8
0
 10
2.21864
 20
7.90338
 30
0.0
 40
0
 41
0
  0
VERTEX
  8
0
 10
2.1971
 20
7.90668
 30
0.0
 40
0
 41
0
  0
VERTEX
  8
0
 10
2.18143
 20
7.92057
 30
0.0
 40
0
 41
0
  0
VERTEX
  8
0
 10
2.18354
 20
7.93713
 30
0.0
 40
0
 41
0
  0
VERTEX
  8
0
 10
2.20226
 20
7.9464
 30
0.0
 40
0
 41
0
  0
VERTEX
  8
0
 10
2.20876
 20
7.94694
 30
0.0
 40
0
 41
0
  0
VERTEX
  8
0
 10
2.2099
 20
7.95275
 30
0.0
 40
0
 41
0
  0
VERTEX
  8
0
 10
2.20936
 20
7.97086
 30
0.0
 40
0
 41
0
  0
VERTEX
  8
0
 10
2.2009
 20
7.97939
 30
0.0
 40
0
 41
0
  0
VERTEX
  8
0
 10
2.18804
 20
7.97586
 30
0.0
 40
0
 41
0
  0
VERTEX
  8
0
 10
2.17796
 20
7.96707
 30
0.0
 40
0
 41
0
  0
VERTEX
  8
0
 10
2.17546
 20
7.96354
 30
0.0
 40
0
 41
0
  0
VERTEX
  8
0
 10
2.17356
 20
7.97043
 30
0.0
 40
0
 41
0
  0
VERTEX
  8
0
 10
2.17199
 20
7.99224
 30
0.0
 40
0
 41
0
  0
VERTEX
  8
0
 10
2.17578
 20
8.02463
 30
0.0
 40
0
 41
0
  0
VERTEX
  8
0
 10
2.18799
 20
8.05317
 30
0.0
 40
0
 41
0
  0
VERTEX
  8
0
 10
2.20361
 20
8.06831
 30
0.0
 40
0
 41
0
  0
VERTEX
  8
0
 10
2.20985
 20
8.07036
 30
0.0
 40
0
 41
0
  0
SEQEND
 8
0
  0
POLYLINE
  8
0
 62
     33
 66
     1
 10
0
 20
0
 30
0.0
 70
     1
 40
0
 41
0
  0
VERTEX
  8
0
 10
2.33572
 20
7.95682
 30
0.0
 40
0
 41
0
  0
VERTEX
  8
0
 10
2.33681
 20
7.95247
 30
0.0
 40
0
 41
0
  0
VERTEX
  8
0
 10
2.33806
 20
7.93881
 30
0.0
 40
0
 41
0
  0
VERTEX
  8
0
 10
2.33653
 20
7.92253
 30
0.0
 40
0
 41
0
  0
VERTEX
  8
0
 10
2.33268
 20
7.90935
 30
0.0
 40
0
 41
0
  0
VERTEX
  8
0
 10
2.3279
 20
7.90067
 30
0.0
 40
0
 41
0
  0
VERTEX
  8
0
 10
2.32383
 20
7.89785
 30
0.0
 40
0
 41
0
  0
VERTEX
  8
0
 10
2.32189
 20
7.90224
 30
0.0
 40
0
 41
0
  0
VERTEX
  8
0
 10
2.32357
 20
7.91521
 30
0.0
 40
0
 41
0
  0
VERTEX
  8
0
 10
2.32844
 20
7.93251
 30
0.0
 40
0
 41
0
  0
VERTEX
  8
0
 10
2.3304
 20
7.9381
 30
0.0
 40
0
 41
0
  0
VERTEX
  8
0
 10
2.33572
 20
7.95682
 30
0.0
 40
0
 41
0
  0
SEQEND
 8
0
  0
POLYLINE
  8
0
 62
     33
 66
     1
 10
0
 20
0
 30
0.0
 70
     1
 40
0
 41
0
  0
VERTEX
  8
0
 10
2.52229
 20
7.7506
 30
0.0
 40
0
 41
0
  0
VERTEX
  8
0
 10
2.52458
 20
7.74083
 30
0.0
 40
0
 41
0
  0
VERTEX
  8
0
 10
2.54281
 20
7.71397
 30
0.0
 40
0
 41
0
  0
VERTEX
  8
0
 10
2.57514
 20
7.70025
 30
0.0
 40
0
 41
0
  0
VERTEX
  8
0
 10
2.61225
 20
7.69667
 30
0.0
 40
0
 41
0
  0
VERTEX
  8
0
 10
2.639
 20
7.69347
 30
0.0
 40
0
 41
0
  0
VERTEX
  8
0
 10
2.64714
 20
7.69037
 30
0.0
 40
0
 41
0
  0
VERTEX
  8
0
 10
2.64051
 20
7.68847
 30
0.0
 40
0
 41
0
  0
VERTEX
  8
0
 10
2.62147
 20
7.68024
 30
0.0
 40
0
 41
0
  0
VERTEX
  8
0
 10
2.60519
 20
7.6696
 30
0.0
 40
0
 41
0
  0
VERTEX
  8
0
 10
2.58599
 20
7.6581
 30
0.0
 40
0
 41
0
  0
VERTEX
  8
0
 10
2.56017
 20
7.64774
 30
0.0
 40
0
 41
0
  0
VERTEX
  8
0
 10
2.55138
 20
7.64512
 30
0.0
 40
0
 41
0
  0
VERTEX
  8
0
 10
2.54844
 20
7.63894
 30
0.0
 40
0
 41
0
  0
VERTEX
  8
0
 10
2.53407
 20
7.62294
 30
0.0
 40
0
 41
0
  0
VERTEX
  8
0
 10
2.51628
 20
7.62158
 30
0.0
 40
0
 41
0
  0
VERTEX
  8
0
 10
2.49968
 20
7.63422
 30
0.0
 40
0
 41
0
  0
VERTEX
  8
0
 10
2.48583
 20
7.65403
 30
0.0
 40
0
 41
0
  0
VERTEX
  8
0
 10
2.4764
 20
7.6741
 30
0.0
 40
0
 41
0
  0
VERTEX
  8
0
 10
2.47287
 20
7.68756
 30
0.0
 40
0
 41
0
  0
VERTEX
  8
0
 10
2.47694
 20
7.6875
 30
0.0
 40
0
 41
0
  0
VERTEX
  8
0
 10
2.48719
 20
7.67231
 30
0.0
 40
0
 41
0
  0
VERTEX
  8
0
 10
2.49018
 20
7.66699
 30
0.0
 40
0
 41
0
  0
VERTEX
  8
0
 10
2.49669
 20
7.66075
 30
0.0
 40
0
 41
0
  0
VERTEX
  8
0
 10
2.51812
 20
7.64378
 30
0.0
 40
0
 41
0
  0
VERTEX
  8
0
 10
2.53331
 20
7.63878
 30
0.0
 40
0
 41
0
  0
VERTEX
  8
0
 10
2.53874
 20
7.64774
 30
0.0
 40
0
 41
0
  0
VERTEX
  8
0
 10
2.53728
 20
7.66635
 30
0.0
 40
0
 41
0
  0
VERTEX
  8
0
 10
2.53196
 20
7.69021
 30
0.0
 40
0
 41
0
  0
VERTEX
  8
0
 10
2.52572
 20
7.71511
 30
0.0
 40
0
 41
0
  0
VERTEX
  8
0
 10
2.52149
 20
7.73671
 30
0.0
 40
0
 41
0
  0
VERTEX
  8
0
 10
2.52089
 20
7.74778
 30
0.0
 40
0
 41
0
  0
VERTEX
  8
0
 10
2.52229
 20
7.7506
 30
0.0
 40
0
 41
0
  0
SEQEND
 8
0
  0
POLYLINE
  8
0
 62
     33
 66
     1
 10
0
 20
0
 30
0.0
 70
     1
 40
0
 41
0
  0
VERTEX
  8
0
 10
2.46853
 20
7.52522
 30
0.0
 40
0
 41
0
  0
VERTEX
  8
0
 10
2.47086
 20
7.51042
 30
0.0
 40
0
 41
0
  0
VERTEX
  8
0
 10
2.49468
 20
7.46853
 30
0.0
 40
0
 41
0
  0
VERTEX
  8
0
 10
2.54492
 20
7.42567
 30
0.0
 40
0
 41
0
  0
VERTEX
  8
0
 10
2.6071
 20
7.39546
 30
0.0
 40
0
 41
0
  0
VERTEX
  8
0
 10
2.65338
 20
7.38032
 30
0.0
 40
0
 41
0
  0
VERTEX
  8
0
 10
2.66917
 20
7.37663
 30
0.0
 40
0
 41
0
  0
VERTEX
  8
0
 10
2.68371
 20
7.37457
 30
0.0
 40
0
 41
0
  0
VERTEX
  8
0
 10
2.72868
 20
7.37651
 30
0.0
 40
0
 41
0
  0
VERTEX
  8
0
 10
2.78569
 20
7.39307
 30
0.0
 40
0
 41
0
  0
VERTEX
  8
0
 10
2.83279
 20
7.42665
 30
0.0
 40
0
 41
0
  0
VERTEX
  8
0
 10
2.85835
 20
7.46382
 30
0.0
 40
0
 41
0
  0
VERTEX
  8
0
 10
2.86268
 20
7.47749
 30
0.0
 40
0
 41
0
  0
VERTEX
  8
0
 10
2.86469
 20
7.4809
 30
0.0
 40
0
 41
0
  0
VERTEX
  8
0
 10
2.8725
 20
7.49007
 30
0.0
 40
0
 41
0
  0
VERTEX
  8
0
 10
2.87706
 20
7.48703
 30
0.0
 40
0
 41
0
  0
VERTEX
  8
0
 10
2.87739
 20
7.47233
 30
0.0
 40
0
 41
0
  0
VERTEX
  8
0
 10
2.87451
 20
7.44982
 30
0.0
 40
0
 41
0
  0
VERTEX
  8
0
 10
2.86957
 20
7.4235
 30
0.0
 40
0
 41
0
  0
VERTEX
  8
0
 10
2.86356
 20
7.39729
 30
0.0
 40
0
 41
0
  0
VERTEX
  8
0
 10
2.85758
 20
7.37517
 30
0.0
 40
0
 41
0
  0
VERTEX
  8
0
 10
2.85428
 20
7.36436
 30
0.0
 40
0
 41
0
  0
VERTEX
  8
0
 10
2.85275
 20
7.36094
 30
0.0
 40
0
 41
0
  0
VERTEX
  8
0
 10
2.84939
 20
7.34831
 30
0.0
 40
0
 41
0
  0
VERTEX
  8
0
 10
2.83008
 20
7.31267
 30
0.0
 40
0
 41
0
  0
VERTEX
  8
0
 10
2.79156
 20
7.26969
 30
0.0
 40
0
 41
0
  0
VERTEX
  8
0
 10
2.74224
 20
7.23639
 30
0.0
 40
0
 41
0
  0
VERTEX
  8
0
 10
2.70139
 20
7.21994
 30
0.0
 40
0
 41
0
  0
VERTEX
  8
0
 10
2.68728
 20
7.21729
 30
0.0
 40
0
 41
0
  0
VERTEX
  8
0
 10
2.67822
 20
7.21446
 30
0.0
 40
0
 41
0
  0
VERTEX
  8
0
 10
2.64962
 20
7.21035
 30
0.0
 40
0
 41
0
  0
VERTEX
  8
0
 10
2.61296
 20
7.21257
 30
0.0
 40
0
 41
0
  0
VERTEX
  8
0
 10
2.57824
 20
7.22304
 30
0.0
 40
0
 41
0
  0
VERTEX
  8
0
 10
2.5465
 20
7.24067
 30
0.0
 40
0
 41
0
  0
VERTEX
  8
0
 10
2.51872
 20
7.26449
 30
0.0
 40
0
 41
0
  0
VERTEX
  8
0
 10
2.49599
 20
7.29346
 30
0.0
 40
0
 41
0
  0
VERTEX
  8
0
 10
2.47928
 20
7.3265
 30
0.0
 40
0
 41
0
  0
VERTEX
  8
0
 10
2.47108
 20
7.35351
 30
0.0
 40
0
 41
0
  0
VERTEX
  8
0
 10
2.46967
 20
7.36268
 30
0.0
 40
0
 41
0
  0
VERTEX
  8
0
 10
2.47131
 20
7.37364
 30
0.0
 40
0
 41
0
  0
VERTEX
  8
0
 10
2.472
 20
7.40712
 30
0.0
 40
0
 41
0
  0
VERTEX
  8
0
 10
2.4669
 20
7.44146
 30
0.0
 40
0
 41
0
  0
VERTEX
  8
0
 10
2.46044
 20
7.47607
 30
0.0
 40
0
 41
0
  0
VERTEX
  8
0
 10
2.45817
 20
7.5101
 30
0.0
 40
0
 41
0
  0
VERTEX
  8
0
 10
2.45876
 20
7.52132
 30
0.0
 40
0
 41
0
  0
VERTEX
  8
0
 10
2.46853
 20
7.52522
 30
0.0
 40
0
 41
0
  0
SEQEND
 8
0
  0
POLYLINE
  8
0
 62
     33
 66
     1
 10
0
 20
0
 30
0.0
 70
     1
 40
0
 41
0
  0
VERTEX
  8
0
 10
1.84044
 20
6.9846
 30
0.0
 40
0
 41
0
  0
VERTEX
  8
0
 10
1.85107
 20
6.96853
 30
0.0
 40
0
 41
0
  0
VERTEX
  8
0
 10
1.88531
 20
6.87369
 30
0.0
 40
0
 41
0
  0
VERTEX
  8
0
 10
1.91835
 20
6.77593
 30
0.0
 40
0
 41
0
  0
VERTEX
  8
0
 10
1.92844
 20
6.7584
 30
0.0
 40
0
 41
0
  0
VERTEX
  8
0
 10
1.93892
 20
6.73936
 30
0.0
 40
0
 41
0
  0
VERTEX
  8
0
 10
2.04943
 20
6.55328
 30
0.0
 40
0
 41
0
  0
VERTEX
  8
0
 10
2.06228
 20
6.5356
 30
0.0
 40
0
 41
0
  0
VERTEX
  8
0
 10
2.06603
 20
6.5286
 30
0.0
 40
0
 41
0
  0
VERTEX
  8
0
 10
2.08143
 20
6.50956
 30
0.0
 40
0
 41
0
  0
VERTEX
  8
0
 10
2.10069
 20
6.49968
 30
0.0
 40
0
 41
0
  0
VERTEX
  8
0
 10
2.11942
 20
6.5031
 30
0.0
 40
0
 41
0
  0
VERTEX
  8
0
 10
2.13683
 20
6.51682
 30
0.0
 40
0
 41
0
  0
VERTEX
  8
0
 10
2.15224
 20
6.53797
 30
0.0
 40
0
 41
0
  0
VERTEX
  8
0
 10
2.16488
 20
6.56358
 30
0.0
 40
0
 41
0
  0
VERTEX
  8
0
 10
2.17415
 20
6.59076
 30
0.0
 40
0
 41
0
  0
VERTEX
  8
0
 10
2.17854
 20
6.61003
 30
0.0
 40
0
 41
0
  0
VERTEX
  8
0
 10
2.17931
 20
6.61649
 30
0.0
 40
0
 41
0
  0
VERTEX
  8
0
 10
2.17958
 20
6.61974
 30
0.0
 40
0
 41
0
  0
VERTEX
  8
0
 10
2.18121
 20
6.62944
 30
0.0
 40
0
 41
0
  0
VERTEX
  8
0
 10
2.18431
 20
6.64279
 30
0.0
 40
0
 41
0
  0
VERTEX
  8
0
 10
2.18804
 20
6.65483
 30
0.0
 40
0
 41
0
  0
VERTEX
  8
0
 10
2.19179
 20
6.66396
 30
0.0
 40
0
 41
0
  0
VERTEX
  8
0
 10
2.19488
 20
6.6684
 30
0.0
 40
0
 41
0
  0
VERTEX
  8
0
 10
2.19678
 20
6.66656
 30
0.0
 40
0
 41
0
  0
VERTEX
  8
0
 10
2.19683
 20
6.65668
 30
0.0
 40
0
 41
0
  0
VERTEX
  8
0
 10
2.19521
 20
6.64193
 30
0.0
 40
0
 41
0
  0
VERTEX
  8
0
 10
2.1945
 20
6.63704
 30
0.0
 40
0
 41
0
  0
VERTEX
  8
0
 10
2.19347
 20
6.62358
 30
0.0
 40
0
 41
0
  0
VERTEX
  8
0
 10
2.18549
 20
6.58356
 30
0.0
 40
0
 41
0
  0
VERTEX
  8
0
 10
2.17074
 20
6.52647
 30
0.0
 40
0
 41
0
  0
VERTEX
  8
0
 10
2.15713
 20
6.47364
 30
0.0
 40
0
 41
0
  0
VERTEX
  8
0
 10
2.15132
 20
6.44287
 30
0.0
 40
0
 41
0
  0
VERTEX
  8
0
 10
2.15158
 20
6.43267
 30
0.0
 40
0
 41
0
  0
VERTEX
  8
0
 10
2.14356
 20
6.43457
 30
0.0
 40
0
 41
0
  0
VERTEX
  8
0
 10
2.12022
 20
6.44336
 30
0.0
 40
0
 41
0
  0
VERTEX
  8
0
 10
2.09608
 20
6.45833
 30
0.0
 40
0
 41
0
  0
VERTEX
  8
0
 10
2.07742
 20
6.47689
 30
0.0
 40
0
 41
0
  0
VERTEX
  8
0
 10
2.06256
 20
6.49826
 30
0.0
 40
0
 41
0
  0
VERTEX
  8
0
 10
2.04975
 20
6.52175
 30
0.0
 40
0
 41
0
  0
VERTEX
  8
0
 10
2.03733
 20
6.54671
 30
0.0
 40
0
 41
0
  0
VERTEX
  8
0
 10
2.02344
 20
6.57232
 30
0.0
 40
0
 41
0
  0
VERTEX
  8
0
 10
2.01112
 20
6.59179
 30
0.0
 40
0
 41
0
  0
VERTEX
  8
0
 10
2.00657
 20
6.59788
 30
0.0
 40
0
 41
0
  0
VERTEX
  8
0
 10
1.99425
 20
6.61529
 30
0.0
 40
0
 41
0
  0
VERTEX
  8
0
 10
1.94032
 20
6.7066
 30
0.0
 40
0
 41
0
  0
VERTEX
  8
0
 10
1.89008
 20
6.79997
 30
0.0
 40
0
 41
0
  0
VERTEX
  8
0
 10
1.87967
 20
6.81836
 30
0.0
 40
0
 41
0
  0
VERTEX
  8
0
 10
1.87326
 20
6.82086
 30
0.0
 40
0
 41
0
  0
VERTEX
  8
0
 10
1.85215
 20
6.82314
 30
0.0
 40
0
 41
0
  0
VERTEX
  8
0
 10
1.82297
 20
6.81853
 30
0.0
 40
0
 41
0
  0
VERTEX
  8
0
 10
1.80176
 20
6.80376
 30
0.0
 40
0
 41
0
  0
VERTEX
  8
0
 10
1.79671
 20
6.78369
 30
0.0
 40
0
 41
0
  0
VERTEX
  8
0
 10
1.79829
 20
6.77789
 30
0.0
 40
0
 41
0
  0
VERTEX
  8
0
 10
1.79568
 20
6.78961
 30
0.0
 40
0
 41
0
  0
VERTEX
  8
0
 10
1.78353
 20
6.82362
 30
0.0
 40
0
 41
0
  0
VERTEX
  8
0
 10
1.76682
 20
6.87056
 30
0.0
 40
0
 41
0
  0
VERTEX
  8
0
 10
1.76004
 20
6.91721
 30
0.0
 40
0
 41
0
  0
VERTEX
  8
0
 10
1.76856
 20
6.95275
 30
0.0
 40
0
 41
0
  0
VERTEX
  8
0
 10
1.77501
 20
6.96213
 30
0.0
 40
0
 41
0
  0
VERTEX
  8
0
 10
1.78011
 20
6.96468
 30
0.0
 40
0
 41
0
  0
VERTEX
  8
0
 10
1.8074
 20
6.97396
 30
0.0
 40
0
 41
0
  0
VERTEX
  8
0
 10
1.83507
 20
6.98242
 30
0.0
 40
0
 41
0
  0
VERTEX
  8
0
 10
1.84044
 20
6.9846
 30
0.0
 40
0
 41
0
  0
SEQEND
 8
0
  0
POLYLINE
  8
0
 62
     33
 66
     1
 10
0
 20
0
 30
0.0
 70
     1
 40
0
 41
0
  0
VERTEX
  8
0
 10
2.76031
 20
6.84554
 30
0.0
 40
0
 41
0
  0
VERTEX
  8
0
 10
2.7596
 20
6.84256
 30
0.0
 40
0
 41
0
  0
VERTEX
  8
0
 10
2.75271
 20
6.83464
 30
0.0
 40
0
 41
0
  0
VERTEX
  8
0
 10
2.73833
 20
6.82639
 30
0.0
 40
0
 41
0
  0
VERTEX
  8
0
 10
2.72097
 20
6.82081
 30
0.0
 40
0
 41
0
  0
VERTEX
  8
0
 10
2.70454
 20
6.81793
 30
0.0
 40
0
 41
0
  0
VERTEX
  8
0
 10
2.69282
 20
6.81771
 30
0.0
 40
0
 41
0
  0
VERTEX
  8
0
 10
2.68972
 20
6.82026
 30
0.0
 40
0
 41
0
  0
VERTEX
  8
0
 10
2.699
 20
6.82553
 30
0.0
 40
0
 41
0
  0
VERTEX
  8
0
 10
2.7181
 20
6.83182
 30
0.0
 40
0
 41
0
  0
VERTEX
  8
0
 10
2.72461
 20
6.8335
 30
0.0
 40
0
 41
0
  0
VERTEX
  8
0
 10
2.7276
 20
6.83447
 30
0.0
 40
0
 41
0
  0
VERTEX
  8
0
 10
2.75722
 20
6.84478
 30
0.0
 40
0
 41
0
  0
VERTEX
  8
0
 10
2.76031
 20
6.84554
 30
0.0
 40
0
 41
0
  0
SEQEND
 8
0
  0
POLYLINE
  8
0
 62
     33
 66
     1
 10
0
 20
0
 30
0.0
 70
     1
 40
0
 41
0
  0
VERTEX
  8
0
 10
2.60726
 20
6.79986
 30
0.0
 40
0
 41
0
  0
VERTEX
  8
0
 10
2.60682
 20
6.78494
 30
0.0
 40
0
 41
0
  0
VERTEX
  8
0
 10
2.60292
 20
6.70318
 30
0.0
 40
0
 41
0
  0
VERTEX
  8
0
 10
2.59944
 20
6.61871
 30
0.0
 40
0
 41
0
  0
VERTEX
  8
0
 10
2.59928
 20
6.60243
 30
0.0
 40
0
 41
0
  0
VERTEX
  8
0
 10
2.59956
 20
6.59586
 30
0.0
 40
0
 41
0
  0
VERTEX
  8
0
 10
2.59793
 20
6.57596
 30
0.0
 40
0
 41
0
  0
VERTEX
  8
0
 10
2.59754
 20
6.54969
 30
0.0
 40
0
 41
0
  0
VERTEX
  8
0
 10
2.60726
 20
6.53185
 30
0.0
 40
0
 41
0
  0
VERTEX
  8
0
 10
2.62929
 20
6.52908
 30
0.0
 40
0
 41
0
  0
VERTEX
  8
0
 10
2.63601
 20
6.53065
 30
0.0
 40
0
 41
0
  0
VERTEX
  8
0
 10
2.64274
 20
6.52994
 30
0.0
 40
0
 41
0
  0
VERTEX
  8
0
 10
2.66271
 20
6.52425
 30
0.0
 40
0
 41
0
  0
VERTEX
  8
0
 10
2.6729
 20
6.51682
 30
0.0
 40
0
 41
0
  0
VERTEX
  8
0
 10
2.66553
 20
6.51492
 30
0.0
 40
0
 41
0
  0
VERTEX
  8
0
 10
2.64556
 20
6.52181
 30
0.0
 40
0
 41
0
  0
VERTEX
  8
0
 10
2.63938
 20
6.5249
 30
0.0
 40
0
 41
0
  0
VERTEX
  8
0
 10
2.63238
 20
6.523
 30
0.0
 40
0
 41
0
  0
VERTEX
  8
0
 10
2.61247
 20
6.51389
 30
0.0
 40
0
 41
0
  0
VERTEX
  8
0
 10
2.60101
 20
6.50076
 30
0.0
 40
0
 41
0
  0
VERTEX
  8
0
 10
2.60211
 20
6.48643
 30
0.0
 40
0
 41
0
  0
VERTEX
  8
0
 10
2.61279
 20
6.47194
 30
0.0
 40
0
 41
0
  0
VERTEX
  8
0
 10
2.63026
 20
6.45817
 30
0.0
 40
0
 41
0
  0
VERTEX
  8
0
 10
2.65147
 20
6.44601
 30
0.0
 40
0
 41
0
  0
VERTEX
  8
0
 10
2.67367
 20
6.43647
 30
0.0
 40
0
 41
0
  0
VERTEX
  8
0
 10
2.68869
 20
6.43153
 30
0.0
 40
0
 41
0
  0
VERTEX
  8
0
 10
2.69385
 20
6.43039
 30
0.0
 40
0
 41
0
  0
VERTEX
  8
0
 10
2.70454
 20
6.42329
 30
0.0
 40
0
 41
0
  0
VERTEX
  8
0
 10
2.7334
 20
6.39692
 30
0.0
 40
0
 41
0
  0
VERTEX
  8
0
 10
2.76585
 20
6.35601
 30
0.0
 40
0
 41
0
  0
VERTEX
  8
0
 10
2.79053
 20
6.31179
 30
0.0
 40
0
 41
0
  0
VERTEX
  8
0
 10
2.80371
 20
6.27935
 30
0.0
 40
0
 41
0
  0
VERTEX
  8
0
 10
2.80692
 20
6.26818
 30
0.0
 40
0
 41
0
  0
VERTEX
  8
0
 10
2.81108
 20
6.28401
 30
0.0
 40
0
 41
0
  0
VERTEX
  8
0
 10
2.81418
 20
6.3341
 30
0.0
 40
0
 41
0
  0
VERTEX
  8
0
 10
2.80154
 20
6.39774
 30
0.0
 40
0
 41
0
  0
VERTEX
  8
0
 10
2.76893
 20
6.45296
 30
0.0
 40
0
 41
0
  0
VERTEX
  8
0
 10
2.7309
 20
6.48633
 30
0.0
 40
0
 41
0
  0
VERTEX
  8
0
 10
2.71636
 20
6.49354
 30
0.0
 40
0
 41
0
  0
VERTEX
  8
0
 10
2.71485
 20
6.4955
 30
0.0
 40
0
 41
0
  0
VERTEX
  8
0
 10
2.71153
 20
6.50228
 30
0.0
 40
0
 41
0
  0
VERTEX
  8
0
 10
2.71631
 20
6.50222
 30
0.0
 40
0
 41
0
  0
VERTEX
  8
0
 10
2.72814
 20
6.49533
 30
0.0
 40
0
 41
0
  0
VERTEX
  8
0
 10
2.74431
 20
6.48351
 30
0.0
 40
0
 41
0
  0
VERTEX
  8
0
 10
2.76221
 20
6.46869
 30
0.0
 40
0
 41
0
  0
VERTEX
  8
0
 10
2.77924
 20
6.45275
 30
0.0
 40
0
 41
0
  0
VERTEX
  8
0
 10
2.79281
 20
6.43772
 30
0.0
 40
0
 41
0
  0
VERTEX
  8
0
 10
2.7991
 20
6.42876
 30
0.0
 40
0
 41
0
  0
VERTEX
  8
0
 10
2.80024
 20
6.4254
 30
0.0
 40
0
 41
0
  0
VERTEX
  8
0
 10
2.80686
 20
6.41407
 30
0.0
 40
0
 41
0
  0
VERTEX
  8
0
 10
2.82047
 20
6.37625
 30
0.0
 40
0
 41
0
  0
VERTEX
  8
0
 10
2.82835
 20
6.32086
 30
0.0
 40
0
 41
0
  0
VERTEX
  8
0
 10
2.82075
 20
6.26687
 30
0.0
 40
0
 41
0
  0
VERTEX
  8
0
 10
2.80328
 20
6.23096
 30
0.0
 40
0
 41
0
  0
VERTEX
  8
0
 10
2.79454
 20
6.22185
 30
0.0
 40
0
 41
0
  0
VERTEX
  8
0
 10
2.79329
 20
6.23292
 30
0.0
 40
0
 41
0
  0
VERTEX
  8
0
 10
2.7889
 20
6.266
 30
0.0
 40
0
 41
0
  0
VERTEX
  8
0
 10
2.77903
 20
6.30908
 30
0.0
 40
0
 41
0
  0
VERTEX
  8
0
 10
2.76079
 20
6.34847
 30
0.0
 40
0
 41
0
  0
VERTEX
  8
0
 10
2.73893
 20
6.37468
 30
0.0
 40
0
 41
0
  0
VERTEX
  8
0
 10
2.73014
 20
6.38129
 30
0.0
 40
0
 41
0
  0
VERTEX
  8
0
 10
2.72624
 20
6.38829
 30
0.0
 40
0
 41
0
  0
VERTEX
  8
0
 10
2.70893
 20
6.40614
 30
0.0
 40
0
 41
0
  0
VERTEX
  8
0
 10
2.68121
 20
6.42264
 30
0.0
 40
0
 41
0
  0
VERTEX
  8
0
 10
2.65044
 20
6.43431
 30
0.0
 40
0
 41
0
  0
VERTEX
  8
0
 10
2.62028
 20
6.44456
 30
0.0
 40
0
 41
0
  0
VERTEX
  8
0
 10
2.59412
 20
6.45682
 30
0.0
 40
0
 41
0
  0
VERTEX
  8
0
 10
2.57563
 20
6.47456
 30
0.0
 40
0
 41
0
  0
VERTEX
  8
0
 10
2.56831
 20
6.50114
 30
0.0
 40
0
 41
0
  0
VERTEX
  8
0
 10
2.57254
 20
6.53082
 30
0.0
 40
0
 41
0
  0
VERTEX
  8
0
 10
2.57574
 20
6.54004
 30
0.0
 40
0
 41
0
  0
VERTEX
  8
0
 10
2.57547
 20
6.56017
 30
0.0
 40
0
 41
0
  0
VERTEX
  8
0
 10
2.58903
 20
6.76031
 30
0.0
 40
0
 41
0
  0
VERTEX
  8
0
 10
2.58963
 20
6.78022
 30
0.0
 40
0
 41
0
  0
VERTEX
  8
0
 10
2.56862
 20
6.77806
 30
0.0
 40
0
 41
0
  0
VERTEX
  8
0
 10
2.46332
 20
6.77061
 30
0.0
 40
0
 41
0
  0
VERTEX
  8
0
 10
2.35781
 20
6.77419
 30
0.0
 40
0
 41
0
  0
VERTEX
  8
0
 10
2.33675
 20
6.77746
 30
0.0
 40
0
 41
0
  0
VERTEX
  8
0
 10
2.3349
 20
6.77854
 30
0.0
 40
0
 41
0
  0
VERTEX
  8
0
 10
2.33062
 20
6.78396
 30
0.0
 40
0
 41
0
  0
VERTEX
  8
0
 10
2.33692
 20
6.78792
 30
0.0
 40
0
 41
0
  0
VERTEX
  8
0
 10
2.35249
 20
6.78993
 30
0.0
 40
0
 41
0
  0
VERTEX
  8
0
 10
2.37424
 20
6.79053
 30
0.0
 40
0
 41
0
  0
VERTEX
  8
0
 10
2.39903
 20
6.79025
 30
0.0
 40
0
 41
0
  0
VERTEX
  8
0
 10
2.42383
 20
6.78965
 30
0.0
 40
0
 41
0
  0
VERTEX
  8
0
 10
2.44547
 20
6.78917
 30
0.0
 40
0
 41
0
  0
VERTEX
  8
0
 10
2.45703
 20
6.78917
 30
0.0
 40
0
 41
0
  0
VERTEX
  8
0
 10
2.46089
 20
6.78939
 30
0.0
 40
0
 41
0
  0
VERTEX
  8
0
 10
2.47314
 20
6.78933
 30
0.0
 40
0
 41
0
  0
VERTEX
  8
0
 10
2.59506
 20
6.79856
 30
0.0
 40
0
 41
0
  0
VERTEX
  8
0
 10
2.60726
 20
6.79986
 30
0.0
 40
0
 41
0
  0
SEQEND
 8
0
  0
POLYLINE
  8
0
 62
     33
 66
     1
 10
0
 20
0
 30
0.0
 70
     1
 40
0
 41
0
  0
VERTEX
  8
0
 10
1.80171
 20
6.76893
 30
0.0
 40
0
 41
0
  0
VERTEX
  8
0
 10
1.81207
 20
6.75136
 30
0.0
 40
0
 41
0
  0
VERTEX
  8
0
 10
1.84944
 20
6.65451
 30
0.0
 40
0
 41
0
  0
VERTEX
  8
0
 10
1.88379
 20
6.55524
 30
0.0
 40
0
 41
0
  0
VERTEX
  8
0
 10
1.89268
 20
6.53646
 30
0.0
 40
0
 41
0
  0
VERTEX
  8
0
 10
1.90483
 20
6.50635
 30
0.0
 40
0
 41
0
  0
VERTEX
  8
0
 10
1.98807
 20
6.36729
 30
0.0
 40
0
 41
0
  0
VERTEX
  8
0
 10
2.09272
 20
6.24328
 30
0.0
 40
0
 41
0
  0
VERTEX
  8
0
 10
2.11561
 20
6.2206
 30
0.0
 40
0
 41
0
  0
VERTEX
  8
0
 10
2.11768
 20
6.21789
 30
0.0
 40
0
 41
0
  0
VERTEX
  8
0
 10
2.12554
 20
6.21078
 30
0.0
 40
0
 41
0
  0
VERTEX
  8
0
 10
2.14057
 20
6.19917
 30
0.0
 40
0
 41
0
  0
VERTEX
  8
0
 10
2.15739
 20
6.18728
 30
0.0
 40
0
 41
0
  0
VERTEX
  8
0
 10
2.1729
 20
6.1766
 30
0.0
 40
0
 41
0
  0
VERTEX
  8
0
 10
2.18381
 20
6.16851
 30
0.0
 40
0
 41
0
  0
VERTEX
  8
0
 10
2.18701
 20
6.16456
 30
0.0
 40
0
 41
0
  0
VERTEX
  8
0
 10
2.17919
 20
6.16618
 30
0.0
 40
0
 41
0
  0
VERTEX
  8
0
 10
2.16271
 20
6.17258
 30
0.0
 40
0
 41
0
  0
VERTEX
  8
0
 10
2.15728
 20
6.17486
 30
0.0
 40
0
 41
0
  0
VERTEX
  8
0
 10
2.13519
 20
6.19342
 30
0.0
 40
0
 41
0
  0
VERTEX
  8
0
 10
2.03049
 20
6.29428
 30
0.0
 40
0
 41
0
  0
VERTEX
  8
0
 10
1.93918
 20
6.4069
 30
0.0
 40
0
 41
0
  0
VERTEX
  8
0
 10
1.92378
 20
6.43137
 30
0.0
 40
0
 41
0
  0
VERTEX
  8
0
 10
1.90918
 20
6.45676
 30
0.0
 40
0
 41
0
  0
VERTEX
  8
0
 10
1.85351
 20
6.59104
 30
0.0
 40
0
 41
0
  0
VERTEX
  8
0
 10
1.8086
 20
6.7296
 30
0.0
 40
0
 41
0
  0
VERTEX
  8
0
 10
1.79937
 20
6.75706
 30
0.0
 40
0
 41
0
  0
VERTEX
  8
0
 10
1.79949
 20
6.76531
 30
0.0
 40
0
 41
0
  0
VERTEX
  8
0
 10
1.80171
 20
6.76893
 30
0.0
 40
0
 41
0
  0
SEQEND
 8
0
  0
POLYLINE
  8
0
 62
     33
 66
     1
 10
0
 20
0
 30
0.0
 70
     1
 40
0
 41
0
  0
VERTEX
  8
0
 10
2.41439
 20
6.7156
 30
0.0
 40
0
 41
0
  0
VERTEX
  8
0
 10
2.42117
 20
6.70394
 30
0.0
 40
0
 41
0
  0
VERTEX
  8
0
 10
2.43608
 20
6.66553
 30
0.0
 40
0
 41
0
  0
VERTEX
  8
0
 10
2.45079
 20
6.61062
 30
0.0
 40
0
 41
0
  0
VERTEX
  8
0
 10
2.46419
 20
6.55447
 30
0.0
 40
0
 41
0
  0
VERTEX
  8
0
 10
2.47651
 20
6.51357
 30
0.0
 40
0
 41
0
  0
VERTEX
  8
0
 10
2.48204
 20
6.50054
 30
0.0
 40
0
 41
0
  0
VERTEX
  8
0
 10
2.48617
 20
6.49414
 30
0.0
 40
0
 41
0
  0
VERTEX
  8
0
 10
2.49274
 20
6.47092
 30
0.0
 40
0
 41
0
  0
VERTEX
  8
0
 10
2.48958
 20
6.44217
 30
0.0
 40
0
 41
0
  0
VERTEX
  8
0
 10
2.47613
 20
6.41644
 30
0.0
 40
0
 41
0
  0
VERTEX
  8
0
 10
2.456
 20
6.39611
 30
0.0
 40
0
 41
0
  0
VERTEX
  8
0
 10
2.43278
 20
6.38336
 30
0.0
 40
0
 41
0
  0
VERTEX
  8
0
 10
2.41004
 20
6.38043
 30
0.0
 40
0
 41
0
  0
VERTEX
  8
0
 10
2.39144
 20
6.38954
 30
0.0
 40
0
 41
0
  0
VERTEX
  8
0
 10
2.38167
 20
6.40679
 30
0.0
 40
0
 41
0
  0
VERTEX
  8
0
 10
2.38053
 20
6.41292
 30
0.0
 40
0
 41
0
  0
VERTEX
  8
0
 10
2.38715
 20
6.40739
 30
0.0
 40
0
 41
0
  0
VERTEX
  8
0
 10
2.41086
 20
6.39507
 30
0.0
 40
0
 41
0
  0
VERTEX
  8
0
 10
2.43419
 20
6.39567
 30
0.0
 40
0
 41
0
  0
VERTEX
  8
0
 10
2.4509
 20
6.41069
 30
0.0
 40
0
 41
0
  0
VERTEX
  8
0
 10
2.46115
 20
6.43593
 30
0.0
 40
0
 41
0
  0
VERTEX
  8
0
 10
2.46533
 20
6.46724
 30
0.0
 40
0
 41
0
  0
VERTEX
  8
0
 10
2.46371
 20
6.50054
 30
0.0
 40
0
 41
0
  0
VERTEX
  8
0
 10
2.45654
 20
6.53168
 30
0.0
 40
0
 41
0
  0
VERTEX
  8
0
 10
2.44824
 20
6.55106
 30
0.0
 40
0
 41
0
  0
VERTEX
  8
0
 10
2.44422
 20
6.55653
 30
0.0
 40
0
 41
0
  0
VERTEX
  8
0
 10
2.44282
 20
6.56651
 30
0.0
 40
0
 41
0
  0
VERTEX
  8
0
 10
2.43338
 20
6.59576
 30
0.0
 40
0
 41
0
  0
VERTEX
  8
0
 10
2.41797
 20
6.63861
 30
0.0
 40
0
 41
0
  0
VERTEX
  8
0
 10
2.40821
 20
6.68024
 30
0.0
 40
0
 41
0
  0
VERTEX
  8
0
 10
2.41021
 20
6.70828
 30
0.0
 40
0
 41
0
  0
VERTEX
  8
0
 10
2.41439
 20
6.7156
 30
0.0
 40
0
 41
0
  0
SEQEND
 8
0
  0
POLYLINE
  8
0
 62
     33
 66
     1
 10
0
 20
0
 30
0.0
 70
     1
 40
0
 41
0
  0
VERTEX
  8
0
 10
2.79764
 20
6.20307
 30
0.0
 40
0
 41
0
  0
VERTEX
  8
0
 10
2.79775
 20
6.19906
 30
0.0
 40
0
 41
0
  0
VERTEX
  8
0
 10
2.7959
 20
6.18679
 30
0.0
 40
0
 41
0
  0
VERTEX
  8
0
 10
2.79075
 20
6.17133
 30
0.0
 40
0
 41
0
  0
VERTEX
  8
0
 10
2.78401
 20
6.15821
 30
0.0
 40
0
 41
0
  0
VERTEX
  8
0
 10
2.77735
 20
6.14899
 30
0.0
 40
0
 41
0
  0
VERTEX
  8
0
 10
2.77257
 20
6.14507
 30
0.0
 40
0
 41
0
  0
VERTEX
  8
0
 10
2.77138
 20
6.14806
 30
0.0
 40
0
 41
0
  0
VERTEX
  8
0
 10
2.7755
 20
6.1594
 30
0.0
 40
0
 41
0
  0
VERTEX
  8
0
 10
2.78375
 20
6.17546
 30
0.0
 40
0
 41
0
  0
VERTEX
  8
0
 10
2.78678
 20
6.18061
 30
0.0
 40
0
 41
0
  0
VERTEX
  8
0
 10
2.78765
 20
6.18251
 30
0.0
 40
0
 41
0
  0
VERTEX
  8
0
 10
2.79671
 20
6.20122
 30
0.0
 40
0
 41
0
  0
VERTEX
  8
0
 10
2.79764
 20
6.20307
 30
0.0
 40
0
 41
0
  0
SEQEND
 8
0
  0
POLYLINE
  8
0
 62
     33
 66
     1
 10
0
 20
0
 30
0.0
 70
     1
 40
0
 41
0
  0
VERTEX
  8
0
 10
2.7679
 20
6.13569
 30
0.0
 40
0
 41
0
  0
VERTEX
  8
0
 10
2.76676
 20
6.13124
 30
0.0
 40
0
 41
0
  0
VERTEX
  8
0
 10
2.75863
 20
6.11897
 30
0.0
 40
0
 41
0
  0
VERTEX
  8
0
 10
2.74274
 20
6.10612
 30
0.0
 40
0
 41
0
  0
VERTEX
  8
0
 10
2.72407
 20
6.09722
 30
0.0
 40
0
 41
0
  0
VERTEX
  8
0
 10
2.70654
 20
6.09239
 30
0.0
 40
0
 41
0
  0
VERTEX
  8
0
 10
2.69413
 20
6.09174
 30
0.0
 40
0
 41
0
  0
VERTEX
  8
0
 10
2.69069
 20
6.09538
 30
0.0
 40
0
 41
0
  0
VERTEX
  8
0
 10
2.70019
 20
6.10331
 30
0.0
 40
0
 41
0
  0
VERTEX
  8
0
 10
2.71983
 20
6.11301
 30
0.0
 40
0
 41
0
  0
VERTEX
  8
0
 10
2.72657
 20
6.11572
 30
0.0
 40
0
 41
0
  0
VERTEX
  8
0
 10
2.72993
 20
6.11746
 30
0.0
 40
0
 41
0
  0
VERTEX
  8
0
 10
2.76443
 20
6.13411
 30
0.0
 40
0
 41
0
  0
VERTEX
  8
0
 10
2.7679
 20
6.13569
 30
0.0
 40
0
 41
0
  0
SEQEND
 8
0
  0
POLYLINE
  8
0
 62
     33
 66
     1
 10
0
 20
0
 30
0.0
 70
     1
 40
0
 41
0
  0
VERTEX
  8
0
 10
2.68257
 20
6.08772
 30
0.0
 40
0
 41
0
  0
VERTEX
  8
0
 10
2.6716
 20
6.07997
 30
0.0
 40
0
 41
0
  0
VERTEX
  8
0
 10
2.62972
 20
6.06939
 30
0.0
 40
0
 41
0
  0
VERTEX
  8
0
 10
2.57026
 20
6.07275
 30
0.0
 40
0
 41
0
  0
VERTEX
  8
0
 10
2.50846
 20
6.08361
 30
0.0
 40
0
 41
0
  0
VERTEX
  8
0
 10
2.46354
 20
6.08871
 30
0.0
 40
0
 41
0
  0
VERTEX
  8
0
 10
2.44879
 20
6.08768
 30
0.0
 40
0
 41
0
  0
VERTEX
  8
0
 10
2.44417
 20
6.08713
 30
0.0
 40
0
 41
0
  0
VERTEX
  8
0
 10
2.43018
 20
6.08757
 30
0.0
 40
0
 41
0
  0
VERTEX
  8
0
 10
2.40517
 20
6.09022
 30
0.0
 40
0
 41
0
  0
VERTEX
  8
0
 10
2.3781
 20
6.09467
 30
0.0
 40
0
 41
0
  0
VERTEX
  8
0
 10
2.35331
 20
6.09993
 30
0.0
 40
0
 41
0
  0
VERTEX
  8
0
 10
2.33524
 20
6.10508
 30
0.0
 40
0
 41
0
  0
VERTEX
  8
0
 10
2.32818
 20
6.10915
 30
0.0
 40
0
 41
0
  0
VERTEX
  8
0
 10
2.33653
 20
6.11111
 30
0.0
 40
0
 41
0
  0
VERTEX
  8
0
 10
2.35769
 20
6.11062
 30
0.0
 40
0
 41
0
  0
VERTEX
  8
0
 10
2.36475
 20
6.11008
 30
0.0
 40
0
 41
0
  0
VERTEX
  8
0
 10
2.39117
 20
6.10813
 30
0.0
 40
0
 41
0
  0
VERTEX
  8
0
 10
2.65608
 20
6.08768
 30
0.0
 40
0
 41
0
  0
VERTEX
  8
0
 10
2.68257
 20
6.08772
 30
0.0
 40
0
 41
0
  0
SEQEND
 8
0
  0
POLYLINE
  8
0
 62
     33
 66
     1
 10
0
 20
0
 30
0.0
 70
     1
 40
0
 41
0
  0
VERTEX
  8
0
 10
2.22347
 20
6.15474
 30
0.0
 40
0
 41
0
  0
VERTEX
  8
0
 10
2.22754
 20
6.15381
 30
0.0
 40
0
 41
0
  0
VERTEX
  8
0
 10
2.23969
 20
6.14996
 30
0.0
 40
0
 41
0
  0
VERTEX
  8
0
 10
2.25608
 20
6.14344
 30
0.0
 40
0
 41
0
  0
VERTEX
  8
0
 10
2.27067
 20
6.1365
 30
0.0
 40
0
 41
0
  0
VERTEX
  8
0
 10
2.28157
 20
6.13021
 30
0.0
 40
0
 41
0
  0
VERTEX
  8
0
 10
2.28674
 20
6.12582
 30
0.0
 40
0
 41
0
  0
VERTEX
  8
0
 10
2.28435
 20
6.12446
 30
0.0
 40
0
 41
0
  0
VERTEX
  8
0
 10
2.27235
 20
6.12733
 30
0.0
 40
0
 41
0
  0
VERTEX
  8
0
 10
2.25467
 20
6.1334
 30
0.0
 40
0
 41
0
  0
VERTEX
  8
0
 10
2.24886
 20
6.13558
 30
0.0
 40
0
 41
0
  0
VERTEX
  8
0
 10
2.24837
 20
6.13693
 30
0.0
 40
0
 41
0
  0
VERTEX
  8
0
 10
2.24013
 20
6.1404
 30
0.0
 40
0
 41
0
  0
VERTEX
  8
0
 10
2.22499
 20
6.14606
 30
0.0
 40
0
 41
0
  0
VERTEX
  8
0
 10
2.21539
 20
6.15121
 30
0.0
 40
0
 41
0
  0
VERTEX
  8
0
 10
2.22136
 20
6.15451
 30
0.0
 40
0
 41
0
  0
VERTEX
  8
0
 10
2.22347
 20
6.15474
 30
0.0
 40
0
 41
0
  0
SEQEND
 8
0
  0
ENDSEC
  0
EOF
