<?xml version="1.0" encoding="UTF-8" standalone="no"?>
<!-- Created with Inkscape (http://www.inkscape.org/) -->

<svg
   xmlns:dc="http://purl.org/dc/elements/1.1/"
   xmlns:cc="http://creativecommons.org/ns#"
   xmlns:rdf="http://www.w3.org/1999/02/22-rdf-syntax-ns#"
   xmlns:svg="http://www.w3.org/2000/svg"
   xmlns="http://www.w3.org/2000/svg"
   xmlns:sodipodi="http://sodipodi.sourceforge.net/DTD/sodipodi-0.dtd"
   xmlns:inkscape="http://www.inkscape.org/namespaces/inkscape"
   width="210mm"
   height="297mm"
   viewBox="0 0 210 297"
   version="1.1"
   id="svg4237"
   inkscape:version="0.92.4 (5da689c313, 2019-01-14)"
   sodipodi:docname="cat-right.svg">
  <defs
     id="defs4231" />
  <sodipodi:namedview
     id="base"
     pagecolor="#ffffff"
     bordercolor="#666666"
     borderopacity="1.0"
     inkscape:pageopacity="0.0"
     inkscape:pageshadow="2"
     inkscape:zoom="0.35"
     inkscape:cx="-242.85714"
     inkscape:cy="560"
     inkscape:document-units="mm"
     inkscape:current-layer="layer1"
     showgrid="false"
     inkscape:window-width="1920"
     inkscape:window-height="1171"
     inkscape:window-x="0"
     inkscape:window-y="0"
     inkscape:window-maximized="1" />
  <metadata
     id="metadata4234">
    <rdf:RDF>
      <cc:Work
         rdf:about="">
        <dc:format>image/svg+xml</dc:format>
        <dc:type
           rdf:resource="http://purl.org/dc/dcmitype/StillImage" />
        <dc:title></dc:title>
      </cc:Work>
    </rdf:RDF>
  </metadata>
  <g
     inkscape:label="Ebene 1"
     inkscape:groupmode="layer"
     id="layer1">
    <g
       id="g4094"
       transform="matrix(0,209.29599,296.672,0,-197.50814,23.837467)">
      <path
         inkscape:connector-curvature="0"
         id="path3997"
         d="m 0.49599376,0.80991599 c 0,2.4934e-4 2.7306e-4,3.3429e-4 6.0679e-4,1.8877e-4 3.3374e-4,-1.4551e-4 6.068e-4,-3.4952e-4 6.068e-4,-4.5334e-4 0,-1.0383e-4 -2.7306e-4,-1.8878e-4 -6.068e-4,-1.8878e-4 -3.3373e-4,0 -6.0679e-4,2.0401e-4 -6.0679e-4,4.5335e-4 z"
         style="fill:#a3a3a3;stroke-width:0.00050967" />
      <path
         inkscape:connector-curvature="0"
         id="path3995"
         d="m 0.45503506,0.81836899 c -0.001001,4.5418e-4 -0.00244,0.001301 -0.003197,0.001882 l -0.001376,0.001056 0.001528,0.002438 c 0.002149,0.003428 0.002055,0.004349 -4.4395e-4,0.004344 -0.002764,-5.83e-6 -0.002588,0.001134 2.7689e-4,0.001796 0.003348,7.7372e-4 0.006589,0.002347 0.009933,0.004823 0.008496,0.006288 0.009702,0.007001 0.0146976,0.008683 0.002774,9.3429e-4 0.005204,0.001585 0.0054,0.001447 5.5504e-4,-3.9157e-4 -0.001063,-0.001556 -0.002166,-0.001559 -5.4318e-4,-1.28e-6 -0.001702,-3.3835e-4 -0.002575,-7.4914e-4 -8.7289e-4,-4.1079e-4 -0.002784,-0.001305 -0.004248,-0.001988 -0.004235,-0.001976 -0.0102454,-0.006528 -0.0102454,-0.007759 0,-0.001206 0.001338,-0.001392 0.003959,-5.4886e-4 0.001296,4.1643e-4 0.001693,3.9666e-4 0.002154,-1.0702e-4 4.0898e-4,-4.4721e-4 1.4008e-4,-8.5419e-4 -9.7387e-4,-0.001474 -8.4637e-4,-4.7089e-4 -0.002417,-0.001387 -0.003491,-0.002035 l -0.001952,-0.001179 0.004248,2.7246e-4 0.004248,2.7247e-4 -0.001735,-0.001306 c -0.001673,-0.001259 -0.001745,-0.002232 -1.6371e-4,-0.002232 0.001001,0 0.003566,0.002466 0.003251,0.003125 -2.7142e-4,5.6814e-4 0.001253,0.001549 0.00244,0.00157 4.1718e-4,7.49e-6 7.585e-4,-1.7047e-4 7.585e-4,-3.9546e-4 0,-6.526e-4 -0.002942,-0.003532 -0.004289,-0.004197 -9.7085e-4,-4.7973e-4 -0.00108,-7.347e-4 -5.197e-4,-0.001211 9.2695e-4,-7.8795e-4 0.002901,-7.6455e-4 0.005725,6.785e-5 0.00137,4.0377e-4 0.002498,5.1599e-4 0.00283,2.8152e-4 6.9551e-4,-4.9067e-4 -2.1737e-4,-9.8342e-4 -0.003746,-0.002022 -0.001502,-4.4206e-4 -0.00314,-0.001023 -0.003641,-0.001292 -0.003399,-0.001823 -0.005974,-0.002486 -0.0103155,-0.002653 -0.003745,-1.4458e-4 -0.004873,-2.949e-5 -0.006371,6.4918e-4 z"
         style="fill:#a3a3a3;stroke-width:0.00050967" />
      <path
         inkscape:connector-curvature="0"
         id="path3993"
         d="m 0.45805206,0.82759399 c 7.0438e-4,3.6336e-4 9.7788e-4,8.5025e-4 7.3177e-4,0.001303 -5.3474e-4,9.8309e-4 -0.002838,1.3756e-4 -0.002838,-0.001042 0,-9.8875e-4 5.6079e-4,-0.001058 0.002106,-2.61e-4 z"
         style="fill:#a3a3a3;stroke-width:0.00050967" />
      <path
         sodipodi:nodetypes="cccccscccccccccccccscccccccccccsccccccsccc"
         inkscape:connector-curvature="0"
         id="path3991"
         d="m 0.48143106,0.82309899 c 0,4.6382e-4 0.001104,0.00131 0.002652,0.002033 0.001458,6.8136e-4 0.005077,0.002368 0.00804,0.003748 0.0180375,0.008399 0.0198066,0.009433 0.0244638,0.014293 0.002087,0.002178 0.004041,0.004067 0.004343,0.004199 3.0219e-4,1.3176e-4 5.4944e-4,5.2772e-4 5.4944e-4,8.7991e-4 0,3.522e-4 0.001149,0.001834 0.002554,0.003292 0.001617,0.001679 0.003412,0.004458 0.004893,0.007575 0.002857,0.006012 0.007016,0.015832 0.007749,0.0182911 5.4705e-4,0.001837 0.002299,0.0132137 0.002749,0.0178541 1.3563e-4,0.001397 8.2206e-4,0.003998 0.001525,0.005779 7.0334e-4,0.001781 0.001523,0.004394 0.001821,0.005807 0.001133,0.005371 0.001748,0.007195 0.00267,0.007914 7.2006e-4,5.6133e-4 9.2296e-4,0.001564 8.3377e-4,0.004122 -1.1976e-4,0.003434 7.2095e-4,0.005511 0.002097,0.005182 9.354e-4,-2.2378e-4 7.8646e-4,-0.002839 -4.686e-4,-0.008228 -9.4765e-4,-0.004069 -0.002253,-0.0160941 -0.002391,-0.0220171 l -6.388e-5,-0.002753 0.001972,-3.6245e-4 c 0.001085,-1.9934e-4 0.001972,-5.1659e-4 0.001972,-7.05e-4 0,-1.8841e-4 -0.001161,-7.1266e-4 -0.002579,-0.001165 -0.00243,-7.7499e-4 -0.002568,-9.1324e-4 -0.002385,-0.002397 1.1233e-4,-9.109e-4 -1.9774e-4,-0.001997 -7.3561e-4,-0.002576 -8.3967e-4,-9.0407e-4 -8.255e-4,-0.001365 1.4615e-4,-0.00475 5.9176e-4,-0.002062 0.001497,-0.004046 0.002011,-0.004409 0.001299,-9.1676e-4 0.009746,-0.001354 0.0117246,-6.0667e-4 0.001083,4.0887e-4 0.002992,4.6928e-4 0.007409,2.3449e-4 -0.0974035,-0.0269236 0.003592,0.0316716 -0.0325925,-0.0124281 -0.0099,-3.4444e-4 0.0315953,0.006244 0.025218,0.007954 -0.001682,4.5105e-4 -0.003825,8.2018e-4 -0.004762,8.203e-4 -0.00238,3e-7 -0.00726,8.7312e-4 -0.008093,0.001448 -9.8681e-4,6.807e-4 -0.003857,0.008044 -0.003857,0.009896 0,0.002722 -9.8502e-4,0.001236 -0.00176,-0.002655 -7.3643e-4,-0.003698 -0.002103,-0.007237 -0.006746,-0.0174634 -0.001283,-0.002825 -0.00262,-0.005916 -0.002971,-0.006868 -3.5119e-4,-9.5228e-4 -0.002159,-0.00336 -0.004016,-0.005351 -0.001858,-0.001991 -0.004317,-0.004775 -0.005466,-0.006188 -0.001148,-0.001413 -0.002852,-0.003339 -0.003785,-0.004281 -0.001721,-0.001736 -0.0122753,-0.007213 -0.0204615,-0.010619 -0.002336,-9.7193e-4 -0.006183,-0.002785 -0.008549,-0.004029 -0.004626,-0.002432 -0.005711,-0.002711 -0.005711,-0.001467 z"
         style="fill:#a3a3a3;stroke-width:0.00050967" />
      <path
         inkscape:connector-curvature="0"
         id="path3971"
         d="m 0.543888,0.89493704 c 5.103e-5,0.002646 -4.7067e-4,0.00393 -0.001246,0.003067 -6.1806e-4,-6.8785e-4 -6.8451e-4,-0.003563 -1.2774e-4,-0.005527 3.4203e-4,-0.001206 4.7493e-4,-0.001297 8.6754e-4,-5.8862e-4 2.5501e-4,4.5987e-4 4.8284e-4,0.001832 5.062e-4,0.003049 z"
         style="fill:#a3a3a3;stroke-width:0.00050967" />
      <path
         inkscape:connector-curvature="0"
         id="path3969"
         d="m 0.54393065,0.89981304 c 0,4.8479e-4 -2.7306e-4,7.6237e-4 -6.068e-4,6.1686e-4 -3.3373e-4,-1.4552e-4 -6.0679e-4,-5.4216e-4 -6.0679e-4,-8.8143e-4 0,-3.3927e-4 2.7306e-4,-6.1686e-4 6.0679e-4,-6.1686e-4 3.3374e-4,0 6.068e-4,3.9664e-4 6.068e-4,8.8143e-4 z"
         style="fill:#a3a3a3;stroke-width:0.00050967" />
      <path
         inkscape:connector-curvature="0"
         id="path3967"
         d="m 0.39981657,0.84330131 c -0.007681,9.376e-4 -0.0107316,0.001253 -0.0163835,0.001694 -0.006957,5.4305e-4 -0.007496,6.6351e-4 -0.0160214,0.003576 -0.006952,0.002375 -0.007568,0.003173 -9.0529e-4,0.001173 0.004929,-0.00148 0.0129994,-0.00304 0.0157262,-0.00304 0.00105,0 0.003387,-1.8287e-4 0.005195,-4.0637e-4 0.0168933,-0.002089 0.03668,-0.002093 0.0431861,-9.46e-6 0.001417,4.538e-4 0.003077,8.2933e-4 0.003689,8.345e-4 0.001556,1.314e-5 9.2426e-4,-9.9448e-4 -8.5864e-4,-0.001369 -0.007557,-0.001589 -0.0108436,-0.002024 -0.0169407,-0.002245 -0.003838,-1.3924e-4 -0.00848,-3.2644e-4 -0.0103155,-4.1599e-4 -0.001836,-8.955e-5 -0.004703,3.85e-6 -0.006371,2.0832e-4 z"
         style="fill:#a3a3a3;stroke-width:0.00050967" />
      <path
         inkscape:connector-curvature="0"
         id="path3963"
         d="m 0.48628502,0.8466048 c 0,4.5515e-4 0.001304,0.001385 0.001942,0.001385 9.4184e-4,0 4.7023e-4,-8.3178e-4 -7.2816e-4,-0.001284 -6.6747e-4,-2.5201e-4 -0.001214,-2.9731e-4 -0.001214,-1.01e-4 z"
         style="fill:#a3a3a3;stroke-width:0.00050967" />
      <path
         inkscape:connector-curvature="0"
         id="path3961"
         d="m 0.43787222,0.8476248 c 1.2939e-4,2.7384e-4 0.002051,0.001196 0.004271,0.00205 0.00222,8.5375e-4 0.004663,0.001944 0.00543,0.002423 7.6671e-4,4.7894e-4 0.002141,0.001198 0.003055,0.001598 9.1349e-4,4.0008e-4 0.002193,0.001447 0.002843,0.002326 6.5042e-4,8.7948e-4 0.003495,0.003364 0.006322,0.005522 0.002827,0.002158 0.006311,0.005336 0.007743,0.007063 0.003192,0.00385 0.006193,0.008787 0.00569,0.009361 -5.2808e-4,6.0278e-4 7.3248e-4,0.006154 0.002798,0.0123208 9.7094e-4,0.002899 0.001765,0.006174 0.001765,0.007277 -2.2e-7,0.004308 -0.003014,0.0124035 -0.00667,0.017917 -9.6301e-4,0.001452 -0.001941,0.003379 -0.002172,0.004281 -6.3843e-4,0.002485 -0.004185,0.007484 -0.006972,0.009827 -0.001366,0.001148 -0.002728,0.002521 -0.003028,0.003051 -2.9963e-4,5.2975e-4 -9.7953e-4,9.6319e-4 -0.001511,9.6319e-4 -6.9119e-4,0 -8.5608e-4,2.4456e-4 -5.7945e-4,8.5943e-4 5.4416e-4,0.00121 -0.002545,0.005562 -0.003947,0.005562 -5.9017e-4,0 -0.001809,-2.6921e-4 -0.002708,-5.9824e-4 -0.003317,-0.001214 -0.0115645,0.00151 -0.0131083,0.004328 -2.8545e-4,5.2118e-4 -0.001963,0.001471 -0.003728,0.002111 -0.002694,9.7694e-4 -0.004476,0.001236 -0.0110974,0.001615 -0.004339,2.4794e-4 -0.012822,4.1362e-4 -0.018852,3.6819e-4 -0.009474,-7.139e-5 -0.011351,-1.9976e-4 -0.0138148,-9.4483e-4 -0.001743,-5.2724e-4 -0.003511,-7.691e-4 -0.00455,-6.2256e-4 -0.002423,3.4184e-4 -0.006164,-4.622e-4 -0.0133566,-0.002871 -0.003452,-0.001156 -0.006421,-0.002102 -0.006597,-0.002102 -8.1187e-4,0 -0.0116553,-0.004613 -0.013751,-0.00585 -0.001294,-7.6371e-4 -0.004474,-0.002167 -0.007067,-0.003119 -0.006689,-0.002455 -0.0120894,-0.005427 -0.013167,-0.007247 -4.9093e-4,-8.2892e-4 -0.00177,-0.002287 -0.002843,-0.003241 -0.001073,-9.5353e-4 -0.002418,-0.002263 -0.002989,-0.002911 -8.1314e-4,-9.2133e-4 -0.001502,-0.001177 -0.003168,-0.001177 -0.001171,0 -0.003076,-2.7913e-4 -0.004234,-6.2028e-4 -0.001982,-5.8418e-4 -0.002105,-7.3991e-4 -0.002124,-0.002676 -1.089e-5,-0.00113 -5.481e-4,-0.003115 -0.001194,-0.00441 -0.001802,-0.003613 -0.001629,-0.004495 0.001062,-0.005423 l 0.002275,-7.8441e-4 -2.9292e-4,-0.004923 c -1.6111e-4,-0.002708 -2.4466e-4,-0.006705 -1.8568e-4,-0.008883 1.0073e-4,-0.003719 -3.0751e-4,-0.004678 -0.001458,-0.003425 -2.7e-4,2.943e-4 -4.9091e-4,0.003746 -4.9091e-4,0.00767 0,0.00702 -2.457e-5,0.007154 -0.001517,0.008282 -8.3434e-4,6.308e-4 -0.002526,0.001512 -0.00376,0.001958 -0.001234,4.4632e-4 -0.002462,0.001054 -0.002731,0.00135 -2.6821e-4,2.9595e-4 -0.001849,0.001309 -0.003513,0.00225 -0.001664,9.4178e-4 -0.004804,0.002916 -0.006978,0.004387 -0.002174,0.001471 -0.004408,0.002779 -0.004964,0.002907 -5.5615e-4,1.2798e-4 -0.001318,8.509e-4 -0.001693,0.001606 -6.0211e-4,0.001213 -5.2935e-4,0.001461 6.233e-4,0.002123 0.001471,8.4434e-4 0.003384,9.8743e-4 0.003719,2.7818e-4 1.285e-4,-2.7196e-4 0.001752,-4.722e-4 0.003843,-4.7386e-4 0.0192432,-1.537e-5 0.0197876,-7.54e-6 0.021932,3.1489e-4 0.001531,2.3028e-4 0.002458,8.7504e-4 0.004505,0.003135 0.003044,0.003361 0.00525,0.005088 0.009261,0.007249 0.003036,0.001636 0.003407,0.001801 0.010095,0.004481 0.002169,8.693e-4 0.004872,0.002146 0.006005,0.002836 0.003859,0.002351 0.0218648,0.00895 0.0279752,0.0102526 0.002169,4.6251e-4 0.006675,0.001167 0.0100121,0.001566 0.006355,7.589e-4 0.0279975,0.00165 0.0290393,0.001196 3.3193e-4,-1.4473e-4 0.002945,-4.0334e-4 0.005806,-5.747e-4 0.004578,-2.7416e-4 0.008475,-9.5262e-4 0.0149116,-0.002597 0.001001,-2.557e-4 0.002913,-6.2497e-4 0.004248,-8.2061e-4 0.005772,-8.4581e-4 0.006691,-0.001102 0.007274,-0.002027 3.2944e-4,-5.2285e-4 9.3421e-4,-9.5064e-4 0.001344,-9.5064e-4 4.0973e-4,0 0.001004,-3.3712e-4 0.001321,-7.4915e-4 3.1666e-4,-4.1203e-4 0.00176,-0.001617 0.003207,-0.002679 0.001447,-0.001061 0.003637,-0.003277 0.004865,-0.004923 0.001229,-0.001646 0.003413,-0.004064 0.004854,-0.005373 0.003291,-0.002989 0.004798,-0.005428 0.006858,-0.0111049 8.9729e-4,-0.002472 0.002276,-0.005458 0.003064,-0.006635 0.002168,-0.00324 0.003775,-0.0073 0.0045,-0.0113673 5.3933e-4,-0.003029 4.9186e-4,-0.004028 -2.7473e-4,-0.005779 -0.001816,-0.004149 -0.003281,-0.009471 -0.003941,-0.0143193 -7.2069e-4,-0.005292 -0.001949,-0.00869 -0.003635,-0.0100582 -5.8052e-4,-4.7089e-4 -0.001818,-0.001819 -0.00275,-0.002997 -9.32e-4,-0.001177 -0.002823,-0.003007 -0.004203,-0.004067 -0.005303,-0.004073 -0.009802,-0.007967 -0.010492,-0.009081 -4.1484e-4,-6.7025e-4 -0.001948,-0.00163 -0.003624,-0.002268 -0.0102731,-0.00391 -0.0131732,-0.004817 -0.0127865,-0.003999 z"
         style="fill:#a3a3a3;stroke-width:0.00050967" />
      <path
         inkscape:connector-curvature="0"
         id="path3959"
         d="m 0.49781412,0.8540048 c 0.002573,0.001457 0.004071,0.001823 0.00182,4.4534e-4 -0.001168,-7.151e-4 -0.002397,-0.001301 -0.002731,-0.001302 -3.3374e-4,-1.28e-6 7.585e-5,3.8447e-4 9.11e-4,8.5666e-4 z"
         style="fill:#a3a3a3;stroke-width:0.00050967" />
      <path
         inkscape:connector-curvature="0"
         id="path3957"
         d="m 0.34732868,0.8555708 c -0.0113934,0.004167 -0.0142531,0.005865 -0.0148855,0.00884 l -3.9917e-4,0.001878 -0.00328,2.7193e-4 c -0.00333,2.7614e-4 -0.0108575,0.002579 -0.0172367,0.005274 -0.001836,7.7536e-4 -0.003855,0.00141 -0.004488,0.001411 -0.001553,1.28e-6 -0.006225,0.002756 -0.007405,0.004365 -9.2765e-4,0.001266 -9.0409e-4,0.001334 9.0836e-4,0.002641 0.001023,7.382e-4 0.003026,0.001787 0.004451,0.002331 l 0.00259,9.8925e-4 -0.00182,-0.001145 c -0.001001,-6.2958e-4 -0.00255,-0.001593 -0.003442,-0.00214 -0.001074,-6.5944e-4 -0.001517,-0.001277 -0.001312,-0.00183 5.0739e-4,-0.001369 0.003914,-0.003302 0.007653,-0.004343 0.001928,-5.3685e-4 0.004137,-0.001327 0.00491,-0.001756 0.003648,-0.002024 0.0100167,-0.003811 0.0156328,-0.004386 0.006933,-7.0984e-4 0.0118723,-3.9813e-4 0.0183568,0.001158 0.002631,6.3156e-4 0.004942,0.001036 0.005136,8.9941e-4 0.001537,-0.001084 -0.004887,-0.002963 -0.0117402,-0.003433 -0.00577,-3.9561e-4 -0.006371,-5.438e-4 -0.006371,-0.001571 0,-0.001287 0.004843,-0.00444 0.0103307,-0.006725 0.004889,-0.002036 0.00848,-0.00391 0.00848,-0.004425 3e-8,-4.834e-4 -4.7689e-4,-3.502e-4 -0.006068,0.001695 z"
         style="fill:#a3a3a3;stroke-width:0.00050967" />
      <path
         inkscape:connector-curvature="0"
         id="path3953"
         d="m 0.50404157,0.85672512 c 5.7975e-4,4.09e-4 0.001054,9.1994e-4 0.001054,0.001135 0,2.1547e-4 8.8744e-4,6.5712e-4 0.001972,9.8145e-4 0.001165,3.483e-4 0.002593,0.001323 0.003489,0.002381 8.3435e-4,9.8504e-4 0.002267,0.002621 0.003185,0.003635 9.1727e-4,0.001014 0.001942,0.002864 0.002277,0.004111 3.3515e-4,0.001247 9.0728e-4,0.00252 0.001271,0.00283 9.5998e-4,8.1603e-4 7.31e-5,0.003868 -0.001483,0.005103 -0.001204,9.5605e-4 -0.001834,0.001051 -0.008079,0.001211 -0.006861,1.7635e-4 -0.009033,5.1157e-4 -0.007413,0.001144 0.001491,5.8187e-4 0.01688,-2.3559e-4 0.0178934,-9.5052e-4 6.5456e-4,-4.6177e-4 9.2981e-4,-0.001744 0.001002,-0.004667 1.2036e-4,-0.004896 -0.001002,-0.007266 -0.005957,-0.0125729 -0.004012,-0.004297 -0.004169,-0.004396 -0.007573,-0.004781 -0.002557,-2.8844e-4 -0.00264,-2.6626e-4 -0.001638,4.3997e-4 z"
         style="fill:#a3a3a3;stroke-width:0.00050967" />
      <path
         inkscape:connector-curvature="0"
         id="path3951"
         d="m 0.33247922,0.87579572 c -2.1564e-4,2.4615e-4 -2.2981e-4,4.4754e-4 -3.151e-5,4.4754e-4 1.9831e-4,0 7.884e-5,3.7137e-4 -2.6549e-4,8.2526e-4 -5.2711e-4,6.9484e-4 -0.001164,8.0234e-4 -0.004033,6.8021e-4 -0.001874,-7.977e-5 -0.003704,-3.5482e-4 -0.004068,-6.1121e-4 -9.8161e-4,-6.9251e-4 -0.003269,-5.6416e-4 -0.003688,2.0696e-4 -9.4821e-4,0.001743 0.002896,0.003608 0.007438,0.003608 0.001313,0 0.003847,4.7971e-4 0.005632,0.001066 0.004093,0.001344 0.006591,0.001378 0.008208,1.112e-4 0.001911,-0.001498 0.001945,-0.00209 2.5435e-4,-0.004388 l -0.001575,-0.00214 -0.00374,-1.2648e-4 c -0.002145,-7.256e-5 -0.003907,6.431e-5 -0.004131,3.2052e-4 z"
         style="fill:#a3a3a3;stroke-width:0.00050967" />
      <path
         inkscape:connector-curvature="0"
         id="path3949"
         d="m 0.49081517,0.87835572 c -0.001013,1.7077e-4 -0.002378,5.4835e-4 -0.003034,8.3906e-4 -9.8222e-4,4.3526e-4 -3.0493e-4,4.8807e-4 0.003836,2.9914e-4 0.005359,-2.4447e-4 0.009043,-0.001073 0.004881,-0.001097 -0.001224,-7.15e-6 -0.00259,-8.925e-5 -0.003034,-1.8242e-4 -4.4447e-4,-9.317e-5 -0.001637,-2.967e-5 -0.002649,1.4122e-4 z"
         style="fill:#a3a3a3;stroke-width:0.00050967" />
      <path
         inkscape:connector-curvature="0"
         id="path3947"
         d="m 0.47996107,0.87962172 c -0.001309,1.4317e-4 -0.002499,5.1607e-4 -0.002645,8.2866e-4 -2.0778e-4,4.4494e-4 3.7478e-4,5.0684e-4 0.002683,2.8507e-4 0.003957,-3.8013e-4 0.005072,-6.2123e-4 0.005072,-0.001096 0,-4.2769e-4 -0.001319,-4.3219e-4 -0.00511,-1.773e-5 z"
         style="fill:#a3a3a3;stroke-width:0.00050967" />
      <path
         inkscape:connector-curvature="0"
         id="path3945"
         d="m 0.48568307,0.88436572 c -0.001597,7.1243e-4 1.5209e-4,0.001309 0.005694,0.001942 0.002899,3.3112e-4 0.006285,9.8401e-4 0.007523,0.001451 0.001238,4.6686e-4 0.004479,0.001512 0.007202,0.002323 0.005966,0.001776 0.009088,0.003446 0.009973,0.005335 8.6561e-4,0.001848 -2.6108e-4,0.003094 -0.003929,0.004347 -0.002369,8.0903e-4 -0.003454,9.0339e-4 -0.008375,7.2862e-4 -0.00493,-1.7507e-4 -0.006385,-4.2472e-4 -0.011371,-0.001951 -0.003145,-9.6245e-4 -0.005826,-0.00175 -0.005958,-0.00175 -1.3252e-4,0 -1.537e-4,4.3237e-4 -4.708e-5,9.6081e-4 3.8018e-4,0.001884 0.0169616,0.005475 0.022431,0.004858 0.004343,-4.8993e-4 0.007815,-0.002058 0.009428,-0.004259 8.1884e-4,-0.001117 7.8095e-4,-0.001444 -4.3212e-4,-0.003733 -8.4018e-4,-0.001585 -0.001767,-0.002606 -0.002517,-0.002774 -6.5277e-4,-1.4616e-4 -0.002147,-8.6048e-4 -0.003321,-0.001587 -0.002583,-0.0016 -0.009991,-0.003794 -0.0176931,-0.00524 -0.006244,-0.001172 -0.007266,-0.00125 -0.008608,-6.5143e-4 z"
         style="fill:#a3a3a3;stroke-width:0.00050967" />
      <path
         inkscape:connector-curvature="0"
         id="path3941"
         d="m 0.32063537,0.88707784 c 1.7012e-4,1.279e-4 0.002479,7.4644e-4 0.005131,0.001375 0.002652,6.2808e-4 0.006019,0.001723 0.007482,0.002433 0.001839,8.9266e-4 0.002854,0.001154 0.00329,8.4647e-4 0.001181,-8.3297e-4 -0.002293,-0.002461 -0.007242,-0.003395 -0.005771,-0.001089 -0.009073,-0.001569 -0.008661,-0.001259 z"
         style="fill:#a3a3a3;stroke-width:0.00050967" />
      <path
         inkscape:connector-curvature="0"
         id="path3935"
         d="m 0.40011974,0.90219284 c -0.001836,3.3847e-4 -0.003883,7.9724e-4 -0.004551,0.00102 -6.6748e-4,2.2226e-4 -0.002715,8.0784e-4 -0.004551,0.001301 -0.001836,4.9345e-4 -0.003947,0.001175 -0.004692,0.001515 -0.001279,5.8332e-4 -0.001401,5.3814e-4 -0.002201,-8.1161e-4 -9.1038e-4,-0.001537 -0.003729,-0.002741 -0.007398,-0.003162 -0.003128,-3.581e-4 -0.002782,9.2383e-4 5.4774e-4,0.002028 0.001452,4.816e-4 0.003397,0.001433 0.004322,0.002114 l 0.001681,0.001238 -0.002956,0.002378 c -0.001626,0.001308 -0.003203,0.00238 -0.003505,0.002383 -3.0153e-4,2.99e-6 -0.002033,-4.901e-4 -0.003848,-0.001096 -0.001815,-6.0561e-4 -0.003704,-9.9147e-4 -0.004199,-8.5746e-4 -0.001643,4.4468e-4 -5.4841e-4,0.001709 0.002069,0.002391 0.003586,9.3459e-4 0.003945,0.001276 0.003111,0.002964 -4.4092e-4,8.923e-4 -5.7195e-4,0.002808 -3.542e-4,0.00518 2.8417e-4,0.003094 7.1965e-4,0.004322 0.002449,0.006904 0.002039,0.003044 0.005725,0.006352 0.007079,0.006352 3.6507e-4,0 0.002086,7.5412e-4 0.003823,0.001676 0.004472,0.002372 0.009524,0.00382 0.0158747,0.004551 0.003019,3.4746e-4 0.00625,7.2257e-4 0.007181,8.3359e-4 0.001849,2.2057e-4 0.002933,-7.5836e-4 0.001758,-0.001587 -6.3097e-4,-4.4514e-4 -0.005603,-0.00129 -0.0119454,-0.00203 -0.009454,-0.001103 -0.0169535,-0.00466 -0.0200419,-0.009506 -5.0086e-4,-7.8597e-4 -0.001151,-0.001718 -0.001444,-0.002071 -0.001557,-0.001874 -0.002361,-0.007632 -0.001542,-0.0110477 3.9717e-4,-0.001656 8.1913e-4,-0.002022 0.00415,-0.003593 0.002039,-9.6195e-4 0.00429,-0.002119 0.005003,-0.002572 0.003762,-0.002391 0.0145033,-0.00486 0.0230758,-0.005305 0.005829,-3.0244e-4 0.00731,-6.1752e-4 0.006618,-0.001408 -5.9977e-4,-6.8463e-4 -0.0114479,-5.3274e-4 -0.0155152,2.1724e-4 z"
         style="fill:#a3a3a3;stroke-width:0.00050967" />
      <path
         inkscape:connector-curvature="0"
         id="path3929"
         d="m 0.48023739,0.91218379 c -7.1222e-4,3.1778e-4 -5.5309e-4,4.8721e-4 7.9799e-4,8.496e-4 9.282e-4,2.4897e-4 0.002421,4.5561e-4 0.003317,4.5922e-4 0.002731,1.1e-5 0.003307,5.6379e-4 0.0035,0.003362 2.388e-4,0.00345 0.00185,0.005801 0.005794,0.008456 0.00295,0.001985 0.003801,0.002294 0.009022,0.003274 0.003171,5.9478e-4 0.00713,0.001468 0.008799,0.001941 0.001669,4.7286e-4 0.005218,0.001204 0.007888,0.001625 0.00267,4.2109e-4 0.005787,0.001033 0.006927,0.00136 0.001521,4.361e-4 0.00354,5.2306e-4 0.007585,3.2664e-4 0.005911,-2.8703e-4 0.007176,-4.4842e-4 0.009305,-0.001187 0.00255,-8.8436e-4 0.001378,-0.001082 -0.005158,-8.716e-4 -0.008194,2.6435e-4 -0.0203315,-4.579e-4 -0.0238602,-0.00142 -0.001478,-4.0287e-4 -0.003519,-0.001282 -0.004536,-0.001953 -0.001017,-6.7154e-4 -0.002146,-0.001221 -0.002508,-0.001221 -3.6245e-4,0 -0.001622,-7.5164e-4 -0.002798,-0.00167 -0.002077,-0.001622 -0.002426,-0.002342 -0.003704,-0.007641 -1.8463e-4,-7.653e-4 -7.62e-5,-0.001873 2.4096e-4,-0.002461 4.6761e-4,-8.6767e-4 9.8954e-4,-0.00107 0.00276,-0.00107 0.001749,0 0.002143,-1.4835e-4 0.00198,-7.4589e-4 -3.4169e-4,-0.001252 -0.002953,-0.001865 -0.005678,-0.001334 -0.001705,3.3214e-4 -0.003512,3.2839e-4 -0.006445,-1.336e-5 -0.004935,-5.749e-4 -0.012006,-6.0955e-4 -0.0132269,-6.48e-5 z"
         style="fill:#a3a3a3;stroke-width:0.00050967" />
      <path
         inkscape:connector-curvature="0"
         id="path3927"
         d="m 0.49817529,0.91455379 c 3.6565e-4,7.65e-5 8.3736e-4,0.001553 0.001048,0.003281 2.1089e-4,0.001728 8.0582e-4,0.004277 0.001322,0.005665 5.1624e-4,0.001387 8.0815e-4,0.002614 6.4869e-4,0.002727 -6.7909e-4,4.7908e-4 -0.003585,-4.5891e-4 -0.005805,-0.001874 -0.003781,-0.00241 -0.005928,-0.006257 -0.005523,-0.009897 4.303e-5,-3.8678e-4 0.001076,-4.632e-4 0.003851,-2.8491e-4 0.002086,1.3399e-4 0.004092,3.0622e-4 0.004457,3.8272e-4 z"
         style="fill:#a3a3a3;stroke-width:0.00050967" />
      <path
         inkscape:connector-curvature="0"
         id="path3925"
         d="m 0.47706149,0.91271579 c 5.6634e-4,3.9954e-4 8.8997e-4,3.9954e-4 0.001456,0 5.6634e-4,-3.9955e-4 4.0453e-4,-5.137e-4 -7.2816e-4,-5.137e-4 -0.001133,0 -0.001294,1.1415e-4 -7.2784e-4,5.137e-4 z"
         style="fill:#a3a3a3;stroke-width:0.00050967" />
      <path
         inkscape:connector-curvature="0"
         id="path3917"
         d="m 0.54891739,0.93153168 c 1.2843e-4,2.7182e-4 8.3994e-4,6.5248e-4 0.001581,8.4592e-4 0.001205,3.1452e-4 0.00128,2.6229e-4 7.0589e-4,-4.9422e-4 -6.7594e-4,-8.9104e-4 -0.002688,-0.0012 -0.002287,-3.517e-4 z"
         style="fill:#a3a3a3;stroke-width:0.00050967" />
      <path
         inkscape:connector-curvature="0"
         id="path3907"
         d="m 0.44360702,0.94673501 c -6.7768e-4,4.7809e-4 -4.5279e-4,9.9886e-4 4.3136e-4,9.9886e-4 4.5974e-4,0 0.001176,-2.8896e-4 0.001591,-6.4212e-4 6.2767e-4,-5.3355e-4 5.5473e-4,-6.4213e-4 -4.3137e-4,-6.4213e-4 -6.5271e-4,0 -0.001369,1.2843e-4 -0.001591,2.8539e-4 z"
         style="fill:#a3a3a3;stroke-width:0.00050967" />
    </g>
  </g>
</svg>
